<svg  viewBox="0 0 146 133" fill="none" xmlns="http://www.w3.org/2000/svg">
<g clip-path="url(#clip0_734_2298)">
<g clip-path="url(#clip1_734_2298)">
<path d="M63.7597 116.39C63.7597 116.39 34.9997 93.8 3.92969 100.9L7.02969 88.08C7.02969 88.08 9.98969 88.08 12.8897 89.09L11.6197 96.08C11.6197 96.08 39.7897 92.48 63.7597 116.39Z" fill="#2C3761"/>
<path d="M63.76 116.39C63.76 116.39 38.05 84.63 -1 84.63L20.89 19.31C20.89 19.31 22.67 19.6 27.76 21.54L9.17 76.9C9.17 76.9 48.19 87.99 63.76 116.39Z" fill="#6EABFB"/>
<path d="M63.7599 116.39C51.0199 79.22 15.6299 71.35 15.6299 71.35L33.8399 17C36.6799 17.86 39.2799 18.93 41.6599 20.13C45.8099 22.24 49.2699 24.76 52.1199 27.37L49.0799 35.54C49.0799 35.54 45.8099 28.81 37.8899 28.18L24.8999 65.75C24.8999 65.75 53.4599 72.03 63.7599 116.39Z" fill="#EDB83E"/>
<path d="M82.5703 116.39C82.5703 116.39 111.33 93.8 142.4 100.9L139.3 88.08C139.3 88.08 136.34 88.08 133.44 89.09L134.71 96.08C134.71 96.08 106.53 92.48 82.5703 116.39Z" fill="#2C3761"/>
<path d="M82.5703 116.39C82.5703 116.39 108.28 84.63 147.33 84.63L125.43 19.31C125.43 19.31 123.65 19.6 118.56 21.54L137.15 76.9C137.15 76.9 98.1303 87.99 82.5703 116.39Z" fill="#6EABFB"/>
<path d="M82.5703 116.39C95.3103 79.22 130.7 71.35 130.7 71.35L112.48 17C109.64 17.86 107.04 18.93 104.66 20.13C100.51 22.24 97.0503 24.76 94.2003 27.37L97.2403 35.54C97.2403 35.54 100.51 28.81 108.43 28.18L121.41 65.74C121.42 65.75 92.8703 72.03 82.5703 116.39Z" fill="#EDB83E"/>
<path d="M69.6798 85.24C54.1698 82.88 41.8698 70.59 39.5098 55.07C55.0298 57.43 67.3198 69.72 69.6798 85.24Z" fill="#EDB83E"/>
<path d="M69.0096 70.15C56.8896 63.41 50.4996 49.42 53.3396 35.85C65.4696 42.59 71.8496 56.58 69.0096 70.15Z" fill="#EDB83E"/>
<path d="M77.3093 70.15C89.4293 63.41 95.8194 49.42 92.9794 35.85C80.8594 42.59 74.4693 56.58 77.3093 70.15Z" fill="#EDB83E"/>
<path d="M72.9094 17C65.0094 28.4 65.4394 43.76 73.9794 54.7C81.8794 43.3 81.4394 27.93 72.9094 17Z" fill="#EDB83E"/>
<path d="M76.6396 85.24C78.9996 69.72 91.2896 57.43 106.81 55.07C104.45 70.58 92.1596 82.88 76.6396 85.24Z" fill="#EDB83E"/>
</g>
</g>
</svg>
