<svg id="Capa_1"  data-name="Capa 1" xmlns="http://www.w3.org/2000/svg" viewBox="0 0 292.58 206.27"><defs><style>.cls-1{fill:#c49a6c;}.cls-2{fill:#b0875a;}.cls-3{fill:#6e6f72;}.cls-4{fill:#57595e;}.cls-5{fill:#fff;}.cls-6{fill:#e7e8e9;}.cls-7{fill:#bdbec0;}.cls-8{fill:#a2a7ac;}.cls-9{fill:#939599;}.cls-10{fill:#7b7e85;}.cls-11{fill:#808386;}.cls-12{fill:#686c72;}.cls-13{fill:#e94847;}.cls-14{fill:#d9a37d;}.cls-15{fill:#eab38b;}.cls-16{fill:#24b7ea;}.cls-17{fill:#414142;}.cls-18{fill:#f2c4a5;}.cls-19{fill:#595a5c;}.cls-20{fill:#fac69b;}.cls-21{fill:#f8dfcd;}</style></defs><g id="_13" data-name="13"><path class="cls-1" d="M86.53,16.6C78.1,16.6,71.27,23,71.27,30.91V179.6c0,7.91,6.83,14.32,15.26,14.32h58V16.6Z"/><path class="cls-2" d="M204.19,16.6H144.53V193.92h59.66c8.43,0,15.27-6.41,15.27-14.32V30.91C219.46,23,212.62,16.6,204.19,16.6Z"/><rect class="cls-3" x="82.75" y="21.81" width="61.78" height="161.82"/><rect class="cls-4" x="144.53" y="21.81" width="63.44" height="161.82"/><rect class="cls-5" x="85.41" y="24.98" width="59.11" height="155.67"/><rect class="cls-6" x="144.53" y="24.98" width="60.78" height="155.67"/><path class="cls-7" d="M123,14.13v4.61a6.13,6.13,0,0,0,6.33,5.93h15.18V14.13Z"/><path class="cls-8" d="M144.53,14.13V24.67h16.84a6.13,6.13,0,0,0,6.33-5.93V14.13Z"/><path class="cls-9" d="M117.46,18.74a5.8,5.8,0,0,0-6,5.6V25a5.8,5.8,0,0,0,6,5.6h27.07V18.74Z"/><path class="cls-10" d="M173.26,18.74H144.53V30.6h28.73a5.79,5.79,0,0,0,6-5.6v-.66A5.8,5.8,0,0,0,173.26,18.74Z"/><path class="cls-11" d="M101.3,67.16h19.81V48.59H101.3ZM102.77,50h16.87V65.78H102.77Z"/><rect class="cls-11" x="128.54" y="55.91" width="15.99" height="3.1"/><rect class="cls-12" x="144.53" y="55.91" width="44.89" height="3.1"/><path class="cls-11" d="M101.3,113.49h19.81V94.92H101.3Zm1.47-17.19h16.87v15.81H102.77Z"/><rect class="cls-11" x="128.54" y="102.24" width="15.99" height="3.09"/><rect class="cls-12" x="144.53" y="102.24" width="44.89" height="3.09"/><path class="cls-11" d="M101.3,159.81h19.81V141.25H101.3Zm1.47-17.19h16.87v15.82H102.77Z"/><rect class="cls-11" x="128.54" y="148.56" width="15.99" height="3.09"/><rect class="cls-12" x="144.53" y="148.56" width="44.89" height="3.09"/><path class="cls-11" d="M141.73,6.87a3.45,3.45,0,0,1,2.8-3.31V.08A7,7,0,0,0,138,6.87h-8.68A6.14,6.14,0,0,0,123,12.8v1.33h21.51v-4A3.45,3.45,0,0,1,141.73,6.87Z"/><path class="cls-12" d="M167.7,12.8a6.14,6.14,0,0,0-6.33-5.93h-8.68A7.11,7.11,0,0,0,145.36,0a7.53,7.53,0,0,0-.83.08V3.56a3.77,3.77,0,0,1,.83-.1A3.53,3.53,0,0,1,149,6.87a3.53,3.53,0,0,1-3.64,3.41,3.77,3.77,0,0,1-.83-.1v4H167.7Z"/><polygon class="cls-13" points="111.38 111.21 100.32 92.02 102.65 90.84 111.39 106.02 124.64 83.38 126.96 84.57 111.38 111.21"/><path class="cls-14" d="M168.48,56.89s-17.9-4-34.09,12.13c3.35-.3,8.26-.67,14.25-.91,8.83-.34,10.19,0,11.42.57C167.34,72,168.62,84.11,171,81.55c.72-.77,6.89-10.39,6.89-10.39Z"/><path class="cls-15" d="M188.08,60.43l-12.55-8.14a3.64,3.64,0,0,0-2.34-1.07l-21.14-1.36a3.65,3.65,0,0,0-2.33.66S133.51,64,131.6,67.11c-1,1.6-.58,4.3,1.34,5.09s4.51-1.38,6.19-2.2a39.31,39.31,0,0,0,5-3.22l7.71-5.38a3.61,3.61,0,0,1,3.44-.38l8,3.31a3.62,3.62,0,0,1,2.22,3.18l.12,3.11a3.59,3.59,0,0,1-1.24,2.87,3.44,3.44,0,0,1-1.19.69l-2.65.91a3.57,3.57,0,0,1-2.07.08l-2.71-.69c-3.12-.8-6.28-1.45-9.43-2.09-2.31-.48-4.51-1.43-6.91-1.46a3.31,3.31,0,0,0-3.13,1.32A6.69,6.69,0,0,0,135,75.74a4.94,4.94,0,0,0,.35,2.2c.25.58.67.43,1.2.78a48.41,48.41,0,0,0,4.86,1.91c11.56,4,24.68,11.21,24.68,11.21a3.51,3.51,0,0,0,1.38.38l13.79,2.23c1.61.1,12.46,2.92,13,1.4l4-25.78C198.65,68.77,189,61.41,188.08,60.43Z"/><path class="cls-15" d="M175.53,52.29a3.64,3.64,0,0,0-2.34-1.07l-21.14-1.36a3.65,3.65,0,0,0-2.33.66S133.51,64,131.6,67.11c-1,1.6-.58,4.3,1.34,5.09s4.51-1.38,6.19-2.2a39.31,39.31,0,0,0,5-3.22l7.71-5.38a3.61,3.61,0,0,1,3.44-.38l8,3.31a3.62,3.62,0,0,1,2.22,3.18l.12,3.11a3.59,3.59,0,0,1-1.24,2.87L188.33,89.2l9.87-19.13c.45-1.3-9.16-8.66-10.12-9.64Z"/><path class="cls-16" d="M127.53,91.07l5-5.55-4.22-2.77-3.11,6.79Z"/><polygon class="cls-13" points="161.82 27.86 166.05 21.41 171.71 29.75 168.65 34.4 161.82 27.86"/><path class="cls-17" d="M156.56,53.22l-8.15-5.35-1.51,2.45,8,5.26Z"/><path class="cls-17" d="M145.09,53.33c-5.14,8.58-9.91,17.13-17.15,29.53l4.63,3c8.51-11.57,14.46-19.34,20.29-27.46Z"/><path class="cls-13" d="M161.81,29.46a3.18,3.18,0,0,0-3.32-.44c-2.36.82-4.93,3.56-7.66,8.16-5.61,9.11-13.21,20.12-13.29,20.23s4.8.57,6.19-5.11c2.08-3.15,11.42-16.3,11.52-16.43a3.79,3.79,0,0,1,1.5-1.23c.41-.14,1-.2,1.67.88.52.9,1,.95,1.37.83,1.36-.47,2-5.15,2.13-6.58l0-.18Z"/><path class="cls-13" d="M154.9,55.58l-8-5.26-1.81,3,7.77,5.11Z"/><path class="cls-17" d="M170.15,32.58,162,27.2c-5.6,8.15-9.8,14.61-13.54,20.67l8.15,5.35C160.63,47.39,164.89,41,170.15,32.58Z"/><path class="cls-17" d="M125.2,89.54a10,10,0,0,0-.66,1.63,9.28,9.28,0,0,0-.39,2.51,12.25,12.25,0,0,0,1.91-1.23,13.5,13.5,0,0,0,1.47-1.38Z"/><path class="cls-15" d="M163.22,74.18l-2.65.91a3.57,3.57,0,0,1-2.07.08l-2.71-.69c-3.12-.8-6.28-1.45-9.43-2.09-2.31-.48-4.51-1.43-6.91-1.46a3.31,3.31,0,0,0-3.13,1.32A6.69,6.69,0,0,0,135,75.74a4.94,4.94,0,0,0,.35,2.2c.25.58.67.43,1.2.78a48.41,48.41,0,0,0,4.86,1.91c11.56,4,24.68,11.21,24.68,11.21a3.51,3.51,0,0,0,1.38.38l13.27.82c1.61.09,5.28,1.17,5.81-.36l1.8-3.48L164.41,73.49A3.44,3.44,0,0,1,163.22,74.18Z"/><path class="cls-18" d="M142,74a7.45,7.45,0,0,1-1.54,5.21l-5.17-1.31a4.94,4.94,0,0,1-.35-2.2,5.76,5.76,0,0,1,1.57-3.5l.06-.07Z"/><polygon class="cls-6" points="187.2 102.12 201.33 106.89 214.33 69.61 199.02 65.94 187.2 102.12"/><polygon class="cls-19" points="230.1 71.92 205.14 66 195.27 106.89 227.63 118.17 230.1 71.92"/><path class="cls-20" d="M77.1,170.69c.15.15.79.2,1,.25l1.92.48c1.94.48,1.49,1.16,3.43,1.64,4.73,1.18,9.64,1.63,14.36,2.81l5.23,1.3c.31.08,1.66.62,1.92.44s.25-.74.32-.9.32-.84.64-1.59a28,28,0,0,1,1.75-3.58c.35-.49,8.24-8.44,8.69-9.72.53-1.55.81-3.26,1.21-4.86l1.68-6.71c.12-.5.3-1,.38-1.53a4.71,4.71,0,0,0-1.21-4.26,3,3,0,0,0-3-.63,4,4,0,0,0-1.49,2.06,16.42,16.42,0,0,0-1,3.33c-.31,1.46-.86,1.93-1.12,1.6s.19-1.69.3-2.15l7.72-30.87a27.37,27.37,0,0,0,.66-2.67,1.47,1.47,0,0,0-.22-1,1.88,1.88,0,0,0-.14-.24s0,0,0,0c-.12-.17-.26-.35-.39-.5a4.39,4.39,0,0,0-4.9-1.27,4.72,4.72,0,0,0-.56.24h0a2.58,2.58,0,0,0-.6.42,1.55,1.55,0,0,0-.44.73c-.14.49-.24,1-.37,1.47-.46,1.88-5.26,21.64-5.67,22.69-.31.83-1.22.54-1.09-.31a22.43,22.43,0,0,1,.63-2.54,40.32,40.32,0,0,0,1.26-5.72c-.28-2-3.25-3.17-5-2.53a3.51,3.51,0,0,0-2.15,2.58l-.82,3.26a19.13,19.13,0,0,1-.62,2.48c-.29.73-.77.62-1.24.15s.14-3.59.39-4.61a4.14,4.14,0,0,0-.41-3.56,3.85,3.85,0,0,0-4.66-1.22,3.18,3.18,0,0,0-1.82,2.58c-.29,1.13-1.08,5.5-2,5.31-.43-.07-.21-1.52-.14-1.93A3.33,3.33,0,0,0,87,127.8,3.89,3.89,0,0,0,83.32,129h0a.15.15,0,0,0-.07.07.11.11,0,0,0,0,0h0c-.44.86-3,11.77-4.13,16.27l-1.26,5a12.31,12.31,0,0,0,.72,6.7,54.49,54.49,0,0,1,.4,5.56c0,.2-.75,3.23-1.28,5.36-.22.89-.4,1.62-.48,1.92S77,170.53,77.1,170.69Z"/><rect class="cls-5" x="74.14" y="171.47" width="33.58" height="6.56" transform="translate(136.78 366.35) rotate(-165.97)"/><polygon class="cls-19" points="104.42 205.88 110.41 181.83 69.59 171.63 62.16 205.88 104.42 205.88"/><path class="cls-21" d="M115.42,118.84c1.55.64,3.37-.59,4-2.73l.55-1.79c0-.15.09-.31.12-.46-.12-.17-.26-.35-.39-.5a4.39,4.39,0,0,0-4.9-1.27,4.72,4.72,0,0,0-.56.24h0l-.43,1.43C113.14,115.92,113.87,118.2,115.42,118.84Z"/></g></svg>