 <svg   viewBox="0 0 175 128" fill="none" xmlns="http://www.w3.org/2000/svg">
<path d="M70.9149 94.7012C70.9149 94.7012 72.0813 105.411 73.3862 106.27C75.7191 107.812 102.723 111.377 102.723 111.377L101.839 118.415C101.839 118.415 64.8537 121.745 63.2825 119.893C60.5555 116.681 55.762 101.185 55.762 101.185L70.9149 94.7012Z" fill="#E06A58"/>
<path d="M53.0829 67.1291L56.0709 59.9413C56.0709 59.9413 64.1773 63.7567 66.851 68.4685C69.7112 73.5059 73.2105 100.288 73.2105 100.288C73.2105 100.288 58.8991 103.591 56.2679 102.188C53.6368 100.784 53.0829 67.1291 53.0829 67.1291Z" fill="#F2AE30"/>
<path d="M30.3242 33.7674C28.231 32.999 26.0154 32.3266 23.773 32.4974C21.5307 32.6681 19.2405 33.8581 18.4788 35.8325C17.9356 37.2305 18.1859 38.8794 17.3284 40.1388C16.5082 41.3447 14.8784 41.8463 13.3551 41.9477C11.8265 42.0544 10.2872 41.8517 8.76924 42.0491C4.08222 42.6734 0.737389 47.7748 2.27665 51.9531C2.88916 53.618 4.14613 55.2081 3.85852 56.9424C3.55493 58.7994 1.61088 60.0214 0.811956 61.745C-0.247951 64.0395 1.01968 66.8197 3.11286 68.3832C5.20604 69.9413 7.92771 70.5336 10.5695 70.9285C14.2073 71.4728 17.9622 71.7289 21.5574 70.9605C25.1525 70.1921 28.5879 68.2924 30.4467 65.3255C31.2723 64.0128 31.7729 62.5294 32.7317 61.2967C34.713 58.7514 38.2229 57.7642 40.9872 55.9605C44.0071 53.9808 46.2228 50.1281 44.4439 47.1131C42.7289 44.2156 38.2655 43.5699 36.4759 40.7151C35.7356 39.5358 35.5598 38.1324 35.0805 36.8463C34.5905 35.555 33.4187 34.904 30.3242 33.7674Z" fill="#0A2240"/>
<path d="M42.5212 69.3116C43.0485 69.92 43.6716 70.587 44.5345 70.6457C45.4452 70.7097 46.2069 70.064 46.7927 69.4397C49.818 66.2327 51.8153 62.2946 52.6249 58.2337C51.8739 57.8068 51.1495 57.3959 50.4944 57.0117C49.8872 56.6489 49.4292 56.1419 49.1682 55.5496C48.9871 55.1121 48.9232 54.6531 48.9711 54.1729C49.3972 50.1601 49.7754 47.9242 51.1815 43.8527C44.5025 42.3426 38.2016 40.5496 34.5798 37.5187C34.1378 39.3863 33.6158 43.0416 32.5026 46.6649C31.3149 50.5016 29.4614 54.2956 26.319 55.9285C32.4867 59.5784 37.9886 64.1142 42.5212 69.3116Z" fill="#F9A07B"/>
<path d="M48.9712 54.1782C48.9233 54.6585 48.9872 55.1227 49.1683 55.5549C45.2162 60.3575 36.3801 54.0821 32.5027 46.6702C33.6159 43.0469 34.1378 39.3916 34.5799 37.524C38.1964 40.5549 44.5025 42.3532 51.1816 43.858C49.7754 47.9295 49.3973 50.1601 48.9712 54.1782Z" fill="#E06A58"/>
<path d="M59.975 112.236C59.1015 118.031 65.3438 124.269 65.4982 127.364C52.2414 127.364 24.4708 128.175 10.3299 126.249C9.68539 122.673 16.668 114.632 16.668 106.692C16.668 105.64 16.6254 104.488 16.5402 103.25C16.3165 99.7065 15.7945 95.4909 15.2139 91.1686C13.6374 79.5731 11.5389 67.1718 13.0888 64.5998C16.1247 59.5891 23.2245 56.1846 26.7451 54.7225C27.9541 54.2209 28.7424 53.9488 28.801 53.9167C33.2164 61.4621 42.2016 67.8975 45.5944 67.6094C46.5371 67.5347 49.3333 66.5582 51.1815 57.2359C51.9006 57.6467 52.6196 58.0256 53.3333 58.3938C56.8432 60.2241 60.1348 61.7343 61.0829 64.0875C63.5862 70.2828 66.0415 85.9018 65.4982 91.4568C64.9497 97.0598 62.702 101.339 61.1255 106.964C60.758 108.282 60.4224 109.68 60.1508 111.185C60.0815 111.521 60.0283 111.873 59.975 112.236Z" fill="#FFC73C"/>
<path d="M65.4983 127.364C52.2414 127.364 24.4708 128.175 10.3299 126.249C9.68539 122.673 16.668 114.632 16.668 106.692C16.668 105.64 16.6254 104.488 16.5402 103.25C16.3165 99.7065 15.7945 95.4909 15.214 91.1686C17.7226 93.8207 21.3817 82.6147 23.0008 85.8965C31.7623 103.613 38.6704 108.271 50.6756 108.271C54.2547 108.271 57.557 107.775 61.1255 106.964C60.758 108.282 60.4224 109.68 60.1508 111.185C60.0869 111.526 60.0283 111.878 59.975 112.241C59.1016 118.026 65.3438 124.264 65.4983 127.364Z" fill="#FFBB33"/>
<path d="M53.3333 58.3938C52.7634 62.54 51.075 68.127 46.1643 69.5998C39.5279 71.5902 29.9248 59.1675 26.7451 54.7225C27.9542 54.2209 28.7424 53.9488 28.801 53.9167C33.2164 61.4621 42.2016 67.8975 45.5944 67.6094C46.5371 67.5347 49.3334 66.5582 51.1816 57.2359C51.9006 57.6414 52.6196 58.0203 53.3333 58.3938Z" fill="#FCE172"/>
<path d="M56.0603 121.126L56.0123 125.747L138.568 126.243L138.738 120.998L56.0603 121.126Z" fill="#325F73"/>
<path d="M174.349 79.8506L172.511 77.983L112.379 77.5881L82.2117 121.297L83.7882 122.567L174.349 79.8506Z" fill="#325F73"/>
<path d="M113.54 79.205L83.7882 122.567L140.618 122.85L174.349 79.8506L113.54 79.205Z" fill="#0B2D50"/>
<path d="M127.9 106.884C131.553 106.884 134.515 105.4 134.515 103.57C134.515 101.74 131.553 100.256 127.9 100.256C124.246 100.256 121.284 101.74 121.284 103.57C121.284 105.4 124.246 106.884 127.9 106.884Z" fill="#3C738C"/>
<path d="M69.295 38.6365C70.2321 33.5981 68.3029 29.0117 64.986 28.3924C61.669 27.7731 58.2204 31.3555 57.2833 36.3939C56.3461 41.4323 58.2753 46.0187 61.5923 46.638C64.9092 47.2572 68.3579 43.6748 69.295 38.6365Z" fill="#56C4F9"/>
<path d="M69.3012 22.8282C68.6834 27.2145 66.7287 32.0491 63.8792 37.3906C62.8778 33.0149 62.2387 27.6841 61.3546 22.3533C60.4544 17.0117 59.3093 11.6702 57.3227 7.30524C56.8753 6.33939 56.3906 5.41623 55.8633 4.56244C57.0404 4.45038 58.2334 4.56244 59.3679 4.87728C61.1415 5.3522 62.8033 6.27002 64.1614 7.49734C66.4197 9.50908 67.9324 12.2519 68.8325 15.1441C69.5728 17.5454 69.706 20.0961 69.3012 22.8282Z" fill="#0B2D50"/>
<path d="M65.9563 27.3639C65.9244 28.2284 65.8658 29.1089 65.7859 29.984C64.5715 44.1782 58.6222 53.9168 49.5198 53.9168C36.6678 53.9168 28.3376 39.4771 28.3376 25.3309C28.3376 11.3768 36.8702 1.27537 46.8567 2.444C52.6143 3.10568 56.822 5.02137 59.81 7.8282C61.786 9.69586 63.2134 11.9531 64.1881 14.5198C65.3012 17.396 65.8392 20.651 65.951 24.1569C65.951 24.1676 65.9617 24.1783 65.9617 24.1889C66.0043 25.2241 65.9936 26.2807 65.9563 27.3639Z" fill="#F9A07B"/>
<path d="M65.9563 27.3639C65.5728 25.9925 65.0029 24.6532 64.2253 23.4525C56.6462 27.4226 47.613 28.9541 39.0485 27.5027C37.4187 28.8634 35.8262 30.2028 34.223 31.5422C34.255 25.0854 34.3455 20.7151 36.8595 17.5881C39.219 14.6532 43.155 13.5486 46.8833 13.0683C51.0803 12.5187 55.3466 12.54 59.5329 13.1484C61.1361 13.3725 62.7979 13.7193 64.1933 14.5304C65.3065 17.4066 65.8445 20.6617 65.9563 24.1676C65.9563 24.1782 65.967 24.1889 65.967 24.1996C66.0042 25.2241 65.9936 26.2807 65.9563 27.3639Z" fill="#E06A58"/>
<path d="M67.8098 18.6233C66.0469 20.1174 63.8365 21.3554 61.3545 22.3586C54.292 25.2134 45.115 26.1579 37.962 25.8111C34.4467 33.5486 33.0246 36.3234 32.1245 43.0736C28.6892 39.8452 25.8929 33.9328 25.062 29.2849C24.2418 24.6531 24.3217 19.7919 25.6106 15.2401C27.6399 8.06296 32.7583 4.22091 36.3056 2.35325C37.1897 1.86766 37.9886 1.53148 38.6065 1.28601C43.139 -0.469589 48.2468 -0.309504 52.8966 1.11526C55.4318 1.90501 57.5676 3.23906 59.3625 4.8826C62.9897 8.16435 65.232 12.6094 66.6807 15.9392C67.1387 16.9584 67.5062 17.8815 67.8098 18.6233Z" fill="#0B2D50"/>
<path d="M69.3011 22.8282C69.0081 21.2754 68.5714 19.7706 67.9536 18.3191C67.6074 17.4974 67.1813 16.7023 66.6859 15.9339C65.0721 13.3938 62.7233 11.302 59.8844 10.3789C59.0749 9.24228 58.2227 8.21774 57.3279 7.31059C54.1055 4.02884 50.324 2.1505 46.3187 1.49415C42.9845 0.955197 39.5172 1.25936 36.3162 2.34794C37.2003 1.86235 37.9992 1.52617 38.6171 1.2807C43.1496 -0.474899 48.2574 -0.314814 52.9072 1.10995C55.4424 1.8997 57.5782 3.23375 59.3731 4.87729C61.1467 5.35221 62.8085 6.27003 64.1667 7.49735C66.425 9.50909 67.9376 12.2519 68.8377 15.1441C69.5727 17.5454 69.7059 20.0961 69.3011 22.8282Z" fill="#225570"/>
<path d="M42.0579 31.5315C44.4333 30.1708 46.8993 29.5571 50.356 30.8218" stroke="#0B2D50" stroke-width="2" stroke-miterlimit="10" stroke-linecap="round"/>
<path d="M58.324 31.4355C60.3586 29.9147 63.3732 29.7599 64.9444 31.4355" stroke="#0B2D50" stroke-width="2" stroke-miterlimit="10" stroke-linecap="round"/>
<path d="M55.8686 39.1943C56.0763 40.2722 55.9645 42.6575 55.4531 43.73" stroke="#CC454E" stroke-width="2" stroke-miterlimit="10" stroke-linecap="round"/>
<path d="M47.8421 39.92C48.3833 39.92 48.8221 39.2272 48.8221 38.3725C48.8221 37.5178 48.3833 36.825 47.8421 36.825C47.3008 36.825 46.8621 37.5178 46.8621 38.3725C46.8621 39.2272 47.3008 39.92 47.8421 39.92Z" fill="#262D40"/>
<path d="M60.6515 39.1996C61.1928 39.1996 61.6315 38.5068 61.6315 37.6521C61.6315 36.7974 61.1928 36.1046 60.6515 36.1046C60.1103 36.1046 59.6715 36.7974 59.6715 37.6521C59.6715 38.5068 60.1103 39.1996 60.6515 39.1996Z" fill="#262D40"/>
<path d="M54.6542 45.8378C54.6542 45.8378 54.4625 46.2113 54.095 46.7183C53.5198 47.492 52.5397 48.5593 51.2029 48.9755H51.1975C50.633 49.1569 50.0205 49.2209 49.3387 49.0982C47.3361 48.7407 46.8088 46.889 46.7129 45.4643C46.6916 45.1868 46.6916 44.9307 46.6969 44.6959C46.7076 44.1196 46.7715 43.7354 46.7715 43.7354C49.9619 45.4963 54.6542 45.8378 54.6542 45.8378Z" fill="#CC454E"/>
<path d="M54.6534 45.8378C54.6534 45.8378 54.4617 46.2113 54.0942 46.7183C52.4644 46.6969 49.1302 45.8592 46.6962 44.6959C46.7068 44.1196 46.7707 43.7354 46.7707 43.7354C49.9611 45.4963 54.6534 45.8378 54.6534 45.8378Z" fill="white"/>
<path d="M51.1975 48.9702C50.6329 49.1516 50.0204 49.2157 49.3387 49.0929C47.336 48.7354 46.8088 46.8837 46.7129 45.459C47.6823 45.5764 48.6197 45.9499 49.3973 46.5422C50.2122 47.1666 50.8353 48.015 51.1975 48.9702Z" fill="#E8729B"/>
<path d="M32.1565 29.0822C32.1565 29.0822 32.0447 22.428 34.809 15.8165C38.2763 7.51872 45.3441 3.97016 52.1989 3.73003C60.4598 3.43654 65.6315 8.99151 65.6315 8.99151C65.6315 8.99151 62.9418 4.23697 57.6369 2.87091C54.1536 1.97443 48.8967 1.83035 44.6783 3.5486C40.3322 5.31488 34.9155 10.2188 32.9554 15.4003C31.0007 20.5817 30.0474 28.65 30.0474 28.65L32.1565 29.0822Z" fill="#3D86E0"/>
<path d="M32.0176 46.4029C35.5548 46.0345 37.9705 41.3827 37.4133 36.0128C36.8561 30.6429 33.5369 26.5883 29.9998 26.9568C26.4626 27.3252 24.0469 31.977 24.6041 37.3469C25.1614 42.7169 28.4805 46.7714 32.0176 46.4029Z" fill="#56C4F9"/>
<path d="M30.3894 44.6785C32.6729 44.3348 34.0347 40.7934 33.431 36.7686C32.8273 32.7438 30.4868 29.7598 28.2034 30.1036C25.9199 30.4474 24.5581 33.9888 25.1617 38.0135C25.7654 42.0383 28.1059 45.0223 30.3894 44.6785Z" fill="#3D86E0"/>
<path d="M52.2521 54.1142C54.1464 54.1142 55.6821 53.1562 55.6821 51.9744C55.6821 50.7926 54.1464 49.8346 52.2521 49.8346C50.3577 49.8346 48.822 50.7926 48.822 51.9744C48.822 53.1562 50.3577 54.1142 52.2521 54.1142Z" fill="#3A92C9"/>
<path d="M35.022 44.8186C35.022 44.8186 40.0605 51.3074 48.8221 51.9744" stroke="#3A92C9" stroke-width="2" stroke-miterlimit="10" stroke-linecap="round"/>
<path d="M56.0124 108.771L55.6822 117.304C55.6822 117.304 24.881 126.551 19.7945 123.627C17.3125 122.197 14.9956 114.332 13.2646 106.653C11.4537 98.5845 10.2926 90.7296 10.2926 90.7296L28.3483 87.1864C28.3483 87.1864 28.359 98.2163 28.9715 104.593C29.1898 106.968 29.5041 108.697 29.9248 108.979C31.5174 110.031 56.0124 108.771 56.0124 108.771Z" fill="#F9A07B"/>
<path d="M28.9715 104.584C25.6905 105.651 19.3577 107.3 13.2646 106.649C11.4537 98.5806 10.2926 90.7257 10.2926 90.7257L28.3483 87.1825C28.3483 87.1772 28.3589 98.207 28.9715 104.584Z" fill="#E06A58"/>
<path d="M55.1336 108.858C59.7141 107.876 67.469 105.518 70.686 104.706C72.9709 104.13 78.9202 107.214 80.4914 110.123C81.1785 111.393 81.8283 118.586 79.4475 117.844C78.2544 117.471 78.4515 114.386 78.0787 113.127C77.7751 112.102 76.8057 111.11 75.3304 110.256C76.3157 112.716 76.2784 114.861 76.1719 117.519C76.1506 118.106 76.1133 118.719 75.831 119.226C75.5434 119.733 74.9256 120.096 74.393 119.872C73.8497 119.648 73.6633 118.97 73.5408 118.378C73.12 116.329 72.6939 114.28 72.5235 111.964C72.5661 114.242 72.5182 116.526 72.3743 118.799C72.2678 120.539 71.405 121.494 70.3451 121.19C69.8711 121.057 69.6793 120.619 69.4769 120.043C69.1573 121.158 68.3584 122.391 67.3251 121.921C66.6967 121.638 66.3079 119.365 66.4197 117.028C64.4384 118.26 62.2014 118.783 59.6235 118.901C57.312 119.007 54.9471 118.575 53.557 117.001C53.6955 114.541 54.5051 110.902 55.1336 108.858Z" fill="#F9A07B"/>
<path d="M69.5248 119.69C69.6793 117.844 69.5195 115.971 69.0508 114.189" stroke="#CC454E" stroke-miterlimit="10" stroke-linecap="round"/>
<path d="M26.319 69.2903C25.0088 65.5923 20.2099 58.0256 20.2099 58.0256C20.2099 58.0256 12.8864 61.0779 10.2873 66.2594C5.88785 75.032 8.12484 100.219 8.12484 100.219C14.0529 102.705 25.9515 102.743 31.0167 102.028C31.0167 102.028 28.9448 76.6809 26.319 69.2903Z" fill="#FFC73C"/>
<path d="M27.2511 70.8378C29.2484 80.4162 30.319 89.349 30.6598 98.1003" stroke="#F2AE30" stroke-miterlimit="10" stroke-linecap="round"/>
</svg>
