<svg   viewBox="0 0 105 108" fill="none" xmlns="http://www.w3.org/2000/svg">
<g clip-path="url(#clip0_1033_233)">
<path d="M92.3316 84.1492C99.5578 75.7354 103.926 64.7894 103.926 52.8215C103.926 26.2714 82.4307 4.74573 55.9117 4.74573C29.3926 4.74573 7.89954 26.2688 7.89954 52.8215C7.89954 64.7894 12.2681 75.7354 19.4943 84.1492H92.3316Z" fill="#FFEEDB"/>
<path d="M27.4654 100.635C32.8984 100.635 37.3027 99.6328 37.3027 98.397C37.3027 97.1613 32.8984 96.1595 27.4654 96.1595C22.0324 96.1595 17.6281 97.1613 17.6281 98.397C17.6281 99.6328 22.0324 100.635 27.4654 100.635Z" fill="#CFB091"/>
<path d="M89.9776 100.579C87.9285 100.579 85.9748 100.64 84.1935 100.749C85.4367 100.401 86.1418 100.006 86.1418 99.5835C86.1418 98.2352 78.9448 97.1417 70.0697 97.1417C61.1921 97.1417 53.9977 98.2352 53.9977 99.5835C53.9977 100.932 61.1947 102.025 70.0697 102.025C72.3468 102.025 74.5126 101.954 76.4768 101.824C75.5013 102.118 74.9526 102.447 74.9526 102.798C74.9526 104.021 81.6778 105.014 89.9749 105.014C98.2721 105.014 104.997 104.021 104.997 102.798C105 101.572 98.2747 100.579 89.9776 100.579Z" fill="#CFB091"/>
<path d="M46.6363 101.829C46.3394 101.829 46.0452 101.832 45.7509 101.834C46.3208 101.572 46.6363 101.288 46.6363 100.99C46.6363 99.6764 40.5499 98.6121 33.0428 98.6121C25.5356 98.6121 19.4492 99.6764 19.4492 100.99C19.4492 102.299 25.4878 103.36 32.9526 103.368C31.598 103.822 30.8187 104.35 30.8187 104.916C30.8187 106.62 37.8991 108.003 46.6363 108.003C55.3708 108.003 62.4539 106.622 62.4539 104.916C62.4539 103.212 55.3735 101.829 46.6363 101.829Z" fill="#CFB091"/>
<path d="M101.376 99.265C103.17 99.265 104.624 98.8586 104.624 98.3573C104.624 97.8559 103.17 97.4495 101.376 97.4495C99.5828 97.4495 98.129 97.8559 98.129 98.3573C98.129 98.8586 99.5828 99.265 101.376 99.265Z" fill="#CFB091"/>
<path d="M95.9633 96.7727C95.9633 96.9771 95.3112 97.1416 94.5053 97.1416C93.6995 97.1416 93.0474 96.9771 93.0474 96.7727C93.0474 96.5683 93.6995 96.4037 94.5053 96.4037C95.3112 96.4037 95.9633 96.5683 95.9633 96.7727Z" fill="#CFB091"/>
<path d="M49.8359 97.853C50.7216 97.853 51.4396 97.645 51.4396 97.3885C51.4396 97.132 50.7216 96.924 49.8359 96.924C48.9501 96.924 48.2321 97.132 48.2321 97.3885C48.2321 97.645 48.9501 97.853 49.8359 97.853Z" fill="#CFB091"/>
<path d="M57.1734 95.8092C57.1734 96.003 56.7201 96.1596 56.1635 96.1596C55.6041 96.1596 55.1535 96.003 55.1535 95.8092C55.1535 95.6155 55.6068 95.4589 56.1635 95.4589C56.7201 95.4589 57.1734 95.6155 57.1734 95.8092Z" fill="#CFB091"/>
<path d="M17.6255 95.9233C16.0721 91.4642 14.5001 86.968 12.0428 82.9362C9.58545 78.9045 6.14466 75.3213 1.77606 73.5403C3.26584 79.2097 4.73176 85.187 8.56753 89.6142C11.0302 92.4516 14.2748 94.2272 17.6255 95.9233Z" fill="#8DC63F"/>
<path d="M16.0695 92.2419C15.0833 90.3945 14.0681 88.5631 12.9865 86.7715C12.3874 85.7762 11.7671 84.7942 11.123 83.8307C9.73923 81.7604 8.16463 79.706 5.96973 78.5355C6.8392 80.8367 7.71133 83.1379 8.67624 85.402C9.43438 87.1776 10.2588 88.94 11.396 90.4954C12.3318 91.7747 13.4663 92.8895 14.6778 93.9061C15.2875 94.4157 15.9184 94.9014 16.5599 95.3738C16.5678 95.3792 16.5784 95.3871 16.5864 95.3951C16.931 95.5729 17.2756 95.7507 17.6228 95.9259C17.3684 95.196 17.1112 94.4635 16.8515 93.7309C16.5943 93.2319 16.3345 92.7356 16.0695 92.2419Z" fill="#7CB332"/>
<path d="M15.966 94.7847C13.6969 92.7356 11.4039 90.6707 8.75574 89.1471C6.10755 87.6236 3.03522 86.6602 0 87.0105C2.60843 89.7656 5.30169 92.7038 8.85647 94.0229C11.1389 94.8696 13.5352 94.867 15.966 94.7847Z" fill="#8DC63F"/>
<path d="M13.9355 93.1789C12.801 92.4384 11.6531 91.7138 10.4841 91.0316C9.83465 90.6547 9.17725 90.2884 8.51188 89.9407C7.08308 89.1976 5.54824 88.5207 3.93652 88.5393C5.14531 89.5745 6.35675 90.6123 7.6106 91.597C8.59406 92.3694 9.60933 93.1125 10.7412 93.6434C11.6717 94.0787 12.6631 94.3574 13.6678 94.5564C14.1741 94.6573 14.6831 94.7343 15.1947 94.8033C15.2026 94.8033 15.2106 94.8059 15.2159 94.8059C15.4677 94.8006 15.7195 94.7926 15.9714 94.7847C15.6002 94.4476 15.2265 94.1132 14.8527 93.7787C14.5426 93.577 14.2404 93.378 13.9355 93.1789Z" fill="#7CB332"/>
<path d="M14.6247 84.765C14.5134 81.7074 14.3994 78.6232 13.6492 75.6584C12.899 72.6937 11.4516 69.8165 9.08709 67.8763C8.92804 71.6692 8.69477 75.6505 10.2243 79.1248C11.2051 81.3544 12.8752 83.0743 14.6247 84.765Z" fill="#8DC63F"/>
<path d="M14.3649 82.1878C14.1051 80.8554 13.8268 79.5283 13.5007 78.2118C13.3205 77.4819 13.1243 76.7546 12.9096 76.0353C12.4483 74.4906 11.8652 72.9166 10.7306 71.77C10.8287 73.3599 10.9294 74.9524 11.0964 76.537C11.2263 77.7818 11.4013 79.0293 11.8095 80.2104C12.1461 81.1819 12.6339 82.0896 13.1906 82.9496C13.4716 83.3822 13.7685 83.8042 14.076 84.2183C14.0813 84.2236 14.0839 84.2316 14.0892 84.2369C14.2695 84.412 14.4497 84.5899 14.63 84.765C14.6114 84.2634 14.5929 83.7618 14.5717 83.2601C14.5001 82.9018 14.4338 82.5461 14.3649 82.1878Z" fill="#7CB332"/>
<path d="M68.2301 89.8531C70.0539 87.398 71.8936 84.9216 73.1607 82.1373C74.4278 79.3531 75.0985 76.2025 74.4649 73.2086C71.9678 76.0671 69.2984 79.0266 68.3203 82.6947C67.6947 85.0517 67.92 87.4378 68.2301 89.8531Z" fill="#8DC63F"/>
<path d="M69.6377 87.6793C70.2686 86.4796 70.881 85.2693 71.4482 84.0378C71.7637 83.3556 72.0632 82.6655 72.3469 81.9701C72.9539 80.4758 73.4814 78.8833 73.3118 77.2775C72.3946 78.5807 71.4774 79.8839 70.6159 81.2243C69.9399 82.2754 69.2958 83.3583 68.8743 84.5367C68.5297 85.5029 68.3441 86.5194 68.2407 87.5387C68.1877 88.0509 68.1586 88.5685 68.1374 89.0834C68.1374 89.0914 68.1374 89.0993 68.1347 89.1046C68.1639 89.3541 68.1957 89.6036 68.2275 89.8558C68.527 89.4524 68.8266 89.0489 69.1235 88.6455C69.2984 88.3217 69.4681 88.0032 69.6377 87.6793Z" fill="#7CB332"/>
<path d="M69.5635 83.6555C70.4886 81.1898 71.4217 78.7028 71.8061 76.0963C72.1931 73.4925 71.9969 70.7242 70.7616 68.3991C69.3779 71.3586 67.8722 74.4428 67.9358 77.7127C67.9783 79.8096 68.7338 81.7286 69.5635 83.6555Z" fill="#8DC63F"/>
<path d="M70.2129 81.5215C70.4488 80.3776 70.6688 79.2309 70.8438 78.0764C70.9419 77.4367 71.0267 76.7944 71.0956 76.1494C71.2414 74.7692 71.2997 73.3253 70.7775 72.038C70.3295 73.3359 69.8815 74.6312 69.4866 75.945C69.1764 76.9749 68.9007 78.0259 68.8345 79.1009C68.7788 79.9821 68.8663 80.8686 69.0227 81.7339C69.1022 82.1718 69.1976 82.6045 69.3037 83.0371C69.3063 83.0424 69.3063 83.0504 69.309 83.0557C69.3938 83.2547 69.4786 83.4538 69.5634 83.6529C69.7145 83.2494 69.8656 82.8433 70.0167 82.4372C70.083 82.132 70.1493 81.8268 70.2129 81.5215Z" fill="#7CB332"/>
<path d="M69.4045 31.633C67.4561 29.0504 64.8874 26.9403 61.9768 25.5336C61.4148 33.0211 61.1338 40.5564 61.2955 48.0625C63.3075 47.0115 65.285 45.8489 66.9604 44.3174C68.6384 42.786 70.0301 40.8617 70.5867 38.6587C71.2282 36.1425 70.7723 33.4484 69.4045 31.633Z" fill="#1C75BC"/>
<path d="M62.3585 25.7246C62.1518 25.9688 61.998 26.2661 61.9079 26.5713C61.9052 26.5766 61.9052 26.5846 61.9026 26.5899C61.8416 27.4366 61.7859 28.2859 61.7329 29.1353C61.7117 32.1027 61.6879 35.0728 61.6666 38.0402C61.656 39.5504 61.6507 41.1058 62.2074 42.5099C62.4778 43.1947 62.8781 43.8211 63.3261 44.4023C63.5779 44.7288 64.23 45.7905 64.7602 45.6551C65.2241 45.5357 65.3805 44.0626 65.5077 43.6379C65.7569 42.8178 66.0299 42.0082 66.3321 41.2067C66.4885 40.7899 66.6555 40.3626 66.6661 39.9167C66.6768 39.4814 66.5363 39.0594 66.3984 38.648C65.6058 36.2618 64.8371 33.8412 64.6038 31.3383C64.4712 29.913 64.5163 28.4797 64.5958 27.0491C63.8801 26.5607 63.1326 26.1201 62.3585 25.7246Z" fill="#155F99"/>
<path d="M24.1995 11.161C24.1995 11.161 21.6998 10.9592 19.4121 14.4761C25.3765 13.1145 28.592 14.2425 28.592 14.2425C28.592 14.2425 26.8981 10.999 24.1995 11.161Z" fill="#808285"/>
<path d="M39.7521 11.5644C38.7183 10.3461 37.8355 9.00044 37.1251 7.56982C38.1961 6.62492 38.3047 4.75104 37.8779 3.38943C37.4512 2.02782 36.3219 0.942241 34.9938 0.416706C33.6684 -0.108828 32.1707 -0.106174 30.7896 0.252145C29.1143 0.687436 27.5052 1.73585 26.8398 3.33634C26.1745 4.93684 26.7524 7.08144 28.3323 7.78746C27.5556 9.91083 26.5111 12.005 25.0532 13.7303C29.2256 13.7648 33.398 13.8019 37.5704 13.6798C38.2517 13.6612 38.9701 13.6241 39.5347 13.2419C40.0994 12.8623 40.1921 12.0846 39.7521 11.5644ZM34.8586 5.81007C34.0952 6.34622 33.0746 6.42585 32.2131 6.0808C31.7121 5.88174 31.2455 5.52607 31.0123 5.02177C30.7949 4.55197 30.8028 3.99724 30.9513 3.5009C31.1077 2.98068 31.439 2.52681 31.8526 2.20034C32.4225 1.74912 35.2934 0.984708 35.9508 3.33103C36.2106 4.2547 35.6221 5.27657 34.8586 5.81007Z" fill="#BCBEC0"/>
<path d="M28.5258 13.7541C29.0851 11.713 29.8008 9.71442 30.7233 7.81401C29.109 7.32298 27.9028 5.71983 27.871 4.03175C27.8472 2.72853 28.5284 1.45716 29.5702 0.687439C28.3747 1.24217 27.3408 2.13133 26.8398 3.33369C26.1745 4.93418 26.7524 7.07879 28.3323 7.78481C27.5556 9.90818 26.5111 12.0024 25.0532 13.7276C26.2116 13.7409 27.3673 13.7488 28.5258 13.7541Z" fill="#D1D3D4"/>
<path d="M8.84589 12.4907H62.6634L69.5423 91.0396L16.3769 97.4575L8.84589 12.4907Z" fill="#1C75BC"/>
<path d="M48.8497 20.6975C48.8497 20.6975 53.7061 18.8953 52.1315 12.4933H45.401L48.8497 20.6975Z" fill="#155F99"/>
<path d="M8.84587 12.4907L6.82593 13.9665L14.402 96.6771L16.3769 97.4575L8.84587 12.4907Z" fill="#519BD6"/>
<path d="M69.5423 91.0396L64.8026 36.8936L61.0119 15.8032L13.4159 14.861C13.4159 14.861 12.9017 76.8926 22.6064 96.7063L69.5423 91.0396Z" fill="#155F99"/>
<path d="M14.3543 16.3792C30.3548 16.0925 46.3527 15.8032 62.3532 15.5165C63.9543 39.1868 66.7271 62.7722 71.3157 86.047C55.3417 86.5354 39.2908 88.7702 23.5952 91.7748C19.2133 75.8442 14.3543 30.5129 14.3543 16.3792Z" fill="white"/>
<path d="M46.79 15.7979L48.8497 20.6976C48.8497 20.6976 52.0202 19.5244 52.4098 15.697C50.5383 15.7315 48.6642 15.7634 46.79 15.7979Z" fill="#E6E7E8"/>
<path d="M29.3608 11.7608C32.7512 11.6069 36.1416 11.4503 39.5294 11.2964C38.8667 10.4842 38.2676 9.62155 37.7401 8.71381C36.5817 8.8067 35.4418 9.05089 34.3338 9.41717C32.5895 9.99048 30.946 10.8372 29.3608 11.7608Z" fill="#808285"/>
<path d="M26.8212 20.6816L48.8498 20.6976C50.0108 18.184 49.5045 15.1609 48.5794 12.4323C48.2772 11.5379 47.4846 10.9062 46.5462 10.8186C39.3915 10.1577 32.0699 10.1099 24.1969 11.1663C26.6516 12.4562 27.0386 17.1409 26.8212 20.6816Z" fill="#BCBEC0"/>
<path d="M49.1732 14.5106L26.3918 14.5743C26.7337 15.8988 26.8663 17.4223 26.8716 18.8848L49.4197 18.7653C49.6318 17.3931 49.4966 15.9412 49.1732 14.5106Z" fill="#D1D3D4"/>
<path d="M36.8679 10.8504C35.5213 10.8796 34.1402 10.9699 32.9049 11.5113C32.6849 11.6069 32.4331 11.7873 32.4781 12.0236C32.5152 12.2306 32.7538 12.3235 32.9553 12.3766C36.0568 13.1941 39.3014 13.1543 42.4771 12.9207C43.1001 12.8756 46.3023 12.9658 46.1671 12.1138C45.9868 10.9752 43.2035 11.1132 42.4215 11.0415C40.5738 10.8743 38.7209 10.8106 36.8679 10.8504Z" fill="#D1D3D4"/>
<path d="M29.9996 12.6341C30.8502 12.6341 31.5398 12.3667 31.5398 12.0369C31.5398 11.7071 30.8502 11.4397 29.9996 11.4397C29.149 11.4397 28.4595 11.7071 28.4595 12.0369C28.4595 12.3667 29.149 12.6341 29.9996 12.6341Z" fill="#D1D3D4"/>
<path d="M60.3571 38.2499L51.6385 38.6931L49.9711 28.1081L58.6871 27.6649L60.3571 38.2499ZM52.5397 37.5837L59.1271 37.2492L57.7937 28.7743L51.2064 29.1087L52.5397 37.5837Z" fill="#BCBEC0"/>
<path d="M63.0186 56.71L54.2999 57.1134L52.6829 46.5231L61.4015 46.1196L63.0186 56.71ZM55.2039 56.0092L61.7939 55.704L60.4976 47.2238L53.9076 47.529L55.2039 56.0092Z" fill="#BCBEC0"/>
<path d="M57.7248 75.6584L55.9196 65.0972L64.6302 64.5399L66.4355 75.101L57.7248 75.6584ZM57.1628 66.082L58.6075 74.5383L65.1896 74.1189L63.7449 65.6626L57.1628 66.082Z" fill="#BCBEC0"/>
<path d="M19.4175 34.0722C19.0622 34.0722 18.768 33.7882 18.7547 33.4298C18.7441 33.0636 19.0304 32.7583 19.3962 32.745L46.8617 31.8665C47.2328 31.8559 47.535 32.1425 47.5456 32.5088C47.5562 32.8751 47.2699 33.1803 46.9041 33.1936L19.4387 34.0722C19.4334 34.0722 19.4254 34.0722 19.4175 34.0722Z" fill="#808285"/>
<path d="M19.9503 36.8565C19.5951 36.8565 19.3008 36.5725 19.2876 36.2141C19.277 35.8479 19.5633 35.5426 19.9291 35.5293L47.3945 34.6508C47.7683 34.6402 48.0652 34.9268 48.0784 35.2931C48.089 35.6594 47.8027 35.9646 47.4369 35.9779L19.9715 36.8565C19.9635 36.8565 19.9556 36.8565 19.9503 36.8565Z" fill="#808285"/>
<path d="M20.4804 39.6407C20.1252 39.6407 19.831 39.3567 19.8177 38.9984C19.8071 38.6321 20.0934 38.3269 20.4592 38.3136L34.1933 37.873C34.5644 37.8597 34.8666 38.149 34.8772 38.5153C34.8878 38.8816 34.6015 39.1868 34.2357 39.2001L20.5016 39.6407C20.4937 39.6407 20.4884 39.6407 20.4804 39.6407Z" fill="#808285"/>
<path d="M18.8078 31.3038C18.4526 31.3038 18.1583 31.0198 18.1451 30.6615C18.1345 30.2952 18.4208 29.99 18.7866 29.9767L32.5206 29.5361C32.8917 29.5255 33.1939 29.8122 33.2045 30.1784C33.2151 30.5447 32.9288 30.8499 32.563 30.8632L18.829 31.3038C18.8237 31.3038 18.8157 31.3038 18.8078 31.3038Z" fill="#8DC63F"/>
<path d="M23.1339 53.9894C22.7973 53.9894 22.5083 53.7319 22.4739 53.3869C22.4394 53.0232 22.7071 52.6994 23.0703 52.6649L50.4297 50.0797C50.7929 50.0425 51.1163 50.3133 51.1507 50.6769C51.1852 51.0405 50.9174 51.3643 50.5543 51.3989L23.1976 53.9867C23.1763 53.9867 23.1551 53.9894 23.1339 53.9894Z" fill="#808285"/>
<path d="M23.8364 56.7338C23.4998 56.7338 23.2108 56.4764 23.1764 56.1313C23.1419 55.7677 23.4097 55.4439 23.7728 55.4094L51.1322 52.8242C51.4954 52.7897 51.8188 53.0577 51.8532 53.4214C51.8877 53.785 51.62 54.1088 51.2568 54.1433L23.8974 56.7312C23.8789 56.7338 23.8577 56.7338 23.8364 56.7338Z" fill="#808285"/>
<path d="M24.5389 59.4783C24.2022 59.4783 23.9133 59.2208 23.8788 58.8784C23.8444 58.5121 24.1121 58.191 24.4753 58.1565L38.1536 56.8639C38.5168 56.832 38.8402 57.0974 38.8747 57.4611C38.9091 57.8273 38.6414 58.1485 38.2782 58.183L24.5999 59.4756C24.5813 59.4783 24.5601 59.4783 24.5389 59.4783Z" fill="#808285"/>
<path d="M22.352 51.2635C22.0153 51.2635 21.7264 51.006 21.6919 50.661C21.6574 50.2973 21.9252 49.9735 22.2883 49.939L35.9667 48.6464C36.3299 48.6119 36.6533 48.88 36.6877 49.2436C36.7222 49.6073 36.4544 49.9311 36.0913 49.9656L22.4129 51.2582C22.3944 51.2635 22.3732 51.2635 22.352 51.2635Z" fill="#8DC63F"/>
<path d="M26.3786 73.4049C26.0446 73.4049 25.7583 73.1528 25.7211 72.8157C25.6814 72.4521 25.9438 72.123 26.307 72.0831L53.6187 69.0494C53.9818 69.0069 54.3105 69.2723 54.3503 69.636C54.39 69.9996 54.1276 70.3287 53.7644 70.3685L26.4528 73.3996C26.4289 73.4023 26.4051 73.4049 26.3786 73.4049Z" fill="#808285"/>
<path d="M27.1261 76.1388C26.7921 76.1388 26.5058 75.8866 26.4687 75.5496C26.4289 75.1859 26.6914 74.8568 27.0545 74.817L54.3662 71.7832C54.7294 71.7407 55.0581 72.0062 55.0978 72.3698C55.1376 72.7334 54.8752 73.0625 54.512 73.1024L27.2003 76.1361C27.1765 76.1361 27.1526 76.1388 27.1261 76.1388Z" fill="#808285"/>
<path d="M27.8737 78.87C27.5397 78.87 27.2534 78.6178 27.2163 78.2807C27.1765 77.9171 27.4389 77.588 27.8021 77.5482L41.4593 76.0326C41.8224 75.9901 42.1511 76.2556 42.1909 76.6192C42.2307 76.9828 41.9682 77.3119 41.6051 77.3517L27.9479 78.8673C27.924 78.87 27.8975 78.87 27.8737 78.87Z" fill="#808285"/>
<path d="M25.5542 70.6924C25.2201 70.6924 24.9339 70.4402 24.8967 70.1031C24.857 69.7395 25.1194 69.4104 25.4826 69.3705L39.1397 67.855C39.5055 67.8125 39.8316 68.0779 39.8714 68.4416C39.9111 68.8052 39.6487 69.1343 39.2855 69.1741L25.6284 70.6897C25.6019 70.6897 25.578 70.6924 25.5542 70.6924Z" fill="#8DC63F"/>
<path d="M49.539 29.1751C51.4344 29.7989 53.1892 30.6403 54.626 32.1558C56.4869 29.7564 58.1649 27.5853 60.7918 25.7141C58.3027 28.7292 56.3729 32.0576 55.074 35.5665C53.8493 33.2042 51.9168 30.919 49.539 29.1751Z" fill="#39B54A"/>
<path d="M52.2243 48.4872C54.1197 49.111 55.8745 49.9523 57.3113 51.4679C59.1722 49.0685 60.8502 46.8973 63.4771 45.0261C60.988 48.0413 59.0582 51.3697 57.7593 54.8786C56.5346 52.5163 54.5995 50.231 52.2243 48.4872Z" fill="#39B54A"/>
<path d="M55.5511 66.5385C57.4465 67.1622 59.2014 68.0036 60.6381 69.5192C62.499 67.1198 64.177 64.9486 66.804 63.0774C64.3148 66.0926 62.385 69.421 61.0861 72.9298C59.8614 70.5676 57.929 68.2797 55.5511 66.5385Z" fill="#39B54A"/>
<path d="M71.7213 94.7927C69.9532 95.6526 68.1877 96.5099 66.4196 97.3699C66.2128 97.4708 65.9716 97.6274 65.9901 97.8556C66.0114 98.1343 66.3772 98.2192 66.6555 98.2299C69.1526 98.3201 71.6524 98.4077 74.1495 98.4979V95.4536C73.3781 95.3155 72.4476 95.0899 71.7213 94.7927Z" fill="white"/>
<path d="M89.5057 99.6977C88.9968 100.693 86.664 101.654 85.1398 102.394C84.9595 102.482 84.7528 102.615 84.7687 102.814C84.7872 103.055 85.1027 103.127 85.3439 103.138C86.9 103.193 89.3838 103.249 91.4541 103.305C92.4217 103.331 93.0685 102.317 92.6417 101.447L91.4488 98.8536C90.7808 98.7395 90.1313 99.9578 89.5057 99.6977Z" fill="white"/>
<path d="M88.8934 53.2993C86.0809 54.2655 83.3638 54.223 80.7792 54.576C80.3233 55.213 78.579 57.7876 78.123 58.4246C80.5539 58.7298 82.9847 59.0351 85.4155 59.3403C85.8105 59.3907 86.2134 59.4385 86.6005 59.3509C87.1757 59.2209 87.6449 58.7989 88.0107 58.3344C89.0923 56.9621 89.3838 54.9794 88.8934 53.2993Z" fill="#092942"/>
<path d="M75.899 49.5038C76.8453 48.0546 78.1495 47.0513 79.467 47.2477C79.3583 47.2318 78.3404 49.6099 78.184 49.8807C77.6936 50.7274 77.1555 51.5104 76.5776 52.2137C76.0103 52.9065 75.4059 53.5223 74.7724 54.0558C74.5841 54.2124 74.0778 54.8069 73.9161 54.3318C73.8127 54.0319 74.2448 53.1135 74.3429 52.8348C74.7724 51.6298 75.2681 50.4726 75.899 49.5038Z" fill="#092942"/>
<path d="M103.804 35.9009L74.1945 62.1458L69.4972 56.8321L99.1098 30.5872C100.576 29.2893 102.816 29.4247 104.112 30.8924C105.406 32.3602 105.27 34.603 103.804 35.9009Z" fill="#FBB040"/>
<path d="M69.4945 56.8321L62.1597 68.0727L74.1945 62.1458L69.4945 56.8321Z" fill="#F98C6E"/>
<path d="M97.9955 34.4086L70.9009 58.4219L72.7897 60.5584L99.8843 36.5451L97.9955 34.4086Z" fill="#9C681C"/>
<path d="M64.792 64.0409L62.1597 68.0726L66.4752 65.9466L64.792 64.0409Z" fill="#39B54A"/>
<path d="M99.1071 30.5872L96.0958 33.2573L100.793 38.5711L103.804 35.9009C105.27 34.603 105.406 32.3602 104.109 30.8924C102.813 29.4247 100.573 29.2893 99.1071 30.5872Z" fill="#F98C6E"/>
<path d="M96.5887 32.8146L94.4552 34.706L99.1541 40.0198L101.288 38.1284L96.5887 32.8146Z" fill="white"/>
<path opacity="0.25" d="M103.804 35.901C104.995 34.8446 105.307 33.1671 104.687 31.7869C104.544 31.4684 104.351 31.1658 104.107 30.8925L62.1597 68.0727L74.1945 62.1458L103.804 35.901Z" fill="#231F20"/>
<path d="M87.173 51.1361C87.8543 52.357 87.91 55.7013 87.5945 57.063C88.639 57.2381 89.8186 55.5792 90.863 55.7544C90.468 54.5149 90.354 53.1851 90.5343 51.8952C90.5926 51.4679 90.6722 50.9901 90.4124 50.6451C90.0863 50.2098 89.4156 50.2549 88.9093 50.454C88.4057 50.6557 87.7138 51.1786 87.173 51.1361Z" fill="#E67A5C"/>
<path d="M82.6825 70.2651C82.6825 70.2651 76.1402 76.3671 74.7247 81.2323C73.3118 86.0975 71.313 94.3255 71.313 94.3255L74.9606 95.0422L78.701 83.4433L84.6203 77.251C84.6229 77.251 84.8986 71.1516 82.6825 70.2651Z" fill="#092942"/>
<path d="M82.6825 70.2651C82.6825 70.2651 80.1801 72.5981 77.9375 75.531C78.2927 77.3996 78.7195 79.2576 79.1383 81.0757C79.255 81.588 79.3769 82.0976 79.5015 82.6072L84.6203 77.251C84.6229 77.251 84.8986 71.1516 82.6825 70.2651Z" fill="#051D2E"/>
<path d="M89.5217 71.6002C89.1903 72.4867 86.7091 73.6041 85.7628 73.7872C84.949 73.9438 84.098 73.5749 83.5228 72.9963C82.9476 72.4176 82.3803 71.6904 82.3697 70.8835C82.2053 58.9103 84.4241 56.3915 86.4414 54.3955C88.2042 52.6517 90.582 52.9676 91.9233 55.014C93.4078 57.278 92.6232 60.333 92.0267 62.759C91.2235 66.0475 90.863 68.0276 89.5217 71.6002Z" fill="#0E4066"/>
<path d="M87.0378 67.1809C89.3441 63.9746 90.6244 60.0437 90.6483 56.0916C89.8742 58.1884 88.6284 59.9003 87.0909 61.5221C86.8549 61.7716 86.6084 62.0158 86.3142 62.1909C85.4765 62.6952 84.4135 62.5758 83.4645 62.3449C83.2551 62.2944 83.0457 62.2387 82.8336 62.1856C82.664 63.2924 82.5341 64.5691 82.4545 66.0502C83.939 66.5598 85.4685 66.9207 87.0378 67.1809Z" fill="#092942"/>
<path d="M88.2466 78.3312C89.124 75.6319 89.7602 74.1562 89.6622 71.2232C85.1266 72.6061 82.3644 70.2651 82.3644 70.2651C81.6539 76.7493 81.4869 80.2263 82.3617 86.6947C82.876 90.4928 86.7038 96.003 88.8643 99.2677C89.7947 99.0341 90.2215 98.8457 91.1493 98.6121C90.3487 95.5969 88.8802 90.1558 87.287 87.4246C87.6634 84.0351 87.173 81.6304 88.2466 78.3312Z" fill="#092942"/>
<path d="M78.7911 47.6326C79.528 47.0248 80.917 46.6983 81.7945 47.0752C82.0198 47.1734 82.2504 47.3486 82.261 47.5928C82.2743 47.9086 81.9297 48.1024 81.6328 48.2059C80.7076 48.5244 79.7242 48.6677 78.7487 48.6279C78.4385 48.5377 78.0541 48.2404 78.7911 47.6326Z" fill="#F98C6E"/>
<path d="M85.3148 62.3369C85.6037 62.3555 85.9033 62.3741 86.171 62.2706C86.5872 62.1113 86.847 61.7052 87.0564 61.3124C87.7536 60.0145 88.2334 58.5998 88.4693 57.1453C88.6124 56.2614 88.3977 55.2555 87.7244 54.6663C86.0305 56.0146 84.9013 58.0477 84.6494 60.2003C84.1908 60.187 83.7084 60.1791 83.2286 60.1684C83.0801 60.7683 82.9476 61.4318 82.8336 62.175C83.6607 62.2281 84.4877 62.2812 85.3148 62.3369Z" fill="#092942"/>
<path d="M75.6922 59.5447C75.451 59.2208 75.1673 58.8944 74.7803 58.7723C74.3933 58.6528 73.8896 58.8333 73.8022 59.2288C73.6802 59.7941 74.4331 60.3303 74.2077 60.8638C74.1415 61.0177 74.0063 61.1292 73.9294 61.2752C73.7836 61.5592 73.8949 61.9202 74.1123 62.1511C74.3297 62.382 74.6345 62.5121 74.9314 62.6288C75.3476 62.7934 75.7797 62.9447 76.2277 62.9288C76.5007 62.9182 76.787 62.8332 76.9646 62.6262C77.3172 62.2201 76.9143 61.6149 76.7234 61.2248C76.4291 60.6355 76.0845 60.0728 75.6922 59.5447Z" fill="#F98C6E"/>
<path d="M84.9914 61.3177C85.7999 58.0424 85.6992 57.2461 86.8576 55.0935C87.2394 54.3822 87.9657 53.8832 88.7132 53.5806C89.4608 53.2781 90.3833 53.3073 91.0036 53.8222C91.4887 54.2256 91.7246 54.8679 91.759 55.497C91.7935 56.126 91.6424 56.7498 91.4648 57.3549C90.2295 61.5645 89.588 62.167 87.0193 65.721C83.5176 65.3919 78.8918 64.6647 76.408 63.3535C75.9043 63.088 75.8699 62.2281 76.1721 61.745C76.4981 61.2221 77.251 61.2115 77.858 61.323C79.8064 61.6866 82.0145 61.3734 84.9914 61.3177Z" fill="#0E4066"/>
<path d="M71.1434 93.5399L75.4404 94.6997L74.9765 96.1596L70.7723 95.0421L71.1434 93.5399Z" fill="#0E4066"/>
<path d="M91.3242 97.4495L88.2201 98.8695L88.8961 100.263L91.9021 98.8695L91.3242 97.4495Z" fill="#0E4066"/>
<path d="M74.152 98.4953V97.6751C71.4747 97.6406 68.7947 97.6035 66.1173 97.569C66.0378 97.6486 65.9848 97.7415 65.9927 97.853C66.0139 98.1317 66.3798 98.2166 66.6581 98.2272C69.1552 98.3175 71.6523 98.4077 74.152 98.4953Z" fill="#808285"/>
<path d="M85.0152 102.463C84.8774 102.548 84.7528 102.662 84.766 102.816C84.7846 103.058 85.1001 103.13 85.3413 103.14C86.8973 103.196 89.3812 103.252 91.4515 103.307C92.1168 103.326 92.6311 102.851 92.7477 102.272C90.1711 102.362 87.5945 102.426 85.0152 102.463Z" fill="#808285"/>
<path d="M84.3897 49.8223C84.2837 50.6743 84.3923 51.9961 84.9623 52.6384C85.4288 53.1613 86.2002 53.3312 86.8894 53.2091C87.5787 53.087 88.199 52.7154 88.7636 52.3013C89.7338 51.59 90.5927 50.7274 91.3031 49.7559C91.9658 48.8482 92.5172 47.7042 92.1858 46.6293C91.942 45.8436 91.2607 45.2597 90.5237 44.8934C89.6278 44.4475 88.5754 44.2591 87.6078 44.5112C85.1611 45.1482 84.6548 47.7202 84.3897 49.8223Z" fill="#F98C6E"/>
<path d="M90.6881 49.4427C90.8551 48.6969 90.7013 47.8847 90.2746 47.253C89.8478 46.6213 89.1506 46.1754 88.3951 46.0559C87.7165 45.9471 87.0273 46.0904 86.3487 46.186C85.6674 46.2815 84.9464 46.324 84.3234 46.0347C83.7747 45.7799 83.3611 45.2809 83.1279 44.7235C82.8919 44.1661 82.823 43.5504 82.8363 42.9452C82.8442 42.5205 82.8946 42.0879 83.0536 41.6924C83.2127 41.2969 83.4884 40.9386 83.8648 40.7422C84.3711 40.4794 85.0365 40.5538 85.4686 40.928C85.9033 41.2996 86.0783 41.9446 85.898 42.486C86.3619 41.7986 87.0644 41.289 87.8331 40.9731C88.3023 40.782 88.9014 40.6997 89.2619 41.0554C89.4899 41.281 89.5562 41.634 89.5032 41.9525C89.4501 42.271 89.2937 42.5603 89.1267 42.8364C89.8451 42.1118 90.924 41.7667 91.9287 41.9393C92.0427 41.9578 92.162 41.987 92.2415 42.072C92.3793 42.2153 92.3449 42.4462 92.2759 42.632C92.0824 43.1602 91.6901 43.6114 91.1944 43.8742C91.9472 44.1688 92.7478 44.4979 93.2117 45.1615C93.5749 45.679 93.6835 46.3426 93.6305 46.9716C93.5351 48.1448 92.8856 49.2728 91.8889 49.8913C91.661 50.032 91.3959 50.1514 91.1308 50.1089C90.8657 50.0638 90.6298 49.7028 90.6881 49.4427Z" fill="#092942"/>
<path d="M91.1785 48.9199C91.3429 48.8429 91.5311 48.7818 91.7034 48.8376C91.8969 48.8986 92.0242 49.0977 92.0533 49.2994C92.0798 49.5011 92.0242 49.7055 91.9446 49.894C91.6849 50.5283 91.1759 51.0565 90.5529 51.3405C90.4257 51.3989 90.2693 51.4467 90.15 51.3697C89.8186 51.16 89.93 50.2709 90.0652 49.9523C90.256 49.5117 90.757 49.1189 91.1785 48.9199Z" fill="#F98C6E"/>
<path d="M87.8968 48.328C87.743 48.7155 87.4488 48.9597 87.2394 48.8774C87.03 48.7951 86.9849 48.4129 87.1386 48.0254C87.2924 47.6379 87.5866 47.3937 87.796 47.476C88.0055 47.5609 88.0505 47.9431 87.8968 48.328Z" fill="#092942"/>
<path d="M85.7018 48.328C85.5481 48.7155 85.2538 48.9597 85.0444 48.8774C84.835 48.7951 84.7899 48.4129 84.9437 48.0254C85.0974 47.6379 85.3917 47.3937 85.6011 47.476C85.8105 47.5609 85.8556 47.9431 85.7018 48.328Z" fill="#092942"/>
<path d="M85.397 49.671C85.3095 49.7002 85.2167 49.7214 85.1399 49.7718C85.063 49.8223 84.9994 49.9098 85.0153 50.0027C85.0312 50.0956 85.1187 50.1593 85.2061 50.1938C85.4898 50.308 85.8344 50.2151 86.0464 49.9974C86.2585 49.7771 86.3407 49.448 86.2824 49.1481C86.2665 49.0605 86.2002 48.8827 86.0836 48.949C86.004 48.9941 85.9775 49.1773 85.9325 49.2543C85.8132 49.448 85.6144 49.5966 85.397 49.671Z" fill="#D1684B"/>
<path d="M86.8576 51.2847C86.7755 51.2847 86.6933 51.2768 86.6138 51.2582C86.5422 51.2423 86.4971 51.1706 86.513 51.099C86.5289 51.0273 86.6005 50.9822 86.6721 50.9981C86.8974 51.0485 87.1439 51.0034 87.3374 50.876C87.5283 50.7486 87.6661 50.5363 87.7059 50.3107C87.7192 50.239 87.7881 50.1886 87.8597 50.2018C87.9312 50.2151 87.9789 50.2841 87.9683 50.3558C87.9153 50.653 87.7351 50.9291 87.4832 51.0963C87.3003 51.2184 87.0777 51.2847 86.8576 51.2847Z" fill="#D1684B"/>
<path d="M71.2044 29.9369C70.5894 30.6004 69.3223 31.4578 68.4554 31.7285C66.3268 35.0755 67.9862 35.4948 69.7146 34.5446C70.4012 34.1677 71.0877 33.7882 71.7717 33.4113C71.8856 33.3476 72.0076 33.2785 72.0685 33.1644C72.1613 32.9945 72.1004 32.7849 72.0367 32.6017C71.7478 31.7683 71.8591 30.5235 71.2044 29.9369Z" fill="#E67A5C"/>
<path d="M63.1299 57.4452C62.7005 58.0504 62.3161 58.6847 61.9821 59.3483C61.9105 59.489 61.8416 59.6456 61.8893 59.7969C61.9344 59.9375 62.0722 60.0304 62.218 60.0596C62.3612 60.0888 62.5096 60.0676 62.6554 60.0464C62.4487 60.7816 62.1862 61.968 62.2154 62.1432C62.2445 62.3157 62.3744 62.4856 62.5494 62.4962C62.7615 62.5121 63.3314 61.7026 63.7953 60.8957C64.1293 60.7603 64.4739 60.6117 64.7708 60.4073C65.0677 60.203 65.3248 59.9243 65.4362 59.5819C65.6032 59.0669 65.4149 58.4936 65.1075 58.0451C64.9192 57.769 64.6807 57.5195 64.3917 57.355C64.1001 57.1904 63.456 57.3709 63.1299 57.4452Z" fill="#F98C6E"/>
<path d="M70.8464 35.7762C71.313 43.4415 68.7788 51.8262 65.3088 58.7272C64.4075 58.8201 63.5884 58.7643 62.7349 58.4617C63.1643 52.4446 64.3572 46.5018 65.9132 40.6732C66.1783 39.6832 66.4699 38.6639 67.1273 37.881C67.7874 37.0953 69.9054 35.3807 70.8464 35.7762Z" fill="#1C75BC"/>
<path d="M74.6133 35.3355C73.887 35.8797 72.596 36.4848 71.6603 36.3415C70.8968 36.2247 70.2792 35.6567 69.9823 35.0064C69.6828 34.3561 69.6589 33.6315 69.7066 32.9335C69.7888 31.7338 70.0724 30.5447 70.5496 29.4273C70.9949 28.3815 71.7266 27.3065 72.9221 27.0199C73.7969 26.8102 74.7432 27.0783 75.5226 27.5109C76.4716 28.0365 77.2721 28.8274 77.6167 29.7856C78.4862 32.2009 76.4053 33.9952 74.6133 35.3355Z" fill="#F98C6E"/>
<path d="M70.5098 29.4963C71.9519 29.913 73.0705 29.6954 73.7916 28.2993C74.1494 29.9449 77.2615 35.5479 80.2702 32.8645C78.7937 32.1001 78.8785 30.55 78.3855 29.0424C78.1867 28.4399 77.8924 27.8454 77.4047 27.3942C76.9169 26.9429 76.2144 26.6536 75.5332 26.7439C75.9308 26.5979 76.3152 26.4201 76.6757 26.213C76.7976 26.1414 76.9275 26.0511 76.9381 25.9184C76.9514 25.7273 76.7048 25.6132 76.4981 25.584C75.9706 25.507 75.4086 25.6503 75.0083 25.9662C74.8652 25.4221 74.4834 24.9284 73.9639 24.6205C73.8366 24.5435 73.6961 24.4772 73.5424 24.4639C73.3913 24.4506 73.2269 24.5037 73.1474 24.6205C73.0785 24.724 73.0838 24.8541 73.1023 24.9735C73.1739 25.4247 73.3913 25.8574 73.7253 26.2024C72.7312 26.0458 71.7345 26.566 71.1222 27.288C70.5098 28.0099 70.2103 28.9018 69.9213 29.775C70.0592 29.7299 70.3693 29.5414 70.5098 29.4963Z" fill="#092942"/>
<path d="M71.3978 29.0929C71.3713 28.9124 71.3157 28.7213 71.1593 28.6018C70.987 28.4691 70.7245 28.4665 70.5204 28.5514C70.3163 28.6363 70.1599 28.7929 70.0327 28.9575C69.6006 29.5149 69.415 30.2262 69.5237 30.9057C69.5449 31.0464 69.5953 31.203 69.7358 31.264C70.1281 31.4339 70.8862 30.8685 71.0983 30.5845C71.4005 30.1917 71.4641 29.5547 71.3978 29.0929Z" fill="#F98C6E"/>
<path d="M73.9055 31.5666C73.6378 31.901 73.5874 32.2832 73.7889 32.4159C73.9904 32.5486 74.3721 32.3841 74.6372 32.0496C74.9049 31.7152 74.9553 31.333 74.7538 31.2003C74.5523 31.0649 74.1706 31.2295 73.9055 31.5666Z" fill="#092942"/>
<path d="M75.215 33.4298C74.9473 33.7643 74.8969 34.1465 75.0984 34.2792C75.2999 34.4119 75.6816 34.2473 75.9467 33.9129C76.2144 33.5785 76.2648 33.1963 76.0633 33.0635C75.8618 32.9308 75.4828 33.0954 75.215 33.4298Z" fill="#092942"/>
<path d="M74.1521 34.3986C74.1759 34.4889 74.213 34.5791 74.213 34.672C74.213 34.7649 74.168 34.8658 74.0752 34.9003C73.9798 34.9374 73.8684 34.895 73.7836 34.8392C73.5106 34.6587 73.3886 34.3164 73.4655 34.0191C73.5424 33.7218 73.7995 33.4776 74.1123 33.3661C74.2024 33.3343 74.4066 33.2945 74.4145 33.4298C74.4198 33.5201 74.2661 33.6395 74.221 33.7218C74.1097 33.9288 74.0911 34.1757 74.1521 34.3986Z" fill="#D1684B"/>
<path d="M71.7848 34.0165C71.8326 34.0855 71.8909 34.1518 71.9545 34.2076C72.0128 34.2606 72.1056 34.2606 72.1613 34.2076C72.2169 34.1571 72.2169 34.0722 72.1586 34.0191C71.9784 33.8572 71.8723 33.621 71.875 33.3901C71.8776 33.1591 71.9916 32.9309 72.1798 32.7769C72.2381 32.7265 72.2434 32.6442 72.1878 32.5885C72.1321 32.5327 72.0393 32.5301 71.981 32.5779C71.7371 32.7796 71.5887 33.0795 71.5834 33.3821C71.5807 33.605 71.6549 33.828 71.7848 34.0165Z" fill="#D1684B"/>
<path d="M43.0683 87.0688C43.6674 86.9866 44.2745 86.9069 44.8709 86.9998C45.4673 87.0927 46.0611 87.3874 46.3766 87.9023C46.7609 88.5313 46.6576 89.3382 46.4614 90.0495C46.085 91.4138 45.4196 92.6772 44.7436 93.9194C43.1637 96.8311 41.499 99.695 39.8369 102.559C39.3333 102.562 38.7368 102.62 38.2597 102.461C37.7825 102.301 37.3398 101.948 37.2073 101.463C37.1145 101.12 37.1808 100.757 37.2497 100.406C37.8568 97.2982 38.4638 94.1901 39.0682 91.082C39.2644 90.0787 39.4764 89.0356 40.1047 88.2314C40.7303 87.4245 42.1723 86.5805 43.0683 87.0688Z" fill="#092942"/>
<path d="M45.1651 93.1311C45.1042 93.0382 45.0432 92.9426 44.9955 92.8497C44.3699 91.6341 43.9935 90.2911 43.8954 88.9268C43.8477 88.2765 43.8662 87.6209 43.9484 86.9706C43.6542 86.9892 43.3626 87.029 43.071 87.0688C42.9411 86.9972 42.7953 86.9574 42.6468 86.9388C42.1485 87.0688 41.6528 87.2042 41.1544 87.3396C40.7329 87.5864 40.3565 87.9102 40.1073 88.2287C39.662 88.7994 39.4261 89.4921 39.2564 90.2035C39.6275 90.7078 39.9748 91.2333 40.3353 91.7429C41.3426 93.1656 42.5037 94.4794 43.7867 95.6552C44.1075 95.0766 44.4309 94.498 44.7463 93.9141C44.8868 93.6566 45.0273 93.3938 45.1651 93.1311Z" fill="#051D2E"/>
<path d="M43.169 94.9147C42.6282 94.0441 42.0848 93.1655 41.4062 92.3958C40.8204 91.7296 39.9615 91.1032 39.1159 91.3713C39.0761 91.3846 39.0417 91.4031 39.0019 91.4191C38.7103 92.9107 38.4187 94.4024 38.1298 95.8941C38.2809 95.9339 38.432 95.9737 38.5565 96.0374C39.4923 96.4992 40.1842 97.3964 40.5765 98.3492C40.8469 99.0022 40.9953 99.6923 41.0934 100.396C41.9735 98.8748 42.8456 97.3486 43.7018 95.8118C43.5322 95.5066 43.3493 95.2093 43.169 94.9147Z" fill="#051D2E"/>
<path d="M24.8464 76.3219C28.6 80.6483 32.9076 84.4889 37.6314 87.7244C37.1861 88.2951 36.6798 88.9135 35.964 89.0037C35.3755 89.0781 34.8136 88.7755 34.2993 88.4835C31.948 87.1484 29.5622 85.7868 27.6695 83.8546C25.7742 81.9196 24.682 79.0239 24.8464 76.3219Z" fill="#8DC63F"/>
<path d="M24.8464 76.3219C24.682 79.0239 25.7768 81.9223 27.6695 83.8546C28.2739 84.4703 28.9313 85.0251 29.6179 85.5426C29.6311 85.0304 29.6364 84.5181 29.6285 84.0059C29.6126 83.053 29.5596 82.0922 29.4694 81.1393C27.8498 79.6078 26.3043 78.002 24.8464 76.3219Z" fill="#7CB332"/>
<path d="M20.446 75.101C19.1391 75.592 17.8535 76.1202 16.589 76.6802C16.1172 76.8899 15.6241 77.1235 15.3723 77.519C15.0356 78.0472 15.2212 78.7081 15.4174 79.3C17.045 84.2368 18.8714 89.1312 20.8887 93.9778C21.0159 94.283 22.7204 98.5244 23.0465 98.5722C24.8093 98.8403 25.1751 94.8882 26.9406 94.7581C27.423 94.7236 27.9267 94.6652 28.3031 94.421C28.7829 94.1105 28.9499 93.5717 29.0745 93.0674C29.6418 90.7901 27.5132 79.292 26.0738 77.1182C24.6317 74.9391 23.065 74.1163 20.446 75.101Z" fill="#8DC63F"/>
<path d="M28.3243 89.5426C28.5417 89.6169 28.7882 89.6806 29.0215 89.6833C28.9128 88.6667 28.7537 87.5201 28.5549 86.339C27.3859 86.1717 26.2434 85.8612 25.1406 85.4286C24.4859 85.1711 23.8444 84.8738 23.2214 84.5447C21.106 83.422 19.2027 81.9436 17.3869 80.3802C18.0867 81.6782 18.7998 82.9893 19.7859 84.0855C20.6713 85.0676 21.7528 85.8479 22.845 86.5885C24.568 87.759 26.36 88.8605 28.3243 89.5426Z" fill="#7CB332"/>
<path d="M21.5938 72.7653C21.3605 73.7713 21.3261 74.825 21.4851 75.8442C21.5646 76.3565 21.1564 76.8077 20.6422 76.7679C20.2339 76.7387 19.8283 76.6803 19.4281 76.5847C19.2717 76.5476 19.11 76.5025 18.9933 76.3963C18.8316 76.2476 18.7839 76.0114 18.7494 75.7938C18.5851 74.8038 18.4181 73.8137 18.2537 72.8237C18.206 72.5424 18.1636 72.2345 18.3068 71.9876C18.5003 71.6532 18.943 71.5789 19.33 71.5656C19.7488 71.5523 20.1809 71.5736 20.5626 71.7488C20.9443 71.9239 21.6892 72.3539 21.5938 72.7653Z" fill="#E67A5C"/>
<path d="M24.4461 70.2305C24.6927 71.1038 24.7987 72.5264 24.3295 73.3519C23.9478 74.0234 23.1976 74.3976 22.4845 74.4454C21.7714 74.4932 21.0875 74.257 20.4513 73.9623C19.3592 73.458 18.3545 72.7653 17.4824 71.9213C16.6659 71.133 15.9263 70.0633 16.0854 68.8424C16.202 67.9479 16.7905 67.1622 17.4718 66.5863C18.3015 65.8856 19.3247 65.4184 20.3426 65.4397C22.906 65.4901 23.8365 68.078 24.4461 70.2305Z" fill="#F98C6E"/>
<path d="M20.6766 69.5457C20.894 69.9147 21.2306 70.1005 21.4268 69.9598C21.623 69.8191 21.607 69.4051 21.3897 69.0361C21.1723 68.6672 20.8357 68.4814 20.6395 68.6221C20.4407 68.7628 20.4592 69.1768 20.6766 69.5457Z" fill="#092942"/>
<path d="M22.8821 68.9883C23.0995 69.3573 23.4361 69.543 23.6323 69.4024C23.8284 69.2617 23.8125 68.8476 23.5952 68.4787C23.3778 68.1098 23.0411 67.924 22.845 68.0646C22.6488 68.2053 22.6647 68.6167 22.8821 68.9883Z" fill="#092942"/>
<path d="M23.407 70.3287C23.4998 70.3393 23.5952 70.3367 23.6827 70.3685C23.7702 70.4004 23.847 70.48 23.847 70.5809C23.847 70.6817 23.7675 70.772 23.6853 70.8303C23.4176 71.0215 23.0571 71.0135 22.8079 70.8357C22.5587 70.6578 22.4235 70.3287 22.4315 69.9969C22.4341 69.9014 22.4712 69.6943 22.5985 69.7368C22.686 69.7633 22.7416 69.9518 22.8 70.0208C22.9537 70.2013 23.1764 70.3048 23.407 70.3287Z" fill="#D1684B"/>
<path d="M22.2035 72.4043C22.2857 72.3831 22.3679 72.3539 22.4447 72.3141C22.5136 72.2796 22.5481 72.192 22.519 72.1203C22.4898 72.0487 22.4129 72.0195 22.344 72.054C22.1266 72.1655 21.8695 72.1814 21.6574 72.0938C21.4427 72.0088 21.2704 71.8204 21.1935 71.5895C21.1697 71.5152 21.0928 71.4833 21.0212 71.5152C20.9497 71.547 20.9125 71.632 20.939 71.7036C21.0398 72.0035 21.2678 72.2504 21.5461 72.3619C21.7476 72.4495 21.9808 72.4601 22.2035 72.4043Z" fill="#D1684B"/>
<path d="M17.7077 72.1097C18.1451 71.5709 18.4048 70.8914 18.434 70.1987C18.4632 69.5059 18.2617 68.8052 17.872 68.2319C19.4069 68.0142 20.8622 67.6347 22.3148 67.0959C22.9404 66.8623 23.6031 66.5597 23.9053 65.9625C24.1307 65.5219 24.1121 64.9937 24.0008 64.5133C23.6641 63.0562 22.5614 61.9042 21.3923 60.9726C21.5965 61.5884 21.8032 62.2015 22.0073 62.8173C21.4321 62.2015 20.7455 61.6919 19.9874 61.3229C20.3983 62.1564 20.7296 63.027 20.9788 63.9214C19.5474 63.794 18.039 63.94 16.7772 64.6301C15.5181 65.3202 14.5373 66.6314 14.516 68.0673C14.5028 68.9644 14.858 69.843 15.412 70.5464C15.9687 71.2497 16.9045 71.7089 17.7077 72.1097Z" fill="#092942"/>
<path d="M17.4744 71.0055C17.2968 70.9657 17.098 70.9498 16.931 71.0533C16.7454 71.1674 16.65 71.4116 16.6553 71.6319C16.6606 71.8522 16.7507 72.0539 16.8621 72.2344C17.2279 72.8369 17.8243 73.2669 18.4976 73.4076C18.6355 73.4368 18.7998 73.4474 18.9059 73.3359C19.2054 73.0307 18.9483 72.1203 18.7601 71.8177C18.4976 71.3957 17.9277 71.109 17.4744 71.0055Z" fill="#F98C6E"/>
<path d="M17.5725 85.4923C19.4572 87.0291 21.4533 88.4278 23.627 89.5054C25.3713 90.3707 27.2401 91.021 29.154 91.3581C29.1222 90.6335 29.0427 89.7629 28.9207 88.81C28.0698 88.5048 27.2268 88.1783 26.3971 87.8173C22.7151 86.2169 19.2611 84.0961 16.1702 81.5322C16.6235 82.8566 17.09 84.1758 17.5725 85.4923Z" fill="#7CB332"/>
<path d="M19.2663 79.8706C19.8283 82.2117 21.8297 84.1598 24.2102 85.41C26.5906 86.6601 29.3369 87.2945 32.0673 87.8014C32.2343 88.0323 32.3324 88.2526 32.388 88.5181C32.4463 88.7861 32.3668 89.0914 32.115 89.2559C31.9056 89.3913 31.6246 89.4072 31.3621 89.4125C27.8895 89.4736 24.4037 88.5552 21.5673 86.8432C18.7282 85.1313 16.5492 82.6363 15.4279 79.8255C15.2609 79.4061 15.1125 78.9682 15.1284 78.5249C15.1443 78.0817 15.3457 77.6225 15.7593 77.3544C16.4458 76.9112 17.4876 77.1421 18.092 77.665C18.6964 78.1826 19.0914 79.1513 19.2663 79.8706Z" fill="#8DC63F"/>
<path d="M45.2844 84.6216C45.3984 85.118 45.3825 86.5327 45.4806 87.167C40.6454 88.9188 35.6247 89.6036 30.4582 91.0528C29.6418 91.2811 28.8253 91.5093 28.0088 91.7402C27.7146 91.8225 27.3832 91.9021 27.1129 91.7588C26.8425 91.6155 26.7629 91.143 27.0466 91.0263C32.2926 88.8843 37.3319 86.1903 42.7157 84.4226C43.1213 84.2899 43.5348 84.1571 43.9616 84.1492C44.3858 84.1412 45.189 84.2049 45.2844 84.6216Z" fill="#92C6F0"/>
<path d="M33.0614 78.9708L45.5787 77.1261C46.2043 77.0332 46.7371 77.5827 46.6231 78.2064C46.077 81.1685 45.69 84.1625 45.4806 87.167C41.051 87.7589 36.8097 88.2898 31.6882 89.0675C32.0275 85.6064 32.1919 82.8566 32.2714 79.8653C32.282 79.4141 32.616 79.0372 33.0614 78.9708Z" fill="#92C6F0"/>
<path d="M41.1623 83.3397C41.0112 84.1996 40.3061 84.7968 39.5851 84.6694C38.8641 84.5447 38.4002 83.7431 38.5512 82.8831C38.7023 82.0232 39.4075 81.426 40.1285 81.5534C40.8495 81.6808 41.3108 82.4797 41.1623 83.3397Z" fill="#A6D7FF"/>
<path d="M24.4355 99.9604C25.9598 100.51 27.7995 100.364 29.3396 99.8595C32.8944 98.697 35.7281 96.0322 38.432 93.447C40.3035 96.1543 42.5806 98.7527 44.4521 101.46C44.8524 102.039 45.2924 102.652 45.9498 102.904C46.6072 103.156 48.3091 101.115 48.2269 100.576C48.1447 100.035 47.8902 99.5384 47.6331 99.0553C46.0744 96.133 44.2877 93.3408 42.4056 90.6176C41.6952 89.5877 40.884 88.5075 39.6912 88.1332C38.4479 87.7457 37.1198 88.2314 35.9004 88.6906C31.9745 90.169 28.8015 90.6441 24.4382 92.0084C19.444 93.5664 21.9703 99.0712 24.4355 99.9604Z" fill="#092942"/>
<path d="M53.4278 101.906C53.6001 101.94 53.8042 102.004 53.844 102.174C53.8917 102.378 53.6637 102.532 53.4676 102.615C51.5113 103.432 49.3826 103.724 47.2831 104.008C47.0207 104.043 46.7424 104.077 46.5011 103.966C46.2202 103.836 46.0585 103.541 45.9392 103.257C45.8146 102.965 45.7112 102.646 45.7616 102.333C45.8331 101.895 46.199 101.558 46.586 101.343C46.8882 101.176 47.3812 100.857 47.7311 100.844C48.1102 100.831 48.5794 101.006 48.9558 101.072C49.9181 101.245 50.8803 101.42 51.84 101.603C52.3675 101.702 52.8976 101.802 53.4278 101.906Z" fill="white"/>
<path d="M36.5181 102.806C36.4332 103.092 36.3696 103.411 36.4863 103.687C36.5896 103.931 36.8256 104.098 37.0747 104.183C37.3239 104.268 37.5943 104.281 37.8567 104.289C39.2723 104.342 40.6879 104.337 42.1061 104.332C42.5037 104.332 42.9013 104.329 43.2936 104.266C43.5137 104.228 43.784 104.101 43.7549 103.881C43.7363 103.724 43.572 103.634 43.4288 103.567C42.3632 103.087 41.2843 102.633 40.1948 102.211C39.6408 101.996 39.0867 101.789 38.5274 101.59C38.212 101.479 37.6129 101.134 37.2656 101.274C36.8415 101.452 36.6347 102.41 36.5181 102.806Z" fill="white"/>
</g>

</svg>
