<svg   viewBox="0 0 128 109" fill="none" xmlns="http://www.w3.org/2000/svg">
<g clip-path="url(#clip0_1033_403)">
<path d="M64.3273 40.5357C59.364 40.6115 52.115 41.4501 49.5681 42.6256C47.0212 43.8012 42.7763 50.2014 36.7028 60.3896L33.6334 43.344L25.1436 45.238C25.1436 45.238 28.8008 66.6592 30.1722 72.1451C31.5436 77.631 37.0293 77.1085 40.164 72.4716C43.2987 67.8347 47.6742 61.8916 47.6742 61.8916V97.0277H81.4375V72.7329C81.4375 72.7329 82.3518 76.9779 84.8334 82.7251C87.315 88.4722 92.0824 97.093 92.0824 97.093H100.964C100.964 97.093 91.2987 76.9779 90.5803 74.3656C89.862 71.7532 86.7926 50.9851 84.8334 46.8707C82.8742 42.7562 81.3069 40.2745 64.3273 40.5357Z" fill="#FFAF22"/>
<path d="M94.302 92.6442C92.5832 90.3505 90.7102 88.036 89.3805 85.489C88.7275 84.2403 88.1267 82.8296 88.158 81.3928C88.1711 80.805 88.5159 80.2591 88.7484 79.734C88.8999 79.3918 89.1063 78.9764 89.1141 78.5898C89.1167 78.3886 89.0566 77.631 88.717 77.7251C87.7557 77.9915 86.7474 76.654 86.2302 76.0062C85.3995 74.9612 84.8326 73.7073 84.4147 72.4455C83.5108 69.7156 83.1947 66.8368 82.3849 64.0808C81.8076 65.34 81.7136 66.7924 81.7005 68.1587C81.6875 69.5589 81.7606 70.9565 81.7763 72.3567C81.7815 72.887 81.7684 73.4304 81.7475 73.9816C82.1942 75.6483 83.1555 78.8406 84.83 82.7225C87.3116 88.4697 92.079 97.0904 92.079 97.0904H97.9069C96.6191 95.6823 95.4383 94.162 94.302 92.6442Z" fill="#ED9520"/>
<path d="M56.3435 97.0276C54.481 95.0971 53.154 92.7173 52.1169 90.2382C50.6932 86.8291 49.8233 83.2162 49.3558 79.5563C48.8751 75.7893 48.8333 72.0145 48.8646 68.224C48.8986 64.2793 48.9247 60.2877 48.1149 56.4109C47.0047 57.576 46.5398 59.1617 45.9285 60.6194C45.2937 62.1346 44.335 63.5661 43.392 64.9063C41.7384 67.2574 39.6957 69.5484 36.958 70.6325C35.9706 71.0244 34.8186 71.2935 33.7711 70.9747C32.6844 70.6456 31.8772 69.8201 31.3966 68.8039C30.626 67.1686 30.2498 65.2825 29.9729 63.5061C29.6777 61.6095 29.5262 59.6947 29.4949 57.7772C29.4661 56.1393 29.3669 54.3994 29.5993 52.7719C29.7665 51.5964 30.3438 50.6925 31.2215 49.9062C32.2612 48.9736 33.3584 48.041 34.2857 47.0039L33.6274 43.344L25.1376 45.2379C25.1376 45.2379 28.7948 66.6592 30.1662 72.1451C31.5376 77.631 37.0233 77.1085 40.158 72.4716C43.2927 67.8347 47.6682 61.8916 47.6682 61.8916V97.0276H56.3435Z" fill="#ED9520"/>
<path d="M64.3265 40.5358C59.3633 40.6115 52.1143 41.4501 49.5673 42.6257C49.2722 42.7615 48.9509 42.9731 48.6086 43.2474L47.6735 61.8917V97.0277H81.4367V72.7329L79.3182 41.7479C76.4813 40.8571 71.9621 40.4182 64.3265 40.5358Z" fill="#A53245"/>
<path d="M71.9674 3.76702C71.9674 3.76702 69.8776 -0.478036 62.694 0.0444321C54.6169 0.632209 49.8287 6.83652 49.3715 12.649C48.9144 18.4614 50.3511 22.7065 48.7838 27.67C47.2164 32.6334 41.0123 42.9522 64.5879 42.9522C88.1634 42.9522 81.4368 33.809 79.9348 28.519C78.4328 23.229 79.8068 15.6976 78.3674 9.38356C77.1919 4.22418 71.9674 3.76702 71.9674 3.76702Z" fill="#B27538"/>
<path d="M79.9347 28.519C78.5737 23.7305 79.5716 17.103 78.7044 11.207C78.2969 12.4374 77.6568 13.7018 76.6746 14.4463C76.1208 14.8669 75.5226 15.1516 74.8173 15.1803C74.1695 15.2065 73.3205 15.0497 72.7328 15.3815C72.3174 15.6166 71.9621 16.0111 71.4658 16.0738C70.8075 16.1547 70.1832 15.87 69.6582 15.4912C69.2637 15.2065 68.9293 15.6035 68.5401 15.7916C68.2684 15.9222 67.9471 16.0294 67.6467 16.0476C66.8604 16.092 66.594 15.6767 65.9697 15.3083C65.0319 14.7571 64.0784 15.4677 63.2346 15.8439C62.7096 16.0764 62.0983 16.2801 61.5158 16.2566C61.1292 16.241 60.7817 15.8387 60.45 15.6793C60.0503 15.4886 59.8361 15.196 59.3581 15.2561C58.5587 15.358 57.7933 15.533 56.9835 15.4364C56.3566 15.3606 55.7479 15.1542 55.1393 14.9975C54.2537 14.7702 53.1305 14.7754 52.3729 14.2112C51.6493 13.673 51.8113 12.6046 51.9863 11.8104C51.3385 11.9463 50.5208 12.2258 49.9226 11.9306C49.7581 11.8496 49.6196 11.7321 49.4994 11.591C49.4394 11.9436 49.3976 12.2963 49.3688 12.6464C48.9117 18.4588 50.3484 22.7039 48.7811 27.6673C47.2137 32.6308 41.0096 42.9495 64.5852 42.9495C88.1607 42.9495 81.4368 33.8089 79.9347 28.519Z" fill="#9E5C30"/>
<path d="M67.9184 40.5227V36.4866L59.8858 37.0091L60.0921 40.7448C58.4333 40.8754 56.7328 41.0608 55.1707 41.2907C55.5155 42.448 56.4742 44.0886 58.3184 46.087C59.8858 47.785 63.4776 50.7239 63.8694 50.7239C64.2613 50.7239 68.6368 47.3932 70.7266 44.7808C71.7479 43.5034 72.5342 41.9621 73.0724 40.7186C71.5808 40.6089 69.875 40.5436 67.9184 40.5227Z" fill="#F4CFA2"/>
<path d="M64.2012 41.1209C65.4315 41.0008 66.7246 40.75 67.9184 40.298V36.4866L59.8857 37.0091L60.0843 40.5723C61.2964 41.2176 62.9003 41.2489 64.2012 41.1209Z" fill="#EAA388"/>
<path d="M57.1691 7.2937H68.8433C73.1091 7.2937 76.4893 10.8935 76.2229 15.149L75.3295 29.4359C75.0813 35.4783 70.327 39.2061 64.2222 39.2061C58.0808 39.2061 53.047 35.9459 52.8485 29.8669L51.5789 13.3308C51.3255 10.0758 53.9012 7.2937 57.1691 7.2937Z" fill="#F4CFA2"/>
<path d="M52.0804 19.8826C54.6038 20.0498 57.0724 20.1804 59.5592 19.347C60.8105 18.9265 62.1062 18.3753 63.4489 18.3935C65.024 18.4118 66.5836 18.37 68.0804 17.8136C68.5427 17.6412 69.0103 17.2337 69.5067 17.1736C69.9403 17.1213 70.2903 17.3199 70.6404 17.5576C71.1367 17.8946 71.4894 18.4092 71.9256 18.8167C72.4846 19.3366 73.1925 19.6867 73.9057 19.9531C74.5431 20.1908 75.2092 20.3946 75.8858 20.5461L76.2227 15.149C76.4892 10.8909 73.1089 7.2937 68.8432 7.2937H57.169C53.9011 7.2937 51.3254 10.0758 51.5762 13.3334L52.0804 19.8826Z" fill="#EAA388"/>
<path d="M58.5509 20.1203C58.4255 20.0106 58.2453 19.8747 57.9736 19.7598C57.7019 19.6449 57.3493 19.5717 56.9992 19.6344C56.6544 19.7023 56.3462 19.8721 56.1241 20.0707C55.9073 20.2718 55.7453 20.4704 55.6617 20.6297C55.5703 20.7865 55.5285 20.8857 55.552 20.9014C55.5755 20.9197 55.6644 20.8518 55.7898 20.7368C55.9099 20.614 56.0928 20.4625 56.307 20.3136C56.5238 20.1673 56.785 20.0628 57.0515 20.0289C57.3179 20.0028 57.5817 20.0681 57.8038 20.1595C58.0258 20.2509 58.1852 20.3554 58.3053 20.4364C58.4281 20.5148 58.5117 20.5749 58.5744 20.6088C58.6998 20.6794 58.7468 20.6585 58.7938 20.6193C58.8382 20.5827 58.8722 20.5305 58.7886 20.392C58.7494 20.3215 58.6789 20.23 58.5509 20.1203Z" fill="#331712"/>
<path d="M57.3179 21.706C56.9783 21.706 56.6805 22.0378 56.5238 22.5315C56.3409 22.4662 56.1529 22.38 56.0066 22.2729C55.7924 22.1266 55.6565 21.9594 55.5991 21.9881C55.5494 22.009 55.5938 22.2494 55.8002 22.4949C55.9517 22.6856 56.1973 22.8476 56.4324 22.9469C56.4141 23.0722 56.4036 23.2029 56.4036 23.3387C56.4036 24.24 56.8138 24.9714 57.3179 24.9714C57.8221 24.9714 58.2322 24.24 58.2322 23.3387C58.2322 22.4348 57.8221 21.706 57.3179 21.706Z" fill="#331712"/>
<path d="M70.5777 19.9531C70.8415 19.893 71.1158 19.9322 71.3431 20.0184C71.8055 20.2013 72.085 20.5357 72.1398 20.4834C72.1633 20.4651 72.1163 20.3711 72.0144 20.2222C71.9883 20.1856 71.9622 20.1438 71.9282 20.102C71.8864 20.0628 71.8473 20.0237 71.8028 19.9819C71.7558 19.9401 71.7062 19.8956 71.6592 19.8512C71.5991 19.8147 71.5364 19.7781 71.4737 19.7415C71.411 19.7023 71.3405 19.6658 71.2647 19.6449C71.189 19.6214 71.1106 19.59 71.0296 19.5743L70.7788 19.5456C70.6953 19.5404 70.609 19.5534 70.5255 19.556C70.1885 19.5952 69.8802 19.7206 69.6347 19.8591C69.154 20.1543 68.9685 20.3868 68.8823 20.5174C68.8014 20.6532 68.8327 20.7029 68.8771 20.742C68.9215 20.7812 68.9685 20.8047 69.0966 20.7342C69.2246 20.6663 69.4283 20.4886 69.8489 20.2326C70.0605 20.1177 70.3139 20.0028 70.5777 19.9531Z" fill="#331712"/>
<path d="M71.8812 21.4448C71.8211 21.4291 71.7245 21.5989 71.5886 21.7948C71.5312 21.8784 71.4606 21.962 71.3901 22.0404C71.2229 21.6773 70.9695 21.4474 70.6848 21.4474C70.1806 21.4474 69.7705 22.1789 69.7705 23.0801C69.7705 23.9814 70.1806 24.7128 70.6848 24.7128C71.189 24.7128 71.5991 23.9814 71.5991 23.0801C71.5991 22.8685 71.5756 22.67 71.5364 22.4845C71.6905 22.3225 71.808 22.1136 71.8655 21.9307C71.9439 21.6642 71.9334 21.4579 71.8812 21.4448Z" fill="#331712"/>
<path d="M55.5703 26.5676C55.3457 26.8001 55.0374 27.2076 55.0949 27.2625C55.1524 27.3173 55.552 26.9986 55.7767 26.7661C56.0013 26.5336 55.9674 26.4761 55.9099 26.4213C55.8524 26.3664 55.795 26.3351 55.5703 26.5676Z" fill="#CE695B"/>
<path d="M56.6074 26.6172C56.3827 26.8497 56.0745 27.2572 56.1319 27.3121C56.1894 27.367 56.5891 27.0483 56.8138 26.8158C57.0384 26.5833 57.0044 26.5258 56.947 26.4709C56.8895 26.4187 56.832 26.3847 56.6074 26.6172Z" fill="#CE695B"/>
<path d="M71.5259 26.5676C71.3012 26.8001 70.993 27.2076 71.0505 27.2625C71.1079 27.3173 71.5076 26.9986 71.7322 26.7661C71.9569 26.5336 71.9229 26.4761 71.8655 26.4213C71.8106 26.3664 71.7505 26.3351 71.5259 26.5676Z" fill="#CE695B"/>
<path d="M72.9025 26.4735C72.8451 26.4186 72.7876 26.3873 72.5629 26.6172C72.3383 26.8497 72.03 27.2572 72.0875 27.3121C72.145 27.3669 72.5447 27.0482 72.7693 26.8157C72.994 26.5858 72.96 26.5284 72.9025 26.4735Z" fill="#CE695B"/>
<path d="M63.7179 29.8251C63.6865 29.8591 63.5403 29.7833 63.3339 29.6214C63.2294 29.5404 63.1119 29.4385 62.9891 29.3105C62.9264 29.2478 62.8637 29.1773 62.8036 29.0884C62.7775 29.044 62.7357 28.9996 62.7174 28.8951C62.6913 28.8089 62.7488 28.6966 62.7853 28.6443C62.9316 28.4589 63.0779 28.3465 63.2163 28.2368C63.3548 28.1323 63.4854 28.0461 63.5977 27.9782C63.8224 27.845 63.9765 27.7849 64.0026 27.8215C64.0287 27.858 63.9243 27.9834 63.7388 28.1637C63.6421 28.2525 63.5324 28.357 63.4123 28.4693C63.2921 28.5816 63.1484 28.7123 63.0518 28.835C63.0361 28.8638 63.0439 28.8455 63.0413 28.8507C63.0361 28.8403 63.0518 28.8768 63.0727 28.9108C63.1145 28.9761 63.1667 29.0466 63.2163 29.1093C63.3208 29.2373 63.4149 29.3523 63.4959 29.4542C63.6552 29.6553 63.7466 29.7912 63.7179 29.8251Z" fill="#331712"/>
<path d="M61.1165 32.589C60.9154 32.589 60.7743 32.7614 60.7796 32.9626C60.824 34.5927 61.9551 35.9197 64.1755 35.8988H64.2199C66.375 35.8988 67.4251 34.6162 67.6158 32.9626C67.6393 32.764 67.4773 32.589 67.2788 32.589H61.1165Z" fill="#B73756"/>
<path d="M64.2847 33.9396H64.2429C63.0805 33.9396 62.2655 34.3994 61.7509 35.1256C62.3151 35.6115 63.1197 35.9067 64.175 35.8962H64.2194C65.3505 35.8962 66.1734 35.5409 66.7298 34.9662C66.2047 34.3288 65.3923 33.9265 64.2847 33.9396Z" fill="#DD526A"/>
<path d="M67.2758 32.589H61.1161C60.915 32.589 60.7713 32.7614 60.7791 32.9626C60.7843 33.1324 60.8026 33.2969 60.8314 33.4589H67.5266C67.5657 33.2969 67.5971 33.1324 67.6154 32.9626C67.6363 32.764 67.4769 32.589 67.2758 32.589Z" fill="white"/>
<path d="M71.087 5.98751C67.4194 3.87412 63.6604 3.82971 60.6772 4.63693C60.1051 4.6944 59.5931 4.78322 59.2013 4.87726C56.4585 5.53035 49.9931 9.38355 51.1347 18.9186C51.1347 18.9186 56.8111 19.5325 61.5706 16.5126C64.1045 16.8522 68.5558 16.6406 70.4653 11.5727C70.4653 11.5727 71.7401 19.7363 76.4082 19.0832C76.4082 19.0832 77.487 9.67875 71.087 5.98751Z" fill="#B27538"/>
<path d="M71.3404 9.27648C71.2986 9.37052 71.1602 9.35224 71.1158 9.27648C70.8415 8.82454 70.5541 8.3282 70.1466 7.98337C69.4491 7.39559 69.0103 8.00166 68.7308 8.66519C68.689 8.76446 68.5558 8.73311 68.5061 8.66519C67.4586 7.21273 65.9566 8.09831 65.2487 9.36269C65.186 9.47502 65.0031 9.42538 65.0057 9.29738C65.0083 8.91859 65.0188 8.14272 64.5015 8.05913C64.1202 7.99904 63.7231 8.19758 63.4096 8.39351C62.7513 8.80103 62.1688 9.32873 61.6594 9.91389C61.5837 10.0001 61.4348 9.92956 61.4374 9.82246C61.4609 8.30469 59.9771 9.14586 59.2823 9.67355C59.1935 9.74148 59.0524 9.62915 59.0916 9.52726C59.3946 8.72266 58.7624 8.68348 58.1303 8.84022C57.5608 8.98128 57.0044 9.19027 56.4793 9.44889C56.4637 9.45673 56.448 9.46457 56.4349 9.4724C56.4219 9.49069 56.4036 9.50637 56.3775 9.51681C56.3148 9.54033 56.2416 9.57429 56.1633 9.61347C55.9569 9.72319 55.7401 9.84597 55.5233 9.98181C55.2229 10.1751 54.8989 10.4128 54.6011 10.6715C53.9742 11.2436 53.5327 11.9463 53.6555 12.764C53.7051 12.8423 53.7704 12.9207 53.854 12.9938C54.8415 13.869 56.7771 12.4217 57.5843 11.8026C57.6758 11.7321 57.809 11.8496 57.775 11.9489C57.6549 12.3199 57.4145 13.1009 58.0127 13.1872C58.402 13.2446 58.8173 13.1166 59.1804 12.9834C59.8988 12.7222 60.5832 12.3643 61.2415 11.975C61.3355 11.9176 61.4713 12.0116 61.4322 12.1213C61.2911 12.5315 61.0952 13.2499 61.7718 13.195C62.2524 13.1558 62.7252 12.952 63.1536 12.7457C63.9399 12.3695 64.6818 11.9149 65.4211 11.4526C65.5229 11.3873 65.6353 11.4944 65.6118 11.5989C65.5229 12.0142 65.3949 12.8476 66.0872 12.649C66.5182 12.5262 66.9126 12.2754 67.2784 12.0168C68.0072 11.5022 68.7099 10.9118 69.3133 10.2535C69.3864 10.1725 69.5484 10.2326 69.5353 10.3449C69.4309 11.4317 70.5123 10.8857 70.7736 10.2796C70.8101 10.1908 70.959 10.196 70.9982 10.2796C71.3561 11.0398 71.8158 11.8 72.3749 12.427C72.6073 12.6882 72.9156 13.0618 73.2787 13.1297C73.7829 13.2211 73.9892 12.4008 73.9788 12.0247C73.9553 11.2279 73.4903 10.3606 73.0567 9.71535C72.6178 9.06488 71.8211 8.16623 71.3404 9.27648Z" fill="#C68442"/>
<path d="M51.9392 17.7535C51.4272 10.8099 56.9756 4.90076 64 4.90076C71.0243 4.90076 76.5727 10.8125 76.0607 17.7535L75.7368 23.0174L77.056 23.0121L77.4818 17.3538C78.0538 9.7571 71.8524 3.28894 63.9974 3.28894C56.1423 3.28894 49.9435 9.7571 50.5129 17.3538L50.9387 23.0121H52.3232L51.9392 17.7535Z" fill="#91243F"/>
<path d="M51.9262 17.8737L51.2993 17.952C48.8046 18.2681 46.9995 21.2749 47.266 24.671C47.5324 28.0644 49.7685 30.5618 52.2606 30.2457L52.864 30.17C52.8588 30.0707 52.8509 29.9714 52.8457 29.8695L51.9262 17.8737Z" fill="#C63856"/>
<path d="M51.9262 17.8737L51.2993 17.952C50.6854 18.0304 50.1159 18.2707 49.6065 18.6391C49.4498 20.5879 49.502 22.8763 49.7998 25.2535C50.0271 27.056 50.3693 28.6992 50.7873 30.102C51.2575 30.2535 51.7538 30.3084 52.2606 30.2431L52.864 30.1673C52.8588 30.0681 52.8509 29.9688 52.8457 29.8669L51.9262 17.8737Z" fill="#A53245"/>
<path d="M76.9593 18.2184L76.0346 18.1531L75.3293 29.4385C75.3293 29.4515 75.3267 29.4672 75.3267 29.4803L75.7603 29.5116C78.2654 29.6892 80.5642 27.3068 80.896 24.1903C81.2251 21.0685 79.4645 18.3961 76.9593 18.2184Z" fill="#C63856"/>
<path d="M76.9593 18.2184L76.0346 18.1531L75.3293 29.4384C75.3293 29.4515 75.3267 29.4672 75.3267 29.4802L75.7603 29.5116C76.254 29.5456 76.7425 29.4802 77.2075 29.3313C77.581 27.1683 77.8788 24.8329 78.0669 22.4165C78.1714 21.0763 78.2367 19.7885 78.2654 18.5633C77.8579 18.37 77.4217 18.2498 76.9593 18.2184Z" fill="#A53245"/>
<path d="M49.5673 42.6256C48.7784 42.9887 47.8302 43.8534 46.7122 45.1726L47.6735 61.8916V97.0277H57.9892L57.9056 40.9459C54.434 41.3168 51.1242 41.9072 49.5673 42.6256Z" fill="#FFAF22"/>
<path d="M69.9272 40.5618L70.2589 97.0276H81.4367V72.7328L81.9487 42.9809C79.9974 41.6146 76.6511 40.7604 69.9272 40.5618Z" fill="#FFAF22"/>
<path d="M81.758 42.8528C81.5125 45.4991 80.977 48.135 80.4833 50.7317C79.7936 54.3445 79.0361 57.947 78.4849 61.586C77.1918 70.1466 76.8052 78.8692 76.6903 87.5161C76.6485 90.6874 76.6511 93.8588 76.6772 97.0302H81.4367V72.7354L81.9487 42.9835C81.886 42.9391 81.8233 42.8946 81.758 42.8528Z" fill="#ED9520"/>
<path d="M24.2286 36.6173C22.5959 37.9234 22.6612 38.5112 22.0082 37.8581C21.3551 37.205 20.049 32.5028 18.1551 33.7437C16.2612 34.9845 21.7469 43.0175 23.249 45.1727C24.751 47.3279 28.8 47.7197 31.9347 46.087C35.0694 44.4543 34.5469 42.5603 32.3265 38.3153C30.1061 34.0702 28.0163 30.6089 26.5143 28.9108C25.0122 27.2128 21.551 28.1271 23.3796 30.8048C25.2082 33.4825 24.2286 36.6173 24.2286 36.6173Z" fill="#F4CFA2"/>
<path d="M25.6836 36.8863C25.9866 36.7792 26.3027 36.7061 26.6109 36.6016C27.0837 36.4422 27.5592 36.3012 28.0372 36.1627C27.998 35.4992 27.6297 34.8722 27.3058 34.3106C26.974 33.7358 26.6527 33.1559 26.3001 32.5943C25.809 31.8132 25.2891 31.0451 24.8738 30.2222C24.6256 29.7337 24.2939 29.1721 24.1737 28.6313C24.1241 28.4145 24.1215 28.2369 24.1502 28.0906C23.0504 28.2813 22.3112 29.2426 23.3796 30.8074C24.4767 32.414 24.5629 34.1878 24.4558 35.3451C24.8163 35.891 25.2343 36.4448 25.6836 36.8863Z" fill="#EAA388"/>
<path d="M27.4625 37.9835C25.8037 38.5948 23.7009 40.3189 24.3435 42.3461C24.7641 43.6732 26.5717 45.0551 28.0137 44.5065C28.9855 44.1382 29.2676 43.0567 29.6777 42.1998C30.1349 41.2437 30.8349 40.3477 30.9708 39.2792C30.7592 37.798 28.6772 37.5342 27.4625 37.9835Z" fill="#EAA388"/>
<path d="M29.1918 43.9318C29.1918 43.9318 27.7864 41.0242 31.4122 38.7071C31.4122 38.7071 31.151 37.367 31.4462 35.0498C31.7414 32.7327 34.1891 32.5028 34.385 35.1151C34.5809 37.7275 36.3442 45.076 31.1197 46.4475C30.7592 46.5441 29.7796 45.4339 29.1918 43.9318Z" fill="#F4CFA2"/>
<path d="M27.7891 35.9981C27.7891 35.9981 24.2625 29.9898 23.0531 28.2604C21.8436 26.531 19.0694 27.1501 20.4069 29.9584C21.7443 32.7667 24.4898 37.239 24.4898 37.239" fill="#F4CFA2"/>
<path d="M22.6534 32.077C21.9742 30.8231 21.2741 29.4595 20.9633 28.0566C20.9084 27.8058 20.8823 27.5681 20.9006 27.3591C20.1456 27.5942 19.6989 28.4668 20.4069 29.9558C21.7469 32.7641 24.4898 37.2364 24.4898 37.2364L25.647 36.8001C24.5969 35.2588 23.5442 33.7202 22.6534 32.077Z" fill="#EAA388"/>
<path d="M25.0776 37.0744C25.0776 37.0744 22.0735 32.0457 20.9946 30.2823C19.9158 28.519 17.8913 30.1517 18.6436 31.6878C19.3959 33.2238 22.3007 38.8064 22.3007 38.8064C22.3007 38.8064 23.902 37.5969 25.0776 37.0744Z" fill="#F4CFA2"/>
<path d="M19.7721 32.495C19.5997 32.0875 18.9335 30.5984 19.0903 29.7808C18.5704 30.1726 18.2779 30.9406 18.6436 31.6878C19.3959 33.2238 22.3007 38.8064 22.3007 38.8064C22.3007 38.8064 22.6064 38.5765 23.0478 38.2735C21.7783 36.4657 20.6341 34.5274 19.7721 32.495Z" fill="#EAA388"/>
<path d="M21.8462 39.5561C21.8227 39.5509 21.8566 39.321 22.0708 39.0154C22.2772 38.7071 22.6586 38.357 23.1288 38.0253C24.0744 37.3617 25.3753 36.7818 26.4072 36.3952C27.439 36.0112 28.0033 35.8701 28.3063 35.8152C28.6093 35.763 28.6537 35.81 28.6694 35.8649C28.685 35.9223 28.672 35.9798 28.3951 36.1052C28.1182 36.2332 27.5775 36.4187 26.5587 36.7975C25.5425 37.1789 24.2495 37.7066 23.296 38.2813C22.8232 38.5686 22.4339 38.8638 22.2015 39.1199C21.9637 39.3732 21.8775 39.5692 21.8462 39.5561Z" fill="#C17B5F"/>
<path d="M127.044 98.2032H0.95874V109H127.044V98.2032Z" fill="#B27538"/>
<path d="M127.044 98.2032H0.95874V102.644H127.044V98.2032Z" fill="#9E5C30"/>
<path d="M128 94.0234H0V98.2032H128V94.0234Z" fill="#C68442"/>
<path d="M113.068 83.0699C110.796 83.0699 108.957 84.8411 108.957 87.025C108.957 89.2089 110.798 90.98 113.068 90.98C115.339 90.98 117.18 89.2089 117.18 87.025C117.18 84.8411 115.339 83.0699 113.068 83.0699ZM113.139 89.2533C111.903 89.2533 110.9 88.2423 110.9 86.9936C110.9 85.7449 111.903 84.7339 113.139 84.7339C114.375 84.7339 115.378 85.7449 115.378 86.9936C115.378 88.2423 114.375 89.2533 113.139 89.2533Z" fill="#484887"/>
<path d="M99.7878 81.6357V90.1494C99.7878 92.3254 101.551 94.0888 103.727 94.0888H109.158C111.334 94.0888 113.097 92.3254 113.097 90.1494V81.6357H99.7878Z" fill="#5C5CAD"/>
<path d="M105.475 90.3348C102.408 88.5532 100.932 85.0553 101.29 81.6357H99.7878V90.1494C99.7878 92.3254 101.551 94.0888 103.727 94.0888H109.158C111.334 94.0888 113.097 92.3254 113.097 90.1494V89.7209C111.726 91.9388 107.643 91.594 105.475 90.3348Z" fill="#484887"/>
<path d="M108.045 81.249C108.001 81.1524 108.15 80.98 108.416 80.7109C108.675 80.4418 109.069 80.0683 109.38 79.5693C109.529 79.3211 109.644 79.0442 109.673 78.7647C109.688 78.6968 109.68 78.6236 109.68 78.5557C109.683 78.48 109.673 78.4225 109.659 78.365C109.631 78.2475 109.573 78.1142 109.487 77.9706C109.312 77.6806 109.019 77.3567 108.688 77.0144C108.356 76.6696 107.98 76.3039 107.614 75.8702C107.248 75.4392 106.901 74.9533 106.674 74.3838C106.561 74.1017 106.48 73.8013 106.444 73.4982C106.407 73.1926 106.423 72.8922 106.467 72.6179C106.551 72.0667 106.744 71.5651 107.003 71.1706C107.256 70.7709 107.538 70.447 107.826 70.1988C108.393 69.6868 108.931 69.4204 109.315 69.2767C109.701 69.1356 109.947 69.1304 109.994 69.2244C110.041 69.3185 109.897 69.4961 109.636 69.773C109.377 70.0499 108.986 70.4235 108.615 70.9277C108.244 71.4266 107.891 72.0667 107.86 72.7746C107.826 73.1325 107.891 73.4538 108.05 73.8091C108.204 74.1592 108.463 74.5197 108.777 74.888C109.09 75.259 109.443 75.6195 109.785 76.0035C110.124 76.3901 110.469 76.795 110.728 77.3123C110.853 77.5709 110.955 77.8635 110.987 78.1717C111.002 78.3284 111.002 78.4826 110.981 78.6184C110.968 78.7569 110.953 78.8927 110.911 79.0207C110.775 79.538 110.501 79.935 110.232 80.2302C109.673 80.8128 109.119 81.0714 108.732 81.2125C108.332 81.3457 108.087 81.3431 108.045 81.249Z" fill="#D3D3F4"/>
<path d="M85.1801 89.7575H42.8199C42.3027 89.7575 41.8847 90.1755 41.8847 90.6927V93.1745C41.8847 93.6917 42.3027 94.1097 42.8199 94.1097H85.1827C85.6999 94.1097 86.1179 93.6917 86.1179 93.1745V90.6927C86.1179 90.1755 85.6973 89.7575 85.1801 89.7575Z" fill="#484887"/>
<path d="M84.3102 64.8514H43.6898C42.6919 64.8514 41.8821 65.6612 41.8821 66.6591V90.421C41.8821 91.0166 42.3653 91.4999 42.9609 91.4999H85.3499C85.773 91.4999 86.1179 91.1577 86.1179 90.7319V66.6591C86.1179 65.6612 85.3081 64.8514 84.3102 64.8514Z" fill="#5C5CAD"/>
<path d="M59.0367 77.6962C59.0367 75.3164 60.9671 73.3859 63.3469 73.3859C65.7266 73.3859 67.6571 75.3164 67.6571 77.6962C67.6571 80.0761 65.7266 82.0066 63.3469 82.0066C60.9671 82.0066 59.0367 80.0761 59.0367 77.6962Z" fill="#6D6DBF"/>
<path d="M34.4818 88.1901H13.4976V94.1122H34.4818V88.1901Z" fill="#A53245"/>
<path d="M33.5674 88.8849H13.4975V93.501H33.5674V88.8849Z" fill="#D3D3F4"/>
<path d="M33.5674 91.4555H13.4975V93.501H33.5674V91.4555Z" fill="#A7A7D8"/>
<path d="M14.7723 90.2304H13.4949V90.0266H14.7723C14.9812 90.0266 15.8041 90.0736 15.8041 90.1285C15.8041 90.1834 14.9839 90.2304 14.7723 90.2304Z" fill="#66669E"/>
<path d="M15.0126 92.0798H13.4949V91.876H15.0126C15.2634 91.876 16.2377 91.9204 16.2377 91.9779C16.2377 92.0354 15.2634 92.0798 15.0126 92.0798Z" fill="#66669E"/>
<path d="M15.9896 91.1655H13.4975V90.9617H15.9896C16.3997 90.9617 18.0036 91.0061 18.0036 91.0636C18.0036 91.1211 16.3997 91.1655 15.9896 91.1655Z" fill="#66669E"/>
<path d="M32.29 90.0239H33.5673V90.2277H32.29C32.081 90.2277 31.2581 90.1807 31.2581 90.1258C31.2607 90.071 32.081 90.0239 32.29 90.0239Z" fill="#66669E"/>
<path d="M32.0497 91.876H33.5674V92.0798H32.0497C31.7989 92.0798 30.8245 92.0354 30.8245 91.9779C30.8245 91.9204 31.8015 91.876 32.0497 91.876Z" fill="#66669E"/>
<path d="M31.0753 90.9617H33.5673V91.1655H31.0753C30.6651 91.1655 29.0612 91.1211 29.0612 91.0636C29.0612 91.0061 30.6651 90.9617 31.0753 90.9617Z" fill="#66669E"/>
</g>

</svg>
