<svg xmlns="http://www.w3.org/2000/svg"  viewBox="0 0 292.58 206.27"><defs><style>.cls-1{isolation:isolate;}.cls-2{fill:#e6e6e6;}.cls-3{fill:#fbfbfb;}.cls-4{fill:#f5f4f5;}.cls-24,.cls-5{fill:#fff;}.cls-6{fill:#e0e0e0;}.cls-7{fill:#f5f8fd;}.cls-8{fill:#ebebeb;}.cls-9{fill:#263239;}.cls-10{fill:#e5897b;}.cls-11,.cls-12,.cls-28{fill:#3aaa35;}.cls-12,.cls-14{opacity:0.2;}.cls-13,.cls-14,.cls-26{fill:#008d36;}.cls-15,.cls-20,.cls-23{fill:#4b6fb5;}.cls-16{opacity:0.4;}.cls-17{fill:#cf6e64;}.cls-18{opacity:0.7;}.cls-19{opacity:0.5;}.cls-20{opacity:0.27;mix-blend-mode:multiply;}.cls-21{fill:#df5853;}.cls-22{fill:#26395a;}.cls-23,.cls-27{opacity:0.22;}.cls-24{opacity:0.8;}.cls-25{opacity:0.28;}.cls-26{opacity:0.3;}.cls-28{opacity:0.42;}</style></defs><g class="cls-1"><g id="Capa_1" data-name="Capa 1"><rect class="cls-2" x="4.94" y="182.04" width="273.19" height="0.14"/><rect class="cls-2" x="250.61" y="186.86" width="10.26" height="0.14"/><rect class="cls-2" x="208.77" y="190.61" width="4.75" height="0.14"/><rect class="cls-2" x="157.9" y="188.72" width="10.58" height="0.14"/><rect class="cls-2" x="49.16" y="188.65" width="23.6" height="0.14"/><rect class="cls-2" x="40.83" y="188.65" width="3.46" height="0.14"/><rect class="cls-2" x="108.37" y="185.42" width="51.18" height="0.14"/><path class="cls-2" d="M134.44,157.67H28.93a3.12,3.12,0,0,1-3.12-3.11V6.25a3.12,3.12,0,0,1,3.12-3.12H134.44a3.12,3.12,0,0,1,3.12,3.12V154.56A3.12,3.12,0,0,1,134.44,157.67ZM28.93,3.27a3,3,0,0,0-3,3V154.56a3,3,0,0,0,3,3H134.44a3,3,0,0,0,3-3V6.25a3,3,0,0,0-3-3Z"/><path class="cls-2" d="M252.62,157.67H147.11a3.12,3.12,0,0,1-3.12-3.11V6.25a3.12,3.12,0,0,1,3.12-3.12H252.62a3.12,3.12,0,0,1,3.12,3.12V154.56A3.12,3.12,0,0,1,252.62,157.67ZM147.11,3.27a3,3,0,0,0-3,3V154.56a3,3,0,0,0,3,3H252.62a3,3,0,0,0,3-3V6.25a3,3,0,0,0-3-3Z"/><rect class="cls-3" x="37.02" y="13.36" width="110.5" height="78.75"/><rect class="cls-4" x="37.97" y="13.36" width="111.59" height="78.75"/><rect class="cls-3" x="57.61" y="-0.2" width="72.32" height="105.87" transform="translate(146.51 -41.03) rotate(90)"/><polygon class="cls-5" points="60.11 88.9 76.91 16.58 98.93 16.58 82.13 88.9 60.11 88.9"/><polygon class="cls-5" points="85.69 88.9 102.49 16.58 112.44 16.58 95.64 88.9 85.69 88.9"/><rect class="cls-3" x="110.36" y="52.56" width="72.32" height="0.36" transform="translate(199.26 -93.78) rotate(90)"/><path class="cls-6" d="M34.87,13.24v31.2h8.26a46.46,46.46,0,0,0,18.2-29.58A3.31,3.31,0,0,0,58.07,11h-21A2.25,2.25,0,0,0,34.87,13.24Z"/><path class="cls-6" d="M34.87,101.75V47h8.26s16.75,32.27,18.69,54.79Z"/><rect class="cls-4" x="34.35" y="44.44" width="9.36" height="2.52" rx="1.26"/><path class="cls-6" d="M151.9,13.24v31.2h-8.26a46.46,46.46,0,0,1-18.2-29.58A3.31,3.31,0,0,1,128.7,11h21A2.25,2.25,0,0,1,151.9,13.24Z"/><path class="cls-6" d="M151.9,101.75V47h-8.26S126.89,79.23,125,101.75Z"/><rect class="cls-4" x="143.06" y="44.44" width="9.36" height="2.52" rx="1.26" transform="translate(295.49 91.4) rotate(-180)"/><rect class="cls-3" x="131.26" y="111.7" width="18.16" height="70.34"/><polygon class="cls-7" points="144.57 182.04 149.42 182.04 149.42 173.92 139.49 173.92 144.57 182.04"/><rect class="cls-6" x="44.4" y="111.7" width="18.16" height="70.34"/><rect class="cls-3" x="58.33" y="111.7" width="91.09" height="67.54"/><path class="cls-8" d="M85.69,99.76c0,6.57,6.32,11.94,14,11.94h7c7.73,0,14-5.37,14-11.94Z"/><path class="cls-6" d="M81.65,84.75H94.76s-2.27,6-2.27,9.55,10,17.4-4.28,17.4-4.28-13.86-4.28-17.4S81.65,84.75,81.65,84.75Z"/><rect class="cls-8" x="62.09" y="115.82" width="83.57" height="17.03"/><polygon class="cls-3" points="63.17 182.04 58.33 182.04 58.33 173.92 68.26 173.92 63.17 182.04"/><path class="cls-3" d="M101.31,124.33a2.57,2.57,0,1,0,2.56-2.57A2.56,2.56,0,0,0,101.31,124.33Z"/><rect class="cls-8" x="62.09" y="136.96" width="83.57" height="17.03"/><path class="cls-3" d="M101.31,145.47a2.57,2.57,0,1,0,2.56-2.56A2.56,2.56,0,0,0,101.31,145.47Z"/><rect class="cls-8" x="62.09" y="158.1" width="83.57" height="17.03"/><circle class="cls-3" cx="103.87" cy="166.62" r="2.57"/><rect class="cls-6" x="166.47" y="12.41" width="40.55" height="28.87"/><rect class="cls-4" x="168.78" y="12.41" width="41.56" height="28.87"/><rect class="cls-5" x="177.78" y="8.72" width="23.57" height="36.26" transform="translate(216.41 -162.72) rotate(90)"/><rect class="cls-4" x="184.64" y="15.1" width="9.84" height="23.5" transform="translate(216.41 -162.72) rotate(90)"/><rect class="cls-6" x="215.25" y="26.85" width="24.69" height="25.89"/><rect class="cls-4" x="217.56" y="26.85" width="25.69" height="25.89"/><rect class="cls-5" x="220.11" y="29.6" width="20.59" height="20.39" transform="translate(270.2 -190.61) rotate(90)"/><path class="cls-4" d="M226.59,39.79h0A3.44,3.44,0,0,1,230,36.36h.77a3.43,3.43,0,0,1,3.43,3.43h0a3.42,3.42,0,0,1-3.43,3.43H230A3.43,3.43,0,0,1,226.59,39.79Z"/><polygon class="cls-3" points="278.13 61.54 212.95 61.54 201.1 61.54 201.1 76.6 201.1 76.6 201.1 76.6 201.1 76.6 189.25 76.6 189.25 91.67 189.25 91.67 177.39 91.67 177.39 106.73 177.39 106.73 165.54 106.73 165.54 121.79 165.54 121.79 153.69 121.79 153.69 136.85 153.69 136.85 141.84 136.85 141.84 151.92 141.84 151.92 141.84 151.92 141.84 151.92 129.99 151.92 129.99 166.98 129.99 166.98 129.99 166.98 129.99 166.98 118.14 166.98 118.14 182.04 129.99 182.04 278.13 182.04 278.13 61.54"/><rect class="cls-8" x="116.92" y="166.98" width="67.55" height="4.52"/><rect class="cls-8" x="128.77" y="151.92" width="67.55" height="4.52"/><rect class="cls-8" x="140.62" y="136.85" width="67.55" height="4.52"/><rect class="cls-8" x="152.47" y="121.79" width="67.55" height="4.52"/><rect class="cls-8" x="164.32" y="106.73" width="67.55" height="4.52"/><rect class="cls-8" x="176.18" y="91.67" width="67.55" height="4.52"/><rect class="cls-8" x="188.03" y="76.6" width="67.55" height="4.52"/><rect class="cls-8" x="199.88" y="61.54" width="67.55" height="4.52"/><polygon class="cls-5" points="266.28 61.54 266.28 76.6 266.28 76.6 266.28 76.6 266.28 76.6 254.43 76.6 254.43 91.67 254.43 91.67 254.43 91.67 254.43 91.67 242.57 91.67 242.57 106.73 242.57 106.73 242.57 106.73 242.57 106.73 230.72 106.73 230.72 121.79 230.72 121.79 218.87 121.79 218.87 136.85 218.87 136.85 207.02 136.85 207.02 151.92 207.02 151.92 195.17 151.92 195.17 166.98 195.17 166.98 183.32 166.98 183.32 182.04 195.17 182.04 278.13 182.04 278.13 76.6 278.13 61.54 266.28 61.54"/><ellipse class="cls-4" cx="141.53" cy="200.53" rx="105.94" ry="6.19"/><path class="cls-9" d="M204.45,61.63c.76,2.56,4.71,7.36,5,10.86s-6.42,9.07-6.42,9.07-5-16.81-1.88-18.77S204.45,61.63,204.45,61.63Z"/><path class="cls-10" d="M190.63,79.78c-1.19,1-2.35,1.83-3.57,2.69s-2.48,1.62-3.75,2.37a43.91,43.91,0,0,1-4,2.07c-.69.31-1.37.61-2.08.88-.35.15-.7.28-1.07.4l-1.11.38a7.34,7.34,0,0,1-2.88.21,15.92,15.92,0,0,1-2.38-.46,32.93,32.93,0,0,1-4.26-1.51,57.55,57.55,0,0,1-7.76-4.13l1-1.9c1.28.53,2.61,1.07,3.92,1.56s2.63,1,4,1.39a30.81,30.81,0,0,0,3.93,1,11.34,11.34,0,0,0,1.85.22,3.89,3.89,0,0,0,1.38-.14,35.61,35.61,0,0,0,3.65-1.66c.6-.32,1.2-.64,1.79-1s1.19-.69,1.78-1c1.17-.72,2.32-1.49,3.46-2.29s2.27-1.63,3.3-2.44Z"/><path class="cls-11" d="M193.52,74c-1.36-1.06-7,2.41-8.66,3.86l1.24,7.5s8.06-3.38,8.54-5.69S194.55,74.77,193.52,74Z"/><path class="cls-12" d="M193.52,74c-1.36-1.06-7,2.41-8.66,3.86l1.24,7.5s8.06-3.38,8.54-5.69S194.55,74.77,193.52,74Z"/><path class="cls-13" d="M212.37,96.66l-17,3.32c-8.79-23.81-6.88-24.58-6.88-24.58a33.26,33.26,0,0,1,3.83-1.8l.23-.09c1.08-.4,1.31-.46,2.76-.88,2.51-.6,4.84-1.09,7.73-1.51l.55-.07c.53-.07,1-.12,1.55-.17.34,0,.68-.06,1-.08l1.1-.06c1.87-.1,3.21-.07,3.21-.07C209.9,85.53,210.74,89.79,212.37,96.66Z"/><path class="cls-14" d="M212.37,96.66l-17,3.32c-8.79-23.81-6.88-24.58-6.88-24.58a33.26,33.26,0,0,1,3.83-1.8l.23-.09c1.08-.4,1.31-.46,2.76-.88,2.51-.6,4.84-1.09,7.73-1.51l.55-.07c.53-.07,1-.12,1.55-.17.34,0,.68-.06,1-.08l1.1-.06c1.87-.1,3.21-.07,3.21-.07C209.9,85.53,210.74,89.79,212.37,96.66Z"/><path class="cls-15" d="M199.05,63.33c-1.11,1.81,2.87,2.65,5.21.79,1.88-1.48,1.43-4.91-.17-5.71S199.05,63.33,199.05,63.33Z"/><path class="cls-16" d="M199.05,63.33c-1.11,1.81,2.87,2.65,5.21.79,1.88-1.48,1.43-4.91-.17-5.71S199.05,63.33,199.05,63.33Z"/><polygon class="cls-10" points="215.61 195.19 211.35 195.51 209.8 185.71 214.05 185.4 215.61 195.19"/><polygon class="cls-10" points="245.72 181.5 242.11 183.78 235.68 176.15 239.28 173.87 245.72 181.5"/><polygon class="cls-17" points="209.8 185.71 210.66 191.16 214.86 190.45 214.06 185.4 209.8 185.71"/><polygon class="cls-17" points="239.29 173.87 235.68 176.15 238.34 179.31 242.03 177.13 239.29 173.87"/><path class="cls-15" d="M195.62,100s-.07,33.77,2.69,46.5c2.88,13.23,11.33,43.33,11.33,43.33l6.13-.79s-4.79-30.41-6.83-43.56c-2.23-14.33-.86-47.91-.86-47.91Z"/><path class="cls-18" d="M195.62,100s-.07,33.77,2.69,46.5c2.88,13.23,11.33,43.33,11.33,43.33l6.13-.79s-4.79-30.41-6.83-43.56c-2.23-14.33-.86-47.91-.86-47.91Z"/><path class="cls-19" d="M207.71,112.52l-3-3c.12,13,.84,19.38,3.34,26.37C207.64,128.51,207.61,119.78,207.71,112.52Z"/><path class="cls-15" d="M199.85,99.1s9.16,27.92,13.71,44c4.8,17,23.19,35.72,23.19,35.72l5.28-3S229.47,158,224.84,142.14c-9.4-32.14-5.54-38.95-12.47-45.48Z"/><path class="cls-18" d="M199.85,99.1s9.16,27.92,13.71,44c4.8,17,23.19,35.72,23.19,35.72l5.28-3S229.47,158,224.84,142.14c-9.4-32.14-5.54-38.95-12.47-45.48Z"/><path class="cls-9" d="M192.65,53.47c2.44.82,4.65,6.87,4.74,9.25s-7,5.67-7,5.67-3.16-7.67-2.28-12.56C188.45,53.68,192.65,53.47,192.65,53.47Z"/><path class="cls-10" d="M159.21,81l-2.89-3.15-.95,4s2.06,1.81,3.72,1.19Z"/><polygon class="cls-10" points="153.39 76.93 151.37 78.54 155.37 81.78 156.32 77.83 153.39 76.93"/><path class="cls-9" d="M241,183l3.38-3.4a.33.33,0,0,1,.44,0l3.08,2.29a.68.68,0,0,1,.06,1c-1.2,1.16-1.84,1.67-3.32,3.16-.92.92-2.16,2.36-3.42,3.64s-2.59.09-2.17-.56a8.35,8.35,0,0,0,1.63-5.42A1.11,1.11,0,0,1,241,183Z"/><path class="cls-9" d="M211.07,194.9h4.8a.35.35,0,0,1,.35.29L217,199a.65.65,0,0,1-.64.76c-1.68,0-2.49-.13-4.6-.13-1.29,0-4,.13-5.76.13s-2-1.77-1.25-1.93a10.78,10.78,0,0,0,5.64-2.66A1.08,1.08,0,0,1,211.07,194.9Z"/><path class="cls-20" d="M211,79.27l-2.62,1.57,3,11.36C210.72,88.77,211,85,211,79.27Z"/><path class="cls-9" d="M196.06,61.51c1.87,1.56,4.57,3.84,7.76,1.17,2.73-2.28,4.64-8.28-.25-8.5C201,54.07,196.06,61.51,196.06,61.51Z"/><path class="cls-10" d="M200.57,62.57c0,2.58.4,7.23,2.46,8.55,0,0-.19,2.66-4.81,3.56-5.08,1-2.92-2.05-2.92-2.05,2.65-1.2,2.17-3.25,1.31-5.08Z"/><path class="cls-17" d="M199,64.6l-2.34,2.94a8.6,8.6,0,0,1,.5,1.33,3.5,3.5,0,0,0,2.16-2.94A4,4,0,0,0,199,64.6Z"/><path class="cls-10" d="M200.81,56.65c.56,4.2.88,6-.8,8.51-2.53,3.81-7.81,3.58-9.6-.37-1.62-3.56-2.26-9.83,1.49-12.27A5.77,5.77,0,0,1,200.81,56.65Z"/><path class="cls-9" d="M193.52,49.29c-2.85,2,2.85,2.61,2.86,5.53,0,1.21,2,5,4.8,4.83l2.74-4.86C206.79,50.14,200,44.69,193.52,49.29Z"/><path class="cls-9" d="M193.52,49.29c-5-.26-7.18,3.72-6.61,7.29a32.46,32.46,0,0,1,10.68-.85C204.44,56.43,193.52,49.29,193.52,49.29Z"/><path class="cls-10" d="M202.19,60.27a3.09,3.09,0,0,1-.72,2.25c-.7.83-1.66.34-2-.64s-.24-2.37.71-2.84A1.39,1.39,0,0,1,202.19,60.27Z"/><path class="cls-9" d="M194.75,59c.06.34-.06.64-.28.69s-.46-.2-.52-.54.06-.64.28-.69S194.68,58.7,194.75,59Z"/><path class="cls-9" d="M190.93,59.78c.06.34-.06.65-.28.69s-.46-.19-.52-.53.06-.65.28-.69S190.86,59.44,190.93,59.78Z"/><path class="cls-9" d="M190.51,59.25l-.86-.08S190.19,59.72,190.51,59.25Z"/><path class="cls-21" d="M192.05,60.17a9.12,9.12,0,0,1-.79,2.39,1.48,1.48,0,0,0,1.25,0Z"/><path class="cls-9" d="M193.94,63.65a.1.1,0,0,1-.1-.08.1.1,0,0,1,.08-.12,2.7,2.7,0,0,0,2-1.47.1.1,0,0,1,.19.07,2.87,2.87,0,0,1-2.13,1.6Z"/><path class="cls-9" d="M195.62,57.59a.2.2,0,0,1-.14-.06,1.6,1.6,0,0,0-1.4-.41.2.2,0,0,1-.24-.14.2.2,0,0,1,.14-.25,2,2,0,0,1,1.77.5.21.21,0,0,1,0,.29A.23.23,0,0,1,195.62,57.59Z"/><path class="cls-9" d="M188.81,58.36h-.08a.21.21,0,0,1-.11-.27A2,2,0,0,1,190,56.86a.2.2,0,1,1,.07.4,1.62,1.62,0,0,0-1.08,1A.21.21,0,0,1,188.81,58.36Z"/><path class="cls-15" d="M239.71,184.94a.56.56,0,0,1-.47-.26.33.33,0,0,1-.06-.34c.19-.51,1.7-.84,1.87-.88a.12.12,0,0,1,.1,0,.13.13,0,0,1,0,.12c-.29.48-.87,1.3-1.41,1.32Zm1.14-1.22c-.6.15-1.38.42-1.48.69,0,0,0,.08,0,.15a.37.37,0,0,0,.33.18C240,184.73,240.43,184.35,240.85,183.72Z"/><path class="cls-15" d="M240.6,183.71c-.53,0-1.23-.13-1.43-.43a.35.35,0,0,1,0-.44.52.52,0,0,1,.4-.21h0c.61,0,1.45.83,1.49.86a.17.17,0,0,1,0,.1.11.11,0,0,1-.08.07A2.11,2.11,0,0,1,240.6,183.71Zm-.95-.88h0a.33.33,0,0,0-.25.13c-.08.11-.06.17,0,.21a2.16,2.16,0,0,0,1.51.33A2.46,2.46,0,0,0,239.65,182.83Z"/><path class="cls-15" d="M209.5,195.65a1.69,1.69,0,0,1-1-.26.58.58,0,0,1-.21-.49.3.3,0,0,1,.15-.27c.51-.3,2.27.57,2.46.67a.11.11,0,0,1,.06.11s0,.08-.08.08A6.56,6.56,0,0,1,209.5,195.65Zm-.8-.89a.34.34,0,0,0-.19,0,.11.11,0,0,0-.06.1.39.39,0,0,0,.14.33,2.69,2.69,0,0,0,1.91.12A5.84,5.84,0,0,0,208.7,194.76Z"/><path class="cls-15" d="M210.82,195.5h0c-.54-.24-1.6-1.17-1.52-1.65,0-.11.09-.24.37-.27h.08c.95,0,1.2,1.75,1.21,1.82a.13.13,0,0,1,0,.1Zm-1.12-1.73h0c-.18,0-.19.08-.19.1-.05.29.68,1,1.22,1.34C210.59,194.77,210.32,193.77,209.7,193.77Z"/><path class="cls-9" d="M194.33,58.5l-.86-.07S194,59,194.33,58.5Z"/><path class="cls-10" d="M198.08,78.31c-9.14,2-6.32-3.49-5.77-4.71l.23-.09c1.08-.4,1.31-.46,2.76-.88A53.75,53.75,0,0,1,203,71.12l.55-.07c.53-.07,1-.13,1.55-.17.34,0,.68-.06,1-.08l1.1-.07h0C207.4,71.58,207.86,76.14,198.08,78.31Z"/><path class="cls-22" d="M212.43,95.61,213.5,97c.08.1,0,.25-.23.29l-17.85,3.48c-.15,0-.29,0-.32-.12l-.45-1.49c0-.11.08-.22.25-.25l17.23-3.36A.31.31,0,0,1,212.43,95.61Z"/><path class="cls-15" d="M210.49,98l.47-.09c.09,0,.15-.08.13-.13l-.6-1.94c0-.06-.11-.09-.2-.07l-.46.09c-.09,0-.15.08-.14.13l.6,1.94C210.31,98,210.4,98,210.49,98Z"/><path class="cls-10" d="M200,104.44l-3.56-1.32.55,3.38s2.58.92,3.89-.26Z"/><polygon class="cls-10" points="193.1 104.01 192.25 106.23 197.03 106.5 196.48 103.12 193.1 104.01"/><path class="cls-15" d="M196.75,100.67l.46-.09c.09,0,.16-.08.14-.14l-.6-1.93c0-.06-.11-.09-.2-.07l-.46.09c-.1,0-.16.07-.14.13l.6,1.94A.18.18,0,0,0,196.75,100.67Z"/><path class="cls-15" d="M203.62,99.33l.46-.09c.1,0,.16-.08.14-.14l-.6-1.93c0-.06-.11-.09-.2-.07l-.46.09c-.1,0-.16.08-.14.13l.6,1.94C203.44,99.32,203.53,99.35,203.62,99.33Z"/><path class="cls-15" d="M201.68,69c.39-.15.87,1.21.75,1.39-.28.4-5.38,1.79-5.61,1a3.64,3.64,0,0,1,.19-1.25C197.16,69.85,198.29,70.33,201.68,69Z"/><path class="cls-15" d="M200.81,69c.2-.46.77-1.18,1.26-.77s.69,1.32.37,1.46S200.48,69.74,200.81,69Z"/><path class="cls-15" d="M201.86,69.22c.34-.36,1.11-.85,1.44-.3s.21,1.47-.14,1.5S201.29,69.82,201.86,69.22Z"/><path class="cls-15" d="M202.05,69.14a1.5,1.5,0,0,1,.76-1.46c.61-.4,1.22-.66,1.47-1.08a2.89,2.89,0,0,1,.05,1.22c-.12.59-2.06,1-1.93,1.55Z"/><path class="cls-15" d="M202,69.11a1.52,1.52,0,0,1-.15-1.64,4.71,4.71,0,0,0,.64-1.7,3,3,0,0,1,.72,1c.21.56-1.17,2-.79,2.35Z"/><path class="cls-15" d="M240,175.84l-.05,0c-.13-.18-12.62-18-17.2-33.67a229,229,0,0,1-6.88-30.63c-1-5.84-1.52-9.36-3.4-12.25a.08.08,0,0,1,0-.1.07.07,0,0,1,.09,0c1.9,2.92,2.47,6.45,3.42,12.31a232.26,232.26,0,0,0,6.88,30.62c4.58,15.63,17,33.44,17.18,33.62a.06.06,0,0,1,0,.09Z"/><path class="cls-16" d="M240,175.84l-.05,0c-.13-.18-12.62-18-17.2-33.67a229,229,0,0,1-6.88-30.63c-1-5.84-1.52-9.36-3.4-12.25a.08.08,0,0,1,0-.1.07.07,0,0,1,.09,0c1.9,2.92,2.47,6.45,3.42,12.31a232.26,232.26,0,0,0,6.88,30.62c4.58,15.63,17,33.44,17.18,33.62a.06.06,0,0,1,0,.09Z"/><polygon class="cls-15" points="216.88 189 208.53 190.08 207.98 187.75 216.68 185.91 216.88 189"/><polygon class="cls-15" points="242.47 175.59 236.31 179.15 234.24 177.37 240.97 172.82 242.47 175.59"/><path class="cls-10" d="M213.57,76.44c.3,1.53.47,3,.63,4.43s.23,2.95.27,4.43a41.93,41.93,0,0,1-.1,4.48c-.06.74-.12,1.49-.23,2.25,0,.37-.09.75-.16,1.12l-.21,1.16a7.16,7.16,0,0,1-1.2,2.62A16.25,16.25,0,0,1,211,98.79a31.64,31.64,0,0,1-3.39,3,56.88,56.88,0,0,1-7.35,4.8l-1.18-1.82c1.09-.86,2.2-1.76,3.27-2.67s2.13-1.84,3.13-2.8a33.38,33.38,0,0,0,2.79-3,13,13,0,0,0,1.09-1.51,4.09,4.09,0,0,0,.54-1.28,36.63,36.63,0,0,0,.31-4c0-.68,0-1.36,0-2s0-1.37-.06-2.06c-.06-1.38-.19-2.75-.33-4.13s-.34-2.78-.55-4.08Z"/><path class="cls-11" d="M212.91,71.8c2.34,1.89,1.78,7.51,1.78,7.51l-7.87,2.59s.36-6.48.75-8.8C208,70.33,210.61,69.94,212.91,71.8Z"/><path class="cls-12" d="M212.91,71.8c2.34,1.89,1.78,7.51,1.78,7.51l-7.87,2.59s.36-6.48.75-8.8C208,70.33,210.61,69.94,212.91,71.8Z"/><path class="cls-15" d="M121.2,94h0a6,6,0,0,0-5.86-4.67H71.6a6,6,0,0,0-6,6v97.16a6,6,0,0,0,6,6H210.4a6,6,0,0,0,6-6V110.91a6,6,0,0,0-6-6H134.87A14,14,0,0,1,121.2,94Z"/><path class="cls-13" d="M121.2,94h0a6,6,0,0,0-5.86-4.67H71.6a6,6,0,0,0-6,6v97.16a6,6,0,0,0,6,6H210.4a6,6,0,0,0,6-6V110.91a6,6,0,0,0-6-6H134.87A14,14,0,0,1,121.2,94Z"/><path class="cls-23" d="M93.54,65l3.9,12.62a6.34,6.34,0,0,0,7.93,4.18L118,77.89Z"/><path class="cls-15" d="M93.54,65,48.47,78.91a6.33,6.33,0,0,0-4.19,7.92L70,170.14a6.33,6.33,0,0,0,7.92,4.19l57.69-17.82a6.34,6.34,0,0,0,4.19-7.93L118,77.89Z"/><path class="cls-24" d="M93.54,65,48.47,78.91a6.33,6.33,0,0,0-4.19,7.92L70,170.14a6.33,6.33,0,0,0,7.92,4.19l57.69-17.82a6.34,6.34,0,0,0,4.19-7.93L118,77.89Z"/><g class="cls-25"><path class="cls-15" d="M117.8,152.88,80.29,164.47a2.77,2.77,0,0,1-3.46-1.83h0a2.78,2.78,0,0,1,1.83-3.46l37.51-11.59a2.78,2.78,0,0,1,3.46,1.83h0A2.78,2.78,0,0,1,117.8,152.88Z"/></g><g class="cls-25"><path class="cls-15" d="M77.44,84.88,57.6,91a2.77,2.77,0,0,1-3.46-1.83h0A2.78,2.78,0,0,1,56,85.72L75.81,79.6a2.78,2.78,0,0,1,3.46,1.82h0A2.77,2.77,0,0,1,77.44,84.88Z"/></g><g class="cls-25"><path class="cls-15" d="M93.62,91.38,60.85,101.51a2.8,2.8,0,0,1-3.47-1.83h0a2.78,2.78,0,0,1,1.83-3.46L92,86.09a2.77,2.77,0,0,1,3.46,1.83h0A2.77,2.77,0,0,1,93.62,91.38Z"/></g><g class="cls-25"><path class="cls-15" d="M111.93,97.22,64.09,112a2.76,2.76,0,0,1-3.46-1.83h0a2.78,2.78,0,0,1,1.82-3.46l47.84-14.78a2.78,2.78,0,0,1,3.46,1.83h0A2.78,2.78,0,0,1,111.93,97.22Z"/></g><g class="cls-25"><path class="cls-15" d="M115.17,107.72l-27.81,8.59a2.77,2.77,0,0,1-3.46-1.83h0A2.77,2.77,0,0,1,85.72,111l27.81-8.59a2.77,2.77,0,0,1,3.46,1.82h0A2.78,2.78,0,0,1,115.17,107.72Z"/></g><g class="cls-25"><path class="cls-15" d="M74.6,120.25l-7.27,2.24a2.77,2.77,0,0,1-3.46-1.82h0a2.78,2.78,0,0,1,1.82-3.47L73,115a2.78,2.78,0,0,1,3.46,1.82h0A2.78,2.78,0,0,1,74.6,120.25Z"/></g><g class="cls-25"><path class="cls-15" d="M118.41,118.21,70.57,133a2.78,2.78,0,0,1-3.46-1.83h0a2.77,2.77,0,0,1,1.83-3.46l47.83-14.78a2.78,2.78,0,0,1,3.47,1.83h0A2.79,2.79,0,0,1,118.41,118.21Z"/></g><g class="cls-25"><path class="cls-15" d="M103.19,134.41l-29.38,9.07a2.77,2.77,0,0,1-3.46-1.83h0a2.77,2.77,0,0,1,1.83-3.46l29.38-9.07a2.78,2.78,0,0,1,3.46,1.82h0A2.79,2.79,0,0,1,103.19,134.41Z"/></g><g class="cls-25"><path class="cls-15" d="M121.65,128.7l-7.84,2.42a2.78,2.78,0,0,1-3.46-1.82h0a2.77,2.77,0,0,1,1.83-3.46l7.84-2.43a2.79,2.79,0,0,1,3.46,1.83h0A2.78,2.78,0,0,1,121.65,128.7Z"/></g><g class="cls-25"><path class="cls-15" d="M124.89,139.2,77.05,154a2.78,2.78,0,0,1-3.46-1.82h0a2.78,2.78,0,0,1,1.83-3.46l47.84-14.78a2.77,2.77,0,0,1,3.46,1.83h0A2.77,2.77,0,0,1,124.89,139.2Z"/></g><path class="cls-13" d="M125.92,33.65l14.3,31.88a3.43,3.43,0,0,1-1.73,4.54L77.81,97.31a3.43,3.43,0,0,1-4.54-1.73L59,63.71a3.44,3.44,0,0,1,1.73-4.55l60.68-27.24a3.45,3.45,0,0,1,4.55,1.73Z"/><path class="cls-26" d="M125.92,33.65l14.3,31.88a3.43,3.43,0,0,1-1.73,4.54L77.81,97.31a3.43,3.43,0,0,1-4.54-1.73L59,63.71a3.44,3.44,0,0,1,1.73-4.55l60.68-27.24a3.45,3.45,0,0,1,4.55,1.73Z"/><rect class="cls-15" x="114.43" y="32.49" width="2.12" height="0.55" transform="translate(-3.29 50.14) rotate(-24.16)"/><rect class="cls-15" x="105.47" y="35.5" width="6.62" height="0.55" transform="translate(-5.11 47.65) rotate(-24.16)"/><rect class="cls-15" x="59.21" y="66.86" width="0.55" height="4.04" transform="translate(-22.99 30.41) rotate(-24.18)"/><path class="cls-11" d="M123.88,31.8,108.24,62.46a14,14,0,0,1-16,7.18L58.93,61a3.43,3.43,0,0,1,1.76-1.8l60.68-27.24A3.47,3.47,0,0,1,123.88,31.8Z"/><path class="cls-15" d="M145.4,71l-47.09,2.9a6.34,6.34,0,0,0-5.94,6.72l5.37,87a6.34,6.34,0,0,0,6.72,5.93l60.26-3.72a6.33,6.33,0,0,0,5.94-6.71L166.1,89.34Z"/><path class="cls-24" d="M145.4,71l-47.09,2.9a6.34,6.34,0,0,0-5.94,6.72l5.37,87a6.34,6.34,0,0,0,6.72,5.93l60.26-3.72a6.33,6.33,0,0,0,5.94-6.71L166.1,89.34Z"/><g class="cls-27"><path class="cls-15" d="M148.24,162.18l-39.18,2.41a2.78,2.78,0,0,1-2.93-2.59h0a2.77,2.77,0,0,1,2.59-2.93l39.18-2.42a2.79,2.79,0,0,1,2.94,2.59h0A2.79,2.79,0,0,1,148.24,162.18Z"/></g><g class="cls-27"><path class="cls-15" d="M125.05,86.58l-20.72,1.28a2.77,2.77,0,0,1-2.93-2.59h0A2.79,2.79,0,0,1,104,82.33l20.72-1.27a2.78,2.78,0,0,1,2.94,2.59h0A2.78,2.78,0,0,1,125.05,86.58Z"/></g><g class="cls-27"><path class="cls-15" d="M139.25,96.71,105,98.82a2.77,2.77,0,0,1-2.93-2.59h0a2.76,2.76,0,0,1,2.59-2.93l34.24-2.12a2.78,2.78,0,0,1,2.93,2.6h0A2.77,2.77,0,0,1,139.25,96.71Z"/></g><g class="cls-27"><path class="cls-15" d="M155.66,106.7l-50,3.08a2.76,2.76,0,0,1-2.93-2.59h0a2.77,2.77,0,0,1,2.59-2.93l50-3.08a2.76,2.76,0,0,1,2.93,2.59h0A2.77,2.77,0,0,1,155.66,106.7Z"/></g><g class="cls-27"><path class="cls-15" d="M156.33,117.66l-29.05,1.79a2.76,2.76,0,0,1-2.93-2.59h0a2.77,2.77,0,0,1,2.59-2.93L156,112.14a2.78,2.78,0,0,1,2.94,2.59h0A2.78,2.78,0,0,1,156.33,117.66Z"/></g><g class="cls-27"><path class="cls-15" d="M114,120.28l-7.6.47a2.78,2.78,0,0,1-2.93-2.6h0a2.76,2.76,0,0,1,2.59-2.93l7.6-.47a2.77,2.77,0,0,1,2.93,2.59h0A2.79,2.79,0,0,1,114,120.28Z"/></g><g class="cls-27"><path class="cls-15" d="M157,128.62l-50,3.09a2.79,2.79,0,0,1-2.94-2.59h0a2.79,2.79,0,0,1,2.6-2.94l50-3.08a2.77,2.77,0,0,1,2.93,2.59h0A2.76,2.76,0,0,1,157,128.62Z"/></g><g class="cls-27"><path class="cls-15" d="M138.4,140.78l-30.69,1.89a2.77,2.77,0,0,1-2.93-2.59h0a2.77,2.77,0,0,1,2.59-2.93l30.69-1.9a2.77,2.77,0,0,1,2.93,2.59h0A2.78,2.78,0,0,1,138.4,140.78Z"/></g><g class="cls-27"><path class="cls-15" d="M157.69,139.59l-8.19.5a2.78,2.78,0,0,1-2.94-2.59h0a2.78,2.78,0,0,1,2.59-2.93l8.2-.51a2.79,2.79,0,0,1,2.93,2.59h0A2.79,2.79,0,0,1,157.69,139.59Z"/></g><g class="cls-27"><path class="cls-15" d="M158.36,150.55l-50,3.08a2.76,2.76,0,0,1-2.93-2.59h0a2.76,2.76,0,0,1,2.59-2.93L158,145a2.78,2.78,0,0,1,2.93,2.6h0A2.76,2.76,0,0,1,158.36,150.55Z"/></g><path class="cls-23" d="M145.4,71l.81,13.18a6.33,6.33,0,0,0,6.72,5.93l13.17-.81Z"/><path class="cls-28" d="M130,103.91h0A4.73,4.73,0,0,0,125,99.25H81.3a7.67,7.67,0,0,0-7.19,6L56.84,193.74a4.8,4.8,0,0,0,4.83,6H200.46a7.65,7.65,0,0,0,7.18-6l14.25-72.94a4.8,4.8,0,0,0-4.84-6H141.53C135,114.8,130.2,110.28,130,103.91Z"/></g></g></svg>