<svg  viewBox="0 0 25 25" fill="#cccc" xmlns="http://www.w3.org/2000/svg">
<g clip-path="url(#clip0)">
<path d="M3.90625 12.5H16.0156V7.46582C16.0156 5.53223 14.4678 3.92578 12.5342 3.90625C10.5811 3.88672 8.98438 5.47364 8.98438 7.42188V8.20313C8.98438 8.85254 8.46191 9.375 7.8125 9.375H6.25C5.60059 9.375 5.07812 8.85254 5.07812 8.20313V7.42188C5.07812 3.32032 8.42285 -0.0146461 12.5244 2.29584e-06C16.626 0.0146507 19.9219 3.39356 19.9219 7.49512V12.5H21.0938C22.3877 12.5 23.4375 13.5498 23.4375 14.8438V22.6563C23.4375 23.9502 22.3877 25 21.0938 25H3.90625C2.6123 25 1.5625 23.9502 1.5625 22.6563V14.8438C1.5625 13.5498 2.6123 12.5 3.90625 12.5ZM10.5469 19.9219C10.5469 21.001 11.4209 21.875 12.5 21.875C13.5791 21.875 14.4531 21.001 14.4531 19.9219V17.5781C14.4531 16.499 13.5791 15.625 12.5 15.625C11.4209 15.625 10.5469 16.499 10.5469 17.5781V19.9219Z"></path>
</g>
 
</svg>