<svg id="Capa_1"  data-name="Capa 1" xmlns="http://www.w3.org/2000/svg" viewBox="0 0 292.58 206.27"><defs><style>.cls-1{fill:#18805e;}</style></defs><path class="cls-1" d="M59.48,39.46s63.94,9.8,66.78,14.7v96.69S82.68,138,59.48,137.44Z"/><path class="cls-1" d="M79.59,22.44l4.64-4.64a171.19,171.19,0,0,1,51.31,26.3S95.22,21.65,79.59,22.44Z"/><path class="cls-1" d="M68.24,26.82s21.4,2.33,62.92,21.41c0,0-46.67-15.73-68.33-15.22Z"/><path class="cls-1" d="M230.17,39.37s-63.95,9.8-66.78,14.7v96.69s43.57-12.89,66.78-13.41Z"/><path class="cls-1" d="M210.05,22.36l-4.64-4.65A171.19,171.19,0,0,0,154.1,44S194.42,21.56,210.05,22.36Z"/><path class="cls-1" d="M221.4,26.74s-21.4,2.32-62.91,21.4c0,0,46.67-15.73,68.32-15.21Z"/><path class="cls-1" d="M130.9,159.1H115.68l29.14,39.19,29.65-39.19H158.74s-.25-105.56-.25-103.84c-7.48,3-19.43,3-27.33,0Z"/></svg>