<svg id="Capa_1"  data-name="Capa 1" xmlns="http://www.w3.org/2000/svg" viewBox="0 0 292.58 206.27"><defs><style>.cls-1{fill:#d1d2d4;}.cls-2{fill:#e7e8e9;}.cls-3{fill:#a7a9ab;}.cls-4{fill:#fff;}.cls-5{fill:#fac69b;}.cls-6{fill:#595a5c;}.cls-7{fill:#f8dfcd;}</style></defs><g id="_5" data-name="5"><polygon class="cls-1" points="169.63 0.42 58.24 0.42 58.24 190.7 213.74 190.7 213.74 44.16 169.63 0.42"/><polygon class="cls-2" points="169.63 44.16 213.74 44.16 169.63 0.42 169.63 44.16"/><polygon class="cls-3" points="213.74 44.16 169.63 44.16 213.74 87.91 213.74 44.16"/><rect class="cls-4" x="69" y="14.64" width="39.7" height="42.65"/><path class="cls-3" d="M105.35,46.28c-.86-1.74-1.81-3.63-1.9-3.69s-4.68-1.45-7.59-2.33l-2.08-.62L93,37.46l-.06,0V35.38a2.8,2.8,0,0,0,.58-.56,3.29,3.29,0,0,0,.47-1c.15-.52.08-1.36.48-1.78s.73-.54,1-1.06A6.32,6.32,0,0,0,96,28c0-.28-.17-.75-.54-.48-.17.12-.09.43-.25.53h0c.14-.45.28-.93.32-1.14a14.36,14.36,0,0,0,.22-2.14c.2-1.72.29-3.38-.78-4.83s-2.86-2.45-3.77-2.34c0,0-.66.06-.59.13a2.87,2.87,0,0,0-1.29-.4c-2.13-.51-4.83.81-6.38,2.22s-1.4,3.39-1.21,5.22a10.6,10.6,0,0,0,.23,2,3.57,3.57,0,0,1,.16,1,.27.27,0,0,0-.11-.2c-.37-.27-.52.2-.54.48a6.32,6.32,0,0,0,.55,3c.26.52.62.68,1,1.06s.33,1.26.48,1.78a3.07,3.07,0,0,0,.47,1,3.19,3.19,0,0,0,.82.73v2l-.07-.06L84,39.64l-.81.24-.32.1-.36.11-.59.17c-2.91.88-7.46,2.24-7.58,2.33s-1.2,2.26-2.11,4.09a2.9,2.9,0,0,0-.28,1.22v9.38h33.81V48A4,4,0,0,0,105.35,46.28Z"/><rect class="cls-3" x="114.24" y="22.1" width="51.44" height="6.46"/><rect class="cls-3" x="114.24" y="34.48" width="51.44" height="6.46"/><rect class="cls-3" x="114.24" y="46.86" width="51.44" height="6.46"/><rect class="cls-3" x="67.99" y="73.72" width="132.13" height="6.45"/><rect class="cls-3" x="67.99" y="92.34" width="132.13" height="6.45"/><rect class="cls-3" x="67.99" y="110.95" width="132.13" height="6.45"/><rect class="cls-3" x="67.99" y="129.57" width="132.13" height="6.45"/><rect class="cls-3" x="67.99" y="148.18" width="132.13" height="6.45"/><rect class="cls-3" x="67.99" y="166.8" width="132.13" height="6.45"/><path class="cls-5" d="M181.4,137.6c-.22.22-1.16.29-1.45.36l-2.8.69c-2.83.7-2.17,1.68-5,2.37-6.9,1.72-14.06,2.36-21,4.07L143.57,147c-.44.11-2.41.9-2.79.64-.22-.14-.37-1.08-.47-1.31s-.46-1.2-.93-2.3a40.75,40.75,0,0,0-2.56-5.17c-.5-.72-12-12.21-12.66-14.06-.78-2.25-1.18-4.72-1.77-7l-2.45-9.7c-.17-.72-.43-1.47-.55-2.21-.34-2.24.08-4.71,1.76-6.16a4.38,4.38,0,0,1,4.35-.91c1.11.54,1.67,1.91,2.17,3a23.54,23.54,0,0,1,1.46,4.82c.45,2.11,1.25,2.79,1.63,2.32.54-.64-.28-2.45-.44-3.11L119.06,61.12c-.31-1.27-.77-2.58-1-3.87a2.3,2.3,0,0,1,.33-1.43,3.35,3.35,0,0,1,.21-.36l0,0a8.55,8.55,0,0,1,.56-.72,6.44,6.44,0,0,1,7.15-1.84,6.71,6.71,0,0,1,.82.34l0,0a3.69,3.69,0,0,1,.88.6,2.35,2.35,0,0,1,.64,1c.2.72.35,1.42.54,2.14.68,2.71,7.67,31.28,8.26,32.81.47,1.19,1.78.77,1.6-.45a31.26,31.26,0,0,0-.92-3.67c-.42-1.67-2-7.21-1.83-8.28.4-2.94,4.73-4.58,7.3-3.66a5.12,5.12,0,0,1,3.14,3.74L148,82.21a29,29,0,0,0,.9,3.59c.43,1,1.13.9,1.82.21s-.21-5.18-.58-6.66a6,6,0,0,1,.6-5.14,5.63,5.63,0,0,1,6.8-1.77c1.75.7,2.24,2.08,2.66,3.73s1.57,8,3,7.68c.61-.1.3-2.21.2-2.79A4.8,4.8,0,0,1,167,75.58a5.65,5.65,0,0,1,5.35,1.75h0s.06,0,.1.1.05,0,.06.07,0,0,0,0h0c.64,1.24,4.39,17,6,23.52l1.84,7.26c.78,3.14,0,6.67-1.05,9.68a80.26,80.26,0,0,0-.59,8.05c0,.28,1.1,4.66,1.87,7.74.32,1.29.58,2.34.7,2.79S181.62,137.37,181.4,137.6Z"/><polygon class="cls-4" points="183.81 132.99 136.31 144.76 138.63 153.97 186.13 142.2 183.81 132.99"/><polygon class="cls-6" points="192.34 138.96 132.82 153.71 146.92 206.27 206.44 206.27 192.34 138.96"/><path class="cls-7" d="M125.52,62.62c-2.28.92-4.92-.86-5.89-4l-.8-2.59a4.77,4.77,0,0,1-.17-.65,8.55,8.55,0,0,1,.56-.72,6.44,6.44,0,0,1,7.15-1.84,6.71,6.71,0,0,1,.82.34l0,0,.64,2.07C128.84,58.39,127.77,61.69,125.52,62.62Z"/></g></svg>