<svg id="Capa_1"  data-name="Capa 1" xmlns="http://www.w3.org/2000/svg" viewBox="0 0 292.58 206.27"><defs><style>.cls-1{fill:#06978e;}.cls-2{fill:#17b2a7;}.cls-3{fill:#059a8b;}.cls-4{fill:#0c7e72;}.cls-5{fill:#fff;}.cls-6{fill:#d9d9d9;}.cls-7{fill:#c7c7c7;}.cls-8{fill:#e2e3e3;}.cls-9{fill:#525355;}.cls-10{fill:#c4c6cf;}.cls-11{fill:#cd7f10;}.cls-12{fill:#eb9213;}.cls-13{fill:#b77119;}.cls-14{fill:#d5821a;}.cls-15{fill:#f5f6f6;}.cls-16{fill:#6e6f72;}.cls-17{fill:#f6e93d;}.cls-18{fill:#e0ce30;}.cls-19{fill:#ebedf2;}.cls-20{fill:#a8a9b2;}.cls-21{fill:#f5fafc;}.cls-22{fill:#cf3f3f;}.cls-23{fill:#e94847;}.cls-24{fill:#b8393a;}.cls-25{fill:#d54342;}.cls-26{fill:#eab38b;}.cls-27{fill:#595a5c;}.cls-28{fill:#f2c4a5;}</style></defs><g id="_10" data-name="10"><polygon class="cls-1" points="162.54 184.16 141.16 184.16 141.16 90.41 162.54 111.79 162.54 184.16"/><polygon class="cls-2" points="141.16 90.41 141.16 28.57 141.16 26.26 162.54 26.26 162.54 53.1 162.54 111.79 141.16 90.41"/><polygon class="cls-3" points="162.54 111.79 162.54 53.1 162.54 26.26 183.38 26.26 183.38 77.01 183.38 132.62 162.54 111.79"/><polygon class="cls-4" points="183.38 184.16 162.54 184.16 162.54 111.79 183.38 132.62 183.38 184.16"/><polygon class="cls-5" points="145.55 94.79 145.55 33.6 145.55 33.18 162.54 33.18 162.54 53.1 162.54 111.79 145.55 94.79"/><polygon class="cls-6" points="162.54 142.01 145.55 142.01 145.55 94.79 162.54 111.79 162.54 142.01"/><polygon class="cls-7" points="178.99 142.01 162.54 142.01 162.54 111.79 178.99 128.24 178.99 142.01"/><polygon class="cls-8" points="162.54 111.79 162.54 53.1 162.54 33.18 178.99 33.18 178.99 71.98 178.99 128.24 162.54 111.79"/><path class="cls-9" d="M162.59,152.52c4.86.2,8.66,4.72,8.66,10.29s-3.8,10.09-8.66,10.29h-.07l-.25,0c-5,0-9-4.63-9-10.31s4-10.31,9-10.31h.32Z"/><path class="cls-6" d="M162.54,171.56l-.27,0c-4.22,0-7.65-3.93-7.65-8.77s3.43-8.77,7.65-8.77h.27Z"/><path class="cls-7" d="M169.91,162.81c0,4.74-3.27,8.59-7.37,8.75V154.05C166.64,154.22,169.91,158.07,169.91,162.81Z"/><rect class="cls-10" x="151.85" y="42.14" width="21.11" height="8.39"/><polygon class="cls-11" points="205.51 179.41 184.12 179.41 184.12 133.37 205.51 154.75 205.51 179.41"/><polygon class="cls-12" points="184.12 133.37 184.12 72.26 184.12 21.5 205.51 21.5 205.51 96.79 205.51 154.75 184.12 133.37"/><polygon class="cls-13" points="226.34 179.41 205.51 179.41 205.51 154.75 226.34 175.58 226.34 179.41"/><polygon class="cls-14" points="205.51 154.75 205.51 96.79 205.51 21.5 226.34 21.5 226.34 120.7 226.34 175.58 205.51 154.75"/><polygon class="cls-15" points="188.51 28.42 205.51 28.42 205.51 96.79 205.51 137.26 188.51 137.26 188.51 77.29 188.51 28.42"/><polygon class="cls-8" points="205.51 28.42 221.95 28.42 221.95 115.67 221.95 137.26 205.51 137.26 205.51 96.79 205.51 28.42"/><path class="cls-9" d="M205.55,168.35h-.32c-4.95,0-9-4.62-9-10.3a10.77,10.77,0,0,1,4-8.57l13.06,13.07A9,9,0,0,1,205.55,168.35Z"/><path class="cls-16" d="M200.25,149.49a8.1,8.1,0,0,1,5-1.74h.32c4.86.2,8.66,4.71,8.66,10.29a11.66,11.66,0,0,1-.9,4.5Z"/><path class="cls-6" d="M205.51,166.81l-.28,0c-4.22,0-7.64-3.93-7.64-8.77a9.08,9.08,0,0,1,3.71-7.51l4.21,4.2Z"/><path class="cls-15" d="M201.3,150.55a6.84,6.84,0,0,1,3.93-1.26h.28v5.45Z"/><path class="cls-7" d="M205.51,166.81V154.75l6.74,6.75A7.72,7.72,0,0,1,205.51,166.81Z"/><path class="cls-8" d="M205.51,154.75V149.3c4.09.17,7.36,4,7.36,8.76a9.73,9.73,0,0,1-.62,3.44Z"/><rect class="cls-10" x="194.95" y="37.38" width="21.11" height="8.39"/><polygon class="cls-17" points="56.6 28.57 56.6 26.26 77.98 26.26 77.98 53.1 77.98 184.16 56.6 184.16 56.6 28.57"/><polygon class="cls-18" points="77.98 53.1 77.98 26.26 98.81 26.26 98.81 77.01 98.81 184.16 77.98 184.16 77.98 53.1"/><polygon class="cls-5" points="60.98 33.6 60.98 33.18 77.98 33.18 77.98 53.1 77.98 142.01 60.98 142.01 60.98 33.6"/><polygon class="cls-19" points="77.98 53.1 77.98 33.18 94.42 33.18 94.42 71.98 94.42 142.01 77.98 142.01 77.98 53.1"/><path class="cls-20" d="M77.7,173.12c-5,0-9-4.63-9-10.31s4-10.31,9-10.31H78c4.86.2,8.66,4.72,8.66,10.29S82.88,172.9,78,173.1H78Z"/><path class="cls-21" d="M70.06,162.81c0,4.95,3.57,8.94,7.92,8.76V154C73.63,153.87,70.06,157.86,70.06,162.81Z"/><path class="cls-19" d="M78,154.05v17.51c4.09-.16,7.37-4,7.37-8.75S82.07,154.22,78,154.05Z"/><rect class="cls-10" x="67.29" y="42.14" width="21.11" height="8.39"/><polygon class="cls-22" points="119.92 89.87 119.92 172.49 98.54 172.49 98.54 65.34 98.54 47.78 119.92 69.16 119.92 89.87"/><polygon class="cls-23" points="98.54 47.78 98.54 14.58 119.92 14.58 119.92 69.16 98.54 47.78"/><polygon class="cls-24" points="140.75 113.78 140.75 172.49 119.92 172.49 119.92 89.87 119.92 69.16 140.75 90 140.75 113.78"/><polygon class="cls-25" points="119.92 69.16 119.92 14.58 140.75 14.58 140.75 90 119.92 69.16"/><polygon class="cls-6" points="119.92 89.87 119.92 130.34 102.92 130.34 102.92 70.37 102.92 52.17 119.92 69.16 119.92 89.87"/><polygon class="cls-15" points="102.92 52.17 102.92 21.5 119.92 21.5 119.92 69.16 102.92 52.17"/><polygon class="cls-7" points="136.36 108.75 136.36 130.34 119.92 130.34 119.92 89.87 119.92 69.16 136.36 85.61 136.36 108.75"/><polygon class="cls-8" points="119.92 69.16 119.92 21.5 136.36 21.5 136.36 85.61 119.92 69.16"/><path class="cls-9" d="M120,140.85c4.86.19,8.67,4.71,8.67,10.29s-3.81,10.09-8.67,10.29h-.32c-5,0-9-4.62-9-10.3s4-10.31,9-10.31H120Z"/><path class="cls-6" d="M119.92,159.89l-.28,0c-4.22,0-7.64-3.93-7.64-8.77s3.42-8.77,7.64-8.77h.28Z"/><path class="cls-7" d="M127.28,151.14c0,4.73-3.27,8.58-7.36,8.75V142.38C124,142.55,127.28,146.4,127.28,151.14Z"/><rect class="cls-10" x="109.36" y="30.46" width="21.11" height="8.39"/><path class="cls-26" d="M93.68,175.4c.37.09,1.36-.45,1.7-.57l3.27-1.1c3.33-1.12,3.29.29,6.6-.83,8.08-2.71,15.72-6.69,23.79-9.4l8.92-3c.52-.17,3-.64,3.22-1.15.14-.29-.32-1.34-.37-1.64s-.31-1.52-.56-2.95a47.71,47.71,0,0,1-.79-6.91c0-1.05,4.16-20.18,3.61-22.48-.68-2.79-1.88-5.56-2.8-8.3l-3.85-11.45c-.29-.84-.53-1.78-.88-2.61-1.13-2.49-3.15-4.73-5.8-5.12-1.64-.25-4,.3-5,1.88-.78,1.27-.44,3-.25,4.43a28.24,28.24,0,0,0,1.67,5.85c.92,2.43.56,3.64-.13,3.4-1-.3-1.32-2.66-1.59-3.44L106.72,57.3c-.51-1.5-.9-3.13-1.55-4.57a2.71,2.71,0,0,0-1.26-1.24,4.53,4.53,0,0,0-.44-.23l-.06,0a9.29,9.29,0,0,0-1-.37A7.68,7.68,0,0,0,94,53.62a7.19,7.19,0,0,0-.61.87l0,.06a4.5,4.5,0,0,0-.5,1.18,2.87,2.87,0,0,0,0,1.48c.26.86.57,1.67.85,2.53,1.08,3.2,12.65,36.78,13.05,38.71.31,1.52-1.29,2-1.91.58a41.39,41.39,0,0,1-1.46-4.32c-.66-2-2.71-8.61-3.55-9.62-2.32-2.73-7.75-1.6-9.74,1a6.11,6.11,0,0,0-.73,5.83l1.86,5.56a32.52,32.52,0,0,1,1.43,4.24c.25,1.35-.55,1.65-1.69,1.4S87.8,97.7,87.21,96a7.29,7.29,0,0,0-4-4.85,6.72,6.72,0,0,0-8,2.6c-1.31,1.85-.91,3.58-.25,5.52s3.59,9.09,2,9.72c-.69.29-1.74-2-2-2.7A5.83,5.83,0,0,0,67.81,103a6.75,6.75,0,0,0-4.25,5.25v0a.29.29,0,0,0,0,.17.14.14,0,0,0,0,.11s0,0,0,0v0c.17,1.67,6.67,20.14,9.26,27.82l2.88,8.57c1.26,3.7,4.37,6.77,7.36,9.17a92.33,92.33,0,0,1,5.85,7.81c.17.29,1.93,5.46,3.16,9.09.51,1.51.94,2.75,1.12,3.28S93.32,175.31,93.68,175.4Z"/><rect class="cls-5" x="88.54" y="162.6" width="58.67" height="11.47" transform="translate(-47.57 46.44) rotate(-18.62)"/><polygon class="cls-27" points="92.75 207.97 83.53 183.85 153.19 160.39 168.43 207.97 92.75 207.97"/><path class="cls-28" d="M101.18,63c2.9-.53,4.4-4.05,3.37-7.82L103.66,52a6.91,6.91,0,0,0-.25-.77,9.29,9.29,0,0,0-1-.37A7.68,7.68,0,0,0,94,53.62a7.19,7.19,0,0,0-.61.87l0,.06L94,57.06C95.08,60.84,98.3,63.51,101.18,63Z"/></g></svg>