<svg id="maps"  data-name="maps 2" xmlns="http://www.w3.org/2000/svg" viewBox="0 0 425.82 450.68"><defs>
<style>.cls-1{fill:#bdecfa;}.cls-2{fill:#a2e3f0;}.cls-3{fill:#91e182;}.cls-4{fill:#ebdc76;}.cls-5{fill:#f4d961;}.cls-6{fill:#4da1db;}.cls-7{fill:#8bdf6e;}.cls-8{fill:#7cc66e;}.cls-9{fill:#edb939;}.cls-10{fill:none;}</style>
</defs><path class="cls-1" d="M387.71,429H337.79c-.8-.68-1.91-.76-2.7-1.45-5.54-3.69-10.18-8.44-15.16-12.78Q295.45,393.43,271,372c-1.34-1.18-3.29-2.39-2.57-4.39.65-1.83,2.83-1.53,4.47-1.53q43.21-.07,86.44,0a10.58,10.58,0,0,1,2.31.28,4.24,4.24,0,0,1,1.19.43c1.39.91,2,2.39,2.56,3.82,7.46,17.87,14.76,35.81,22.19,53.7C388.24,425.8,389.09,427.41,387.71,429Z"/><path class="cls-1" d="M14,420.41q11-26.52,21.91-53.05C37.24,366,39,366,40.65,366c14,0,28.05-.08,42.08,0,4.94,0,6.28,1.47,4.71,5.41-7.46,18.69-15,37.37-23.12,55.79-.45.81-1.28,1.2-1.9,1.82H18c-2.35-.48-4.65-1-4.28-4.23C13.83,423.34,13.3,421.82,14,420.41Z"/><path class="cls-2" d="M387.71,429c-1.58-6.86-5-13-7.53-19.53-5.59-14.09-11.59-28-17.42-42,1-1.45,2.63-1.59,4.17-1.61,6.34-.12,12.68-.08,19,0a6.57,6.57,0,0,1,4,1.26c7,16.86,15.67,38,22.71,54.9a5.46,5.46,0,0,1-3.88,7Z"/><path class="cls-3" d="M268.36,429H110a1.32,1.32,0,0,1-.17-1.35,2.23,2.23,0,0,1,2-.81,22.59,22.59,0,0,1,4.27-.18H257.5c2.72,0,5.44,0,8.16.3a2.55,2.55,0,0,1,2.63.76A1.08,1.08,0,0,1,268.36,429Z"/><path class="cls-4" d="M268.36,429c0-.26-.05-.51-.08-.76,1.34-1.59,3.21-1.55,5-1.56,19.32,0,38.64,0,58,0a34.62,34.62,0,0,1,5,.77,2.74,2.74,0,0,1,1.56,1.57Z"/><path class="cls-4" d="M109.94,428.22l.06.81H62.42c.25-.53.5-1.06.76-1.59a11.81,11.81,0,0,1,4.93-.76c11.88,0,23.77,0,35.65,0C105.91,426.73,108.21,426.35,109.94,428.22Z"/><path class="cls-5" d="M109.94,428.22l-43.11,0c-1.25,0-2.62.32-3.65-.8Q74.52,399.71,85.88,372c1.89-4.61,1.9-4.61-3.2-4.61H35.93c.71-4.38,3-8.18,4.62-12.21,4.16-10.28,8.47-20.49,12.72-30.73,1.86-1.56,4.11-1.37,6.31-1.38,13.23,0,26.47-.13,39.69.08,4,.06,6.08-1.5,7.51-5.14,4.57-11.59,9.6-23,14.23-34.56.87-2.17,1.66-4.41,3.86-5.68l8.52-.22A483.51,483.51,0,0,0,179,329.66c7,6.79,27.1,24.7,30.07,27,3.17,2.42,4.53,2.45,7.28-.08,10.2-8.42,20.9-17.82,30.3-27.12,1.75-1.72,3.56-3.38,5.34-5.07a13.47,13.47,0,0,1,6.73-1.49q40,0,80,0a15,15,0,0,1,4.62.42,5.41,5.41,0,0,1,1.29.42c1.87,1.36,2.64,3.46,3.45,5.48,4.48,11.13,9.22,22.16,13.69,33.3.61,1.51,1.62,3.05.28,4.7l-80.2.15H267.89l68.34,60.11c-1.31,1.27-3,.76-4.45.77q-31.75,0-63.5,0l-1.5-.82c-1.8-.14-3.08-1.22-4.38-2.33Q208.81,379.55,155.16,334c-3.86-3.26-4.07-3.24-6,1.48-8.7,21.44-17.51,42.83-26.2,64.27-3.17,7.83-6.43,15.63-9.57,23.47-.61,1.52-.91,3.32-2.68,4.12Z"/><path class="cls-6" d="M217.91,23.33c21.37,1.43,40.34,9,58.08,19.64a130.18,130.18,0,0,1,46.93,48.17A121.59,121.59,0,0,1,339,146.4c1.53,35.21-10.48,66.92-28.42,97.1-14.37,24.17-80.58,93.38-94.33,105-2.45,2.29-4,2.38-6.35,0-17.46-14.15-64.27-63.13-71.62-72.12-14.26-18-26.54-37.13-36-57.75-9.88-21.6-16.15-44-15.56-67.63.87-35,14.24-65.41,40.68-90.66C146.61,42,169.79,30.48,196.35,24.48,201.61,23.29,217,22.89,217.91,23.33Zm42.91,126.72a47.91,47.91,0,1,0-95.82.5c.22,26.44,21.85,48.06,48,48A48.24,48.24,0,0,0,260.82,150.05Z"/><path class="cls-7" d="M344.8,324.33l-92.86,0a542,542,0,0,0,40-46.84l33.41.22c1.62.58,2.32,1.95,2.91,3.42,5.17,12.83,10.59,25.55,15.8,38.37C344.63,321,345.57,322.56,344.8,324.33Z"/><path class="cls-8" d="M344.8,324.33q-8.94-21.52-17.89-43.06c-.5-1.19-1.07-2.36-1.6-3.54q11.65-.06,23.32-.14c3.51,0,5.47,2.49,6.58,5.05,5.81,13.51,11.32,27.16,16.91,40.77a3.13,3.13,0,0,1,0,1.14c-1.17,1.29-2.75,1.39-4.3,1.41-6.22.07-12.44.05-18.67,0a6.67,6.67,0,0,1-4.34-1.42Z"/><path class="cls-9" d="M344.8,324.55h27.31q7.44,17.58,14.88,35.15c1,2.45,2,4.93,3,7.4l-27.19.38-.74-.28c-3-8.94-7-17.44-10.49-26.18C349.33,335.51,347,330,344.8,324.55Z"/><path class="cls-7" d="M124.87,277.74c-6,14.51-12,29-18,43.52-1,2.42-2.36,3.25-5,3.23-16.22-.11-32.45-.06-48.67-.07l17.25-42.07c1.18-2.89,3.14-4.73,6.43-4.73Z"/><path class="cls-7" d="M110.73,427.38c5-13.8,10.88-27.22,16.4-40.8,7.44-18.26,15-36.49,22.33-54.79,1.06-2.62,1.8-2.85,4-1,21.89,18.69,43.89,37.26,65.81,55.92q23.82,20.29,47.53,40.73c-1.16,1.23-2.68.78-4,.78q-74,0-148,0C113.38,428.23,111.86,428.65,110.73,427.38Z"/><rect class="cls-10" x="211.6" y="347.25" width="2.73" height="3.8" rx="1.37"/></svg>