<svg   viewBox="0 0 146 133" fill="none" xmlns="http://www.w3.org/2000/svg">
<g clip-path="url(#clip0_1033_499)">
<path d="M88.2483 109.75H57.7517V129.438H88.2483V109.75Z" fill="#B3B3B3"/>
<path d="M88.2483 109.75H57.7517V118.49H88.2483V109.75Z" fill="#808080"/>
<path d="M146 103.005H0V28.2962C0 24.3069 3.27183 21.0712 7.30569 21.0712H138.694C142.728 21.0712 146 24.3069 146 28.2962V103.005Z" fill="#808080"/>
<path d="M140.912 29.5934H5.09155V99.1698H140.912V29.5934Z" fill="#CCCCCC"/>
<path d="M146 99.1698H0V106.462C0 110.452 3.27183 113.687 7.30569 113.687H138.694C142.728 113.687 146 110.452 146 106.462V99.1698Z" fill="#B3B3B3"/>
<path d="M73 109.75C74.5264 109.75 75.7638 108.527 75.7638 107.017C75.7638 105.508 74.5264 104.284 73 104.284C71.4736 104.284 70.2362 105.508 70.2362 107.017C70.2362 108.527 71.4736 109.75 73 109.75Z" fill="#4D4D4D"/>
<path d="M128.007 133H17.9932C16.9809 133 16.1582 132.186 16.1582 131.185C16.1582 128.253 18.5618 125.876 21.5266 125.876H124.473C127.438 125.876 129.842 128.253 129.842 131.185C129.842 132.186 129.019 133 128.007 133Z" fill="#808080"/>
<path d="M49.9797 34.2538C49.1153 55.8987 38.9359 58.0883 49.9797 73.7043C61.0235 89.3165 99.0609 83.7862 99.7092 71.9646C100.357 60.143 92.3239 53.023 97.5861 38.2319C102.848 23.4408 49.9797 34.2538 49.9797 34.2538Z" fill="#0A2240"/>
<path d="M52.8117 40.0165C51.5303 49.8548 48.1144 59.5543 49.8697 64.8896C49.8697 64.8896 50.0631 58.8907 51.1967 57.4434C51.1967 57.4434 50.0631 65.8644 53.5358 72.6957C57.0086 79.527 94.5038 78.226 94.5038 78.226C94.5038 78.226 95.2696 70.746 94.5038 65.3245C93.738 59.903 92.2746 57.7959 91.8537 54.8939C91.8537 54.8939 94.1664 59.6143 95.0649 61.4215C95.9634 63.2286 96.0848 65.8757 96.0848 65.8757C96.0848 65.8757 96.3274 61.0578 94.428 57.3722C92.5286 53.6866 93.666 43.5221 94.2308 39.5704C94.7919 35.6186 67.7833 30.9319 64.8451 32.5141C61.9069 34.0963 52.8117 40.0165 52.8117 40.0165Z" fill="#0A2240"/>
<path d="M61.5202 66.7343C48.4898 71.0986 39.1406 72.7445 36.4375 81.1655C33.7419 89.5902 29.9545 99.1698 29.9545 99.1698H118.081C118.081 99.1698 113.718 79.3208 108.941 76.0327C104.164 72.7445 85.4656 67.2367 79.7522 66.2957C74.0426 65.3508 61.5202 66.7343 61.5202 66.7343Z" fill="#39B54A"/>
<path d="M97.4458 85.8147C97.4458 85.8147 97.7794 93.7183 96.6117 99.1698H99.5992L97.4458 85.8147Z" fill="#009245"/>
<path d="M51.0753 88.9304C51.0753 88.9304 50.8213 94.9893 51.716 99.1698H49.4261L51.0753 88.9304Z" fill="#006837"/>
<path d="M40.5964 78.7622C41.7376 75.7852 45.4227 72.2909 45.4264 72.2871C40.9528 74.3192 37.825 76.8538 36.4412 81.1693C33.7419 89.5903 29.9545 99.1698 29.9545 99.1698H37.063C36.7521 90.1976 39.4515 81.7392 40.5964 78.7622Z" fill="#009245"/>
<path d="M77.4698 83.1189C77.4698 83.1189 71.1347 82.7064 67.2904 79.8307C63.4461 76.955 63.9655 74.0792 63.9655 74.0792C63.9655 74.0792 61.16 74.2854 60.1212 74.0792C59.0824 73.873 60.5723 63.1724 66.6307 62.9737C72.6891 62.7788 85.3783 65.2646 86.9365 65.347C88.4947 65.4295 93.6356 69.985 92.339 75.7589C92.1305 76.685 89.6207 74.0792 88.4795 75.414C87.3384 76.7488 86.4019 82.399 77.4698 83.1189Z" fill="#8CC63F"/>
<path d="M75.3657 81.398C75.3657 81.398 67.7567 76.3476 64.3294 66.4344C63.7873 64.8672 64.7047 63.9898 66.3843 63.7236L75.3657 81.398Z" fill="#009245"/>
<path d="M77.7921 82.9164C82.2468 80.0969 86.3527 73.1644 87.5962 70.8511C88.8435 68.5415 88.8928 66.3631 85.075 65.9619C81.2611 65.5607 77.7921 82.9164 77.7921 82.9164Z" fill="#009245"/>
<path d="M85.6438 51.902C84.495 61.0654 83.8391 65.9657 86.9366 69.7676C86.9366 69.7676 81.4128 80.8618 77.4661 83.1227C77.4661 83.1227 68.0146 76.4451 65.4176 65.7633C65.4176 65.7633 66.9758 63.4012 67.1843 59.9068C67.3928 56.4124 66.8734 50.3535 66.8734 50.3535L85.6438 51.902Z" fill="#FFC5C7"/>
<path d="M83.2287 76.3289C77.4661 83.2314 71.5252 77.4049 69.3187 74.4467C72.9621 79.9357 77.4699 83.1227 77.4699 83.1227C79.2859 82.0803 81.4355 79.1671 83.2287 76.3289Z" fill="#FE8A8B"/>
<path d="M67.1843 59.9068C67.0061 62.895 65.8422 65.0546 65.5085 65.6133C69.785 64.8634 78.956 63.1237 84.7073 61.0953C84.7983 58.5833 85.1812 55.5876 85.6399 51.902L74.1904 50.9571L66.881 50.4885C66.9606 51.3921 67.3738 56.7161 67.1843 59.9068Z" fill="#FE8A8B"/>
<path d="M100.574 28.5549C100.941 22.7772 101.036 17.5169 96.4753 10.7756C91.9144 4.03427 92.8774 21.8211 92.9532 22.0236C93.0291 22.226 96.9947 29.7284 96.9947 29.7284L100.574 28.5549Z" fill="#FFA6A4"/>
<path d="M97.9994 37.6995C97.4193 41.0214 97.8136 43.7659 99.4249 44.0434C101.036 44.3171 102.81 41.8463 103.39 38.5244C103.971 35.2025 103.133 32.2855 101.521 32.008C99.9102 31.7343 98.5794 34.3776 97.9994 37.6995Z" fill="#F97068"/>
<path d="M101.15 39.8329L100.134 40.2415L99.1406 42.9673C99.1406 42.9673 98.9738 43.3047 98.7653 43.7397C98.9586 43.8934 99.1747 44.0021 99.4249 44.0434C100.854 44.2871 102.409 42.3712 103.148 39.6191C101.866 40.279 101.15 39.8329 101.15 39.8329Z" fill="#CB3034"/>
<path d="M96.5094 27.4713C97.7605 27.2426 101.305 28.1725 101.707 29.9834C102.621 34.1001 101.101 43.6534 98.3141 46.0118C97.298 46.8704 94.466 46.6979 93.4613 46.3905C90.9098 45.6181 90.9022 41.5838 91.8348 36.2373C92.7637 30.8907 94.773 27.79 96.5094 27.4713Z" fill="#F97068"/>
<path d="M101.149 39.8329C99.8529 40.759 99.178 39.8329 99.178 39.8329C98.2985 41.6813 96.6834 41.6813 94.6399 41.955L93.495 41.3551C93.495 41.3551 92.3766 42.1687 91.3264 42.9036C91.516 44.7445 92.1529 45.9968 93.4571 46.3942C94.4618 46.6979 97.2938 46.8741 98.3098 46.0155C99.5344 44.9807 100.513 42.5661 101.149 39.8329Z" fill="#CB3034"/>
<path d="M101.707 29.9834C101.305 28.1725 97.7606 27.2426 96.5095 27.4713C96.4071 27.4901 96.3009 27.5201 96.1948 27.5576C98.4847 27.3888 99.6865 28.9748 99.9481 30.7932C100.21 32.6117 99.9481 40.8302 97.2525 44.4558C96.9075 44.917 96.3123 46.2705 94.3105 46.5554C95.5844 46.7204 97.5104 46.6866 98.3141 46.008C101.101 43.6572 102.621 34.1039 101.707 29.9834Z" fill="#FFA6A4"/>
<path d="M101.15 39.8329C99.8533 40.759 99.1785 39.8329 99.1785 39.8329C98.7501 41.6101 98.1321 43.2785 97.2525 44.4596C96.9075 44.9207 96.3123 46.2742 94.3105 46.5592C95.5844 46.7241 97.5103 46.6904 98.3141 46.0118C99.5349 44.9807 100.513 42.5661 101.15 39.8329Z" fill="#F97068"/>
<path d="M96.6989 36.9909C96.1947 39.8929 95.1483 42.135 94.3597 42.0037C93.575 41.8688 93.3475 39.4092 93.8517 36.5072C94.356 33.6052 95.4023 31.3631 96.1909 31.4944C96.9757 31.6293 97.2032 34.0889 96.6989 36.9909Z" fill="#CB3034"/>
<path d="M57.437 46.218C57.4711 46.3005 57.509 46.3867 57.5469 46.4729C58.8245 49.3862 61.1296 52.4194 63.3854 54.6915C66.7179 58.0509 71.2408 60.9678 76.0329 61.6052C81.1852 62.2876 85.9128 59.4531 89.3591 55.8163C90.9438 54.1441 92.1797 52.0819 92.6916 49.8323C93.2337 47.444 92.9418 44.8795 93.3361 42.4387C93.5484 41.1264 94.0829 39.8891 94.5303 38.6368C95.9065 34.7938 96.5965 30.4933 96.1226 26.3578C95.9255 24.6406 95.6411 22.1773 94.7009 20.6888C93.6204 18.9753 91.1182 17.6293 89.4311 16.5833C84.021 13.2351 76.8518 12.0091 70.7062 13.9025C64.4242 15.8372 59.2984 20.8163 56.6522 26.7065C55.3935 29.511 54.6618 32.2705 55.2722 35.2924C56.0342 39.0568 55.9167 42.5886 57.437 46.218Z" fill="#FFC5C7"/>
<path d="M56.1746 32.0605C56.1746 32.0605 65.937 34.7151 74.5582 32.0605C83.1795 29.406 86.1063 24.067 86.8228 21.2925C86.8228 21.2925 93.8631 26.7515 95.2735 34.8088C95.2735 34.8088 95.7587 20.5051 91.2623 18.7242C86.766 16.9432 77.3599 14.6149 76.3211 15.541C75.2823 16.4671 57.8313 26.3278 57.8313 26.3278L56.1746 32.0605Z" fill="#FE8A8B"/>
<path d="M66.1113 32.2592C66.8203 31.9143 67.5558 31.6218 68.314 31.3631C69.0723 31.1157 69.8608 30.9245 70.6722 30.8307C71.4759 30.7332 72.3213 30.617 73.1327 30.8232C74.3042 31.1382 74.7705 31.3706 75.3392 31.9068L75.3012 32.0118C74.8766 32.038 74.4861 32.0155 74.0956 31.9968L72.9583 31.9368C72.2152 31.9105 71.4873 31.7306 70.729 31.7306C69.9746 31.7306 69.2125 31.7981 68.4467 31.9143C67.6809 32.0193 66.9189 32.1955 66.1492 32.368L66.1113 32.2592Z" fill="#0C0835"/>
<path d="M91.5277 32.5029C90.7997 32.1955 90.0453 31.9855 89.2757 31.8805C88.5098 31.7681 87.7402 31.7343 86.9744 31.7681C86.2048 31.8018 85.4655 32.008 84.7072 32.053C83.9452 32.1055 83.1794 32.1805 82.3302 32.1543L82.2922 32.0493C82.9367 31.4906 83.7139 31.1569 84.5139 30.947C85.3214 30.7258 86.1707 30.8045 86.9896 30.872C87.8123 30.9357 88.6274 31.0857 89.4046 31.3406C90.178 31.6031 90.9286 31.9405 91.5807 32.413L91.5277 32.5029Z" fill="#0C0835"/>
<path d="M70.8617 38.0819C71.2721 38.0819 71.6048 37.4105 71.6048 36.5822C71.6048 35.7539 71.2721 35.0825 70.8617 35.0825C70.4513 35.0825 70.1187 35.7539 70.1187 36.5822C70.1187 37.4105 70.4513 38.0819 70.8617 38.0819Z" fill="#0C0835"/>
<path d="M86.4702 38.1531C86.8638 38.1531 87.1829 37.4817 87.1829 36.6534C87.1829 35.8251 86.8638 35.1537 86.4702 35.1537C86.0766 35.1537 85.7574 35.8251 85.7574 36.6534C85.7574 37.4817 86.0766 38.1531 86.4702 38.1531Z" fill="#0C0835"/>
<path d="M80.9313 43.7959C80.7152 44.3545 80.3436 44.8682 79.8318 45.1869C79.3162 45.5056 78.6527 45.6031 78.0916 45.3669C77.1893 44.9919 76.9429 43.9496 78.1675 44.1858C78.6451 44.2758 79.1001 44.3321 79.5892 44.2646C79.8432 44.2308 80.8213 44.0733 80.9313 43.7959Z" fill="#FE8A8B"/>
<path d="M71.9954 47.8715C75.0852 48.2689 82.5274 48.4451 84.9576 48.3251C83.9642 51.587 81.5151 54.7852 78.1637 54.6652C74.7213 54.549 72.7233 51.2758 71.9954 47.8715Z" fill="#C31F2A"/>
<path d="M82.224 52.978C79.6346 50.8222 77.7656 52.6668 77.7656 52.6668C77.1741 52.2694 75.5439 51.602 74.1108 52.5581C74.9032 53.5142 75.8965 54.2228 77.1021 54.519C77.4774 54.5677 77.8679 54.6202 78.2584 54.669C79.7901 54.6915 81.1284 54.0241 82.224 52.978Z" fill="#FB8384"/>
<path d="M72.7991 47.9614C72.8521 48.5088 72.9583 49.0487 73.1251 49.5736C76.469 50.7884 80.2109 50.9796 83.6496 50.1098C83.7747 49.5399 83.8694 48.9513 83.9377 48.3589C81.1473 48.4001 75.7941 48.2539 72.7991 47.9614Z" fill="white"/>
<path d="M91.9864 54.2191C91.7362 54.2378 91.4897 54.2341 91.2509 54.2003C88.8927 53.8854 87.6265 53.7091 87.6265 53.7091L87.7705 52.6856C87.7705 52.6856 89.033 52.858 91.3911 53.1767C93.5635 53.4692 96.3501 50.0573 97.0856 46.0418C97.1349 45.7643 97.3889 45.5731 97.6732 45.6106C97.9651 45.6481 98.1699 45.918 98.1206 46.203C97.351 50.4435 94.5417 54.0203 91.9864 54.2191Z" fill="#FFA6A4"/>
<path d="M97.9917 45.7868C97.9917 45.8243 97.9917 45.8618 97.9841 45.8993C97.2221 50.136 94.409 53.7129 91.8537 53.9116C91.6035 53.9303 91.357 53.9266 91.1182 53.8928C89.2567 53.6416 88.0776 53.4842 87.6644 53.4242L87.6227 53.7091C87.6227 53.7091 88.8852 53.8816 91.2471 54.2003C91.4859 54.234 91.7324 54.2378 91.9826 54.219C94.5379 54.0166 97.3472 50.4397 98.113 46.2067C98.1433 46.0493 98.0903 45.8993 97.9917 45.7868Z" fill="#F97068"/>
<path d="M87.6833 54.2978L85.6133 54.0166C84.9006 53.9191 84.4001 53.2705 84.4987 52.5618C84.5973 51.857 85.2532 51.3621 85.9697 51.4558L88.0397 51.737C88.7525 51.8345 89.2529 52.4831 89.1543 53.1917C89.0558 53.8966 88.3961 54.3915 87.6833 54.2978Z" fill="#252384"/>
<path d="M88.851 52.1832C88.8548 52.2657 88.8548 52.3519 88.8435 52.4381C88.7449 53.143 88.089 53.6379 87.3725 53.5404L85.5603 53.2967C85.0674 53.2292 84.6845 52.8955 84.5215 52.4681C84.5139 52.4981 84.5025 52.5281 84.4987 52.5619C84.4001 53.2667 84.9006 53.9191 85.6171 54.0166L87.6871 54.2978C88.3999 54.3953 89.0596 53.9004 89.1581 53.1955C89.2074 52.8131 89.0823 52.4531 88.851 52.1832Z" fill="#261B60"/>
<path d="M84.8438 18.7654C84.8438 18.7654 95.2318 23.0809 95.3341 37.1521C95.3341 37.1521 103.644 28.1125 98.7614 14.5549C93.8783 0.997312 79.7522 1.51097 79.7522 1.51097L84.8438 18.7654Z" fill="#0A2240"/>
<path d="M84.8437 18.7654C84.8437 18.7654 94.9739 22.9834 95.3189 36.6534C95.3189 36.5747 95.3189 36.4997 95.3189 36.4172C95.1483 22.6234 90.3145 18.9604 85.5375 16.4483L84.4001 17.2544L84.8437 18.7654Z" fill="#261B60"/>
<path d="M55.5869 31.2994C55.5869 31.2994 84.2182 32.9416 86.5043 18.5629C88.7904 4.18048 81.4506 0.693608 77.849 0.348669C74.2473 0.00373102 67.2335 -0.821121 61.2282 4.93785C55.2305 10.6893 48.5276 14.1799 49.2745 32.8066L55.5869 31.2994Z" fill="#0A2240"/>
<path d="M54.9917 27.4038C56.239 26.7177 57.4863 26.0128 58.6919 25.233C59.9051 24.4681 61.0956 23.662 62.2595 22.8184C64.5949 21.135 66.8506 19.3353 68.9851 17.3856C67.0478 19.5265 64.9626 21.5436 62.7789 23.4595C61.687 24.4194 60.5648 25.3455 59.4123 26.2378C58.2673 27.1414 57.0655 27.9812 55.8523 28.8061L54.9917 27.4038Z" fill="#0C0835"/>
<path d="M71.2712 6.15637C64.4849 9.78572 57.0238 18.5142 56.8797 25.7466C56.8797 25.7466 54.0097 23.1146 55.5186 19.339C57.0276 15.5634 61.4709 11.3792 63.9314 9.58326C66.3919 7.78358 71.2712 6.15637 71.2712 6.15637Z" fill="#0C0835"/>
<path d="M57.2929 28.2062C56.3831 25.8779 57.0086 17.9255 57.2929 15.6684C57.5773 13.4076 58.4227 11.6867 58.5137 11.263C58.6047 10.8393 58.4076 10.7118 58.4076 10.7118C63.1314 3.52062 69.8343 2.4933 76.632 0.389925L76.2415 0.19871C72.401 -0.101237 66.4336 -0.0599942 61.232 4.93411C55.2305 10.6893 48.5276 14.18 49.2745 32.8066L55.5869 31.2994C55.5869 31.2994 65.3796 31.8581 73.9667 29.451C64.4167 31.3032 58.2028 30.5345 57.2929 28.2062Z" fill="#0C0835"/>
<path d="M82.9596 18.5142C80.1541 22.8484 76.6813 26.8902 63.4234 28.7723C54.5899 30.0284 53.1947 28.2362 53.1947 28.2362C53.1947 28.2362 68.6098 27.2201 74.8388 24.0969C81.064 20.97 82.9596 18.5142 82.9596 18.5142Z" fill="#0C0835"/>
<path d="M57.5621 11.053C59.2795 6.08891 67.878 0.483661 77.8527 0.344936C77.8527 0.344936 72.727 -0.888594 66.7748 1.30476C60.8187 3.49437 56.5347 7.07123 54.1765 11.1055C51.8146 15.136 57.5621 11.053 57.5621 11.053Z" fill="#FFA6A4"/>
<path d="M66.2478 2.64704C60.796 4.80291 57.7669 9.37334 57.7669 9.37334C57.4939 9.40708 55.0031 9.8645 54.9651 9.872C54.6808 10.2769 54.4116 10.6856 54.169 11.1018C54.0856 11.248 54.0135 11.3792 53.9491 11.503C54.7301 11.4505 55.8712 11.398 56.1745 11.5292C56.2997 11.5817 56.5461 11.5667 56.9328 11.473C57.3081 11.2293 57.5583 11.0493 57.5583 11.0493C59.2758 6.08518 67.8743 0.479927 77.849 0.341202C74.4937 0.303709 71.7034 0.491175 66.2478 2.64704Z" fill="#F97068"/>
<path d="M56.2276 28.5549C55.7575 19.3315 57.0768 13.0402 58.2521 11.3267C59.4274 9.61326 54.5974 10.3594 53.6306 11.7016C53.0013 12.5715 50.8782 19.9089 51.6554 28.6149C52.4326 37.3208 56.2276 28.5549 56.2276 28.5549Z" fill="#FFA6A4"/>
<path d="M57.3878 10.3331C57.801 10.4869 57.9223 10.6931 57.6304 11.1392C57.3347 11.5854 56.1253 15.4885 55.8144 18.9303C55.5035 22.3722 55.659 25.9828 55.5907 26.3953C55.5225 26.8077 52.4744 27.565 51.5569 27.1526C51.5834 27.6363 51.6175 28.1274 51.663 28.6224C51.7199 29.2635 51.7957 29.8109 51.8829 30.2721C52.808 30.3733 54.0932 30.422 55.2647 30.437C55.8334 29.4847 56.2352 28.5549 56.2352 28.5549C55.7651 19.3315 57.0845 13.0401 58.2598 11.3267C58.7299 10.6368 58.2218 10.3444 57.3878 10.3331Z" fill="#F97068"/>
<path d="M55.4238 28.105C54.2031 27.7488 50.5824 28.3149 49.991 30.0734C48.6527 34.0776 49.1683 43.7359 51.7009 46.3642C52.6221 47.324 55.458 47.4365 56.4892 47.234C59.1051 46.7241 59.5335 42.7161 59.1658 37.2983C58.7904 31.888 57.1147 28.5999 55.4238 28.105Z" fill="#F97068"/>
<path d="M51.7009 46.3642C52.6222 47.324 55.458 47.4365 56.4893 47.234C57.9944 46.9416 58.7716 45.4868 59.0938 43.2822C57.8351 44.3508 54.6164 44.0096 52.99 43.2822C52.99 43.2822 53.2553 38.4756 52.3947 35.7648C52.3947 35.7648 50.8555 39.1242 49.9191 42.2474C50.3171 44.0433 50.9124 45.5468 51.7009 46.3642Z" fill="#CB3034"/>
<path d="M54.9804 37.5833C55.3102 42.4199 54.1577 46.4355 52.4023 46.5517C50.647 46.6679 48.9561 42.8436 48.6263 38.007C48.2964 33.1703 49.449 29.1548 51.2043 29.0386C52.9596 28.9186 54.6505 32.7467 54.9804 37.5833Z" fill="#FFA6A4"/>
<path d="M52.7434 39.6192C52.7434 39.6192 50.499 39.8967 49.6346 43.2523C50.3588 45.3182 51.3672 46.6229 52.4022 46.5555C53.297 46.4955 54.0325 45.4232 54.495 43.751C53.9263 43.631 53.4031 43.4735 52.9861 43.286C52.9899 43.2823 53.187 42.4987 52.7434 39.6192Z" fill="#F97068"/>
<path d="M52.6942 38.1457C52.9406 41.7675 52.281 44.6583 50.6469 44.767C49.0167 44.8757 47.4926 42.0262 47.2462 38.4044C46.9998 34.7825 48.122 31.7568 49.7522 31.6481C51.3824 31.5431 52.4478 34.5238 52.6942 38.1457Z" fill="#F97068"/>
<path d="M50.2412 43.5147C49.4982 43.5634 48.7702 43.1285 48.1295 42.3449C48.7778 43.8746 49.6953 44.8307 50.6507 44.767C52.0534 44.6732 52.7396 42.5174 52.7434 39.6154C52.3946 41.9025 51.5682 43.4285 50.2412 43.5147Z" fill="#CB3034"/>
</g>

</svg>
