<svg  id="Capa_1" data-name="Capa 1" xmlns="http://www.w3.org/2000/svg" xmlns:xlink="http://www.w3.org/1999/xlink" viewBox="0 0 292.58 206.27"><defs><style>.cls-1{fill:#efebee;}.cls-2{fill:#68838c;}.cls-3{fill:#d5d8ee;}.cls-4{fill:#063;}.cls-5{fill:#3aaa35;}.cls-6{fill:#c2c7e0;}.cls-14,.cls-7{fill:#fff;}.cls-8{fill:#201b3f;}.cls-18,.cls-27,.cls-9{fill:none;}.cls-9{stroke:#d5d8ee;}.cls-18,.cls-9{stroke-miterlimit:10;}.cls-10{fill:#e95a4f;}.cls-11{fill:#008d36;}.cls-12{clip-path:url(#clip-path);}.cls-13{fill:#fbba10;}.cls-14,.cls-15,.cls-24{opacity:0.2;}.cls-15,.cls-25{fill:#231f20;}.cls-16{clip-path:url(#clip-path-2);}.cls-17{fill:#ca5c5a;}.cls-18{stroke:#516e76;}.cls-19{fill:#4367af;}.cls-20{fill:#f7b695;}.cls-21{fill:#4c84c4;}.cls-22{fill:#dfebe6;}.cls-23{fill:#ec977d;}.cls-26{fill:#76be84;}.cls-28{fill:#a3d2af;}.cls-29{font-size:16.8px;fill:#1d1d1b;font-family:Arial-BoldMT, Arial;font-weight:700;}</style><clipPath id="clip-path"><polygon class="cls-1" points="158.25 70.34 134.94 66.88 136.91 80.08 158.25 70.34"/></clipPath><clipPath id="clip-path-2"><path class="cls-2" d="M30.61,80l1.83,14L18,95.92a2.4,2.4,0,0,1-2.71-2L14,84.19a2.41,2.41,0,0,1,2.13-2.72Z"/></clipPath></defs><path class="cls-3" d="M0,202.38c0,2.15,65.5,3.89,146.29,3.89s146.29-1.74,146.29-3.89-65.5-3.88-146.29-3.88S0,200.24,0,202.38Z"/><rect class="cls-4" x="104.21" y="16.94" width="128.13" height="185.79" rx="4"/><rect class="cls-5" x="102.02" y="16.94" width="128.13" height="185.79" rx="4"/><rect class="cls-6" x="112.86" y="24.99" width="110.83" height="169.71"/><rect class="cls-7" x="110.67" y="24.99" width="110.83" height="169.71"/><path class="cls-8" d="M144.18,12.53H188a5,5,0,0,1,5,5V28.81a0,0,0,0,1,0,0H139.18a0,0,0,0,1,0,0V17.53A5,5,0,0,1,144.18,12.53Z"/><path class="cls-8" d="M166.09,0a12.53,12.53,0,1,0,12.53,12.53A12.53,12.53,0,0,0,166.09,0Zm0,18.79a6.27,6.27,0,1,1,6.26-6.26A6.27,6.27,0,0,1,166.09,18.79Z"/><rect class="cls-9" x="192.1" y="59.27" width="13.48" height="13.48" rx="2"/><path class="cls-10" d="M187.63,64.81l6.68,6.67a2.52,2.52,0,0,0,3.53,0l13.67-13.67,2-2c2.28-2.28-1.25-5.81-3.53-3.53L196.27,66l-2,2h3.53l-6.67-6.67c-2.28-2.28-5.81,1.25-3.54,3.53Z"/><rect class="cls-9" x="192.1" y="85.42" width="13.48" height="13.48" rx="2"/><path class="cls-10" d="M187.63,91l6.68,6.67a2.52,2.52,0,0,0,3.53,0L211.51,84l2-2c2.28-2.28-1.25-5.81-3.53-3.53L196.27,92.14l-2,2h3.53l-6.67-6.68c-2.28-2.27-5.81,1.26-3.54,3.54Z"/><rect class="cls-9" x="192.1" y="110.36" width="13.48" height="13.48" rx="2"/><path class="cls-10" d="M187.63,115.9l6.68,6.67a2.54,2.54,0,0,0,3.53,0l13.67-13.67,2-2c2.28-2.28-1.25-5.82-3.53-3.54l-13.67,13.67-2,2h3.53l-6.67-6.67c-2.28-2.28-5.81,1.26-3.54,3.54Z"/><rect class="cls-9" x="192.1" y="135.7" width="13.48" height="13.48" rx="2"/><path class="cls-10" d="M187.63,141.24l6.68,6.67a2.54,2.54,0,0,0,3.53,0l13.67-13.67,2-2c2.28-2.28-1.25-5.82-3.53-3.54l-13.67,13.67-2,2h3.53l-6.67-6.67c-2.28-2.28-5.81,1.26-3.54,3.54Z"/><rect class="cls-6" x="125.51" y="58.66" width="56.88" height="2.22" rx="1"/><rect class="cls-6" x="125.51" y="64.39" width="56.88" height="2.22" rx="1"/><rect class="cls-6" x="125.51" y="70.12" width="43.47" height="2.22" rx="1"/><rect class="cls-6" x="125.51" y="84.81" width="56.88" height="2.22" rx="1"/><rect class="cls-6" x="125.51" y="90.54" width="56.88" height="2.22" rx="1"/><rect class="cls-6" x="125.51" y="96.27" width="43.47" height="2.22" rx="1"/><rect class="cls-6" x="125.51" y="109.75" width="56.88" height="2.22" rx="1"/><rect class="cls-6" x="125.51" y="115.48" width="56.88" height="2.22" rx="1"/><rect class="cls-6" x="125.51" y="121.21" width="43.47" height="2.22" rx="1"/><rect class="cls-6" x="125.51" y="135.09" width="56.88" height="2.22" rx="1"/><rect class="cls-6" x="125.51" y="140.82" width="56.88" height="2.22" rx="1"/><rect class="cls-6" x="125.51" y="146.55" width="43.47" height="2.22" rx="1"/><path class="cls-11" d="M108.7,67.18c2.82.22,7.84,2.17,6.84,5.92a.91.91,0,0,1-.24.44.93.93,0,0,1-.66.18,5.19,5.19,0,0,1-3.57-.86c-.61-.51-1-1.25-1.63-1.71a4.59,4.59,0,0,0-1.23-.57L106,69.79c-.4-.13-.84-.32-1-.72a1.15,1.15,0,0,1,.58-1.15A4.62,4.62,0,0,1,108.7,67.18Z"/><path class="cls-8" d="M43.35,202.78h0A18.51,18.51,0,0,0,47,203c2.16,0,4.32,0,6.49-.06,1.33-.06,1.87-.72,2.11-2a15.64,15.64,0,0,0,.29-3.92.64.64,0,0,0-.08-.36.8.8,0,0,0-.4-.27,7.11,7.11,0,0,0-1.64-.38c-.38,0-1.08-.18-1.41.06a4.89,4.89,0,0,0-.79,1.15,7.89,7.89,0,0,1-1,1.2A6.34,6.34,0,0,1,48,199.89c-1,.29-2,.44-2.93.67a5.67,5.67,0,0,0-2.07.83.88.88,0,0,0-.45.76C42.55,202.52,43,202.7,43.35,202.78Z"/><path class="cls-8" d="M96.32,202.78h0a18.41,18.41,0,0,1-3.56.2c-2.17,0-4.33,0-6.49-.06-1.33-.06-1.87-.72-2.12-2a15.64,15.64,0,0,1-.29-3.92.86.86,0,0,1,.08-.36.8.8,0,0,1,.4-.27,7.11,7.11,0,0,1,1.64-.38c.38,0,1.08-.18,1.41.06a5.24,5.24,0,0,1,.8,1.15,7.26,7.26,0,0,0,.95,1.2,6.34,6.34,0,0,0,2.62,1.43c1,.29,2,.44,2.93.67a5.67,5.67,0,0,1,2.07.83.88.88,0,0,1,.45.76C97.12,202.52,96.7,202.7,96.32,202.78Z"/><path class="cls-8" d="M70.06,58.91a5.27,5.27,0,0,1-.13,1c-.34,1.42-1.39,2.47-2.16,3.66A5.06,5.06,0,0,0,67.15,67a13.74,13.74,0,0,0,3.6,6.79A6.08,6.08,0,0,0,72,75a9.33,9.33,0,0,0,1.87.7,25.19,25.19,0,0,0,5.22,1.13c.88.09,1.75.13,2.63.14a5.42,5.42,0,0,0,2.3-.8,9.87,9.87,0,0,0,2.3-1.52,13.74,13.74,0,0,0,1.88-2.28,5.66,5.66,0,0,0,1-2,17.16,17.16,0,0,1,.29-2.7,9.06,9.06,0,0,1,.94-1.46c1-1.61-.44-3.56.41-5.24.52-1,1.59-1.69,2-2.77a4.31,4.31,0,0,0,0-3.27,7.24,7.24,0,0,0-4-3.62c-1.93-.84-4.37-1.12-6,.22-.34.29-.63.63-1,.94-2.61,2.45-6,.5-9,1.63a4.37,4.37,0,0,0-2.72,2.72A9.88,9.88,0,0,0,70.06,58.91Z"/><polygon class="cls-1" points="158.25 70.34 134.94 66.88 136.91 80.08 158.25 70.34"/><g class="cls-12"><path class="cls-10" d="M149.26,73.4a5.83,5.83,0,0,0,1,2.13c1.64,2.09,5.52.7,7.46-.17a6.72,6.72,0,0,0,4.1-5.55,3.56,3.56,0,0,0-.37-2c-.76-1.32-2.63-1.6-4-1.9a10,10,0,0,0-5,.06C149.56,66.82,148.54,70.52,149.26,73.4Z"/></g><polygon class="cls-13" points="134.33 66.85 30.61 79.95 29.35 94.39 136.44 80.21 134.33 66.85"/><polygon class="cls-14" points="28.34 84.7 135.05 71.43 134.33 66.85 30.61 79.95 28.34 84.7"/><polygon class="cls-15" points="28.89 89.95 135.82 76.27 136.44 80.21 29.35 94.39 28.89 89.95"/><path class="cls-2" d="M30.61,80l1.83,14L18,95.92a2.4,2.4,0,0,1-2.71-2L14,84.19a2.41,2.41,0,0,1,2.13-2.72Z"/><g class="cls-16"><polygon class="cls-17" points="19.71 79.49 21.96 96.4 14.51 96.93 12.09 81.26 19.71 79.49"/><polyline class="cls-18" points="22.99 79.22 25.3 96.43 28.94 96.15 26.52 78.92"/></g><path class="cls-1" d="M136.24,76.33a2.59,2.59,0,1,1,1.58-3.14A2.49,2.49,0,0,1,136.24,76.33Z"/><path class="cls-1" d="M136.7,80.14a2,2,0,1,1,1.52-2.56A2.11,2.11,0,0,1,136.7,80.14Z"/><path class="cls-1" d="M135.34,71.43a2.35,2.35,0,1,1,1.44-2.85A2.25,2.25,0,0,1,135.34,71.43Z"/><path class="cls-19" d="M57.63,174.64a262.12,262.12,0,0,0,5.63-28.51c.39-3.08.76-6.17,1.19-9.24.47-3.33,1-6.5,1.66-11.22.24-1.71,3.77-1.68,5.45-2.07,4.2-1,8.52-.45,12.77-.38,1.57,0,3.69-.64,4.72.73s1.08,4,1.18,5.79c.87,15.44-1,30.85-1.41,46.28-.18,6.47-.07,12.9.25,19.37.06,1.28-.26,2.55-1.72,2.74a5.52,5.52,0,0,1-2.64-.33C83.33,197,82.46,194.39,82,193a40.52,40.52,0,0,1-1.4-6.17,113.72,113.72,0,0,1-1.25-11.64c-.85-12.69-1.51-20.88-.57-34.68-1.29,7.43-1.26,12.27-3.54,19.45a128.57,128.57,0,0,1-8.56,19.59c-1.81,3.52-3.53,7.08-5.49,10.52-1,1.71-2,3.39-3.15,5-1,1.42-1.78,2.85-3.66,3.07a10.33,10.33,0,0,1-2.42-.09.54.54,0,0,1-.62-.7c.56-3.77,2.43-7.45,3.44-11.14S56.7,178.5,57.63,174.64Z"/><path class="cls-20" d="M64.55,126a5.25,5.25,0,0,1,.78-.41,9.93,9.93,0,0,1,1.66-.51c1.33-.29,1.21.49,1.48,1.41.32,1.11,1,2.2,1.4,3.28s1.32,2.22-.05,3a5.81,5.81,0,0,1-2.27.72,1,1,0,0,1-.46,0,.91.91,0,0,1-.33-.29c-.61-.73-1.2-1.55-1.76-2.33-.8-1.12-1.44-2.08-1.21-3.54a2.28,2.28,0,0,1,.26-.76A1.9,1.9,0,0,1,64.55,126Z"/><path class="cls-21" d="M65.26,134.23a7.68,7.68,0,0,0,5-1,8.61,8.61,0,0,0,3-3.84.49.49,0,0,0-.35-.61.51.51,0,0,0-.61.35,7.41,7.41,0,0,1-2.61,3.29,5.19,5.19,0,0,1-1.74.75,9.84,9.84,0,0,1-2.71.06c-.64,0-.64,1,0,1Z"/><path class="cls-21" d="M89.91,136.18A1.94,1.94,0,0,1,88,135.7a5.46,5.46,0,0,1-.93-1.53,20.63,20.63,0,0,1-1.44-5.36c-.1-.63-1.07-.36-1,.27a20.75,20.75,0,0,0,1.7,5.94,5.27,5.27,0,0,0,1.14,1.59,3,3,0,0,0,2.71.53c.63-.1.36-1.07-.27-1Z"/><path class="cls-15" d="M84.42,123.22h-.16c-4.25-.07-8.57-.59-12.77.38-1.68.39-5.21.36-5.45,2.07-.19,1.37-.37,2.6-.54,3.75A10,10,0,0,0,68,130.83a40.16,40.16,0,0,0,8.74,2.4c3.42.58,8.09,0,9.86,3.71a13.56,13.56,0,0,1,.91,5.67A264.48,264.48,0,0,1,87.08,170,105.43,105.43,0,0,1,85,183.86c-.8,3.59-2.17,7.47-2.3,11.24a5.7,5.7,0,0,0,1.93,2.7,5.56,5.56,0,0,0,2.65.33c1.46-.19,1.78-1.46,1.71-2.74-.32-6.47-.43-12.9-.25-19.37.43-15.43,2.29-30.84,1.41-46.28,0-.75-.06-1.65-.16-2.56A11.88,11.88,0,0,0,84.42,123.22Z"/><path class="cls-20" d="M91.69,86a4.68,4.68,0,0,0-1.1.83,3.09,3.09,0,0,0,.91,4.81c2.18.95,4.82.3,7-.29A69.42,69.42,0,0,0,113.32,85a18.2,18.2,0,0,0,2.48-1.39,2.81,2.81,0,0,0,.85-1Z"/><path class="cls-22" d="M92.26,95.37a30.75,30.75,0,0,0-1.7-5.69c-.86-2.09-2.26-4.59-4.26-5.79s-5.55,0-7.62.43-4.88,1.06-6.47,2.37-1.3,4.22-1.12,6c.2,2,.69,4,.87,6a33.79,33.79,0,0,1-1.27,10.93,91.44,91.44,0,0,1-3.94,12.63,4.07,4.07,0,0,0-.44,1.89,3.68,3.68,0,0,0,2.08,2.46c6.34,3.75,14.09,3.17,21.2,2.82a3.14,3.14,0,0,0,1.69-.41,3.08,3.08,0,0,0,1-1.92,52.89,52.89,0,0,0,.89-11.93C93.14,108.63,93.55,101.8,92.26,95.37Z"/><path class="cls-20" d="M81.39,85.81c-1.42-.43-2.82-.91-4.21-1.44a1.23,1.23,0,0,1-.4-.23c-.29-.29-.24-1-.26-1.34a11.17,11.17,0,0,1,0-1.53c.06-.93.22-1.87.21-2.8a4.85,4.85,0,0,1,.34-2.21,3.15,3.15,0,0,1,2.13-1.51,9.32,9.32,0,0,1,2.69-.12,1.17,1.17,0,0,1,.74.21c.67.56.52,1.69.6,2.47a30,30,0,0,0,.63,3.38c.11.51.27,1,.4,1.54a2.44,2.44,0,0,1,.15,1.35,5.57,5.57,0,0,1-1.89,2.25.84.84,0,0,1-.34.17.82.82,0,0,1-.38-.06Z"/><path class="cls-23" d="M77.81,80.83A8.24,8.24,0,0,0,84.16,82c-.09-.45-.18-.9-.28-1.35a30,30,0,0,1-.62-3.38c-.09-.78.07-1.91-.6-2.47a1.19,1.19,0,0,0-.74-.21,9.32,9.32,0,0,0-2.69.12,3.15,3.15,0,0,0-2.13,1.51,4.6,4.6,0,0,0-.34,2.21c0,.48,0,1-.05,1.54A9,9,0,0,0,77.81,80.83Z"/><path class="cls-20" d="M72.77,71.14a11.63,11.63,0,0,0,5,8.14c2.13,1.36,5.31,2.07,7.6.67,3.07-1.87,3.69-6.43,3.61-9.71-.09-3.87-1.61-8.2-5.36-9.92C81,59.11,76.89,59,75,61.51A13.29,13.29,0,0,0,72.77,71.14Z"/><path class="cls-20" d="M109.08,68.41c1.48,1.37,2.53,3.11,1,4-.5.3-1.11-.17-1.42-.65s-.6-1.09-1.17-1.22a1.8,1.8,0,0,0-1.26.36l-4.37,2.49a2.85,2.85,0,0,1-.73.34,1.84,1.84,0,0,1-2-1.12,3,3,0,0,1,.15-2.44c1.26-2.7,3.16-3,5.83-3.07A5.07,5.07,0,0,1,109.08,68.41Z"/><path class="cls-8" d="M84.66,60.14a5.22,5.22,0,0,0-2.25.84c-1.34.91-2.17,2.4-3.38,3.48a16.17,16.17,0,0,1-4,2.29,1.79,1.79,0,0,0-.7.48,1.53,1.53,0,0,0-.25,1c.13,2.07,1.52,3.91.45,6a1.56,1.56,0,0,1-.44.57c-1.19.89-2.25-1.34-2.67-2.15a10.7,10.7,0,0,1-1.15-3.91c-.26-2.72.27-6.31,2.45-8.14a12,12,0,0,1,7.56-3,10.2,10.2,0,0,1,2.81.39,3.3,3.3,0,0,1,1.33.71,3.39,3.39,0,0,1,.68.63,5.2,5.2,0,0,1,.32.72A5.49,5.49,0,0,0,84.66,60.14Z"/><path class="cls-7" d="M80.45,75A24.41,24.41,0,0,0,84,74.61a13.87,13.87,0,0,0,3.4-1.24s-.12,1.26-.15,1.39a4.82,4.82,0,0,1-.7,1.42,3.78,3.78,0,0,1-4.75.85,2.88,2.88,0,0,1-.94-1C80.77,76,80.32,75,80.45,75Z"/><path class="cls-8" d="M84.68,65.9l.1,0h0l.18-.07a2.77,2.77,0,0,1,.41-.12l.2,0s.1,0,0,0l.12,0h.42l.2,0c.08,0-.11,0,0,0l.08,0,.21.05.09,0,.06,0c-.06,0,.05,0,.06,0l.09.06a1,1,0,0,1,.17.1h0a.6.6,0,0,1,.08.08c.06,0,.11.11.16.16a.49.49,0,1,0,.7-.7c-1-1.14-2.7-1-3.92-.42a.49.49,0,0,0-.18.68.5.5,0,0,0,.68.18Z"/><g class="cls-24"><path class="cls-25" d="M78.45,141c-.36,1.15-.62,2.34-.94,3.5a72.45,72.45,0,0,1-6,15.53c-2.93,5.34-7.06,9.53-11,14.12-1.38,1.62-2.74,3.3-4,5.05-.56,2.34-1.13,4.67-1.77,7-1,3.69-2.88,7.37-3.44,11.14a.54.54,0,0,0,.62.7,10.33,10.33,0,0,0,2.42.09c1.88-.22,2.66-1.65,3.66-3.07,1.14-1.62,2.17-3.3,3.15-5,2-3.44,3.68-7,5.49-10.52A128.57,128.57,0,0,0,75.23,160c2.28-7.18,2.25-12,3.54-19.45C78.7,140.5,78.47,141,78.45,141Z"/><path class="cls-25" d="M78.77,140.5a2.46,2.46,0,0,1,0,.28C78.78,140.64,78.81,140.5,78.77,140.5Z"/></g><path class="cls-26" d="M78.21,96.18c0,1,0,2,.05,2.94a7.08,7.08,0,0,1-.14,1.84,2.3,2.3,0,0,1-1,1.48c-1.13.64-2.9-.32-3.53-1.31a9.43,9.43,0,0,1-1.37-5h6Z"/><ellipse class="cls-20" cx="72.94" cy="74.32" rx="1.64" ry="2.67" transform="translate(-27.39 46.43) rotate(-30)"/><path class="cls-8" d="M79.86,69.92c.17.83,0,1.58-.48,1.68s-.94-.51-1.12-1.34,0-1.58.48-1.67S79.68,69.09,79.86,69.92Z"/><path class="cls-8" d="M86.9,68.52c.07.84-.24,1.56-.69,1.59s-.87-.62-.93-1.47.24-1.56.69-1.59S86.83,67.67,86.9,68.52Z"/><path class="cls-8" d="M79.5,66.08a3.32,3.32,0,0,0-2.3.58,3.39,3.39,0,0,0-1.35,1.76.5.5,0,0,0,.35.61.51.51,0,0,0,.62-.35l0-.08a.31.31,0,1,1,0,0c0-.07.07-.13.1-.2s.14-.24.22-.35.07-.09,0,0a.46.46,0,0,0,.07-.07l.15-.16a.46.46,0,0,0,.07-.07l0,0,.19-.13a4.49,4.49,0,0,1,.76-.38l.23-.06.1,0h.44a.5.5,0,0,0,.26-1Z"/><polygon class="cls-7" points="84.43 82.9 82.31 85.92 85.47 88.59 85.47 83.45 84.43 82.9"/><polygon class="cls-7" points="73.69 85.38 76.58 83.37 82.31 85.92 80.83 89.64 73.69 85.38"/><path class="cls-11" d="M67.59,126.8c-1.63.08-2.7-1.31-2.76-3,0-.6,0-1.19,0-1.78.26-4.68,2.17-9,3.81-13.31a30.78,30.78,0,0,0,2.19-11.8,27.09,27.09,0,0,0-1.92-9.49.43.43,0,0,1,0-.19.37.37,0,0,1,.09-.16A9.72,9.72,0,0,1,71.72,85a15,15,0,0,1,3.3-1.6,5.59,5.59,0,0,1,1.17-.37c1,.23,2,3.23,2.37,4.06,3.94,8.72,2.35,19.14-1.65,27.55-2,4.1-4.19,8.16-7.46,11.31a2.54,2.54,0,0,1-.9.63A3.23,3.23,0,0,1,67.59,126.8Z"/><path class="cls-11" d="M58.5,102.76c-1.11,1.89-2.44,3.93-2.8,6.06-.47,2.72.27,5.29,1.12,7.88a57.09,57.09,0,0,0,6.82,13.64c.12.17.27.37.48.35a.53.53,0,0,0,.28-.12l4.1-2.71a1.4,1.4,0,0,0,.55-.53,1.43,1.43,0,0,0-.12-1.1l-3.72-9.4A15.64,15.64,0,0,1,64,112.57a10.28,10.28,0,0,1,1.69-6.3,24.7,24.7,0,0,1,4.38-5,6.12,6.12,0,0,0,1.5-1.79c1-2.3.87-5,.64-7.41-.12-1.3.07-5.6-2-5.56a1.82,1.82,0,0,0-1,.47c-2.36,1.82-3.9,4.41-5.38,6.93-1.6,2.73-3.33,5.37-4.89,8.13Z"/><path class="cls-11" d="M94,119.12c.09-6.39.19-12.78-.17-19.17-.09-1.61-.22-3.23-.37-4.84-.1-1-.22-1,.54-1.53a10.5,10.5,0,0,1,2.16-.79c3.93-1.43,7.86-2.86,11.76-4.37,3.47-1.33,6.89-3,9.35-5.91A91.52,91.52,0,0,1,106.35,84a125,125,0,0,1-14.85.79,14.47,14.47,0,0,1-6-1.31,19.26,19.26,0,0,1,1.61,5.84c.08,2.32.23,4.64.31,7q.24,6.82.23,13.67c0,7-.52,13.88-1.19,20.88a13.55,13.55,0,0,0,4.57-.41,1.38,1.38,0,0,0,1.16-1,23.63,23.63,0,0,0,1.64-6A37.39,37.39,0,0,0,94,119.12Z"/><path class="cls-4" d="M76.91,114.66c4-8.41,5.59-18.83,1.65-27.55-.37-.83-1.42-3.83-2.37-4.06a5.59,5.59,0,0,0-1.17.37l-.2.07a5.43,5.43,0,0,0,.52,1.15,14.17,14.17,0,0,1,.8,2.72,32.81,32.81,0,0,1,.33,12.45,4,4,0,0,1,1.76.2,6,6,0,0,1-.87,1.73,6.66,6.66,0,0,0-.21,3.79,28.68,28.68,0,0,1-.61,9.9C76.66,115.17,76.79,114.91,76.91,114.66Z"/><path class="cls-27" d="M89.71,91.78c.46,2.94.87,5.89,1.31,8.83a1.68,1.68,0,0,1-1-.16,24.09,24.09,0,0,1,.08,5.09c-.49,3.83-2.75,7.25-3.25,11.07-.58-4.19-1.16-8.38-1.48-12.6-.28-3.7-.36-7.42-.91-11.08-.45-3-1.22-6-1.39-9.06a3.92,3.92,0,0,1,.31-2.07A1.51,1.51,0,0,1,85.17,81a2.25,2.25,0,0,1,1,1.11A28.39,28.39,0,0,1,89.71,91.78Z"/><path class="cls-4" d="M91,100.61c-.44-2.94-.85-5.89-1.31-8.83a25,25,0,0,0-2.54-7.66,10.92,10.92,0,0,1-1.7-.67,19.26,19.26,0,0,1,1.61,5.84c.08,2.32.23,4.64.31,7q.24,6.82.23,13.67c0,1.26,0,2.52-.06,3.77.87-2.71,2.2-5.32,2.56-8.15a24.09,24.09,0,0,0-.08-5.09A1.68,1.68,0,0,0,91,100.61Z"/><path class="cls-7" d="M82.74,87.77a32.78,32.78,0,0,1,1.5,10.14c.11,3.24,0,6.49-.17,9.73a63.41,63.41,0,0,1-1.14,10c-.69,3.33-1.49,6.62-2.1,10-.11.63.85.9,1,.27.64-3.5,1.5-7,2.2-10.44a64.31,64.31,0,0,0,1.08-9.79c.15-3.4.29-6.8.16-10.21A33,33,0,0,0,83.7,87.5c-.21-.6-1.18-.34-1,.27Z"/><path class="cls-11" d="M259.75,150.61l-8.17-2.89-4.31,7.67.26.09a20.51,20.51,0,0,0-4.77.25l.25-.12-5.08-7.18-7.82,3.73,2.38,8.47.25-.12a20.8,20.8,0,0,0-3.2,3.55l.09-.26L221,162.32l-2.89,8.17,7.67,4.3.09-.26a20.48,20.48,0,0,0,.25,4.77l-.12-.24-7.18,5.08,3.73,7.82,8.47-2.38-.12-.25a20.85,20.85,0,0,0,3.55,3.2l-.26-.1-1.48,8.67,8.17,2.9,4.3-7.67-.26-.1a20,20,0,0,0,4.77-.25l-.25.12,5.09,7.18,7.82-3.73-2.38-8.46-.25.11a20.47,20.47,0,0,0,3.2-3.55l-.1.26,8.67,1.49,2.9-8.17-7.67-4.31-.1.27a20,20,0,0,0-.25-4.78l.12.25,7.18-5.08-3.73-7.82-8.47,2.38.12.25a20.08,20.08,0,0,0-3.55-3.2l.26.09Z"/><circle class="cls-28" cx="246.21" cy="175.86" r="17.71" transform="translate(-55.51 198.43) rotate(-39.81)"/><circle class="cls-11" cx="246.21" cy="175.86" r="13.3" transform="translate(-24.73 310.54) rotate(-61.97)"/><circle class="cls-7" cx="246.21" cy="175.86" r="9.25" transform="translate(-54.89 205.56) rotate(-41.17)"/><path class="cls-11" d="M247.83,111.92l-5.23-2.53-3.43,4.79.17.08a13.27,13.27,0,0,0-3.2-.18l.18-.07-2.86-5.15L228,110.77l1,5.81.17-.06a13.76,13.76,0,0,0-2.39,2.13l.08-.17-5.66-1.63-2.53,5.23,4.79,3.43.08-.16a13.69,13.69,0,0,0-.19,3.19l-.06-.17-5.15,2.85,1.9,5.49,5.82-1-.06-.18a13.36,13.36,0,0,0,2.13,2.39l-.17-.08-1.63,5.67,5.23,2.53,3.43-4.8-.16-.08a13.69,13.69,0,0,0,3.19.19l-.17.06,2.85,5.16,5.49-1.91-1-5.82-.17.07a13.76,13.76,0,0,0,2.39-2.13l-.08.16,5.67,1.63,2.53-5.23L250.5,130l-.08.17a13.8,13.8,0,0,0,.19-3.2l.06.18,5.16-2.86-1.91-5.48-5.82,1,.06.17A13.7,13.7,0,0,0,246,117.5l.16.08Z"/><circle class="cls-28" cx="236.95" cy="127.73" r="11.87" transform="translate(20.7 288.04) rotate(-64.88)"/><path class="cls-11" d="M240.83,119.71a8.91,8.91,0,1,1-11.9,4.14A8.9,8.9,0,0,1,240.83,119.71Z"/><path class="cls-7" d="M239.65,122.15a6.2,6.2,0,1,1-8.28,2.88A6.2,6.2,0,0,1,239.65,122.15Z"/><text class="cls-29" transform="translate(141.11 49.78)">MOF</text></svg>