<svg  viewBox="0 0 144 112" fill="none" xmlns="http://www.w3.org/2000/svg">
<g clip-path="url(#clip0_734_3400)">
<path d="M96.6294 51.25L47.0095 1.63C44.8395 -0.539998 41.3295 -0.539998 39.1595 1.63L1.62945 38.7C-0.540547 40.87 -0.540547 44.38 1.62945 46.55L12.3695 57.29L56.7895 101.61L96.6294 63.75C100.079 60.29 100.079 54.7 96.6294 51.25Z" fill="#2C3761"/>
<path d="M142.24 43L76.5301 108.86C73.0801 112.31 67.4801 112.31 64.0301 108.86L26.8301 71.66C30.2801 75.11 35.8801 75.11 39.3301 71.66L105.05 5.80002C107.22 3.63002 110.73 3.63002 112.9 5.80002L142.25 35.15C144.41 37.31 144.41 40.83 142.24 43Z" fill="#5392FB"/>
<path d="M63.5001 28.99C65.0101 30.5 66.4801 31.87 67.8401 33.06C69.6101 34.6 69.7101 37.31 68.0601 38.96L41.4301 65.59C37.4201 69.6 30.9201 69.6 26.9001 65.59C22.8901 61.58 22.8901 55.08 26.9001 51.06L53.5301 24.43C55.1901 22.77 57.8901 22.88 59.4301 24.65C60.6201 26 61.9901 27.48 63.5001 28.99Z" fill="white"/>
</g>
<defs>
<clipPath id="clip0_734_3400">
<rect width="143.87" height="111.44" fill="white"/>
</clipPath>
</defs>
</svg>
