<svg  id="Capa_1" data-name="Capa 1" xmlns="http://www.w3.org/2000/svg" xmlns:xlink="http://www.w3.org/1999/xlink" viewBox="0 0 292.58 206.27"><defs><style>.cls-1{fill:none;}.cls-2{fill:url(#linear-gradient);}.cls-3{fill:url(#linear-gradient-2);}.cls-4{fill:#709dd3;}.cls-5{fill:#bbd071;}.cls-6{fill:#98a43b;}.cls-7{fill:#4a763a;}.cls-8{fill:#dbd8e3;}.cls-9{fill:#323657;}.cls-10{fill:#eea987;}.cls-11{fill:#e9754e;}.cls-12{fill:#c5c2cd;}.cls-13{fill:#efaa88;}.cls-14{fill:#eea886;}.cls-15{fill:#17202e;}.cls-16{fill:#a77961;}.cls-17{fill:#5ba3da;}.cls-18{fill:#fdc958;}.cls-19{clip-path:url(#clip-path);}.cls-20{fill:#9cc8ec;}.cls-21{fill:#9bc7ec;}.cls-22{fill:#9ac6eb;}.cls-23{fill:#99c5eb;}.cls-24{fill:#98c4ea;}.cls-25{fill:#96c2e9;}.cls-26{fill:#95c2e9;}.cls-27{fill:#94c0e8;}.cls-28{fill:#93bfe8;}.cls-29{fill:#92bfe7;}.cls-30{fill:#91bde6;}.cls-31{fill:#90bde7;}.cls-32{fill:#90bde6;}.cls-33{fill:#8fbce6;}.cls-34{fill:#8ebbe5;}.cls-35{fill:#8dbbe5;}.cls-36{fill:#8cb9e4;}.cls-37{fill:#8bb8e3;}.cls-38{fill:#8ab7e3;}.cls-39{fill:#89b6e3;}.cls-40{fill:#88b6e2;}.cls-41{fill:#87b4e1;}.cls-42{fill:#87b3e1;}.cls-43{fill:#86b3e0;}.cls-44{fill:#85b2e0;}.cls-45{fill:#84b1e0;}.cls-46{fill:#83b0df;}.cls-47{fill:#82afde;}.cls-48{fill:#82b0df;}.cls-49{fill:#81aede;}.cls-50{fill:#80addd;}.cls-51{fill:#7eacdd;}.cls-52{fill:#7caadc;}.cls-53{fill:#7baadb;}.cls-54{fill:#7aa8db;}.cls-55{fill:#79a8da;}.cls-56{fill:#79a6d9;}.cls-57{fill:#78a7d9;}.cls-58{fill:#77a5d9;}.cls-59{fill:#76a4d8;}.cls-60{fill:#75a3d7;}.cls-61{fill:#75a2d7;}.cls-62{fill:#74a2d7;}.cls-63{fill:#74a1d6;}.cls-64{fill:#73a0d5;}.cls-65{fill:#729fd5;}.cls-66{fill:#719fd5;}.cls-67{fill:#719ed4;}.cls-68{fill:#6f9cd3;}.cls-69{fill:#6e9ad2;}.cls-70{fill:#6d9ad2;}.cls-71{fill:#6c99d1;}.cls-72{fill:#6b97d0;}.cls-73{fill:#6b96cf;}.cls-74{fill:#6996cf;}.cls-75{fill:#6895ce;}.cls-76{fill:#6994ce;}.cls-77{fill:#6893cd;}.cls-78{fill:#6792cc;}.cls-79{fill:#6690cb;}.cls-80{fill:#cfa346;}.cls-81{fill:#616aa9;}.cls-82{fill:#212338;}.cls-83{fill:#464341;}.cls-84{fill:#e94847;}.cls-85{fill:#5f8cc9;}.cls-86{fill:#5f5954;}.cls-87{fill:#918880;}.cls-88{fill:#eedad3;}.cls-89{fill:#6f6861;}.cls-90{fill:#817167;}.cls-91{fill:#fdcb58;}.cls-92{fill:#d08d6c;}.cls-93{fill:#3c3f66;}.cls-94{fill:#565d96;}.cls-95{fill:#364c70;}.cls-96{fill:#deb134;}.cls-97{fill:#f2c344;}.cls-98{fill:#d9d0c4;}.cls-99{fill:#ffd257;}.cls-100{fill:#3d5881;}.cls-101{fill:#c58b71;}.cls-102{clip-path:url(#clip-path-2);}.cls-103{fill:#db9c7c;}.cls-104{clip-path:url(#clip-path-3);}.cls-105{fill:#293b57;}.cls-106{fill:#e4f1fc;}.cls-107{fill:#ebebeb;}.cls-108{fill:#162d40;}.cls-109{fill:#1d3b54;}.cls-110{fill:#d2c1bb;}.cls-111{fill:#fbe6de;}.cls-112{fill:#54281a;}.cls-113{fill:#376f9d;}.cls-114{fill:#5d554e;}.cls-115{fill:#3d4145;}.cls-116{fill:#fbcda3;}.cls-117{fill:#e3d3cc;}.cls-118{fill:#ec6055;}.cls-119{fill:#ca8463;}.cls-120{fill:#de9e7e;}.cls-121{fill:#262f3c;}.cls-122{fill:#6c98d0;}.cls-123{fill:#5786c5;}.cls-124{fill:#c1bebc;}.cls-125{fill:#d6d7d7;}.cls-126{fill:#e9e8e8;}.cls-127{fill:#c3c2c2;}</style><linearGradient id="linear-gradient" x1="205.95" y1="128.01" x2="284.54" y2="128.01" gradientUnits="userSpaceOnUse"><stop offset="0" stop-color="#78bc66"/><stop offset="1" stop-color="#163b23"/></linearGradient><linearGradient id="linear-gradient-2" x1="-174.87" y1="820.48" x2="-116.19" y2="820.48" gradientTransform="matrix(0.99, -0.1, 0.1, 0.99, 141.74, -754.38)" xlink:href="#linear-gradient"/><clipPath id="clip-path"><rect class="cls-1" x="24.62" y="141.21" width="156.84" height="2.48"/></clipPath><clipPath id="clip-path-2"><path class="cls-1" d="M160.14,157.86l.28-.13-1.24-2.61-.69.32,1,2.22A.42.42,0,0,0,160.14,157.86Z"/></clipPath><clipPath id="clip-path-3"><polygon class="cls-1" points="157.58 155.69 160.3 155.18 159.86 152.95 157.16 153.57 157.58 155.69"/></clipPath></defs><path class="cls-2" d="M274.25,145.44a33.94,33.94,0,0,0,3.67-8.64l6.49-1.25.07-7.18.06-7.18-6.47-1.37a33.4,33.4,0,0,0-3.5-8.7l3.71-5.47-5-5.12-5-5.13L262.68,99A33.25,33.25,0,0,0,254,95.34l-1.24-6.5-7.19-.06-7.18-.07-1.36,6.47a33.71,33.71,0,0,0-8.71,3.51L222.9,95l-5.13,5-5.13,5,3.61,5.53a33.94,33.94,0,0,0-3.67,8.64l-6.49,1.25-.07,7.18-.07,7.18,6.47,1.37a33.78,33.78,0,0,0,3.51,8.7l-3.71,5.47,5,5.12,5,5.13,5.54-3.61a33.25,33.25,0,0,0,8.64,3.67l1.24,6.5,7.18.06,7.19.07,1.36-6.47a33.71,33.71,0,0,0,8.71-3.51L267.6,161l5.13-5,5.12-5Zm-41.57-5.1a17.61,17.61,0,1,1,24.9.23A17.61,17.61,0,0,1,232.68,140.34Z"/><path class="cls-3" d="M103.69,87.45a25.23,25.23,0,0,0,2.07-6.7l4.72-1.42L110,74l-.5-5.34-4.91-.52a25.42,25.42,0,0,0-3.27-6.2l2.34-4.34-4.13-3.42-4.13-3.43-3.84,3.1a25.14,25.14,0,0,0-6.69-2.06l-1.42-4.73-5.34.5-5.34.5L72.24,53A25,25,0,0,0,66,56.22L61.7,53.89,58.27,58l-3.42,4.12L58,66a25.23,25.23,0,0,0-2.07,6.7L51.16,74.1l.49,5.34.5,5.34,4.91.52a25.42,25.42,0,0,0,3.27,6.2L58,95.84l4.13,3.42,4.13,3.43,3.84-3.1a25.14,25.14,0,0,0,6.69,2.06l1.42,4.73,5.34-.5,5.34-.5.52-4.91a24.75,24.75,0,0,0,6.2-3.27L100,99.54l3.42-4.13,3.42-4.13Zm-31.26-.61a13.15,13.15,0,1,1,18.51-1.73A13.15,13.15,0,0,1,72.43,86.84Z"/><path class="cls-4" d="M262.15,195.45h-.45v-32a12.92,12.92,0,0,0-12.91-12.91H215.87a13.39,13.39,0,0,1-13.37-13.36V77.36a12.92,12.92,0,0,0-12.91-12.91H105.64V64h84A13.37,13.37,0,0,1,203,77.36v59.82a12.93,12.93,0,0,0,12.92,12.91h32.92a13.37,13.37,0,0,1,13.36,13.36Z"/><path class="cls-5" d="M127.16,43.73S132.24,64,120,69.49s-9.86-4.59-9.86-4.59-5-1.39,8.61-9.11C125.21,52.15,127.16,43.73,127.16,43.73Z"/><path class="cls-6" d="M159.11,45.5s2.5,17.63-20.59,25.26-26.37,17.29-26.37,17.29S111.46,49,159.11,45.5Z"/><path class="cls-7" d="M112,80.87c-6.84-2.62,9.43-16.63,21.93-16.25s21,5,29.36,3C163.33,67.67,145.75,93.73,112,80.87Z"/><path class="cls-8" d="M135,92.57q.6-8,.83-14.93c-1.29-.68-2.83-1.47-4.06-2.06-3.82-1.82-9.15-4.27-12.56-5.84-2-.91-4-1.59-4-1.59s-13.65-1.3-14.76-1.23a34.15,34.15,0,0,0-4.3,1.46C91.39,70.22,82.06,74,80.57,75c-2.18,1.56-10,39.79-10.18,42.38S81,123.38,91,126c0,3.87-.08,9.3-.17,14.26,0,.85,0,1.68,0,2.48h43.8c-.06-.85-.11-1.69-.15-2.48,0-.11,0-.21,0-.31-.16-3.36-.82-9.37-.65-15.23,0,0-.11-6.17.51-8.83C134.33,104.19,135,92.57,135,92.57ZM79.51,115.05c.07-5,6.7-14.24,6.7-14.24a1.63,1.63,0,0,1,.31-.11l.34,0,1-1c.25.88,2.44,13.39,3,20.66C84.65,119.12,79.47,117.42,79.51,115.05Z"/><path class="cls-9" d="M135.85,140.29c-.28-2.08-.56-4.15-.8-6.18,0,0,0,0,0,0-.08-.67-.16-1.34-.23-2a.37.37,0,0,1,0-.11c-.32-2.79-.59-5.47-.78-7.93a24.62,24.62,0,0,1,.24-5.51C135,106,135.4,92.75,135.4,92.75c.4-5.42.63-10.48.79-15.2,0,0-17.15-8.1-18.7-8.56,0,0,3.25,7.63,5.69,24.7.94,6.55,2.67,17.59,3.93,28.85h0c.69,6.08,2,12.27,2.94,17.75.15.85.29,1.67.42,2.48h5.74Z"/><path class="cls-9" d="M107.31,120.13c.68-6.35,1.29-12.68,1-16.15-2.36-27.89-9-35.28-10-36.36-.75.29-3.61,1.36-4.44,1.69-4.58,1.81-13.91,5.11-15.16,6-2.18,1.56-10.77,41.64-11,44.23-.18,1.75,11,5.41,22.48,8.68-.11,3.14.19,7.56-.85,12.18a10.18,10.18,0,0,0-.5,2.43l16-.07.3-2.48c.3-2.49.62-5,.94-7.76,4.78,1.24,8,2,8,2s4.49-7.59,5.8-10.67C120,123.37,114.24,122,107.31,120.13Zm-20.62-9.6c-.15-5.71-.13-9.7-.13-9.7a129.48,129.48,0,0,1,2,13.11C86.28,112.77,86.72,111.68,86.69,110.53Z"/><path class="cls-10" d="M99.81,67.35s1.74-3.28,1.26-12.59c-.14-2.58,13.55,6.12,13.55,6.12s0,.89-.07,2.09c0,.5,0,1,0,1.61V65c0,.26,0,.51,0,.76s0,.62,0,.92,0,.65.07.94a8.43,8.43,0,0,0,.5,1.83C115.77,70.94,104.94,71,99.81,67.35Z"/><path class="cls-11" d="M111.29,73.28l2.52,3.39a3.06,3.06,0,0,1-4.1.52Z"/><path class="cls-11" d="M113.14,76.8a126.2,126.2,0,0,1,7.27,51.25l-2.92,5.29-3.29-4.5s-.53-38.08-3.15-52.13Z"/><path class="cls-10" d="M114,70.12l-2.7,3.16s-4.34-.84-5.61-3.11S114,70.12,114,70.12Z"/><path class="cls-12" d="M114.61,67.35s-.32,2.41-3.32,5.93l3.28,4.41,1.78-9.15Z"/><path class="cls-12" d="M100.64,64.45s6.26,7.09,10.65,8.83l-2,5-10-11Z"/><path class="cls-9" d="M165.08,128.6s-8.32-8.07-13.78-9.41c-2.52-.62-5.85-4.11-9-8.2-1.05-1.35-2.07-2.76-3-4.16h0c-3.87-5.59-6.91-10.95-6.91-10.95s-11.45-13.42-2.26-19.4c0,0,3.94-.09,6.1,1.08s6.95,11.1,7.76,12.85,9.5,18,10.09,18.37a23.5,23.5,0,0,0,5,3.58c4.26,2.3,11,9,11,9Z"/><path class="cls-13" d="M125.14,137.94a5.25,5.25,0,0,1-1.66-.32s-.87-.56-1.51-.91a5,5,0,0,0-.51-.26,9.7,9.7,0,0,1-2.8-1.33C117.57,134.28,114,131,114,131l2.31-3.55,1.06-3.51s8.32.83,9.43,1.49c.1.07.21.13.3.2a12.54,12.54,0,0,1,1.7,1.9c.15.15,1.6,1.7,1.52,2.33a2.08,2.08,0,0,1-1.08,1.7,5,5,0,0,1-1.17,2.45,3.07,3.07,0,0,1-1.59,2.21S126.08,137.75,125.14,137.94Z"/><path class="cls-14" d="M111.9,30.72s15-3.62,11.86,15.41S117,66.7,107.83,62.91s-8.52-16-9.06-21.92S107.09,31,111.9,30.72Z"/><path class="cls-14" d="M104,43.9c-.22-1.67-3.54-2.24-3.77.28s1.6,6.89,2.85,6.44S104.31,46.21,104,43.9Z"/><path class="cls-15" d="M99.65,50.71s.3-6,2.48-6.2,2.55,2.19,2.55,2.19l2.21.38s-.77-5.23,1.4-6.18,14.17,2.68,15.9,1.11.74-12.18-2.44-13.59-12-4.54-18.32-.11c0,0-5-.49-5.69,3.55S98.24,47.74,99.65,50.71Z"/><path class="cls-9" d="M120.21,123.89,114,134.56s-16.44-4.23-20.27-5.31l8.76-10.44S115.42,121.76,120.21,123.89Z"/><path class="cls-16" d="M114.57,66.72h0a14.38,14.38,0,0,1-11.19-7,16.7,16.7,0,0,0,11.14,4.89V65c0,.26,0,.51,0,.76S114.55,66.42,114.57,66.72Z"/><path class="cls-17" d="M225.9,161.29a2.47,2.47,0,0,0-1.93-1,2.45,2.45,0,0,0-2.36,1.66h0a2.69,2.69,0,0,0-.13.76,2.53,2.53,0,0,0,.15.87,2.46,2.46,0,0,0,.8,1.1,2.41,2.41,0,0,0,1.28.5h.36a2.73,2.73,0,0,0,.7-.15,2.45,2.45,0,0,0,1.13-3.78Zm-1.34,3.21h0a1.78,1.78,0,0,1-.52.1h-.13a2.09,2.09,0,0,1-.5-.08,1.9,1.9,0,0,1-.6-.31,1.37,1.37,0,0,1-.18-.16,1.79,1.79,0,0,1-.53-1.32,2.33,2.33,0,0,1,0-.38c0-.06,0-.12.05-.18a1.85,1.85,0,0,1,3.21-.53,1.81,1.81,0,0,1,.37,1.14A1.85,1.85,0,0,1,224.56,164.5Z"/><path class="cls-14" d="M131.87,115.13c9.35,9.62,21.69,21.73,21.69,21.73l4.83-9.16s-11-12.85-18.4-21.43A15.61,15.61,0,0,0,131.87,115.13Z"/><path class="cls-14" d="M126.1,128.06a28,28,0,0,1,3.18,1.76c.65.54,3.31,2.53,4,3s-1,1.81-5.73-.26S126.1,128.06,126.1,128.06Z"/><polygon class="cls-18" points="126.32 100.53 121.94 141.3 179.65 141.3 184.03 100.53 126.32 100.53"/><path class="cls-18" d="M182.94,139.42H124.78l4.43-41.22h58.17ZM125.28,139h57.26l4.33-40.32H129.62Z"/><rect class="cls-18" x="117.35" y="137.63" width="9.64" height="3.67" transform="translate(244.33 278.93) rotate(180)"/><g class="cls-19"><rect class="cls-20" x="24.62" y="141.21" width="2.41" height="2.48"/><rect class="cls-21" x="27.03" y="141.21" width="2.41" height="2.48"/><rect class="cls-22" x="29.45" y="141.21" width="2.41" height="2.48"/><rect class="cls-22" x="31.86" y="141.21" width="2.41" height="2.48"/><rect class="cls-23" x="34.27" y="141.21" width="2.41" height="2.48"/><rect class="cls-24" x="36.68" y="141.21" width="2.41" height="2.48"/><rect class="cls-25" x="39.1" y="141.21" width="2.41" height="2.48"/><rect class="cls-26" x="41.51" y="141.21" width="2.41" height="2.48"/><rect class="cls-27" x="43.92" y="141.21" width="2.41" height="2.48"/><rect class="cls-28" x="46.34" y="141.21" width="2.41" height="2.48"/><rect class="cls-29" x="48.75" y="141.21" width="2.41" height="2.48"/><rect class="cls-30" x="51.16" y="141.21" width="2.41" height="2.48"/><rect class="cls-31" x="53.57" y="141.21" width="2.41" height="2.48"/><rect class="cls-32" x="55.99" y="141.21" width="2.41" height="2.48"/><rect class="cls-33" x="58.4" y="141.21" width="2.41" height="2.48"/><rect class="cls-34" x="60.81" y="141.21" width="2.41" height="2.48"/><rect class="cls-35" x="63.23" y="141.21" width="2.41" height="2.48"/><rect class="cls-36" x="65.64" y="141.21" width="2.41" height="2.48"/><rect class="cls-36" x="68.05" y="141.21" width="2.41" height="2.48"/><rect class="cls-37" x="70.46" y="141.21" width="2.41" height="2.48"/><rect class="cls-38" x="72.88" y="141.21" width="2.41" height="2.48"/><rect class="cls-39" x="75.29" y="141.21" width="2.41" height="2.48"/><rect class="cls-40" x="77.7" y="141.21" width="2.41" height="2.48"/><rect class="cls-41" x="80.12" y="141.21" width="2.41" height="2.48"/><rect class="cls-42" x="82.53" y="141.21" width="2.41" height="2.48"/><rect class="cls-43" x="84.94" y="141.21" width="2.41" height="2.48"/><rect class="cls-44" x="87.36" y="141.21" width="2.41" height="2.48"/><rect class="cls-45" x="89.77" y="141.21" width="2.41" height="2.48"/><rect class="cls-46" x="92.18" y="141.21" width="2.41" height="2.48"/><rect class="cls-47" x="94.59" y="141.21" width="2.41" height="2.48"/><rect class="cls-48" x="97.01" y="141.21" width="2.41" height="2.48"/><rect class="cls-49" x="99.42" y="141.21" width="2.41" height="2.48"/><rect class="cls-50" x="101.83" y="141.21" width="2.41" height="2.48"/><rect class="cls-51" x="104.25" y="141.21" width="2.41" height="2.48"/><rect class="cls-52" x="106.66" y="141.21" width="2.41" height="2.48"/><rect class="cls-53" x="109.07" y="141.21" width="2.41" height="2.48"/><rect class="cls-54" x="111.48" y="141.21" width="2.41" height="2.48"/><rect class="cls-55" x="113.9" y="141.21" width="2.41" height="2.48"/><rect class="cls-56" x="116.31" y="141.21" width="2.41" height="2.48"/><rect class="cls-57" x="118.72" y="141.21" width="2.41" height="2.48"/><rect class="cls-58" x="121.14" y="141.21" width="2.41" height="2.48"/><rect class="cls-59" x="123.55" y="141.21" width="2.41" height="2.48"/><rect class="cls-60" x="125.96" y="141.21" width="2.41" height="2.48"/><rect class="cls-61" x="128.37" y="141.21" width="2.41" height="2.48"/><rect class="cls-62" x="130.79" y="141.21" width="2.41" height="2.48"/><rect class="cls-63" x="133.2" y="141.21" width="2.41" height="2.48"/><rect class="cls-64" x="135.61" y="141.21" width="2.41" height="2.48"/><rect class="cls-65" x="138.03" y="141.21" width="2.41" height="2.48"/><rect class="cls-66" x="140.44" y="141.21" width="2.41" height="2.48"/><rect class="cls-67" x="142.85" y="141.21" width="2.41" height="2.48"/><rect class="cls-4" x="145.26" y="141.21" width="2.41" height="2.48"/><rect class="cls-68" x="147.68" y="141.21" width="2.41" height="2.48"/><rect class="cls-69" x="150.09" y="141.21" width="2.41" height="2.48"/><rect class="cls-70" x="152.5" y="141.21" width="2.41" height="2.48"/><rect class="cls-71" x="154.92" y="141.21" width="2.41" height="2.48"/><rect class="cls-71" x="157.33" y="141.21" width="2.41" height="2.48"/><rect class="cls-72" x="159.74" y="141.21" width="2.41" height="2.48"/><rect class="cls-73" x="162.16" y="141.21" width="2.41" height="2.48"/><rect class="cls-74" x="164.57" y="141.21" width="2.41" height="2.48"/><rect class="cls-75" x="166.98" y="141.21" width="2.41" height="2.48"/><rect class="cls-76" x="169.39" y="141.21" width="2.41" height="2.48"/><rect class="cls-77" x="171.81" y="141.21" width="2.41" height="2.48"/><rect class="cls-77" x="174.22" y="141.21" width="2.41" height="2.48"/><rect class="cls-78" x="176.63" y="141.21" width="2.41" height="2.48"/><rect class="cls-79" x="179.05" y="141.21" width="2.41" height="2.48"/></g><rect class="cls-18" x="141.41" y="194.21" width="135.89" height="2.48"/><path class="cls-80" d="M149.78,120.26c-.46,2.27.6,4.4,2.37,4.77s3.58-1.19,4-3.46-.59-4.4-2.36-4.76S150.24,118,149.78,120.26Z"/><path class="cls-81" d="M259.84,104.1a14.52,14.52,0,0,0,1.9,2.63c.76.5.28,1-.08,1s-2.21.14-2.62-.32-.61-1.85-1-2.22-.77-1.8.19-2.15S259.84,104.1,259.84,104.1Z"/><path class="cls-82" d="M259.27,103.11s1.52,2.64,1.79,3-.5.39-1,.21a9.2,9.2,0,0,1-1.82-2.43,1.26,1.26,0,0,1,0-.88Z"/><polygon class="cls-81" points="257.72 104.53 258.07 107.24 258.26 107.25 258.2 105.3 257.72 104.53"/><path class="cls-81" d="M246.64,104.1a14,14,0,0,0,1.9,2.63c.76.5.28,1-.08,1s-2.21.14-2.62-.32-.61-1.85-1-2.22-.78-1.84.18-2.15S246.64,104.1,246.64,104.1Z"/><path class="cls-82" d="M246.15,103.12s1.44,2.63,1.7,3-.49.39-1,.21a9.2,9.2,0,0,1-1.82-2.43,1.29,1.29,0,0,1,0-.88Z"/><polygon class="cls-81" points="244.52 104.53 244.88 107.24 245.06 107.25 245 105.3 244.52 104.53"/><path class="cls-82" d="M240.74,83.57l12,5.49a2.3,2.3,0,0,1,1.5,1.93c.47,4.66,4,12.05,4,12.05,1.11.55,1,.07,1,.07-.71-2.26-1.57-11.59-1.87-15.34-.07-.79-.11-1.33-.11-1.51s-.14-.27-.36-.45c-1.66-1.34-8.46-4.12-8.46-4.12C243.37,81.56,240.74,83.57,240.74,83.57Z"/><path class="cls-82" d="M238.47,85.92c.37,3.26,5,2.89,5,2.89h5.63a35,35,0,0,0-2.05,6.07c-.61,2.94-2,8.16-2,8.16s.1.18,1.12.08c0,0,4.42-8.82,6.11-11a14.88,14.88,0,0,0,1.59-4.61c.06-.52,0-.92-.17-1.08a12.19,12.19,0,0,0-1.25-.85,27.57,27.57,0,0,0-6.53-3.21c-2.29-.52-5.9-1.48-5.9-1.48A6.19,6.19,0,0,0,238.47,85.92Z"/><path class="cls-83" d="M242.3,60.84a5.25,5.25,0,0,1-.43-3.3c.41-1.71,2-3.41,4.31-2.63s4.19,2.58,2.8,4.66,1.25,3,.58,4a1.93,1.93,0,0,0-.13,2.26,2.64,2.64,0,0,1,1.1,2c-.1,1-4.49-2.83-4.49-2.83S243.65,60.22,242.3,60.84Z"/><path class="cls-84" d="M249.36,81.3S249,83,240,80.86C240,80.86,243,79.86,249.36,81.3Z"/><path class="cls-85" d="M239.91,81.33l-.42.8,9.87.29a19.06,19.06,0,0,1-.26-5.89c.11-2.19,1.32-3.71,1.19-5.92l1.41.22c-1-2.84-1.33-4.24-4.43-5.34a5.85,5.85,0,0,0-2.76-.33c-3.59.29-4.67.34-6.43,3.58,2.76.44,2.31,1.43,3.14,4.18a9.86,9.86,0,0,1,.62,4.23C241.62,78.54,239.91,80.07,239.91,81.33Z"/><path class="cls-14" d="M245.63,66.18c-1.46-.28-1.15-1.09-1.15-1.09a10,10,0,0,0,.09-1c0-.15,0-.31,0-.47a5.69,5.69,0,0,0,0-.72c-.12-1,2.67-.4,2.67-.4a6.71,6.71,0,0,0,.22,2.59C247.81,65.65,247.1,66.46,245.63,66.18Z"/><path class="cls-14" d="M242.83,65.08a45.53,45.53,0,0,0,4.06,4.21s1.26-1.13.48-4.13C247.37,65.16,245.94,64.44,242.83,65.08Z"/><path class="cls-14" d="M242.91,56.86a6.68,6.68,0,0,0,0,5.77c1.53,2.8,4.52-1.23,4.72-1.7s1.22-3.14-.83-4S243.35,56.05,242.91,56.86Z"/><path class="cls-83" d="M243.43,57.91a6.71,6.71,0,0,0-1.19,2.42,5.52,5.52,0,0,1,.77-3.81c1.19-1.87,4.22-.09,4.63.66s1.59,1.4-.41,4.6C247.23,61.78,243.64,59.28,243.43,57.91Z"/><path class="cls-16" d="M245.88,62.92a2.86,2.86,0,0,1-1.31,1.13c0-.15,0-.31,0-.47A2.52,2.52,0,0,0,245.88,62.92Z"/><path class="cls-14" d="M230.35,78.67s-.73.32-1.08.18a3.18,3.18,0,0,0-1.05-.18c-.23,0-.93-.25-.92,0s1.15.47,1.38.56-.7.6-.78.82,1,1.72,1.55,1.29.91-1.27,1-1.32a3.69,3.69,0,0,0,.44-.29Z"/><path class="cls-14" d="M228,79.94a15.72,15.72,0,0,0-1.74,1.61c0,.2.06.28.23.16l1.7-1.33s-1.72,2-1.78,2.18.13.27.23.21,1.92-2,1.92-2-1.6,1.89-1.61,2a.19.19,0,0,0,.32.12l1.72-1.8a9.74,9.74,0,0,0-1,1.58c0,.08.18.24.44-.14s1-1.23,1-1.23Z"/><path class="cls-18" d="M248.53,88.81h-5s-4.65.37-5-2.89A6.19,6.19,0,0,1,240,80.86s2.45.65,4.59,1.17a16.46,16.46,0,0,1,3.88-.34s9.09,3,8.82,4.59C257.29,86.28,253.48,84.24,248.53,88.81Z"/><polygon class="cls-86" points="245.25 83.17 254.87 83.03 250.01 85.49 245.25 83.17"/><path class="cls-85" d="M248.24,81.94a8.22,8.22,0,0,1-4.82.08l-.12-1,5.46.3Z"/><polygon class="cls-87" points="250.01 85.49 245.25 83.65 245.25 83.17 250.39 85.02 250.01 85.49"/><path class="cls-88" d="M248.2,82.4a.48.48,0,0,0,.67.47l.55-.24a.4.4,0,0,0,.24-.43c-.23-1.45-.73-7.12,0-8.09a3.32,3.32,0,0,0,.53-1c.48,1.24,1.08,2.84,1.32,3.7l4.54,6,1.53.38a50.77,50.77,0,0,0-3.43-7c-.3-.8-1.15-3.22-1.91-5.37-.47-1.36-.91-2.62-1.15-3.29a1.57,1.57,0,0,0-.66-.82c-.71-.42-1.88-1.08-2.94-1.6h0l-.1,0h0c2,3.06,1.23,11.7.83,17.23Z"/><path class="cls-88" d="M240.7,65.42c-.65.1-2.26,1.66-3.11,3.23a24,24,0,0,1-2.71,4.52c-1.36,1.23-5.19,5.61-5.37,5.5A11.73,11.73,0,0,0,230.7,80c.07,0,6.28-5.35,6.88-6.17s2.08-4,2.53-4h0a25.92,25.92,0,0,1,1.1,3l0,.08a9.75,9.75,0,0,1,.13,4,13.76,13.76,0,0,1-1.49,3.85.62.62,0,0,0,0,.46h0a.35.35,0,0,0,.17.2l1.82.67.43.16a.92.92,0,0,0,.87-.12.91.91,0,0,0,.38-.63,56,56,0,0,1,1.33-7.51,11.4,11.4,0,0,0-.7-9.23A34.33,34.33,0,0,0,240.7,65.42Z"/><polygon class="cls-89" points="250.01 85.49 252.87 77.68 262.1 77.83 259.37 85.03 250.01 85.49"/><path class="cls-90" d="M255.82,81.14a1,1,0,0,0,.19,1.37c.39.19.93-.11,1.21-.67s.2-1.18-.19-1.37S256.11,80.57,255.82,81.14Z"/><path class="cls-83" d="M246.1,59.81a1.66,1.66,0,0,1,.05,1.71c-.55.79.13,1.57.25,2.41s-2.28,3.07.39,4.2,3.51-.74,2.83-1.76a5.78,5.78,0,0,1-1.22-3.31C248.35,61.61,247.87,59.34,246.1,59.81Z"/><polygon class="cls-91" points="233.07 55.99 238.63 55.99 238.63 60.02 238.63 60.87 237.78 60.02 233.07 60.02 233.07 55.99"/><path class="cls-5" d="M201.85,117.85s-12.12,11.54-6.22,20.52,8.65,1.11,8.65,1.11,4,1.21-1.93-9.87C199.56,124.39,201.85,117.85,201.85,117.85Z"/><path class="cls-6" d="M179.44,105.34s-9.26,10.89,3.12,26,10.46,23,10.46,23S210.25,128.13,179.44,105.34Z"/><path class="cls-7" d="M195.81,149.78c5.76,1.17,1.1-15.58-7.54-20.69s-16.37-5.61-21.21-10.53C167.06,118.56,167.44,144,195.81,149.78Z"/><path class="cls-14" d="M158.16,157.13l.31-.75a1.7,1.7,0,0,1,.6-.42,2,2,0,0,1,.85-.21.31.31,0,0,1,.19.17.56.56,0,0,1,0,.29.35.35,0,0,1,.12.32.31.31,0,0,1,.07.34s.14.13.07.27a3.55,3.55,0,0,0-.33.25,4.78,4.78,0,0,1-1.2.6S158.28,158,158.16,157.13Z"/><path class="cls-92" d="M159.1,156.77a2.22,2.22,0,0,1,0,.46c-.05.1.71.32.71.32S159.53,156.78,159.1,156.77Z"/><polygon class="cls-93" points="144.79 191.41 145.12 190.37 146.54 190.59 146.33 191.53 144.79 191.41"/><polygon class="cls-94" points="156.4 191.28 156.48 191.86 158.03 191.6 157.95 190.74 156.4 191.28"/><path class="cls-95" d="M153,175.22s-.23,1.24-.49,2.62c-.05.25-.1.49-.14.73-.26,1.33-.52,2.62-.62,2.88-.22.6-5,9.31-5,9.31s-1.94-.15-2-.4c0,0,4-9.45,4-9.8s.49-10,.49-10S152.94,174.66,153,175.22Z"/><path class="cls-95" d="M155.21,170s1.86,9.52,2,10.24.86,10.48.86,10.48-.42.86-2,.54c0,0-2.1-10.48-2.28-10.83-.69-1.36-4.06-8-4.39-8.9a5.57,5.57,0,0,1-.23-2S151.74,168.06,155.21,170Z"/><path class="cls-96" d="M154.43,157.65s.82,2,1,2,2.55-2.81,2.55-2.81,1.07,1.34.93,1.49-3,4.82-3.35,4.73-2.08-2.89-2.08-2.89S153.4,158,154.43,157.65Z"/><path class="cls-97" d="M150.94,153.77a33.74,33.74,0,0,1,2.7,2.26c.59.64,2.2,3.3,2.08,4.09a56.76,56.76,0,0,0-.67,7.77c0,1.82.57,2.29.21,2.32s-5.74,2-6.53,2.19c0,0,.52-6.41.78-7.16S148.68,156.75,150.94,153.77Z"/><path class="cls-98" d="M164.56,150.71l.47,2.38.48,2.39a13.15,13.15,0,0,0-5.8-.23l-.21-1.06-.21-1.06A13.13,13.13,0,0,0,164.56,150.71Z"/><path class="cls-36" d="M156.48,191.86s1.17-.23,1.21-.26.3-.5.48-.42.18.64.36.74,1.57,1,1.74,1.21,1.23.07,1.35.37.14,1-1.44.84-3.39.09-3.73-.1S156.37,192.31,156.48,191.86Z"/><path class="cls-36" d="M144.77,191.38s1.19,0,1.24-.06.36-.45.53-.34.08.67.24.79,1.39,1.28,1.53,1.47,1.2.27,1.27.58,0,1-1.56.6-3.35-.45-3.66-.69S144.59,191.81,144.77,191.38Z"/><path class="cls-10" d="M154,170.42s.14.58.37.7-1.07,1.37-1.07,1.37a9.85,9.85,0,0,1-.51-1.27A8.14,8.14,0,0,1,154,170.42Z"/><path class="cls-99" d="M150,156.28s-1.52,7.21-1.65,7.95,4.45,7.38,4.45,7.38l1.52-.9s-3.68-6.7-3.68-7,1.77-6.12,1.77-6.12a1.37,1.37,0,1,0-2.41-1.3Z"/><path class="cls-100" d="M154.92,170.92a24.82,24.82,0,0,1,.46,3.2c0,.75-2.83-1.18-2.69-1.93Z"/><path class="cls-14" d="M150.94,153.77s3.85,4.21,3.62,3.74c-.85-1.66-1.44-1.94-1.43-2.25s.11-.93.12-1.16c0-.45.06-.8.06-.8s-1.91-2.69-1.82-1.77A5.61,5.61,0,0,1,150.94,153.77Z"/><path class="cls-14" d="M154.61,148.82a9.93,9.93,0,0,1,.54,1.53,5.89,5.89,0,0,0,0,.85c0,.35.33,1.08.3,1.28s-.56.11-.63.52-.44,1.15-.63,1.17a4.56,4.56,0,0,1-2.41-1.09c-.12-.38-.78-2.51-1-2.92s3.22-2.62,3.53-2Z"/><path class="cls-15" d="M150,149.74c-.24-1.05,1-1.18,1-1.18a3.29,3.29,0,0,1,2.68-.81c1.89.11,1.6,2.57,1.6,2.57a6.81,6.81,0,0,0-1.88,0,9,9,0,0,0,0,1.31l-.71-.06s.08-.94-.26-1-.46,2-1.09,2.42a.73.73,0,0,0-.09-.28h0a8.38,8.38,0,0,1-.5-1A11.91,11.91,0,0,1,150,149.74Z"/><path class="cls-14" d="M152.82,150.77a.54.54,0,0,0-.89-.25c-.45.33,0,1.54.46,1.53S153,151.39,152.82,150.77Z"/><path class="cls-101" d="M151.65,152.74a1.49,1.49,0,0,0,.2.47,4,4,0,0,0,1.41.74l-.07.75S151.57,154.07,151.65,152.74Z"/><g class="cls-102"><rect class="cls-20" x="158.49" y="155.12" width="0.03" height="2.86"/><rect class="cls-21" x="158.52" y="155.12" width="0.03" height="2.86"/><rect class="cls-22" x="158.55" y="155.12" width="0.03" height="2.86"/><rect class="cls-22" x="158.58" y="155.12" width="0.03" height="2.86"/><rect class="cls-23" x="158.61" y="155.12" width="0.03" height="2.86"/><rect class="cls-24" x="158.64" y="155.12" width="0.03" height="2.86"/><rect class="cls-25" x="158.67" y="155.12" width="0.03" height="2.86"/><rect class="cls-26" x="158.7" y="155.12" width="0.03" height="2.86"/><rect class="cls-27" x="158.73" y="155.12" width="0.03" height="2.86"/><rect class="cls-28" x="158.76" y="155.12" width="0.03" height="2.86"/><rect class="cls-29" x="158.79" y="155.12" width="0.03" height="2.86"/><rect class="cls-30" x="158.82" y="155.12" width="0.03" height="2.86"/><rect class="cls-31" x="158.85" y="155.12" width="0.03" height="2.86"/><rect class="cls-32" x="158.88" y="155.12" width="0.03" height="2.86"/><rect class="cls-33" x="158.91" y="155.12" width="0.03" height="2.86"/><rect class="cls-34" x="158.94" y="155.12" width="0.03" height="2.86"/><rect class="cls-35" x="158.97" y="155.12" width="0.03" height="2.86"/><rect class="cls-36" x="159" y="155.12" width="0.03" height="2.86"/><rect class="cls-36" x="159.02" y="155.12" width="0.03" height="2.86"/><rect class="cls-37" x="159.05" y="155.12" width="0.03" height="2.86"/><rect class="cls-38" x="159.08" y="155.12" width="0.03" height="2.86"/><rect class="cls-39" x="159.11" y="155.12" width="0.03" height="2.86"/><rect class="cls-40" x="159.14" y="155.12" width="0.03" height="2.86"/><rect class="cls-41" x="159.17" y="155.12" width="0.03" height="2.86"/><rect class="cls-42" x="159.2" y="155.12" width="0.03" height="2.86"/><rect class="cls-43" x="159.23" y="155.12" width="0.03" height="2.86"/><rect class="cls-44" x="159.26" y="155.12" width="0.03" height="2.86"/><rect class="cls-45" x="159.29" y="155.12" width="0.03" height="2.86"/><rect class="cls-46" x="159.32" y="155.12" width="0.03" height="2.86"/><rect class="cls-47" x="159.35" y="155.12" width="0.03" height="2.86"/><rect class="cls-48" x="159.38" y="155.12" width="0.03" height="2.86"/><rect class="cls-49" x="159.41" y="155.12" width="0.03" height="2.86"/><rect class="cls-50" x="159.44" y="155.12" width="0.03" height="2.86"/><rect class="cls-51" x="159.47" y="155.12" width="0.03" height="2.86"/><rect class="cls-52" x="159.5" y="155.12" width="0.03" height="2.86"/><rect class="cls-53" x="159.53" y="155.12" width="0.03" height="2.86"/><rect class="cls-54" x="159.56" y="155.12" width="0.03" height="2.86"/><rect class="cls-55" x="159.59" y="155.12" width="0.03" height="2.86"/><rect class="cls-56" x="159.62" y="155.12" width="0.03" height="2.86"/><rect class="cls-57" x="159.65" y="155.12" width="0.03" height="2.86"/><rect class="cls-58" x="159.68" y="155.12" width="0.03" height="2.86"/><rect class="cls-59" x="159.71" y="155.12" width="0.03" height="2.86"/><rect class="cls-60" x="159.73" y="155.12" width="0.03" height="2.86"/><rect class="cls-61" x="159.76" y="155.12" width="0.03" height="2.86"/><rect class="cls-62" x="159.79" y="155.12" width="0.03" height="2.86"/><rect class="cls-63" x="159.82" y="155.12" width="0.03" height="2.86"/><rect class="cls-64" x="159.85" y="155.12" width="0.03" height="2.86"/><rect class="cls-65" x="159.88" y="155.12" width="0.03" height="2.86"/><rect class="cls-66" x="159.91" y="155.12" width="0.03" height="2.86"/><rect class="cls-67" x="159.94" y="155.12" width="0.03" height="2.86"/><rect class="cls-4" x="159.97" y="155.12" width="0.03" height="2.86"/><rect class="cls-68" x="160" y="155.12" width="0.03" height="2.86"/><rect class="cls-69" x="160.03" y="155.12" width="0.03" height="2.86"/><rect class="cls-70" x="160.06" y="155.12" width="0.03" height="2.86"/><rect class="cls-71" x="160.09" y="155.12" width="0.03" height="2.86"/><rect class="cls-71" x="160.12" y="155.12" width="0.03" height="2.86"/><rect class="cls-72" x="160.15" y="155.12" width="0.03" height="2.86"/><rect class="cls-73" x="160.18" y="155.12" width="0.03" height="2.86"/><rect class="cls-74" x="160.21" y="155.12" width="0.03" height="2.86"/><rect class="cls-75" x="160.24" y="155.12" width="0.03" height="2.86"/><rect class="cls-76" x="160.27" y="155.12" width="0.03" height="2.86"/><rect class="cls-77" x="160.3" y="155.12" width="0.03" height="2.86"/><rect class="cls-77" x="160.33" y="155.12" width="0.03" height="2.86"/><rect class="cls-78" x="160.36" y="155.12" width="0.03" height="2.86"/><rect class="cls-79" x="160.39" y="155.12" width="0.03" height="2.86"/></g><path class="cls-103" d="M159.84,155.79s-.77.42-.72.55.15.15.15.15l-.23.32s0,.3.29.26c0,0-.06.27.26.19,0,0,0,.2.19.19a2.72,2.72,0,0,0,.64-.31s.08-.1-.07-.27a.3.3,0,0,0-.07-.34.33.33,0,0,0-.12-.32s.07-.37-.24-.46Z"/><g class="cls-104"><rect class="cls-20" x="157.16" y="152.95" width="0.05" height="2.73"/><rect class="cls-21" x="157.21" y="152.95" width="0.05" height="2.73"/><rect class="cls-22" x="157.26" y="152.95" width="0.05" height="2.73"/><rect class="cls-22" x="157.31" y="152.95" width="0.05" height="2.73"/><rect class="cls-23" x="157.36" y="152.95" width="0.05" height="2.73"/><rect class="cls-24" x="157.4" y="152.95" width="0.05" height="2.73"/><rect class="cls-25" x="157.45" y="152.95" width="0.05" height="2.73"/><rect class="cls-26" x="157.5" y="152.95" width="0.05" height="2.73"/><rect class="cls-27" x="157.55" y="152.95" width="0.05" height="2.73"/><rect class="cls-28" x="157.6" y="152.95" width="0.05" height="2.73"/><rect class="cls-29" x="157.65" y="152.95" width="0.05" height="2.73"/><rect class="cls-30" x="157.69" y="152.95" width="0.05" height="2.73"/><rect class="cls-31" x="157.74" y="152.95" width="0.05" height="2.73"/><rect class="cls-32" x="157.79" y="152.95" width="0.05" height="2.73"/><rect class="cls-33" x="157.84" y="152.95" width="0.05" height="2.73"/><rect class="cls-34" x="157.89" y="152.95" width="0.05" height="2.73"/><rect class="cls-35" x="157.94" y="152.95" width="0.05" height="2.73"/><rect class="cls-36" x="157.98" y="152.95" width="0.05" height="2.73"/><rect class="cls-36" x="158.03" y="152.95" width="0.05" height="2.73"/><rect class="cls-37" x="158.08" y="152.95" width="0.05" height="2.73"/><rect class="cls-38" x="158.13" y="152.95" width="0.05" height="2.73"/><rect class="cls-39" x="158.18" y="152.95" width="0.05" height="2.73"/><rect class="cls-40" x="158.23" y="152.95" width="0.05" height="2.73"/><rect class="cls-41" x="158.27" y="152.95" width="0.05" height="2.73"/><rect class="cls-42" x="158.32" y="152.95" width="0.05" height="2.73"/><rect class="cls-43" x="158.37" y="152.95" width="0.05" height="2.73"/><rect class="cls-44" x="158.42" y="152.95" width="0.05" height="2.73"/><rect class="cls-45" x="158.47" y="152.95" width="0.05" height="2.73"/><rect class="cls-46" x="158.51" y="152.95" width="0.05" height="2.73"/><rect class="cls-47" x="158.56" y="152.95" width="0.05" height="2.73"/><rect class="cls-48" x="158.61" y="152.95" width="0.05" height="2.73"/><rect class="cls-49" x="158.66" y="152.95" width="0.05" height="2.73"/><rect class="cls-50" x="158.71" y="152.95" width="0.05" height="2.73"/><rect class="cls-51" x="158.76" y="152.95" width="0.05" height="2.73"/><rect class="cls-52" x="158.8" y="152.95" width="0.05" height="2.73"/><rect class="cls-53" x="158.85" y="152.95" width="0.05" height="2.73"/><rect class="cls-54" x="158.9" y="152.95" width="0.05" height="2.73"/><rect class="cls-55" x="158.95" y="152.95" width="0.05" height="2.73"/><rect class="cls-56" x="159" y="152.95" width="0.05" height="2.73"/><rect class="cls-57" x="159.05" y="152.95" width="0.05" height="2.73"/><rect class="cls-58" x="159.09" y="152.95" width="0.05" height="2.73"/><rect class="cls-59" x="159.14" y="152.95" width="0.05" height="2.73"/><rect class="cls-60" x="159.19" y="152.95" width="0.05" height="2.73"/><rect class="cls-61" x="159.24" y="152.95" width="0.05" height="2.73"/><rect class="cls-62" x="159.29" y="152.95" width="0.05" height="2.73"/><rect class="cls-63" x="159.34" y="152.95" width="0.05" height="2.73"/><rect class="cls-64" x="159.38" y="152.95" width="0.05" height="2.73"/><rect class="cls-65" x="159.43" y="152.95" width="0.05" height="2.73"/><rect class="cls-66" x="159.48" y="152.95" width="0.05" height="2.73"/><rect class="cls-67" x="159.53" y="152.95" width="0.05" height="2.73"/><rect class="cls-4" x="159.58" y="152.95" width="0.05" height="2.73"/><rect class="cls-68" x="159.62" y="152.95" width="0.05" height="2.73"/><rect class="cls-69" x="159.67" y="152.95" width="0.05" height="2.73"/><rect class="cls-70" x="159.72" y="152.95" width="0.05" height="2.73"/><rect class="cls-71" x="159.77" y="152.95" width="0.05" height="2.73"/><rect class="cls-71" x="159.82" y="152.95" width="0.05" height="2.73"/><rect class="cls-72" x="159.87" y="152.95" width="0.05" height="2.73"/><rect class="cls-73" x="159.91" y="152.95" width="0.05" height="2.73"/><rect class="cls-74" x="159.96" y="152.95" width="0.05" height="2.73"/><rect class="cls-75" x="160.01" y="152.95" width="0.05" height="2.73"/><rect class="cls-76" x="160.06" y="152.95" width="0.05" height="2.73"/><rect class="cls-77" x="160.11" y="152.95" width="0.05" height="2.73"/><rect class="cls-77" x="160.16" y="152.95" width="0.05" height="2.73"/><rect class="cls-78" x="160.2" y="152.95" width="0.05" height="2.73"/><rect class="cls-79" x="160.25" y="152.95" width="0.05" height="2.73"/></g><path class="cls-14" d="M158.49,156.36a2.9,2.9,0,0,1,.94.12c.07,0,.14.07.14.15s-.12.19-.38.21a2.16,2.16,0,0,0-.59.17S158.33,157,158.49,156.36Z"/><path class="cls-105" d="M152.55,177.84c-.05.25-.1.49-.14.73l-1.55-4.08Z"/><rect class="cls-18" x="40.05" y="84.22" width="30.86" height="44.97" rx="6.4"/><rect class="cls-106" x="66.03" y="113.26" width="1.6" height="12.17"/><rect class="cls-106" x="62.87" y="114.63" width="1.6" height="10.8"/><rect class="cls-106" x="59.44" y="116.4" width="1.6" height="9.03"/><rect class="cls-106" x="55.91" y="118.64" width="1.6" height="6.79"/><polygon class="cls-106" points="46.37 117.19 46.03 117.07 49.04 108.61 55.58 106.88 57.93 97.6 62.98 95.38 64.11 88.16 64.47 88.21 63.31 95.63 58.24 97.87 55.88 107.18 49.32 108.92 46.37 117.19"/><path class="cls-18" d="M56.49,106.41a1,1,0,1,1-1.38-.14A1,1,0,0,1,56.49,106.41Z"/><path class="cls-106" d="M56.47,107.94a1.17,1.17,0,1,1,.16-1.64A1.17,1.17,0,0,1,56.47,107.94Zm-1.24-1.52a.8.8,0,1,0,1,1.23.8.8,0,0,0-1-1.23Z"/><path class="cls-18" d="M58.87,97.17A1,1,0,1,1,57.49,97,1,1,0,0,1,58.87,97.17Z"/><path class="cls-106" d="M58.85,98.69A1.17,1.17,0,1,1,59,97.05,1.17,1.17,0,0,1,58.85,98.69Zm-1.24-1.52a.79.79,0,0,0-.11,1.12.8.8,0,1,0,1.23-1A.79.79,0,0,0,57.61,97.17Z"/><path class="cls-18" d="M63.84,94.88a1,1,0,1,1-1.38-.14A1,1,0,0,1,63.84,94.88Z"/><path class="cls-106" d="M63.82,96.4A1.17,1.17,0,1,1,64,94.76,1.17,1.17,0,0,1,63.82,96.4Zm-1.24-1.52A.8.8,0,0,0,62.46,96a.8.8,0,1,0,1.24-1A.79.79,0,0,0,62.58,94.88Z"/><path class="cls-18" d="M50,108.23a1,1,0,1,1-1.38-.14A1,1,0,0,1,50,108.23Z"/><path class="cls-106" d="M50,109.75a1.17,1.17,0,1,1,.16-1.64A1.17,1.17,0,0,1,50,109.75Zm-1.24-1.52a.79.79,0,0,0-.12,1.12.8.8,0,0,0,1.12.12.8.8,0,0,0,.12-1.12A.79.79,0,0,0,48.72,108.23Z"/><rect class="cls-107" x="43.33" y="96.99" width="9.82" height="2.03" rx="1.02"/><rect class="cls-107" x="43.33" y="93.43" width="9.82" height="2.03" rx="1.02"/><path class="cls-15" d="M36.28,100.66s-.29,2.81.23,3.51c0,0-1.37-.3-1.69-.77S36.28,100.66,36.28,100.66Z"/><path class="cls-14" d="M44.86,109.63l.57-.39a1.57,1.57,0,0,1,.63,0,1.63,1.63,0,0,1,.7.26.26.26,0,0,1,0,.21.44.44,0,0,1-.1.23.31.31,0,0,1-.06.28.26.26,0,0,1-.12.27.22.22,0,0,1-.08.23,1.61,1.61,0,0,0-.35,0,4.36,4.36,0,0,1-1.13-.16S44.4,110.46,44.86,109.63Z"/><path class="cls-92" d="M45.7,109.86a1.41,1.41,0,0,1-.23.31c-.07.06.39.55.39.55S46,110.05,45.7,109.86Z"/><path class="cls-14" d="M44.56,109.68a2.22,2.22,0,0,0,.51-.13c.19-.09,0,1,0,1a1.88,1.88,0,0,0-.77-.33C44,110.19,44.56,109.68,44.56,109.68Z"/><path class="cls-108" d="M31.57,138.06a17.36,17.36,0,0,0,1.32,1.74s.68.35.7.64c0,.53.07.85-.83.88s-1.46,0-1.62-.55a4.16,4.16,0,0,0-.45-1l-.07,1.41h-.2s-.09-1.42-.11-1.62-.14-1,.29-1.33A1.2,1.2,0,0,1,31.57,138.06Z"/><path class="cls-108" d="M33,139.87a2.2,2.2,0,0,1-1.06,0c-.58-.14-1.14-1.53-1.31-1.64l-.15-.56h1.13a2.06,2.06,0,0,0,.19.77A13.35,13.35,0,0,0,33,139.87Z"/><path class="cls-108" d="M37.93,137.53a4,4,0,0,0,.43.71c.2.26.83,1.35,1.11,1.43s1.14.23,1.22.71.11.82-.74.86-1.4.09-1.81-.51a4.55,4.55,0,0,0-1-1v1.55h-.33a13.71,13.71,0,0,0-.24-1.73,1.94,1.94,0,0,1,.47-2C37.77,136.88,37.93,137.53,37.93,137.53Z"/><path class="cls-108" d="M39.47,139.67s-.76.19-1,0-1.28-1.87-1.61-2c0,0,.32-.64,1.12-.17C37.93,137.53,39.25,139.39,39.47,139.67Z"/><path class="cls-109" d="M31.14,114.26a7.87,7.87,0,0,0-1.37,3c-.29,1.66.18,7.21.16,8s-.72,3.37-.57,4.9.95,8,.95,8l1.86,0s-.37-6.94-.28-7.58.4-3.4.44-3.67,2.11-7.3,2.11-8.49S33.72,112.31,31.14,114.26Z"/><path class="cls-109" d="M36.52,114.8s1.76,6.72,2,7.65.63,2.15.61,2.32-.22,3-.22,3l-.5,9.77H36.52s-.59-6.21-.69-7.47.69-3.19.49-3.72-3.06-6.67-3.06-6.67S31.09,112.85,36.52,114.8Z"/><path class="cls-88" d="M36,104.74a2.14,2.14,0,0,1,1.23.64,8,8,0,0,1,1.17,1.78c.14.3,2.1,3.12,2.2,3.19s1-.16,1.64-.22a15.71,15.71,0,0,0,2.78-.66l.25,1.26s-4.11,1.32-5,1.09c-1.16-.29-3.83-3.71-3.83-3.71S34.38,105.78,36,104.74Z"/><path class="cls-88" d="M34.75,104.25a9,9,0,0,0,1.23.49A6.92,6.92,0,0,1,37.74,107a3.75,3.75,0,0,1-.45,2.49c-.44,1,0,1.37-.22,2.39a27.72,27.72,0,0,0-.17,4.4c0,.57-5.86,1.64-7,.6a11.8,11.8,0,0,1,1.74-3.61,4,4,0,0,0,0-2c-.14-.35-1.71-3-1.71-3s-.11-2.69.57-3.22A8.73,8.73,0,0,1,33,104.3,5,5,0,0,1,34.75,104.25Z"/><path class="cls-110" d="M35,106.28l.55-.65-.48-1.71A11.32,11.32,0,0,0,35,106.28Z"/><path class="cls-14" d="M31.56,104.74a1.59,1.59,0,0,0-1.81.94,6.89,6.89,0,0,0-.64,2.52c-.15.57-.76,4.38-.8,4.55a12.28,12.28,0,0,0-.54,2.7c.07.59.62,5.1.59,5.26s1.05-.15,1.05-.15,0-4.61,0-5a11.77,11.77,0,0,1,.36-2.89c.28-.51,1-3.64,1.14-4S32.53,105.15,31.56,104.74Z"/><path class="cls-14" d="M35.18,103.19a21.6,21.6,0,0,0-.14,2.22s-.95,1-2-1.11a2.77,2.77,0,0,0,.11-2C32.78,101.14,35.18,103.19,35.18,103.19Z"/><polygon class="cls-14" points="35.04 105.41 35.04 106.28 34.02 105.38 35.04 105.41"/><polygon class="cls-110" points="35.04 106.28 34.59 105.72 33.06 104.2 32.49 104.45 35.04 106.28"/><polygon class="cls-111" points="35.59 105.63 36.29 105.82 35.11 103.92 35.59 105.63"/><polygon class="cls-111" points="34.59 105.72 33.95 106.74 32.47 104.42 33.1 104.09 34.59 105.72"/><path class="cls-110" d="M37.84,109.85a8,8,0,0,0,0-2.45s-.13.75-.46,1.91Z"/><path class="cls-110" d="M30.75,109.64s.63-2.08.67-2.2a18.16,18.16,0,0,1-.29,2.87Z"/><polygon class="cls-112" points="54.25 99.19 44.32 111.69 44.66 111.96 54.25 99.19"/><path class="cls-103" d="M46.68,109.48s-.75-.07-.77,0a.19.19,0,0,0,0,.18l-.32.11s-.17.19.09.32c0,0-.17.17.09.26,0,0-.07.16.05.23a2.73,2.73,0,0,0,.59.09s.11,0,.08-.23a.25.25,0,0,0,.12-.27.28.28,0,0,0,.06-.28s.23-.24.06-.44Z"/><path class="cls-14" d="M45.46,109.24a2.66,2.66,0,0,1,.6.53.17.17,0,0,1,0,.18c0,.06-.18.08-.37,0a2,2,0,0,0-.49-.17S45.06,109.58,45.46,109.24Z"/><path class="cls-14" d="M34.41,97.5a2,2,0,0,1,2,1.94,6,6,0,0,1-.68,4,2,2,0,0,1-2.36-1c-.39-1-1-1.78-.89-2.67S32.35,97.46,34.41,97.5Z"/><path class="cls-15" d="M36.47,100.19s.45-2.48-1.78-2.92a2.52,2.52,0,0,0-3.22,2,17.44,17.44,0,0,0,0,3.46,11.44,11.44,0,0,0,2.37,1.64,14.27,14.27,0,0,1-.46-4.67,9.36,9.36,0,0,0,3,0S36.47,100.09,36.47,100.19Z"/><path class="cls-16" d="M35.14,103.57a2.89,2.89,0,0,1-1.37-.52,3.25,3.25,0,0,0,1.33,1A3.32,3.32,0,0,0,35.14,103.57Z"/><rect class="cls-113" x="25.69" y="116.87" width="6.57" height="4.86" transform="translate(-18.85 6.23) rotate(-9.27)"/><path class="cls-14" d="M28.14,122.15a1,1,0,0,1-.11-.26s0-.18,0-.3a.22.22,0,0,0,0-.09,1.68,1.68,0,0,1-.08-.51,12.49,12.49,0,0,1,.33-1.21l.58,0,.54,0a10.42,10.42,0,0,1,.66,1.46v.06a3.08,3.08,0,0,1-.1.41s-.09.38-.18.43a.37.37,0,0,1-.34,0,.85.85,0,0,1-.45.06.5.5,0,0,1-.45,0S28.25,122.26,28.14,122.15Z"/><path class="cls-88" d="M31.56,104.74a1.59,1.59,0,0,0-1.81.94A6,6,0,0,0,29,108.1c-.08.59-.89,4.06-.92,4.22s-.31,2.34-.32,3.13c0,.6.12,4.53.1,4.69s1.82-.27,1.82-.27-.21-3.63-.17-4a20.66,20.66,0,0,1,.31-2.83c.21-.66,1.07-4,1.23-4.28S32.53,105.15,31.56,104.74Z"/><path class="cls-114" d="M91,138.86l.12-1.12a8.7,8.7,0,0,0-1.75.12l.15,1.08C89.53,139.08,91,138.86,91,138.86Z"/><path class="cls-115" d="M88.32,141.19c1.87,0,2.77.11,3-.2s-.28-2.23-.28-2.23a4,4,0,0,1-1.52.06,4,4,0,0,1-.91.81c-.45.25-1.16.34-1.43.6S86.46,141.2,88.32,141.19Z"/><path class="cls-114" d="M80.47,138.86l.12-1.12a8.7,8.7,0,0,0-1.75.12l.15,1.08C79,139.08,80.47,138.86,80.47,138.86Z"/><path class="cls-115" d="M77.8,141.19c1.87-.05,2.77.11,3-.2s-.29-2.23-.29-2.23a3.55,3.55,0,0,1-1.51.06,4,4,0,0,1-.91.81c-.45.25-2.11.45-2.38.7S75.17,141.25,77.8,141.19Z"/><path class="cls-8" d="M88.84,113.71a13.9,13.9,0,0,1,.68,4.32,42.88,42.88,0,0,0,.61,6.28c.23,2.33,1.17,7.85,1.21,9.09s-.15,5.23-.15,5.23l-1.89,0s-1.59-9.64-2-10.62-2.46-8-2.53-8.79S88.84,113.71,88.84,113.71Z"/><path class="cls-8" d="M80.88,114.12s-1,5.49-1.18,6.71-.23,5.93-.3,6.69-.45,10-.82,11.15H81s1.86-6.72,1.86-9.9,1.43-6.92,2.36-9,3-2.15,3.62-6C88.84,113.71,81.65,112.89,80.88,114.12Z"/><path class="cls-14" d="M85.8,95.38s-1.91-.71-2.79.74-.79,4.36.17,4.72a2.47,2.47,0,0,0,2.9-.74A7.31,7.31,0,0,0,87,97,1.9,1.9,0,0,0,85.8,95.38Z"/><path class="cls-14" d="M83.5,100.75a1.68,1.68,0,0,1,0,.74c-.13.25,2.4.26,2.4.26a16.16,16.16,0,0,1,.59-2.47C86.83,98.14,83.5,100.75,83.5,100.75Z"/><path class="cls-116" d="M86.44,99.28s-.17.28-.89.17S84,98.39,83.68,98.29s-.3-.28-.3-.28l-.19.27-.32,0s.29-.85-.14-1.19.45-2.74,2.73-2c0,0,1.64.33,1.74,1.32A4.6,4.6,0,0,1,86.44,99.28Z"/><path class="cls-117" d="M83.3,101.46s0-.47.22-.51a15,15,0,0,1,2.61-.15v.55S85.63,101.66,83.3,101.46Z"/><path class="cls-14" d="M83.42,97.65c0-.17.47-.65.63-.14s-.24,1.2-.47,1.15S83.32,98.07,83.42,97.65Z"/><path class="cls-4" d="M83.3,101.46s-1.18.43-2.54,1A2.85,2.85,0,0,0,79,104.78c-.09.91-1.07,5.78-1.25,6.19s-2.35,7-2.42,7.17a5.58,5.58,0,0,0,1.88.84c.13-.06,2.1-6,2.3-6.48,0,0,1.14-3.58,1.17-4.11,0,0,0,1.52.09,2s-1,8.71-1,8.94,4.87.52,6.81.31a23.35,23.35,0,0,0,3.5-.66s-1.53-6.54-1.48-7.27c.1-1.58.63-4.56.63-4.56l1.58,3-2,5.2.46,1.58s3.76-5.68,3.88-6.19a2.89,2.89,0,0,0-.38-1.61c-.2-.43-1.5-3.68-1.81-4.14s-.82-2.28-2.07-2.79a19.14,19.14,0,0,0-2.79-.78Z"/><rect class="cls-118" x="72.51" y="113.73" width="9.14" height="6.37" transform="translate(31.45 -15.48) rotate(14.38)"/><path class="cls-119" d="M74.58,119.49s-.25.4-.34.52.23.19.36.07S74.58,119.49,74.58,119.49Z"/><path class="cls-120" d="M76.43,120.88a.88.88,0,0,0,.18-.25s0-.19.08-.32l0-.1a1.92,1.92,0,0,0,.2-.54c0-.25.15-1.38.15-1.38l-.69-.18-.55-.11a11.1,11.1,0,0,0-1.25,1.42.13.13,0,0,0,0,.06,2.37,2.37,0,0,0,0,.48s0,.43.1.5a.4.4,0,0,0,.36.09.94.94,0,0,0,.47.18.59.59,0,0,0,.5.09S76.28,121,76.43,120.88Z"/><path class="cls-4" d="M79.1,113.72s-1.57,4.76-1.86,5.26a5.09,5.09,0,0,1-1.88-.84L77.08,113Z"/><path class="cls-121" d="M220.8,121.14s5.84-17.1-5.29-22.4-20.58,2.36-22.36,6.51-1.31,11.68.21,16.94,1.3,13.26-2,15.94-7.4,7.12-7.2,16.17c.13,5.61,22.09-14.36,22.09-14.36Z"/><path class="cls-99" d="M205.17,141.48s-9.14,2-12.77,4.15-11.7,11.88-11.7,16.07S216,169.82,216,169.82l6.68,24.39s17.82-4.35,19.94-8-6.77-29.45-8.29-34.68-7.94-9.06-15.36-10.1A51,51,0,0,0,205.17,141.48Z"/><path class="cls-14" d="M218.29,141.39s-.2,11.12-9,11.45-7-10.66-7-10.66S208.74,139.57,218.29,141.39Z"/><path class="cls-121" d="M222,107.85s3.12,17.88-5.76,30.79C207.06,152,222,107.85,222,107.85Z"/><path class="cls-14" d="M216.4,133.54s-.61,5.31.41,8.62-13.48,3.4-13.47.68c0-3.09,1.48-5.67.1-11S216.4,133.54,216.4,133.54Z"/><path class="cls-16" d="M205.15,134.21a7.84,7.84,0,0,0,10.44.5s-.49,3-4.7,3.44S205.15,134.21,205.15,134.21Z"/><path class="cls-14" d="M210.89,101.65s11.57,3.43,9.91,19.49-9.21,15.23-9.91,15.35-9.69.71-12.52-18.78S210.89,101.65,210.89,101.65Z"/><path class="cls-121" d="M207.9,108.82s6.29,10,12.9,12.32c0,0,3.62-16.79-11.31-20.3s-12.58,17-11.47,22.41A44.35,44.35,0,0,1,207.9,108.82Z"/><path class="cls-33" d="M199.46,107.31s3.31-6.41,8.9-6.7,8.92,4.56,8.92,4.56a9.52,9.52,0,0,0-8.91-5.46C201.65,99.71,199.46,107.31,199.46,107.31Z"/><polygon class="cls-122" points="222.22 157.72 226.14 194.21 174.49 194.21 170.57 157.72 222.22 157.72"/><path class="cls-122" d="M224.9,193H172.79l-4-36.94h52.11Zm-51.7-.45h51.2l-3.88-36h-51.2Z"/><path class="cls-123" d="M201.56,175.38c.46,2.27-.6,4.4-2.37,4.76s-3.58-1.18-4-3.45.6-4.41,2.36-4.77S201.1,173.11,201.56,175.38Z"/><rect class="cls-122" x="221.26" y="190.54" width="9.64" height="3.67" transform="translate(452.16 384.75) rotate(180)"/><path class="cls-4" d="M191.29,84.66a7.95,7.95,0,1,1,8-8A8,8,0,0,1,191.29,84.66Zm0-15.44a7.5,7.5,0,1,0,7.5,7.49A7.5,7.5,0,0,0,191.29,69.22Z"/><path class="cls-124" d="M51.15,165.45v-.68c1.34,0,2.7,0,4-.11l0,.68C53.88,165.4,52.51,165.44,51.15,165.45Zm-4.06,0c-1.34,0-2.7-.1-4.06-.19l0-.67c1.35.08,2.71.15,4,.18Zm12.18-.34-.06-.68c1.33-.11,2.69-.26,4-.43l.08.67C62,164.8,60.61,165,59.27,165.07ZM39,164.9c-1.38-.14-2.74-.31-4-.53l.11-.66c1.28.21,2.62.38,4,.52ZM67.33,164l-.11-.67c1.3-.21,2.64-.46,4-.74l.14.66C70,163.57,68.64,163.82,67.33,164Zm-36.39-.47c-1.36-.33-2.68-.71-3.91-1.14l.22-.64c1.21.42,2.51.8,3.85,1.12Zm44.35-1.16-.16-.66c1.24-.3,2.53-.62,3.92-1l.18.65C77.82,161.78,76.54,162.11,75.29,162.41Zm-52.05-1.52a31.38,31.38,0,0,1-3.57-2l.38-.57a28.31,28.31,0,0,0,3.48,2Zm59.9-.56-.18-.65,1.67-.47,2.23-.63.18.65-2.22.63Zm35.22-.56c-1.25-.59-2.5-1.11-3.71-1.54l.22-.64a39.72,39.72,0,0,1,3.77,1.57Zm-27.42-1.59-.16-.65c1.45-.38,2.75-.68,4-.93l.13.66C93.67,157.51,92.39,157.81,90.94,158.18Zm19.86-1.09a31.87,31.87,0,0,0-4-.65l.06-.68a34.73,34.73,0,0,1,4,.67Zm-12-.5-.09-.67a39.13,39.13,0,0,1,4.07-.31l0,.67A37.64,37.64,0,0,0,98.84,156.59Zm-82.39-.23a22.7,22.7,0,0,1-2.75-3.06l.55-.4a21.83,21.83,0,0,0,2.66,3Zm-4.88-6.56A23.54,23.54,0,0,1,10.09,146l.65-.19a22.73,22.73,0,0,0,1.43,3.72ZM9.25,142A31.9,31.9,0,0,1,9,137.87h.68a32.49,32.49,0,0,0,.27,4Zm.6-8.1-.67-.07c.13-1.33.34-2.69.6-4l.67.13C10.18,131.22,10,132.55,9.85,133.86ZM11.4,126l-.65-.19a38,38,0,0,1,1.32-3.88l.63.27A33.94,33.94,0,0,0,11.4,126Z"/><path class="cls-124" d="M226,44s-1.14-1-3.16-2.51l.4-.54c2.05,1.52,3.2,2.54,3.21,2.55Zm-6.47-4.84c-1.11-.74-2.26-1.47-3.41-2.16l.35-.58c1.16.7,2.32,1.43,3.44,2.18ZM212.65,35c-1.19-.64-2.4-1.26-3.6-1.84l.29-.61c1.21.58,2.43,1.21,3.63,1.85Zm-7.28-3.49c-1.25-.52-2.52-1-3.77-1.46l.23-.63c1.26.45,2.54.94,3.8,1.47ZM154,30.66V30a28.49,28.49,0,0,0,4-.38l.11.67A28.41,28.41,0,0,1,154,30.66Zm-4.09-.21a29,29,0,0,1-4-.79l.17-.65a29.62,29.62,0,0,0,3.93.77Zm12.16-1.09-.19-.64c.43-.13.88-.27,1.31-.42.85-.28,1.71-.55,2.56-.79l.19.65c-.85.24-1.7.5-2.53.78Zm35.66-.58c-1.29-.38-2.6-.73-3.9-1l.16-.65c1.3.3,2.63.65,3.94,1Zm-55.71-.4c-1.19-.46-2.41-1-3.73-1.64l.29-.6c1.31.63,2.51,1.16,3.69,1.61Zm27.83-1.16-.13-.66c1.32-.27,2.68-.49,4-.65l.08.67C172.53,26.74,171.19,27,169.88,27.22Zm20-.25c-1.33-.22-2.68-.4-4-.52l.07-.68c1.33.13,2.69.31,4,.53ZM71.19,26.33l-.37-.57C72,25,73.14,24.28,74.26,23.6l.35.58C73.49,24.86,72.34,25.58,71.19,26.33Zm106.68-.09,0-.68c1.35-.06,2.72-.07,4.08,0l0,.68C180.54,26.16,179.19,26.18,177.87,26.24Zm-43.16-1.36c-1.15-.63-2.29-1.27-3.55-2l.34-.59c1.25.71,2.39,1.35,3.53,2Zm-56.6-2.72-.33-.59c1.21-.67,2.43-1.3,3.6-1.89l.3.61C80.51,20.87,79.31,21.5,78.11,22.16Zm49.52-1.23c-1.32-.73-2.49-1.34-3.57-1.89l.3-.6c1.09.54,2.27,1.16,3.6,1.89ZM85.34,18.58,85.07,18c1.27-.55,2.55-1.06,3.78-1.51l.23.63C87.86,17.53,86.6,18,85.34,18.58Zm35.06-1.23c-1.3-.55-2.53-1-3.77-1.41l.21-.65c1.26.41,2.51.88,3.82,1.44ZM92.91,15.83l-.18-.65c1.33-.38,2.66-.71,4-1l.13.66C95.54,15.13,94.23,15.45,92.91,15.83Zm19.85-.95a38.43,38.43,0,0,0-4-.65l.08-.67a40.26,40.26,0,0,1,4,.66Zm-12-.63-.07-.67a40.33,40.33,0,0,1,4.08-.23V14A38.94,38.94,0,0,0,100.79,14.25Z"/><polygon class="cls-125" points="141.86 167.18 124.88 162.24 129.97 160.71 141.86 167.18"/><polygon class="cls-126" points="141.86 167.18 135.52 160.81 131.61 161.6 141.86 167.18"/><polygon class="cls-127" points="128.79 163.38 128.93 165.34 141.86 167.18 128.79 163.38"/><polygon class="cls-125" points="56.4 37.56 71.37 29.19 66.22 28.85 56.4 37.56"/><polygon class="cls-126" points="56.4 37.56 61.01 30.15 64.87 30.05 56.4 37.56"/><polygon class="cls-127" points="67.92 31.11 68.22 33 56.4 37.56 67.92 31.11"/></svg>