<svg  id="Capa_1" data-name="Capa 1" xmlns="http://www.w3.org/2000/svg" viewBox="0 0 292.58 206.27"><defs><style>.cls-1{fill:#e0e0e0;}.cls-2{fill:#ebebeb;}.cls-3{fill:#fbfbfb;}.cls-4{fill:#f5f4f5;}.cls-16,.cls-5{fill:#fff;}.cls-6{fill:#263239;}.cls-7,.cls-8{fill:#008d36;}.cls-15,.cls-16,.cls-8{opacity:0.3;}.cls-9{fill:#455a64;}.cls-10{fill:#3aaa35;}.cls-11{fill:#063;}.cls-12{fill:#bf7a62;}.cls-13{fill:#d89377;}.cls-14{fill:#e9505b;}.cls-17{fill:#f9be9d;}.cls-18{fill:#f3986e;}</style></defs><polygon class="cls-1" points="183.88 31.54 188.71 43.88 185.71 43.86 183.3 36.28 183.88 31.54"/><polygon class="cls-2" points="167.41 20.14 165.75 43.78 182.87 44.14 184.8 20.14 167.41 20.14"/><polygon class="cls-3" points="169.12 22.04 167.74 41.72 180.47 42.32 182.25 21.93 169.12 22.04"/><polygon class="cls-1" points="171.92 24.82 170.88 38.66 177.9 38.66 179.14 24.82 171.92 24.82"/><polygon class="cls-2" points="150.53 43.93 150.53 32.09 159.2 32.09 159.2 43.92 150.53 43.93"/><path class="cls-1" d="M155.46,32.09s2.09-15.28,1.5-15.26-2.05,13.93-2.05,13.93-.06-11.52-.62-11.46,0,12.2,0,12.2-.94-9.85-1.45-9.61.22,10.2.22,10.2h2.4"/><path class="cls-2" d="M153.88,32.09s.73-7.61,1-7.09a28.34,28.34,0,0,1,0,4.53s2-9.84,2.53-9.51-2.06,10.69-2.06,10.69,2-5.91,2.39-5.29-1.62,6.16-1.62,6.16,2.1-3.91,2.25-3.39-1,3.9-1,3.9Z"/><path class="cls-4" d="M152.65,32.14S148,23,148.59,23.32s3.53,6.16,3.53,6.16-2-5.67-1.53-5.85S153.17,30,153.17,30l.49,2.13Z"/><polygon class="cls-1" points="154.54 32.11 154.76 43.95 150.64 43.95 150.56 32.07 154.54 32.11"/><polygon class="cls-1" points="150.54 33.14 154.53 33.2 159.2 33.14 159.34 32.01 150.43 32.01 150.54 33.14"/><rect class="cls-1" x="141.76" y="43.6" width="60.69" height="3.13"/><polygon class="cls-4" points="46.64 96.06 47.52 194.78 8.42 194.78 8.42 97.4 46.64 96.06"/><polygon class="cls-1" points="25.58 96.8 25.92 194.78 8.42 194.78 8.42 97.4 25.58 96.8"/><polygon class="cls-1" points="45.41 97.28 45.41 111.11 26.89 111.11 26.89 97.93 45.41 97.28"/><polygon class="cls-4" points="39.03 101.08 39.03 103.13 33.36 103.13 33.36 100.9 39.03 101.08"/><rect class="cls-4" x="33.18" y="104.84" width="5.85" height="0.84"/><polygon class="cls-1" points="45.41 145.76 45.41 159.6 26.89 159.6 26.89 146.42 45.41 145.76"/><polygon class="cls-4" points="39.03 149.57 39.03 151.62 33.36 151.62 33.36 149.39 39.03 149.57"/><rect class="cls-4" x="33.18" y="153.33" width="5.85" height="0.84"/><polygon class="cls-1" points="45.41 112.88 45.41 126.71 26.89 126.71 26.89 113.53 45.41 112.88"/><polygon class="cls-4" points="39.03 116.68 39.03 118.72 33.36 118.72 33.36 116.5 39.03 116.68"/><rect class="cls-4" x="33.18" y="120.44" width="5.85" height="0.84"/><polygon class="cls-1" points="45.41 161.36 45.41 175.2 26.89 175.2 26.89 162.01 45.41 161.36"/><polygon class="cls-4" points="39.03 165.17 39.03 167.21 33.36 167.21 33.36 164.98 39.03 165.17"/><rect class="cls-4" x="33.18" y="168.93" width="5.85" height="0.84"/><polygon class="cls-1" points="45.61 176.96 45.61 190.79 27.09 190.79 27.09 177.61 45.61 176.96"/><polygon class="cls-4" points="39.23 180.76 39.23 182.81 33.56 182.81 33.56 180.58 39.23 180.76"/><rect class="cls-4" x="33.38" y="184.53" width="5.85" height="0.84"/><rect class="cls-1" x="27.13" y="129.44" width="18.52" height="13.84"/><polygon class="cls-4" points="39.15 135.68 39.15 137.6 33.82 137.6 33.82 135.5 39.15 135.68"/><rect class="cls-4" x="33.64" y="139.22" width="5.5" height="0.79"/><polygon class="cls-4" points="160.81 182.73 160.81 194.79 178.44 194.79 197.9 194.79 197.9 182.73 160.81 182.73"/><polygon class="cls-1" points="159.25 179.36 159.25 182.73 199.2 182.73 199.2 179.36 178.44 179.36 159.25 179.36"/><polygon class="cls-1" points="179.22 194.79 197.9 194.79 197.9 182.73 199.2 182.73 199.2 179.36 178.44 179.36 178.44 182.42 179.22 194.79"/><rect class="cls-1" x="165.99" y="184.68" width="7.52" height="1.82"/><rect class="cls-5" x="165.03" y="188.76" width="9.66" height="3.83"/><polygon class="cls-4" points="208.73 167.3 208.73 179.36 226.37 179.36 245.82 179.36 245.82 167.3 208.73 167.3"/><polygon class="cls-1" points="207.17 163.93 207.17 167.3 247.12 167.3 247.12 163.93 226.37 163.93 207.17 163.93"/><polygon class="cls-1" points="227.15 179.36 245.82 179.36 245.82 167.3 247.12 167.3 247.12 163.93 226.37 163.93 226.37 166.99 227.15 179.36"/><rect class="cls-1" x="213.92" y="169.24" width="7.52" height="1.82"/><rect class="cls-5" x="212.95" y="173.33" width="9.66" height="3.83"/><polygon class="cls-4" points="206.95 182.73 206.95 194.79 224.59 194.79 244.05 194.79 244.05 182.73 206.95 182.73"/><polygon class="cls-1" points="205.4 179.36 205.4 182.73 245.34 182.73 245.34 179.36 224.59 179.36 205.4 179.36"/><polygon class="cls-1" points="225.37 194.79 244.05 194.79 244.05 182.73 245.34 182.73 245.34 179.36 224.59 179.36 224.59 182.42 225.37 194.79"/><rect class="cls-1" x="212.14" y="184.68" width="7.52" height="1.82"/><rect class="cls-5" x="211.17" y="188.76" width="9.66" height="3.83"/><polygon class="cls-4" points="243.52 96.01 242.65 194.72 281.75 194.72 281.75 97.35 243.52 96.01"/><polygon class="cls-1" points="264.59 96.75 264.24 194.72 281.75 194.72 281.75 97.35 264.59 96.75"/><polygon class="cls-1" points="244.75 97.22 244.75 111.06 263.27 111.06 263.27 97.88 244.75 97.22"/><polygon class="cls-4" points="251.14 101.03 251.14 103.08 256.8 103.08 256.8 100.85 251.14 101.03"/><rect class="cls-4" x="251.14" y="104.79" width="5.85" height="0.84"/><polygon class="cls-1" points="244.75 145.71 244.75 159.55 263.27 159.55 263.27 146.37 244.75 145.71"/><polygon class="cls-4" points="251.14 149.52 251.14 151.56 256.8 151.56 256.8 149.34 251.14 149.52"/><rect class="cls-4" x="251.14" y="153.28" width="5.85" height="0.84"/><polygon class="cls-1" points="244.75 112.82 244.75 126.66 263.27 126.66 263.27 113.48 244.75 112.82"/><polygon class="cls-4" points="251.14 116.63 251.14 118.67 256.8 118.67 256.8 116.44 251.14 116.63"/><rect class="cls-4" x="251.14" y="120.39" width="5.85" height="0.84"/><polygon class="cls-1" points="244.75 161.31 244.75 175.15 263.27 175.15 263.27 161.96 244.75 161.31"/><polygon class="cls-4" points="251.14 165.12 251.14 167.16 256.8 167.16 256.8 164.93 251.14 165.12"/><rect class="cls-4" x="251.14" y="168.88" width="5.85" height="0.84"/><polygon class="cls-1" points="244.55 176.91 244.55 190.74 263.07 190.74 263.07 177.56 244.55 176.91"/><polygon class="cls-4" points="250.94 180.71 250.94 182.76 256.61 182.76 256.61 180.53 250.94 180.71"/><rect class="cls-4" x="250.94" y="184.47" width="5.85" height="0.84"/><rect class="cls-1" x="244.51" y="129.39" width="18.52" height="13.84"/><polygon class="cls-4" points="251.02 135.63 251.02 137.55 256.35 137.55 256.35 135.45 251.02 135.63"/><rect class="cls-4" x="251.02" y="139.16" width="5.5" height="0.79"/><path class="cls-6" d="M282,194.78c0,.06-62.57.11-139.73.11s-139.75,0-139.75-.11,62.56-.11,139.75-.11S282,194.72,282,194.78Z"/><path class="cls-7" d="M85.76,81.35l3,50.79a3.44,3.44,0,0,0,3.42,3.23l91.42.28a3.42,3.42,0,0,0,3.44-3.42l.13-39.55a3.44,3.44,0,0,0-3.45-3.44l-56.22.19a3.41,3.41,0,0,1-2.43-1l-9.74-9.66a3.45,3.45,0,0,0-2.41-1l-23.7-.07A3.43,3.43,0,0,0,85.76,81.35Z"/><path class="cls-8" d="M85.76,81.35l3,50.79a3.44,3.44,0,0,0,3.42,3.23l91.42.28a3.42,3.42,0,0,0,3.44-3.42l.13-39.55a3.44,3.44,0,0,0-3.45-3.44l-56.22.19a3.41,3.41,0,0,1-2.43-1l-9.74-9.66a3.45,3.45,0,0,0-2.41-1l-23.7-.07A3.43,3.43,0,0,0,85.76,81.35Z"/><rect class="cls-5" x="92.8" y="70.54" width="49.61" height="39.67" transform="translate(-25.55 129.17) rotate(-52.7)"/><path class="cls-6" d="M116.87,58.62l-.14.19-.42.56-1.62,2.15-6.13,8.09L86.88,98.15l0-.14,31.56,24h0l-.15,0c11.14-14.61,21.48-28.19,30.08-39.46l0,.13L125.5,65.25l-6.38-4.89-1.68-1.29c-.38-.29-.57-.45-.57-.45l.57.42,1.68,1.27,6.39,4.84,23,17.43.07.06-.06.07-30.05,39.48-.06.09-.09-.07h0l-31.55-24-.07-.06,0-.08,21.8-28.53,6.16-8c.71-.93,1.25-1.64,1.63-2.12l.42-.54Z"/><rect class="cls-7" x="94.53" y="73.06" width="46.13" height="34.67" transform="translate(-25.57 129.16) rotate(-52.7)"/><polygon class="cls-9" points="117.41 119.68 110.03 93.81 126.8 94.04 125.17 84.29 145.36 82.99 117.41 119.68"/><circle class="cls-9" cx="114.34" cy="83.35" r="3.63" transform="translate(-10.22 16.22) rotate(-7.77)"/><rect class="cls-5" x="129.29" y="52.66" width="55.21" height="69.06" transform="translate(63.34 240.37) rotate(-87.64)"/><path class="cls-6" d="M192.53,61h-.33l-1,0-3.74-.14-14.12-.55-49.85-2,.1-.09c-.67,16.42-1.44,35.24-2.26,55.16h0l-.1-.11,69,2.86-.1.08c.7-16.62,1.29-30.4,1.7-40,.2-4.81.37-8.59.48-11.17.06-1.29.1-2.27.13-2.94s.05-1,.05-1l0,1c0,.67-.06,1.65-.11,2.93-.1,2.57-.25,6.34-.43,11.15-.39,9.64-.94,23.44-1.61,40.09v.09h-.09l-69-2.82h-.11v-.11h0c.83-19.92,1.61-38.74,2.29-55.16v-.1h.1l49.91,2.1,14.09.61,3.72.16,1,0Z"/><rect class="cls-10" x="132.72" y="55.08" width="48.26" height="64.2" transform="translate(63.3 240.32) rotate(-87.64)"/><polygon class="cls-6" points="123.79 109.97 147.43 80.92 160.53 100.25 170.36 90.61 187.94 112.61 123.79 109.97"/><circle class="cls-6" cx="162.3" cy="77.86" r="5.06" transform="translate(50.81 219.18) rotate(-77.36)"/><polygon class="cls-2" points="195.87 84.74 102.41 97.61 112.31 166.06 205 153 195.87 84.74"/><polygon class="cls-1" points="196.23 76.2 103.85 95.35 118.34 162.97 209.95 143.69 196.23 76.2"/><polygon class="cls-5" points="188.07 68.61 99.08 99.92 122.47 165.01 210.68 133.66 188.07 68.61"/><path class="cls-6" d="M188.07,68.61c.25.7,9,25.63,22.7,65l0,.09-.08,0-88.2,31.36-.11,0,0-.1-.17-.48C113.87,141.4,106,119.42,99,100l0-.09.09,0,89-31.22L99.11,100l.06-.13c7,19.46,14.9,41.43,23.23,64.61.06.16.12.32.17.47l-.14-.06,88.22-31.33-.05.11Z"/><path class="cls-6" d="M190.58,131c-.17.06-4.45-11-9.55-24.79s-9.1-25-8.93-25,4.44,11,9.55,24.79S190.75,131,190.58,131Z"/><path class="cls-6" d="M183,134.51c-.17.06-4.45-11-9.55-24.79s-9.1-25-8.93-25,4.44,11,9.55,24.79S183.15,134.45,183,134.51Z"/><path class="cls-6" d="M159.38,144.4c-.17.06-4.45-11-9.55-24.79s-9.1-25-8.93-25,4.45,11,9.55,24.8S159.55,144.33,159.38,144.4Z"/><path class="cls-6" d="M166.9,141.37c-.17.06-4.44-11-9.55-24.79s-9.1-25-8.93-25,4.45,11,9.55,24.79S167.07,141.3,166.9,141.37Z"/><path class="cls-6" d="M174.42,138.34c-.17.06-4.44-11-9.55-24.79s-9.1-25-8.93-25,4.45,11,9.55,24.79S174.59,138.27,174.42,138.34Z"/><path class="cls-6" d="M150.67,146.9c-.17.07-4.45-11-9.55-24.79s-9.1-25-8.93-25,4.44,11,9.55,24.79S150.84,146.84,150.67,146.9Z"/><path class="cls-6" d="M142.34,150c-.17.06-4.45-11-9.55-24.79s-9.1-25-8.93-25,4.44,11,9.55,24.79S142.51,149.89,142.34,150Z"/><path class="cls-6" d="M134,153c-.17.07-4.44-11-9.54-24.79s-9.11-25-8.94-25,4.45,11,9.55,24.79S134.17,153,134,153Z"/><path class="cls-11" d="M83.9,109.15l7.43,62.27a2.21,2.21,0,0,0,2.19,2l97.35.29a2.19,2.19,0,0,0,2.2-2l5.1-62.23A2.21,2.21,0,0,0,196,107l-109.88-.34A2.21,2.21,0,0,0,83.9,109.15Z"/><polygon class="cls-12" points="203.01 91.79 199.72 94.14 201.64 103.55 205.95 99.7 203.01 91.79"/><path class="cls-9" d="M203.75,162.55l13.65-6.63,17.51,2.1a5.74,5.74,0,0,1,2.2,3.63,1.88,1.88,0,0,1-.2,1.38,1.75,1.75,0,0,1-1.85.46,15.36,15.36,0,0,0-1.94-.58,4.71,4.71,0,0,0-3.48,1.55,7.94,7.94,0,0,1-3.23,2.16,5,5,0,0,1-3.34-.62c-1-.54-1.93-1.26-2.93-1.84a10,10,0,0,0-6.16-1.37c-1.7.23-3.3,1-5,1.24s-4.32,0-5.24-1.48"/><path class="cls-13" d="M236.29,189.63s-11.18-38.12-11.39-39.34,1.55-27.8,2.33-34.73l-12.31.1v.12l-5.85.14,2.62,75.82,7.57.58-.05-25c4.78,12.06,10.31,25.51,10.31,25.51Z"/><path class="cls-12" d="M214.21,148.55s0,.29-.05.83a17.7,17.7,0,0,0,0,2.26,20.5,20.5,0,0,0,.56,3.3,30.86,30.86,0,0,0,1.33,3.88c1,2.74,2,5.22,2.63,7l.76,2.14a7,7,0,0,1,.26.8,5,5,0,0,1-.34-.76l-.85-2.11c-.7-1.79-1.65-4.26-2.69-7-.25-.68-.51-1.35-.75-2a17.21,17.21,0,0,1-.57-1.92,19.46,19.46,0,0,1-.51-3.34,14.3,14.3,0,0,1,0-2.28,4.29,4.29,0,0,1,.09-.61A.53.53,0,0,1,214.21,148.55Z"/><path class="cls-12" d="M219.22,176.39c0-.23.18-8.48.18-8.48s-2.75-7.66-2.82-7.43S219.22,176.39,219.22,176.39Z"/><path class="cls-14" d="M211.25,191.7l0-.86,8,.16,0,2.82-.49,0c-2.21.08-11.23.27-12.7-.21C204.43,193.1,211.25,191.7,211.25,191.7Z"/><g class="cls-15"><path class="cls-5" d="M216.37,193.7a2.79,2.79,0,0,1,1-1.69,2.69,2.69,0,0,1,1.88-.54l0,2.23Z"/></g><path class="cls-16" d="M207.92,192.5s-2.39.65-2.1,1,9.41.56,13.44.28v-.18l-10.64-.1S208.38,192.53,207.92,192.5Z"/><path class="cls-6" d="M219.38,193.63l-.14,0h-.39l-1.46,0c-1.22,0-2.92,0-4.79,0s-3.57-.09-4.8-.16l-1.45-.08-.4,0-.13,0h.53l1.45.05c1.23.05,2.92.1,4.8.14s3.57,0,4.79,0h2Z"/><path class="cls-6" d="M208.61,193.67a3.37,3.37,0,0,0-.26-.7,3.31,3.31,0,0,0-.49-.57,1.31,1.31,0,0,1,.75,1.27Z"/><path class="cls-6" d="M211,192.51s-.14-.12-.25-.31-.19-.35-.16-.36.13.12.24.31A.89.89,0,0,1,211,192.51Z"/><path class="cls-6" d="M211.64,192.18s-.14-.07-.28-.19-.23-.25-.21-.27.14.07.28.2S211.66,192.16,211.64,192.18Z"/><path class="cls-6" d="M212.06,191.43s-.18,0-.42,0-.41,0-.41,0,.18-.05.42-.05A1,1,0,0,1,212.06,191.43Z"/><path class="cls-6" d="M212.21,190.9s-.19.12-.47.13a.78.78,0,0,1-.47-.07,2.32,2.32,0,0,1,.47,0A4.43,4.43,0,0,1,212.21,190.9Z"/><path class="cls-6" d="M210.73,191.81a1.63,1.63,0,0,1-.52,0,2.77,2.77,0,0,1-.54-.13,1.66,1.66,0,0,1-.31-.14.27.27,0,0,1-.13-.16.2.2,0,0,1,.09-.2,1,1,0,0,1,1.16.29,1,1,0,0,1,.16.35.37.37,0,0,1,0,.14,1.37,1.37,0,0,0-.23-.44.88.88,0,0,0-.43-.3.86.86,0,0,0-.61,0c-.09.06-.06.16,0,.22a1.78,1.78,0,0,0,.29.12,3.33,3.33,0,0,0,.53.15C210.53,191.79,210.73,191.79,210.73,191.81Z"/><path class="cls-6" d="M210.59,191.83a.51.51,0,0,1-.05-.35.91.91,0,0,1,.15-.38.52.52,0,0,1,.43-.25.19.19,0,0,1,.15.24.58.58,0,0,1-.09.23,1.57,1.57,0,0,1-.24.3.83.83,0,0,1-.3.21s.1-.09.25-.26a2,2,0,0,0,.22-.3c.07-.11.12-.3,0-.33a.45.45,0,0,0-.34.22.81.81,0,0,0-.15.33C210.57,191.7,210.61,191.83,210.59,191.83Z"/><path class="cls-6" d="M219.26,191.44s-.23,0-.6,0a2.73,2.73,0,0,0-1.29.51,2.65,2.65,0,0,0-.83,1.13c-.13.34-.14.57-.16.57s0-.06,0-.17a2.08,2.08,0,0,1,.1-.43,2.44,2.44,0,0,1,2.18-1.67,1.86,1.86,0,0,1,.44,0Z"/><path class="cls-6" d="M215.38,192.9a4,4,0,0,1-1.17.1,4.75,4.75,0,0,1-1.17-.11s.52,0,1.17,0S215.37,192.88,215.38,192.9Z"/><path class="cls-6" d="M216.94,192.93s0,.11-.1.23-.08.22-.11.22,0-.13,0-.26S216.92,192.91,216.94,192.93Z"/><path class="cls-6" d="M217.54,192.2s0,.11-.11.19-.17.13-.19.11,0-.1.12-.18S217.53,192.19,217.54,192.2Z"/><path class="cls-6" d="M218.4,191.88s-.12,0-.23.07-.21.1-.23.08.05-.13.2-.18A.28.28,0,0,1,218.4,191.88Z"/><path class="cls-6" d="M219,191.74s0,.06-.1.09-.13,0-.14,0,0-.06.1-.09S219,191.71,219,191.74Z"/><path class="cls-14" d="M229.52,193l-.37-.77,7.26-3.44,1.22,2.53-.43.24c-1.94,1.06-9.94,5.25-11.46,5.48C224,197.3,229.52,193,229.52,193Z"/><g class="cls-15"><path class="cls-5" d="M235,192.51a2.77,2.77,0,0,1,.18-2,2.73,2.73,0,0,1,1.44-1.32l1,2Z"/></g><path class="cls-16" d="M226.89,195.21s-1.85,1.64-1.42,1.87,8.68-3.71,12.16-5.76l-.09-.15L228,195.83S227.32,195,226.89,195.21Z"/><path class="cls-6" d="M237.65,191.11l-.11.07-.35.19-1.28.68c-1.09.57-2.61,1.34-4.3,2.15s-3.24,1.5-4.36,2l-1.34.57-.37.15-.13.05.13-.07.36-.16,1.32-.6c1.12-.51,2.66-1.21,4.35-2s3.21-1.56,4.3-2.12l1.3-.65.36-.18Z"/><path class="cls-6" d="M228,195.94a4.11,4.11,0,0,0-.55-.5,3.27,3.27,0,0,0-.68-.29,1,1,0,0,1,.74.2A1.14,1.14,0,0,1,228,195.94Z"/><path class="cls-6" d="M229.64,193.85a.89.89,0,0,1-.36-.17c-.18-.12-.32-.23-.31-.25a.79.79,0,0,1,.36.17C229.52,193.71,229.66,193.83,229.64,193.85Z"/><path class="cls-6" d="M230.08,193.26s-.16,0-.34,0-.31-.11-.3-.14a.73.73,0,0,1,.33.05C230,193.17,230.09,193.24,230.08,193.26Z"/><path class="cls-6" d="M230.12,192.4s-.14.13-.35.23-.39.17-.4.14a1.2,1.2,0,0,1,.36-.23A1,1,0,0,1,230.12,192.4Z"/><path class="cls-6" d="M230,191.86s-.13.19-.36.33-.46.17-.46.14a3.71,3.71,0,0,1,.41-.23A2.25,2.25,0,0,1,230,191.86Z"/><path class="cls-6" d="M229.1,193.34a1.76,1.76,0,0,1-.47.21,3.06,3.06,0,0,1-.54.13,1.88,1.88,0,0,1-.34,0,.33.33,0,0,1-.19-.09.2.2,0,0,1,0-.22.94.94,0,0,1,1.17-.25,1,1,0,0,1,.3.24l.07.11a2.08,2.08,0,0,0-.4-.29,1,1,0,0,0-.52-.07.82.82,0,0,0-.54.3c0,.09,0,.17.13.18a1.62,1.62,0,0,0,.31,0,3.27,3.27,0,0,0,.54-.1C228.91,193.41,229.09,193.32,229.1,193.34Z"/><path class="cls-6" d="M229,193.42a.54.54,0,0,1-.21-.3.75.75,0,0,1,0-.4.52.52,0,0,1,.27-.42.2.2,0,0,1,.24.15.5.5,0,0,1,0,.24,1.41,1.41,0,0,1-.08.39c-.08.21-.17.32-.18.31s.06-.13.11-.34a1.24,1.24,0,0,0,.06-.37c0-.12,0-.32-.15-.29s-.18.22-.21.35a.85.85,0,0,0,0,.36A1.3,1.3,0,0,0,229,193.42Z"/><path class="cls-6" d="M236.56,189.2s-.21.08-.52.28a2.5,2.5,0,0,0-.93,1,2.52,2.52,0,0,0-.24,1.38c0,.36.13.57.11.58s0-.05-.07-.15a2,2,0,0,1-.11-.43,2.47,2.47,0,0,1,.22-1.42,2.41,2.41,0,0,1,1-1.05,2.1,2.1,0,0,1,.4-.18Z"/><path class="cls-6" d="M233.74,192.24a4.63,4.63,0,0,1-1,.61,4.48,4.48,0,0,1-1.1.42s.48-.22,1.06-.51S233.73,192.22,233.74,192.24Z"/><path class="cls-6" d="M235.16,191.57s0,.11,0,.24,0,.24,0,.25-.1-.09-.1-.24S235.13,191.56,235.16,191.57Z"/><path class="cls-6" d="M235.37,190.65s0,.1,0,.22-.09.19-.12.18,0-.11,0-.22S235.35,190.64,235.37,190.65Z"/><path class="cls-6" d="M236,190s-.09.07-.18.16-.13.18-.16.17,0-.13.1-.24S236,190,236,190Z"/><path class="cls-6" d="M236.47,189.58s0,.07-.06.13-.1.07-.12.06,0-.08.05-.13S236.45,189.56,236.47,189.58Z"/><path class="cls-10" d="M226.9,113.41h0c-3.37-5.83-4.22-5.15-3.08-8.54l3.29-11-1.39-6.92a7.62,7.62,0,0,0-5.83-2.14l-6.87.48s-3.38-.74-8.36,4.09l-3.44,3.22,4.34,8.24.22,3.74,3.13,10.23-.84,4.5c-.36,3.43-5,42.77-4.35,43.4s10.27-4.17,12.6-2.2,7,3.17,9.66,2.32,6.61-6.11,10.62-2.56C236.61,160.24,235.3,125.34,226.9,113.41Z"/><path class="cls-10" d="M223.12,85.26s7.16,1.9,6.1,7c-.52,2.52-3.95,7.76-3.95,7.76l-8.11-3.84Z"/><path class="cls-3" d="M208.53,116.87a6.64,6.64,0,0,1,1.21-.85,6.88,6.88,0,0,1,3.9-1,5.57,5.57,0,0,1,2.68.79,5.22,5.22,0,0,1,2.09,2.43,3.88,3.88,0,0,1,.3,1.73,4.44,4.44,0,0,1-.53,1.76c-.58,1.11-1.49,2-2.09,3.16a6.31,6.31,0,0,0-.57,3.64,12.41,12.41,0,0,1,0,3.55,4.89,4.89,0,0,1-.62,1.55,3.05,3.05,0,0,1-1.13,1.1,2.45,2.45,0,0,1-1.46.25,3.24,3.24,0,0,1-1.27-.49,10,10,0,0,1-1.75-1.51,14.27,14.27,0,0,0-1.3-1.14,7.1,7.1,0,0,0-.9-.62c-.21-.13-.33-.18-.33-.19l.09,0,.26.12a6.82,6.82,0,0,1,.94.59,16.57,16.57,0,0,1,1.33,1.12,10.1,10.1,0,0,0,1.74,1.47,3.26,3.26,0,0,0,1.21.45,2.3,2.3,0,0,0,1.35-.24,2.78,2.78,0,0,0,1.06-1,5,5,0,0,0,.58-1.5,12,12,0,0,0,0-3.49,10.86,10.86,0,0,1,0-1.89,5,5,0,0,1,.58-1.86c.63-1.17,1.54-2.09,2.1-3.16a4.1,4.1,0,0,0,.51-1.67,3.64,3.64,0,0,0-.28-1.64,5,5,0,0,0-2-2.35,5.53,5.53,0,0,0-2.59-.8,7,7,0,0,0-3.85.88c-.42.23-.72.43-.93.57l-.24.16Z"/><path class="cls-3" d="M235.76,149.59l-.11,0-.32.06-1.27.19a29.11,29.11,0,0,1-4.71.32,14.27,14.27,0,0,1-3.23-.44,10.81,10.81,0,0,1-3.43-1.52,7.54,7.54,0,0,1-2.68-3.15,6.61,6.61,0,0,1-.36-4.4,5.35,5.35,0,0,1,1.09-2,13.27,13.27,0,0,1,1.65-1.46,9.29,9.29,0,0,0,1.51-1.42,4.2,4.2,0,0,0,.82-1.78,22.43,22.43,0,0,0,.2-3.7,6.31,6.31,0,0,1,2.61-5.16,6.24,6.24,0,0,1,1.81-.93,5.46,5.46,0,0,1,1.26-.25l.34,0h.11a7.3,7.3,0,0,0-1.68.34,6.15,6.15,0,0,0-1.76,1,6.31,6.31,0,0,0-1.74,2,6.41,6.41,0,0,0-.77,3.08,22.17,22.17,0,0,1-.18,3.75,4.57,4.57,0,0,1-.86,1.86,9.29,9.29,0,0,1-1.54,1.46,12.19,12.19,0,0,0-1.61,1.44,5,5,0,0,0-1,1.91,6.47,6.47,0,0,0,.35,4.26,7.22,7.22,0,0,0,2.6,3.06,10.52,10.52,0,0,0,3.35,1.51,14.61,14.61,0,0,0,3.2.46,30.61,30.61,0,0,0,4.69-.25l1.27-.14.33,0Z"/><path class="cls-3" d="M215.65,160.14a.5.5,0,0,1,.15-.11,2.26,2.26,0,0,0,.4-.29c.15-.15.09-.43,0-.72a6.75,6.75,0,0,0-.46-1c-.39-.69-.84-1.52-1.4-2.41a13.28,13.28,0,0,0-2.11-2.64,7.75,7.75,0,0,0-2.83-1.76,5.58,5.58,0,0,0-2.71-.26,4,4,0,0,0-1.68.73c-.35.26-.52.45-.53.43s0,0,.11-.14a2.39,2.39,0,0,1,.36-.36,3.89,3.89,0,0,1,1.71-.81,5.64,5.64,0,0,1,2.8.22,7.73,7.73,0,0,1,2.92,1.79,12.89,12.89,0,0,1,2.13,2.69c.56.9,1,1.74,1.36,2.45a5.14,5.14,0,0,1,.44,1,2,2,0,0,1,.09.45.47.47,0,0,1-.13.37,2,2,0,0,1-.45.27Z"/><path class="cls-3" d="M224.89,110.53a.62.62,0,0,1-.21.22,1.77,1.77,0,0,1-.74.33,2.25,2.25,0,0,1-1.21-.1,2.55,2.55,0,0,1-1.16-.92,3.76,3.76,0,0,1-.62-2.56,2.83,2.83,0,0,1,.24-1.07s-.06.41-.08,1.08a3.83,3.83,0,0,0,.64,2.42,2.45,2.45,0,0,0,1.05.86,2.12,2.12,0,0,0,1.11.13A2.78,2.78,0,0,0,224.89,110.53Z"/><path class="cls-3" d="M225.49,98.39s-.05,0-.16,0a2.21,2.21,0,0,1-.48,0,3.18,3.18,0,0,1-1.65-.62,3,3,0,0,1-.82-.93,3.17,3.17,0,0,1-.38-1.37,3.22,3.22,0,0,1,.32-1.53,6.21,6.21,0,0,1,1-1.32,2.91,2.91,0,0,0,.46-.66,1.21,1.21,0,0,0,.12-.72A4.35,4.35,0,0,0,223.3,90a2.34,2.34,0,0,1-.27-1.4,2.22,2.22,0,0,1,.47-1.14,2.24,2.24,0,0,1,1.56-.8,2.09,2.09,0,0,1,.48,0l.16,0a4.33,4.33,0,0,0-.63,0,2.21,2.21,0,0,0-1.45.81,2.13,2.13,0,0,0-.14,2.34,4.43,4.43,0,0,1,.65,1.42,1.49,1.49,0,0,1-.13.85,3.9,3.9,0,0,1-.49.71,6,6,0,0,0-1,1.26,3,3,0,0,0-.3,1.44,2.83,2.83,0,0,0,1.08,2.17,3.2,3.2,0,0,0,1.56.66C225.26,98.41,225.49,98.37,225.49,98.39Z"/><path class="cls-3" d="M206.13,102.46s.24.05.68,0a2.78,2.78,0,0,0,1.66-.69,2.48,2.48,0,0,0,.69-2.46,2.58,2.58,0,0,0-.83-1.31,5.88,5.88,0,0,1-1.24-1.29,2.94,2.94,0,0,1-.28-1.78c.06-.57.19-1.11.28-1.62a4.53,4.53,0,0,0,.09-1.45,2.13,2.13,0,0,0-.46-1.14,2.47,2.47,0,0,0-1.54-.9,3.23,3.23,0,0,0-.68,0s.06,0,.18,0a1.63,1.63,0,0,1,.51,0,2.48,2.48,0,0,1,1.66.88,2.37,2.37,0,0,1,.51,1.22,4.86,4.86,0,0,1-.07,1.51c-.08.52-.21,1.05-.27,1.61a2.74,2.74,0,0,0,.26,1.64,6.12,6.12,0,0,0,1.2,1.24,2.78,2.78,0,0,1,.88,1.42,2.64,2.64,0,0,1-.79,2.62,2.67,2.67,0,0,1-2.27.61Z"/><path class="cls-9" d="M216.53,64.09a5.15,5.15,0,0,1,6.14,4.73c.05.81,0,1.73.52,2.31a6,6,0,0,0,1.52.76,2.33,2.33,0,0,1,1,2.79c-.19.5-.56.93-.75,1.43a3.91,3.91,0,0,0-.29,2.37c1.18,4-1.66,4.5-3.18,4.77-2.13.37-4.29-.3-4.52-2.54-.07-.72-1.35-.64-2.07-.55a4.25,4.25,0,0,0-2.14,1.43,7.34,7.34,0,0,1-3.5,2,4.16,4.16,0,0,1-3.77-1,3,3,0,0,1-.35-3.72,3.7,3.7,0,0,1-1.4-5.63,12.42,12.42,0,0,0,1.64-1.93c.32-.64.65-2.12.9-2.79a6.87,6.87,0,0,1,2.44-3"/><path class="cls-13" d="M220.32,86l-7.92.11c-.14-.91-.4-4.47-.4-4.47a4,4,0,0,1-3.67-3.47c-.35-3.26-.49-10.83-.49-10.83h0a11.45,11.45,0,0,1,11.56.36l.52.33Z"/><path class="cls-6" d="M211.73,76a2.47,2.47,0,0,0-.74-.08c-.12,0-.22,0-.23-.08a.7.7,0,0,1,.05-.35c.09-.31.18-.62.27-1a12.66,12.66,0,0,0,.55-2.48,12.19,12.19,0,0,0-.8,2.41c-.08.33-.16.65-.25,1a.74.74,0,0,0,0,.49.29.29,0,0,0,.22.17.7.7,0,0,0,.2,0A2.08,2.08,0,0,0,211.73,76Z"/><path class="cls-12" d="M212,81.58A7.66,7.66,0,0,0,216.14,80a4.05,4.05,0,0,1-4.08,2.46Z"/><path class="cls-6" d="M214.19,72.61a.4.4,0,0,1-.4.41.39.39,0,0,1-.42-.38.4.4,0,0,1,.4-.41A.39.39,0,0,1,214.19,72.61Z"/><path class="cls-6" d="M214.88,72.16c-.06,0-.37-.19-.81-.2s-.78.21-.83.16,0-.12.18-.22a1.1,1.1,0,0,1,.66-.19,1,1,0,0,1,.64.22C214.86,72,214.9,72.13,214.88,72.16Z"/><path class="cls-6" d="M209.63,72.6a.43.43,0,0,1-.41.41.4.4,0,0,1-.42-.39.42.42,0,0,1,.41-.41A.4.4,0,0,1,209.63,72.6Z"/><path class="cls-6" d="M210.22,72.23c-.05,0-.36-.19-.81-.2s-.78.21-.82.16,0-.13.17-.23a1.2,1.2,0,0,1,.66-.19,1.08,1.08,0,0,1,.64.23C210.2,72.1,210.24,72.2,210.22,72.23Z"/><path class="cls-12" d="M212.48,77.17a.88.88,0,0,1-.07-.33.31.31,0,0,1,.18-.27.93.93,0,0,0,.24,0c.09-.06.09-.2.14-.3a.38.38,0,0,1,.39-.16.73.73,0,0,1,.38.24.65.65,0,0,1,.24.45.53.53,0,0,1-.25.43,1.15,1.15,0,0,1-.48.17,2.6,2.6,0,0,1-.56,0,.4.4,0,0,1-.15,0,.14.14,0,0,1-.08-.13"/><path class="cls-12" d="M212.16,77.24a2.12,2.12,0,0,0,1.7-1.27"/><path class="cls-6" d="M213.86,76a1.31,1.31,0,0,1-.62,1,1.27,1.27,0,0,1-1.08.32,8.55,8.55,0,0,0,1-.49C213.59,76.4,213.8,76,213.86,76Z"/><path class="cls-12" d="M208.6,71a1.91,1.91,0,0,1,1.22-.14"/><path class="cls-6" d="M209.82,70.88c0,.12-.29.15-.59.19s-.57.06-.63,0,.18-.35.58-.39S209.86,70.77,209.82,70.88Z"/><path class="cls-12" d="M213.2,71.05a2.28,2.28,0,0,1,1.72.1"/><path class="cls-6" d="M214.92,71.15c0,.11-.42,0-.86,0s-.82,0-.86-.1.33-.37.88-.34S215,71,214.92,71.15Z"/><path class="cls-9" d="M215,64a2.62,2.62,0,0,0-1.88-.9,6.18,6.18,0,0,0-5.61,2.54,3.35,3.35,0,0,0-.41,3.56,2.21,2.21,0,0,0,4-.56,1.85,1.85,0,1,0,3.69-.16A3.37,3.37,0,0,0,216,70.19a1.31,1.31,0,0,0,1.82-.35c.37.44.89.89,1.45.75a1.12,1.12,0,0,0,.75-1.13,3,3,0,0,0-.48-1.37,8.43,8.43,0,0,0-4.77-4.18"/><path class="cls-9" d="M217.53,68.49a5.91,5.91,0,0,1,0,5.71,9.13,9.13,0,0,0-.9,1.65,1.55,1.55,0,0,0,.39,1.72c.31.24.78.35.85.73a1,1,0,0,1-.12.55,3.8,3.8,0,0,0-.1,2.38,2,2,0,0,0,1.41,1.7,2.45,2.45,0,0,0,2.26.4c2.31-.59,1.49-5.76,1.28-8.14s-1.33-6.61-2.66-8.59"/><path class="cls-13" d="M212.25,84.7s-2.4,9-.87,8.06S220.32,86,220.32,86l-3.75-2.83Z"/><path class="cls-13" d="M189.68,100.11c-.26-.87-3.58-2.68-3.08-3.17.66-.63,3.38,2,3.63,2.25s.54-.14.31-.32-3.78-3-3.14-3.64c.35-.35.9.36.9.36s3,2.82,3.34,2.51-1.44-2-2.06-2.56-.63-1.05-.17-1.13c.31-.06,2.26,1.54,2.86,2.08s2.24,2.08,2,.66a.2.2,0,0,1,0-.07,3.86,3.86,0,0,1,.33-2.83.49.49,0,0,1,.79.39.5.5,0,0,1,0,.21s0,.07,0,.1a8.12,8.12,0,0,0,.09,1.45,4,4,0,0,0,.4,1.23c.24.45.46.82.65,1.13,2.22,1.23,8.59,4.48,15,5,1.16.09,6.26-8,6.26-8l7.58,3.58a73.57,73.57,0,0,1-6,9.54c-6.4,8.69-26.41-5.8-26.41-5.8h0l-.19-.09a45.59,45.59,0,0,1-4.42-2.5c-1.72-1.21-1.62-1.37-1.45-1.55C187.3,98.48,190,101,189.68,100.11Z"/><path class="cls-9" d="M74.51,192.85l0-3.46-6.48,0v5.07l.4,0c1.79.09,9.11.33,10.31,0S74.51,192.85,74.51,192.85Z"/><path class="cls-6" d="M67.9,194.34H68l.32,0,1.18,0c1,0,2.37.06,3.89.05s2.9,0,3.89-.08l1.18,0,.32,0h.11s0,0-.11,0h-.32l-1.18,0c-1,0-2.37,0-3.89.06s-2.89,0-3.89,0l-1.18,0H67.9Z"/><path class="cls-6" d="M76.64,194.48a2.56,2.56,0,0,1,.21-.57,4.34,4.34,0,0,1,.4-.45.85.85,0,0,0-.46.41A.87.87,0,0,0,76.64,194.48Z"/><path class="cls-6" d="M74.72,193.51s.11-.1.2-.24.16-.28.14-.3-.11.1-.2.25S74.7,193.5,74.72,193.51Z"/><path class="cls-6" d="M74.19,193.24s.12-.05.23-.15.19-.2.18-.22-.12.06-.23.16S74.18,193.22,74.19,193.24Z"/><path class="cls-6" d="M73.86,192.63a.78.78,0,0,0,.34,0c.18,0,.34,0,.34,0a.82.82,0,0,0-.34,0A.78.78,0,0,0,73.86,192.63Z"/><path class="cls-6" d="M73.74,192.2a.69.69,0,0,0,.38.11.7.7,0,0,0,.39-.06,2,2,0,0,0-.38,0A1.77,1.77,0,0,0,73.74,192.2Z"/><path class="cls-6" d="M74.94,193a1,1,0,0,0,.41,0,1.76,1.76,0,0,0,.45-.1,1.63,1.63,0,0,0,.25-.1.22.22,0,0,0,.1-.13.16.16,0,0,0-.06-.17.78.78,0,0,0-1,.23A.83.83,0,0,0,75,193a.23.23,0,0,0,0,.11,1.25,1.25,0,0,1,.19-.36.82.82,0,0,1,.35-.23.67.67,0,0,1,.5,0c.07.05,0,.13,0,.17a1,1,0,0,1-.24.11,2.72,2.72,0,0,1-.43.11Z"/><path class="cls-6" d="M75,193a.38.38,0,0,0,0-.29.73.73,0,0,0-.11-.31.45.45,0,0,0-.35-.21.18.18,0,0,0-.13.2.48.48,0,0,0,.07.18,1.09,1.09,0,0,0,.2.25A.58.58,0,0,0,75,193s-.08-.07-.2-.2a1.21,1.21,0,0,1-.17-.25c-.06-.09-.1-.25,0-.27s.21.09.28.18a.8.8,0,0,1,.12.27A1,1,0,0,1,75,193Z"/><path class="cls-6" d="M68,192.56s.19,0,.48,0a2.14,2.14,0,0,1,1,.42,2.18,2.18,0,0,1,.66.92,3.48,3.48,0,0,1,.12.47s0,0,0-.13a1.43,1.43,0,0,0-.07-.35,2,2,0,0,0-.66-1,2,2,0,0,0-1.09-.42,1.93,1.93,0,0,0-.36,0Z"/><path class="cls-6" d="M68.68,189.86a13.13,13.13,0,0,0-.05,1.33c0,.74,0,1.34,0,1.34a10.46,10.46,0,0,0,0-1.34A8.7,8.7,0,0,0,68.68,189.86Z"/><path class="cls-6" d="M71.16,193.79a3.5,3.5,0,0,0,.94.09,3.91,3.91,0,0,0,1-.08,8.28,8.28,0,0,0-1,0C71.58,193.8,71.16,193.77,71.16,193.79Z"/><path class="cls-6" d="M69.89,193.79s0,.09.07.19.07.18.09.18,0-.1,0-.21S69.9,193.78,69.89,193.79Z"/><path class="cls-6" d="M69.4,193.2s0,.08.1.15.13.11.15.09,0-.08-.1-.15S69.42,193.18,69.4,193.2Z"/><path class="cls-6" d="M68.72,192.93s.09,0,.18,0,.17.09.18.07,0-.1-.15-.14S68.71,192.91,68.72,192.93Z"/><path class="cls-6" d="M68.23,192.8s0,.06.08.08.11,0,.11,0,0-.06-.08-.08S68.24,192.78,68.23,192.8Z"/><path class="cls-9" d="M36.75,187.86l1.83-2.94-5.48-3.47-2.72,4.27.32.24c1.46,1,7.5,5.19,8.7,5.52C40.75,191.85,36.75,187.86,36.75,187.86Z"/><path class="cls-6" d="M30.38,185.55l.09.07.26.18,1,.68c.82.56,2,1.32,3.25,2.14s2.46,1.52,3.32,2l1,.59.28.15.1.05-.09-.06-.27-.17-1-.61c-.85-.52-2-1.23-3.31-2s-2.43-1.57-3.26-2.12l-1-.65-.27-.18C30.41,185.56,30.38,185.54,30.38,185.55Z"/><path class="cls-6" d="M37.67,190.37a2.62,2.62,0,0,1,.48-.36,2.23,2.23,0,0,1,.58-.16.83.83,0,0,0-.61.09A.86.86,0,0,0,37.67,190.37Z"/><path class="cls-6" d="M36.57,188.53s.14,0,.3-.1.29-.15.28-.17-.15,0-.31.1S36.56,188.51,36.57,188.53Z"/><path class="cls-6" d="M36.27,188a.57.57,0,0,0,.28,0c.15,0,.26-.07.26-.09s-.13,0-.28,0A.53.53,0,0,0,36.27,188Z"/><path class="cls-6" d="M36.32,187.32s.11.11.26.22a1,1,0,0,0,.31.15s-.11-.12-.26-.22S36.33,187.3,36.32,187.32Z"/><path class="cls-6" d="M36.46,186.89s.08.17.26.3a.63.63,0,0,0,.35.16s-.14-.1-.31-.23S36.47,186.88,36.46,186.89Z"/><path class="cls-6" d="M37.06,188.17a1,1,0,0,0,.35.22,2.66,2.66,0,0,0,.43.15,1,1,0,0,0,.27.05.21.21,0,0,0,.15-.05.17.17,0,0,0,0-.18.75.75,0,0,0-.92-.31.68.68,0,0,0-.26.16s-.07.08-.07.09a1,1,0,0,1,.35-.2.74.74,0,0,1,.42,0,.7.7,0,0,1,.41.3c0,.07,0,.13-.12.12a1.17,1.17,0,0,1-.26,0,3,3,0,0,1-.42-.13Z"/><path class="cls-6" d="M37.14,188.24s.11-.05.19-.22a.71.71,0,0,0,.07-.31.43.43,0,0,0-.18-.37.16.16,0,0,0-.21.1.43.43,0,0,0,0,.19,1.51,1.51,0,0,0,0,.32.57.57,0,0,0,.11.27s0-.11-.06-.28a1.53,1.53,0,0,1,0-.31c0-.1.05-.26.15-.22a.41.41,0,0,1,.14.3.84.84,0,0,1,0,.29A1.37,1.37,0,0,1,37.14,188.24Z"/><path class="cls-6" d="M31.44,184.12a4.08,4.08,0,0,1,.4.27,2.18,2.18,0,0,1,.65.92,2.13,2.13,0,0,1,.06,1.13c-.07.29-.16.45-.15.46s0,0,.07-.11a1.74,1.74,0,0,0,.13-.34,2,2,0,0,0-.73-2.1,2,2,0,0,0-.31-.19Z"/><path class="cls-6" d="M33.45,182.2a11.43,11.43,0,0,0-.76,1.09,11.28,11.28,0,0,0-.69,1.14,11.43,11.43,0,0,0,.76-1.09A11.28,11.28,0,0,0,33.45,182.2Z"/><path class="cls-6" d="M33.42,186.84a4,4,0,0,0,.75.58,3.59,3.59,0,0,0,.84.45s-.36-.23-.8-.51S33.43,186.82,33.42,186.84Z"/><path class="cls-6" d="M32.35,186.16s0,.09,0,.2,0,.19,0,.2.08-.07.1-.19S32.37,186.15,32.35,186.16Z"/><path class="cls-6" d="M32.26,185.4s0,.08,0,.17.05.17.07.16,0-.08,0-.17S32.28,185.39,32.26,185.4Z"/><path class="cls-6" d="M31.83,184.8s.06.07.13.15.09.15.11.15,0-.11,0-.2S31.83,184.78,31.83,184.8Z"/><path class="cls-6" d="M31.48,184.43s0,.06,0,.11.07.07.09.06,0-.06,0-.11S31.5,184.42,31.48,184.43Z"/><path class="cls-10" d="M61.87,120.71s5.5,36.56,4.7,38.32-26.49,30-26.49,30l-9.46-6.27s22.43-28.25,22.26-28.93l-8.5-36.08Z"/><path class="cls-10" d="M41.26,117.27l-.33,1.36a16,16,0,0,0,1.67,11.78l14.92,25.86a20.66,20.66,0,0,1,2.29,5.88L66.55,192H76.94c0,.62-2.69-24.61-4-33-1-6.32-9.47-25.93-13.57-35.2l2.54-3.12L57.46,120Z"/><path class="cls-6" d="M59.65,123.76a1.61,1.61,0,0,1,.23.41c.14.27.33.67.55,1.16.45,1,1,2.36,1.63,3.9s1.09,3,1.43,4c.17.52.3.94.38,1.23a2.61,2.61,0,0,1,.11.46,1.85,1.85,0,0,1-.19-.44l-.45-1.19c-.37-1-.89-2.42-1.48-3.95s-1.16-2.92-1.57-3.92l-.48-1.18A2.65,2.65,0,0,1,59.65,123.76Z"/><path class="cls-6" d="M60.88,167.12a1.48,1.48,0,0,1-.07-.29l-.15-.84-.1-.6-.16-.72c-.12-.51-.23-1.1-.42-1.73-.09-.32-.18-.66-.27-1l-.34-1.07c-.22-.74-.53-1.52-.83-2.34-.64-1.63-1.42-3.39-2.33-5.19A99.43,99.43,0,0,0,51,144.42l-1.73-2.62-.47-.71c-.11-.17-.16-.25-.15-.26l.18.23.51.69c.43.6,1,1.48,1.79,2.58a87.64,87.64,0,0,1,5.31,8.9c.91,1.81,1.69,3.58,2.32,5.22.29.83.6,1.6.81,2.36.11.37.23.73.33,1.08l.26,1c.18.64.29,1.23.39,1.75l.14.72.09.61c0,.35.08.63.11.85A1.27,1.27,0,0,1,60.88,167.12Z"/><path class="cls-6" d="M41.47,187.54a2.5,2.5,0,0,1-.43-.14,10.6,10.6,0,0,1-1.13-.52,26.51,26.51,0,0,1-3.43-2.23c-1.28-1-2.43-1.82-3.3-2.4s-1.43-.89-1.42-.93a2.27,2.27,0,0,1,.42.19c.27.13.64.34,1.08.61.9.55,2.07,1.4,3.35,2.35A34.45,34.45,0,0,0,40,186.74C40.89,187.26,41.49,187.5,41.47,187.54Z"/><path class="cls-6" d="M76.91,190.47a1.62,1.62,0,0,1-.43,0H75.31l-3.88,0-3.87,0H66.39l-.44,0a1.34,1.34,0,0,1,.43-.06l1.18-.08c1,0,2.36-.09,3.87-.08s2.89,0,3.88.09l1.17.08Z"/><path class="cls-6" d="M48.1,80a4.69,4.69,0,0,1-2.67-.4A2.51,2.51,0,0,1,44,77.36a7.8,7.8,0,0,0,.16-1.59,5,5,0,0,0-.73-1.42,3,3,0,0,1,.79-3.62A10.79,10.79,0,0,0,46,69.57a8.13,8.13,0,0,0,1-2.25,3.65,3.65,0,0,1,2.71-2.08A11.42,11.42,0,0,0,51.59,65,6.61,6.61,0,0,0,53,64.15a6.66,6.66,0,0,1,5-.93,4.06,4.06,0,0,1,2,1,5.32,5.32,0,0,1,1.6,2.07,6.68,6.68,0,0,1-.32,3.15,2.59,2.59,0,0,1-2,2"/><path class="cls-17" d="M47.89,87.41l7.92.12c.14-.92.41-4.47.41-4.47a4,4,0,0,0,3.67-3.47c.34-3.27.48-10.84.48-10.84h0a11.45,11.45,0,0,0-11.56.36l-.52.33Z"/><path class="cls-6" d="M56.48,77.46a2,2,0,0,1,.74-.09c.12,0,.22,0,.23-.08a.6.6,0,0,0-.05-.35c-.09-.31-.18-.62-.27-1a13.6,13.6,0,0,1-.55-2.48,12.75,12.75,0,0,1,.8,2.42c.08.33.17.64.25.95a.76.76,0,0,1,0,.5.34.34,0,0,1-.22.17.74.74,0,0,1-.21,0A2.25,2.25,0,0,1,56.48,77.46Z"/><path class="cls-18" d="M56.23,83a7.63,7.63,0,0,1-4.15-1.62,4,4,0,0,0,4.07,2.47Z"/><path class="cls-17" d="M48.33,72.88c-.06,0-2.24-.38-2.11,2.21s2.69,1.6,2.69,1.53S48.33,72.88,48.33,72.88Z"/><path class="cls-18" d="M48.08,75.75s0,0-.12.07a.42.42,0,0,1-.34,0,1.09,1.09,0,0,1-.56-1,1.51,1.51,0,0,1,.09-.65.54.54,0,0,1,.33-.37.24.24,0,0,1,.27.12c0,.07,0,.12,0,.12s.05,0,0-.15a.26.26,0,0,0-.11-.16.34.34,0,0,0-.25,0,.61.61,0,0,0-.45.42,1.58,1.58,0,0,0-.12.73A1.17,1.17,0,0,0,47.59,76a.55.55,0,0,0,.41-.09C48.08,75.81,48.09,75.75,48.08,75.75Z"/><path class="cls-6" d="M53.54,72.82s0-.17.2-.3a1.39,1.39,0,0,1,.76-.27,1.5,1.5,0,0,1,.79.16c.19.11.27.22.24.27s-.49,0-1,0S53.62,72.91,53.54,72.82Z"/><path class="cls-6" d="M58.13,72.85c0-.12.33-.29.79-.29s.82.17.8.29-.38.15-.8.15S58.15,73,58.13,72.85Z"/><path class="cls-6" d="M47.52,70.23l.36,2.39a2,2,0,0,0,.38,1,1.41,1.41,0,0,0,1.73.11,4.18,4.18,0,0,0,1.56-2.19,6.6,6.6,0,0,1,1.27-2.4,3.16,3.16,0,0,0,3.63.67c.53-.27,1-.68,1.47-1a1.94,1.94,0,0,1,1.69-.27c.29.12.56.37.89.35a.73.73,0,0,0,.58-.4,1.23,1.23,0,0,0,.1-.71,2.8,2.8,0,0,0-1.68-2,8.65,8.65,0,0,0-3.85-.66,14.43,14.43,0,0,0-3.71.37,6.37,6.37,0,0,0-3.2,1.83,4.17,4.17,0,0,0-1.06,3.46"/><path class="cls-6" d="M57.83,67.62a3.92,3.92,0,0,0,1.24,2.16,1.69,1.69,0,0,0,1.1.49,1.35,1.35,0,0,0,1.19-1.35,2.55,2.55,0,0,0-.81-1.77,2.47,2.47,0,0,0-1.64-.87,1.26,1.26,0,0,0-1.32,1.1"/><path class="cls-6" d="M54,74a.41.41,0,0,0,.41.41.4.4,0,0,0,.42-.38.42.42,0,0,0-.41-.41A.39.39,0,0,0,54,74Z"/><path class="cls-6" d="M53.34,73.59s.36-.19.8-.19.78.21.83.15,0-.12-.18-.22a1.1,1.1,0,0,0-.66-.19,1.08,1.08,0,0,0-.64.22C53.36,73.47,53.31,73.57,53.34,73.59Z"/><path class="cls-6" d="M58.59,74a.41.41,0,0,0,.4.41.4.4,0,0,0,.42-.38.42.42,0,0,0-.4-.42A.4.4,0,0,0,58.59,74Z"/><path class="cls-6" d="M58,73.66c.06,0,.37-.19.81-.2s.78.21.83.16,0-.12-.18-.22a1.1,1.1,0,0,0-.66-.19,1,1,0,0,0-.64.22C58,73.54,58,73.63,58,73.66Z"/><path class="cls-6" d="M56.37,78.78s-.11.08-.31.07a1.07,1.07,0,0,1-.69-.33,1.06,1.06,0,0,1-.3-.71c0-.2,0-.31.08-.31s0,.49.38.87S56.38,78.72,56.37,78.78Z"/><path class="cls-18" d="M57.87,95.68l6.58-2.2s4.59,10.84,5.77,11c6.53.6,13.53-1.57,16-2.43.25-.28.53-.61.85-1a3.92,3.92,0,0,0,.62-1.18A6.25,6.25,0,0,0,88,98.19a.51.51,0,0,1,.88-.41,4.27,4.27,0,0,1-.29,3.28c-.65,1.51,1.64.31,2.48-.12s3.5-1.6,3.83-1.45c.49.23.34.8-.51,1.2s-3.31,1.79-3.07,2.22,4.49-1.78,4.49-1.78.83-.62,1.13-.13c.54.89-4.15,2.9-4.6,3.08s-.06.61.27.46,4.18-2.3,4.74-1.41c.43.69-3.84,1.69-4.39,2.58s3.16-1.09,3.54-.42c.14.26.21.46-2.08,1.29a50.14,50.14,0,0,1-5.12,1.31v0s-23.62,10.57-27.87.37C57.13,97.89,57.87,95.68,57.87,95.68Z"/><path class="cls-2" d="M66.65,97.05c-2.63-6.17-6.09-8.59-7.91-9.48a5.36,5.36,0,0,0-2-.53h0L56.48,86l-8.73-.78-.22,1.35-1.28-.07s-7.53.75-7.54,9.47c0,4.08,2.19,8,3,10,.48,4.07-1.26,11.44-1.21,13.24l21.4,1.52.91-13.38-.2-1.25,7-2.16ZM47.75,86.56Z"/><path class="cls-6" d="M114.05,67.54A24.86,24.86,0,0,0,70,80.51h0a24.84,24.84,0,0,0,8.39,21.38L56.6,127.43l3.12,2.66,22-25.76a24.77,24.77,0,0,0,10.38,3.55c.9.09,1.8.14,2.69.14a24.87,24.87,0,0,0,19.31-40.48Zm1.29,17.82a20.76,20.76,0,1,1-4.49-15.25A20.62,20.62,0,0,1,115.34,85.36Z"/><path class="cls-9" d="M112.3,65.78a24.87,24.87,0,0,0-44.08,13h0a24.83,24.83,0,0,0,8.39,21.37l-22,25.76,3.34,2.67,22-26a24.72,24.72,0,0,0,10.38,3.55c.9.09,1.8.14,2.69.14A24.88,24.88,0,0,0,112.3,65.78Zm1.29,17.83a20.77,20.77,0,1,1-4.49-15.25A20.62,20.62,0,0,1,113.59,83.61Z"/><path class="cls-6" d="M81.66,94.87s-.06-.06-.17-.18-.25-.31-.43-.56A17.91,17.91,0,0,1,79.68,92a20.48,20.48,0,0,1-1.41-16.56,18.41,18.41,0,0,1,1-2.39c.13-.28.25-.48.33-.62a1.12,1.12,0,0,1,.13-.21,1.45,1.45,0,0,1-.09.23c-.07.15-.18.36-.3.64a21.94,21.94,0,0,0-.92,2.39,21.1,21.1,0,0,0,1.39,16.45,23.68,23.68,0,0,0,1.32,2.2c.17.26.31.45.4.58Z"/><path class="cls-6" d="M82.7,69.34s-.22.28-.47.62-.42.63-.48.61,0-.39.3-.75S82.66,69.29,82.7,69.34Z"/><path class="cls-6" d="M60.82,92.39A3.36,3.36,0,0,1,61,93c.09.38.2.93.33,1.61.25,1.36.56,3.25.82,5.35s.42,4,.5,5.38c0,.69.07,1.25.08,1.64a2.52,2.52,0,0,1,0,.6,4.3,4.3,0,0,1-.08-.6l-.14-1.63c-.13-1.37-.31-3.27-.57-5.37s-.54-4-.76-5.34L60.89,93A2.65,2.65,0,0,1,60.82,92.39Z"/><path class="cls-17" d="M72.46,113.12s-23.61,10.59-27.86.39c-4.33-10.39-3.59-12.6-3.59-12.6l6.58-2.2s4.59,10.84,5.77,11c6.54.6,13.53-1.57,16-2.43.25-.28.54-.61.85-1s.56-.86.83-1.21a9.33,9.33,0,0,1,1.39-1.22c.66-.74,1.25-.2,1,.2a6.89,6.89,0,0,0-1.63,2.31c-.65,1.5,1.65.76,2.56.52s2.9-1,2.9-1a2.22,2.22,0,0,1-1.31,1.73,12.73,12.73,0,0,1-1.42.59s1.75-.21,1.8.19-.52,3.34-2.38,4.21Z"/><path class="cls-2" d="M46.06,89.26l4.24,12.81L41,105.74s-4.85-12.58,1.29-15.66Z"/><path class="cls-6" d="M50.92,101.57s-.05,0-.13-.12a2.76,2.76,0,0,1-.28-.41,15.55,15.55,0,0,1-.67-1.69c-.52-1.43-1.22-3.42-2-5.62l-1.07-3.11a7.72,7.72,0,0,0-1.08-2.41,2,2,0,0,0-1.51-.75,1.68,1.68,0,0,0-.63.15s0,0,.14-.1a1.14,1.14,0,0,1,.48-.14,2,2,0,0,1,1.64.74A7.48,7.48,0,0,1,47,90.55l1.08,3.11c.77,2.2,1.45,4.19,1.93,5.64.25.73.42,1.32.6,1.7A5.36,5.36,0,0,0,50.92,101.57Z"/><path class="cls-6" d="M50.72,101.81a1.68,1.68,0,0,1-.35.22c-.23.13-.57.31-1,.52-.85.42-2,1-3.39,1.52s-2.59,1-3.5,1.26l-1.08.32c-.26.07-.4.1-.41.08a15.27,15.27,0,0,1,1.44-.55c.89-.32,2.12-.78,3.46-1.32s2.55-1.06,3.41-1.45A11.92,11.92,0,0,1,50.72,101.81Z"/><path class="cls-6" d="M42.54,105.27a2.52,2.52,0,0,1-.48-.91,2.37,2.37,0,0,1-.27-1,2.52,2.52,0,0,1,.48.91A2.56,2.56,0,0,1,42.54,105.27Z"/><path class="cls-6" d="M44.5,104.51s-.31-.34-.49-.86a1.76,1.76,0,0,1-.17-1,11.66,11.66,0,0,1,.66,1.84Z"/><path class="cls-6" d="M46.56,103.62c-.05,0-.33-.34-.53-.88a1.86,1.86,0,0,1-.18-1,4.19,4.19,0,0,1,.39.94A4,4,0,0,1,46.56,103.62Z"/><path class="cls-6" d="M48.76,102.73a2.62,2.62,0,0,1-.43-1,2.71,2.71,0,0,1-.21-1.05,2.61,2.61,0,0,1,.42,1A2.84,2.84,0,0,1,48.76,102.73Z"/><path class="cls-6" d="M69.79,103.78A31.35,31.35,0,0,1,66.22,105a35.52,35.52,0,0,1-3.64,1,32.48,32.48,0,0,1,3.57-1.26A32.45,32.45,0,0,1,69.79,103.78Z"/><path class="cls-6" d="M64.14,105.27c-.06,0-.25-.29-.42-.69s-.27-.76-.21-.78.24.28.41.69S64.19,105.24,64.14,105.27Z"/><path class="cls-6" d="M66,104.86a1.83,1.83,0,0,1-.39-.84,1.71,1.71,0,0,1-.09-.92,2.46,2.46,0,0,1,.3.86C65.91,104.44,66,104.83,66,104.86Z"/><path class="cls-6" d="M67.9,104.23a2,2,0,0,1-.29-.88,2,2,0,0,1-.07-.92,2,2,0,0,1,.29.88A2,2,0,0,1,67.9,104.23Z"/><path class="cls-6" d="M48.61,86.43c-.06,0-.09-.24-.07-.52s.08-.51.14-.51.1.24.08.52S48.67,86.43,48.61,86.43Z"/><path class="cls-6" d="M50.53,86.54c-.06,0-.12-.22-.13-.51s0-.52.09-.52.12.23.13.51S50.59,86.54,50.53,86.54Z"/><path class="cls-6" d="M52,86.8c-.06,0-.11-.24-.11-.54s.06-.53.12-.53.11.24.1.54S52.08,86.8,52,86.8Z"/><path class="cls-6" d="M54,87c-.06,0-.18-.26-.19-.62s.09-.64.15-.63.06.29.07.62S54.09,87,54,87Z"/><path class="cls-6" d="M55.68,87c-.06,0-.14-.27-.18-.61s0-.63,0-.64.15.27.19.61S55.74,87,55.68,87Z"/></svg>