<svg   viewBox="0 0 186 49" fill="none" xmlns="http://www.w3.org/2000/svg">
<g clip-path="url(#clip0_734_3035)">
<path d="M183.03 38.3C183.03 38.3 130.7 17.41 92.8701 47.29C92.8701 47.29 137.27 31.52 185.74 48.98L183.03 38.3Z" fill="#2C3761"/>
<path d="M179.18 32.17L172.38 19.99C120.06 9.91 94.0801 44.23 94.0801 44.23C137.73 15.85 179.18 32.17 179.18 32.17Z" fill="#5392FB"/>
<path d="M166.09 15.62L156.98 5.28C106.15 5.28 94.0703 41.41 94.0703 41.41C115.07 9.69 166.09 15.62 166.09 15.62Z" fill="#F2585C"/>
<path d="M2.72 38.3L0 48.97C48.48 31.51 92.87 47.28 92.87 47.28C55.05 17.41 2.72 38.3 2.72 38.3Z" fill="#2C3761"/>
<path d="M91.6696 44.23C91.6696 44.23 65.6896 9.89999 13.3596 19.99L6.55957 32.17C6.56957 32.17 48.0196 15.85 91.6696 44.23Z" fill="#5392FB"/>
<path d="M91.6704 41.41C91.6704 41.41 79.6004 5.28 28.7604 5.28L19.6504 15.62C19.6604 15.62 70.6804 9.69 91.6704 41.41Z" fill="#F2585C"/>
<path d="M92.8699 18.72C88.8598 18.72 85.6898 20.4 84.0898 22.72L87.2798 25.83C88.1798 24.29 90.2599 23.16 92.8699 23.16C95.4798 23.16 97.5598 24.29 98.4598 25.83L101.65 22.72C100.05 20.41 96.8799 18.72 92.8699 18.72Z" fill="#ED3237"/>
<path d="M92.8702 0C82.9102 0 75.8902 5.39 73.2002 12.11L82.5402 21.22C84.4002 18.44 88.1302 16.42 92.8702 16.42C97.6102 16.42 101.33 18.44 103.2 21.22L112.54 12.11C109.85 5.39 102.84 0 92.8702 0Z" fill="#ED3237"/>
<path d="M92.8703 24.46C90.6403 24.46 88.9103 25.49 88.3203 26.85L89.9203 28.41H90.4503H95.2903H95.8203L97.4203 26.85C96.8403 25.49 95.1003 24.46 92.8703 24.46Z" fill="#ED3237"/>
</g>

</svg>
