<svg  id="Capa_1" data-name="Capa 1" xmlns="http://www.w3.org/2000/svg" viewBox="0 0 292.58 206.27"><defs><style>.cls-1{fill:#edeced;}.cls-1,.cls-12,.cls-14,.cls-3,.cls-6{fill-rule:evenodd;}.cls-2{fill:#e7e6e6;}.cls-3{fill:#24344c;}.cls-12,.cls-4{fill:#eb5f63;}.cls-5,.cls-6{fill:#346198;}.cls-7{fill:#3b3835;}.cls-8{fill:#eb5e2f;}.cls-9{fill:#8c4493;}.cls-10{fill:#a1682a;}.cls-11{fill:#fff;}.cls-13,.cls-14{fill:#6b982f;}.cls-15{fill:#dad9da;}</style></defs><path class="cls-1" d="M67,183.83H92.73v-162a12.87,12.87,0,1,0-25.73,0Z"/><rect class="cls-2" x="92.73" y="21.88" width="124.21" height="161.95"/><path class="cls-3" d="M79.87,196.69h96.75V183.83H92.73a12.87,12.87,0,1,0-12.86,12.86Z"/><rect class="cls-4" x="104.09" y="33.54" width="66.75" height="19.39"/><rect class="cls-5" x="177.37" y="33.54" width="29.83" height="3.73"/><path class="cls-6" d="M177.37,39.58H207.2v3.73H177.37Z"/><path class="cls-6" d="M177.37,45.62H207.2v3.73H177.37Z"/><path class="cls-6" d="M177.37,51.66H207.2v3.73H177.37Z"/><path class="cls-6" d="M177.37,57.7H207.2v3.73H177.37Z"/><rect class="cls-5" x="177.37" y="63.75" width="29.83" height="3.73"/><rect class="cls-7" x="104.09" y="71.39" width="66.75" height="8.39"/><rect class="cls-8" x="104.09" y="56.47" width="36.92" height="4.2"/><rect class="cls-8" x="104.09" y="63.19" width="36.92" height="4.2"/><rect class="cls-9" x="104.09" y="85" width="103.11" height="34.68"/><rect class="cls-10" x="104.09" y="129.29" width="66.75" height="8.39"/><rect class="cls-11" x="104.09" y="122.2" width="36.92" height="4.19"/><rect class="cls-4" x="104.09" y="140.31" width="46.24" height="3.73"/><ellipse class="cls-4" cx="127.21" cy="148.21" rx="32.7" ry="2.64"/><path class="cls-12" d="M104.09,152.39h46.24v3.73H104.09Z"/><path class="cls-12" d="M104.09,158.43h46.24v3.73H104.09Z"/><path class="cls-12" d="M104.09,164.47h46.24v3.73H104.09Z"/><rect class="cls-4" x="104.09" y="170.51" width="46.24" height="3.73"/><rect class="cls-13" x="160.96" y="140.31" width="46.24" height="3.73"/><path class="cls-14" d="M161,146.35H207.2v3.73H161Z"/><path class="cls-14" d="M161,152.39H207.2v3.73H161Z"/><path class="cls-14" d="M161,158.43H207.2v3.73H161Z"/><path class="cls-14" d="M161,164.47H207.2v3.73H161Z"/><rect class="cls-13" x="160.96" y="170.51" width="46.24" height="3.73"/><rect class="cls-15" x="92.73" y="21.88" width="6.88" height="161.95"/></svg>