<svg  id="Capa_1" data-name="Capa 1" xmlns="http://www.w3.org/2000/svg" viewBox="0 0 292.58 206.27"><defs><style>.cls-1{fill:#a3d2af;}.cls-2{fill:#e0e0e0;}.cls-3{fill:#ebebeb;}.cls-4{fill:#263239;}.cls-5{opacity:0.3;}.cls-6{fill:#fff;}.cls-7{fill:#455a64;}.cls-8{fill:#ee7160;}.cls-9{fill:#e49284;}.cls-10{fill:#a86c62;}.cls-11{fill:#3aaa35;}.cls-12{fill:#f9be9d;}.cls-13{fill:#f3986e;}.cls-14{fill:#616160;}.cls-15{font-size:21.3px;fill:#1d1d1b;font-family:Arial-BoldMT, Arial;font-weight:700;}</style></defs><path class="cls-1" d="M86.72,7a9.16,9.16,0,0,1,2.14-.92L89.3,4l3.58-.06L93.4,6a8.51,8.51,0,0,1,2.17.85l1.8-1.19L100,8.19,98.83,10a8.47,8.47,0,0,1,.93,2.14l2.11.44.07,3.57-2.1.52A8.77,8.77,0,0,1,99,18.88l1.19,1.81-2.49,2.57-1.85-1.12a8.47,8.47,0,0,1-2.14.93l-.44,2.12-3.57.06-.52-2.1A9.14,9.14,0,0,1,87,22.3l-1.81,1.18L82.61,21l1.12-1.85A8.79,8.79,0,0,1,82.8,17l-2.12-.44L80.62,13l2.1-.51a8.77,8.77,0,0,1,.86-2.17L82.39,8.5l2.49-2.58L86.72,7Zm1.91,4.77a3.84,3.84,0,1,0,5.43-.1A3.84,3.84,0,0,0,88.63,11.81Z"/><path class="cls-1" d="M46.28,145.29a8.79,8.79,0,0,1,2.14-.93l.44-2.11,3.58-.07.51,2.1a8.77,8.77,0,0,1,2.17.86L56.93,144l2.57,2.49-1.12,1.84a8.79,8.79,0,0,1,.93,2.14l2.12.44.06,3.58-2.1.52a8.74,8.74,0,0,1-.85,2.17l1.18,1.8-2.48,2.58-1.85-1.12a8.79,8.79,0,0,1-2.14.93l-.44,2.11-3.58.07-.51-2.1a8.77,8.77,0,0,1-2.17-.86l-1.81,1.19-2.57-2.49,1.12-1.85a8.56,8.56,0,0,1-.93-2.13l-2.12-.45-.06-3.57,2.1-.52a8.74,8.74,0,0,1,.85-2.17L42,146.75l2.48-2.58,1.85,1.12Zm1.91,4.77a3.84,3.84,0,1,0,5.42-.1A3.84,3.84,0,0,0,48.19,150.06Z"/><path class="cls-1" d="M55.39,8.45a12.9,12.9,0,0,1,3.1-1.35L59.13,4l5.19-.09L65.06,7a12.67,12.67,0,0,1,3.15,1.24l2.63-1.72,3.73,3.6-1.63,2.68a12.38,12.38,0,0,1,1.35,3.11l3.07.64.09,5.19-3,.74a12.67,12.67,0,0,1-1.24,3.15l1.72,2.63L71.28,32,68.6,30.35a12.16,12.16,0,0,1-3.1,1.35l-.64,3.07-5.19.09-.75-3a13,13,0,0,1-3.15-1.24L53.15,32.3l-3.73-3.61L51,26a12.9,12.9,0,0,1-1.35-3.1l-3.07-.64-.09-5.19,3-.75a12.83,12.83,0,0,1,1.24-3.15L49.1,10.56l3.6-3.73,2.69,1.62Zm2.76,6.92A5.57,5.57,0,1,0,66,15.23,5.57,5.57,0,0,0,58.15,15.37Z"/><path class="cls-2" d="M232.86,123.55a22.37,22.37,0,0,0-8.85,9.13,66.21,66.21,0,0,0-4.8,11.94l-1.17,21c4.44-7.55,8-16.43,9-25.13l-2.95-.27a7.06,7.06,0,0,0,4.7-3.43,21,21,0,0,0,2.13-5.6l-3.6.54A13.39,13.39,0,0,0,232.86,123.55Z"/><path class="cls-3" d="M217.38,170.6s-9.64-11.54-9.52-22.55h3.89s-4.23-2.78-3.9-4.33a73.83,73.83,0,0,0,.45-7.45l3.56.89s-2.67-1.34-3-3.45.77-11.9.77-11.9,4.34,4.56,5.68,9.23,4.83,10.12,3.8,24.35S217.38,170.6,217.38,170.6Z"/><path class="cls-3" d="M222.26,171.68s10.44-7,12.76-15.83l-3.13-.85s4-1.31,4.08-2.63a62,62,0,0,1,1.27-6.09l-3.05-.06s2.44-.49,3.17-2.12,2-9.73,2-9.73-4.48,2.71-6.58,6.18-6.1,7.07-8.39,18.74S222.26,171.68,222.26,171.68Z"/><path class="cls-2" d="M212.27,131.86l0,.12.09.36c.07.33.18.78.31,1.37s.29,1.32.46,2.17.38,1.81.57,2.88c.42,2.14.85,4.69,1.3,7.54s.87,6,1.26,9.28.67,6.46.89,9.33.37,5.46.46,7.64c.05,1.08.07,2.07.1,2.93s0,1.61,0,2.22,0,1.07,0,1.4v.37c0,.08,0,.12,0,.12a1.09,1.09,0,0,0,0-.12l0-.37-.05-1.4c0-.61,0-1.35-.09-2.21s-.07-1.85-.13-2.94c-.11-2.17-.28-4.76-.5-7.63s-.54-6-.92-9.31-.81-6.43-1.23-9.28-.86-5.4-1.26-7.54c-.18-1.07-.37-2-.53-2.89s-.31-1.58-.43-2.18-.2-1-.26-1.37l-.07-.36C212.27,131.91,212.26,131.87,212.27,131.86Z"/><path class="cls-3" d="M216,177.66s-8.81-10-11.55-16l2.06-.89a5.33,5.33,0,0,1-4.19-1.37,16.23,16.23,0,0,1-2.85-3.53l2.72-.46a10.17,10.17,0,0,1-5.95-4.61,16.91,16.91,0,0,1,8.52,4.5,42.13,42.13,0,0,1,5.16,6,20.05,20.05,0,0,1,2,3.29C213.44,167.58,216.05,174,216,177.66Z"/><path class="cls-2" d="M235.16,140.19a.55.55,0,0,1,0,.1l-.13.29-.53,1.12c-.47,1-1.14,2.36-2,4.09-1.62,3.47-3.75,8.31-5.86,13.75s-3.78,10.47-4.92,14.13c-.57,1.82-1,3.31-1.31,4.33l-.36,1.18-.09.31,0,.1s0,0,0-.11l.08-.31c.08-.29.18-.69.31-1.19.28-1,.7-2.53,1.25-4.36,1.1-3.67,2.75-8.7,4.86-14.16s4.27-10.29,5.92-13.74c.83-1.73,1.52-3.11,2-4.06l.57-1.1.15-.28Z"/><path class="cls-2" d="M216.79,182a7.28,7.28,0,0,1-.14-.72c-.07-.46-.18-1.13-.35-1.94a39.48,39.48,0,0,0-1.79-6.25,40.14,40.14,0,0,0-2.79-5.88c-.41-.72-.77-1.3-1-1.69a5.14,5.14,0,0,1-.37-.63,4.13,4.13,0,0,1,.45.58c.27.38.65.94,1.08,1.66a35.19,35.19,0,0,1,4.6,12.18c.14.82.24,1.49.28,2A3.61,3.61,0,0,1,216.79,182Z"/><rect class="cls-2" x="209.13" y="179.59" width="19.3" height="3.94"/><polygon class="cls-2" points="210.97 183.53 213.05 196.77 224.72 196.77 226.66 183.53 210.97 183.53"/><path class="cls-3" d="M227.24,183.53c0,.06-3.65.11-8.15.11s-8.15,0-8.15-.11,3.65-.12,8.15-.12S227.24,183.47,227.24,183.53Z"/><path class="cls-4" d="M234.7,196.58c0,.06-43,.11-96.14.11s-96.16-.05-96.16-.11,43.05-.11,96.16-.11S234.7,196.52,234.7,196.58Z"/><rect class="cls-2" x="80.82" y="20.94" width="116.19" height="164.92" rx="4.69"/><path class="cls-4" d="M192.32,185.86l.36,0a4.74,4.74,0,0,0,1-.2,4.57,4.57,0,0,0,1.53-.83,4.66,4.66,0,0,0,1.41-1.94,4.33,4.33,0,0,0,.31-1.42c0-.51,0-1.06,0-1.63,0-1.14,0-2.38,0-3.73q0-4.05,0-9.32c0-14,0-34.31,0-59.38,0-12.54,0-26.27,0-41V31.58q0-3,0-6.09a4.58,4.58,0,0,0-3.57-4.33,7,7,0,0,0-1.53-.12H85.53a4.61,4.61,0,0,0-3.17,1.27A4.55,4.55,0,0,0,81,25.41c0,2.36,0,4.74,0,7.1q0,7.08,0,14.07v79.53c0,16.58,0,32.33,0,47.07,0,1.85,0,3.67,0,5.48,0,.91,0,1.81,0,2.7a4.61,4.61,0,0,0,2.84,4.06,4.89,4.89,0,0,0,1.25.32c.43,0,.87,0,1.3,0h24.86l59.38,0,16.14,0h0l-16.14,0-59.38,0H86.31c-.43,0-.87,0-1.32,0a5.91,5.91,0,0,1-1.3-.33,4.91,4.91,0,0,1-2.08-1.67,4.73,4.73,0,0,1-.87-2.55c0-.9,0-1.8,0-2.71v-5.48c0-14.74,0-30.49,0-47.07s0-34,0-52V32.51c0-2.37,0-4.73,0-7.11a4.8,4.8,0,0,1,4.81-4.57H191.81a6.89,6.89,0,0,1,1.57.13A4.76,4.76,0,0,1,196,22.59a4.82,4.82,0,0,1,1.08,2.89c0,2.05,0,4.08,0,6.1v12q0,11.78,0,22.84c0,14.74,0,28.47,0,41,0,25.07,0,45.36,0,59.38,0,3.51,0,6.62,0,9.32,0,1.35,0,2.59,0,3.73,0,.57,0,1.11,0,1.63a4.54,4.54,0,0,1-.32,1.43,4.68,4.68,0,0,1-1.42,2,4.92,4.92,0,0,1-1.56.82,5.41,5.41,0,0,1-1,.2Z"/><g class="cls-5"><polygon points="91.85 181.76 189.28 181.23 190.4 162.41 187.41 151.05 90.96 166.12 91.85 181.76"/></g><g class="cls-5"><polygon points="168.24 21.27 170.46 27.85 170.46 31.07 167.96 31.07 168.24 21.27"/></g><polygon class="cls-6" points="85.91 27.67 85.91 179.16 191.74 179.16 191.74 152.07 191.74 27.67 85.91 27.67"/><path class="cls-4" d="M85.91,27.67l105.83-.09h.09v.09c0,42.1,0,94.64,0,151.48h0v.12h-106v-.11c.06-89.44.1-150.57.1-151.49,0,.92,0,62.05.11,151.49l-.11-.1H191.74l-.11.11h0c0-56.84,0-109.38,0-151.48l.09.09Z"/><path class="cls-4" d="M121,16.83h40.9a6.33,6.33,0,0,1,6.33,6.33v9.21a0,0,0,0,1,0,0H114.69a0,0,0,0,1,0,0V23.16A6.33,6.33,0,0,1,121,16.83Z"/><polygon class="cls-4" points="148.28 10.99 134.65 10.99 136.24 22.67 146.51 22.67 148.28 10.99"/><path class="cls-7" d="M164.8,16.83c0,.06-10.45.11-23.33.11s-23.34-.05-23.34-.11,10.45-.11,23.34-.11S164.8,16.77,164.8,16.83Z"/><path class="cls-7" d="M115.89,29.86c-.06,0-.11-2.2-.11-4.91s0-4.91.11-4.91.11,2.2.11,4.91S116,29.86,115.89,29.86Z"/><path class="cls-7" d="M166.51,28.69a40.2,40.2,0,0,1-.12-4.45,40.46,40.46,0,0,1,.12-4.46c.06,0,.11,2,.11,4.46S166.57,28.69,166.51,28.69Z"/><path class="cls-7" d="M163.92,30.76c0,.06-10.72.11-23.95.11s-24-.05-24-.11,10.72-.11,24-.11S163.92,30.7,163.92,30.76Z"/><path class="cls-4" d="M130,78.43c0,.06-7.23.11-16.16.11s-16.16-.05-16.16-.11,7.23-.12,16.16-.12S130,78.36,130,78.43Z"/><path class="cls-4" d="M182.6,84.08c0,.07-18.89.12-42.19.12s-42.2,0-42.2-.12S117.1,84,140.41,84,182.6,84,182.6,84.08Z"/><path class="cls-4" d="M182.6,89.29c0,.06-18.89.11-42.19.11s-42.2-.05-42.2-.11,18.89-.11,42.2-.11S182.6,89.23,182.6,89.29Z"/><path class="cls-4" d="M182.6,94.5c0,.06-18.89.11-42.19.11s-42.2,0-42.2-.11,18.89-.12,42.2-.12S182.6,94.43,182.6,94.5Z"/><path class="cls-4" d="M182.6,99.7c0,.07-18.89.12-42.19.12s-42.2,0-42.2-.12,18.89-.11,42.2-.11S182.6,99.64,182.6,99.7Z"/><path class="cls-4" d="M182.6,104.91c0,.06-18.89.11-42.19.11s-42.2,0-42.2-.11,18.89-.11,42.2-.11S182.6,104.85,182.6,104.91Z"/><path class="cls-4" d="M108.72,121.85s0-.07,0-.18v-.5c0-.45,0-1.08,0-1.87,0-1.61,0-3.88-.05-6.59l.09.1-9.13,0s.21-.22.11-.12h0v4.81c0,1.53,0,3,0,4.31l-.1-.1,6.59,0,1.87,0,.5,0h-.46l-1.85,0-6.65,0h-.1v-.1c0-1.33,0-2.78,0-4.31v-4.81h0c-.11.1.13-.14.11-.11h9.23v.1c0,2.74,0,5,0,6.66,0,.77,0,1.39,0,1.84v.48C108.73,121.8,108.73,121.85,108.72,121.85Z"/><rect class="cls-2" x="114.47" y="114.8" width="63.72" height="5.32"/><path class="cls-4" d="M108.72,137.69s0-.06,0-.17V137c0-.46,0-1.08,0-1.87,0-1.61,0-3.88-.05-6.59l.09.1H99.59l.11-.11h0v4.8c0,1.54,0,3,0,4.31l-.1-.09,6.59.05,1.87,0h.67s0,0-.15,0h-.48l-1.85,0-6.65,0h-.1v-.1c0-1.33,0-2.77,0-4.31v-4.8h0c-.11.1.13-.14.11-.12l9.13,0h.1v.1c0,2.74,0,5,0,6.65,0,.78,0,1.4,0,1.85v.48C108.73,137.64,108.73,137.7,108.72,137.69Z"/><rect class="cls-2" x="114.47" y="130.65" width="63.72" height="5.32"/><path class="cls-4" d="M108.72,153.54s0-.06,0-.18v-.5c0-.45,0-1.08,0-1.86,0-1.62,0-3.88-.05-6.6l.09.1-9.13,0s.21-.22.11-.11h0v4.81c0,1.53,0,3,0,4.31l-.1-.1,6.59.05,1.87,0h0l-1.85,0-6.65,0h-.1v-.1c0-1.33,0-2.78,0-4.31v-4.81h0c-.11.1.13-.14.11-.12l9.13,0h.1v.09c0,2.74,0,5,0,6.66,0,.78,0,1.4,0,1.84v.48C108.73,153.49,108.73,153.54,108.72,153.54Z"/><rect class="cls-2" x="114.47" y="146.5" width="63.72" height="5.32"/><polygon class="cls-8" points="101.06 116.86 102.29 115.63 104.67 117.74 109.33 113.26 110.47 114.49 104.49 120.12 101.06 116.86"/><polygon class="cls-8" points="101.06 132.18 102.29 130.95 104.67 133.06 109.33 128.57 110.47 129.81 104.49 135.44 101.06 132.18"/><polygon class="cls-8" points="101.06 147.89 102.29 146.65 104.67 148.76 109.33 144.28 110.47 145.51 104.49 151.14 101.06 147.89"/><path class="cls-4" d="M123.67,164.72c0,.07-5.39.12-12,.12s-12-.05-12-.12,5.39-.11,12-.11S123.67,164.66,123.67,164.72Z"/><path class="cls-4" d="M135.71,164.54c0,.06-2,.11-4.44.11s-4.45-.05-4.45-.11a40.2,40.2,0,0,1,4.45-.12A40.08,40.08,0,0,1,135.71,164.54Z"/><path class="cls-4" d="M176.22,161.06c0,.06-4.85.11-10.83.11s-10.84,0-10.84-.11,4.85-.12,10.84-.12S176.22,161,176.22,161.06Z"/><path class="cls-4" d="M168.18,173.93s.08-.14.2-.4a2.85,2.85,0,0,0,.2-1.24,10.94,10.94,0,0,0-.32-2,6.21,6.21,0,0,1-.16-2.69,4,4,0,0,1,2-2.56,3.76,3.76,0,0,1,3.67.13,3.62,3.62,0,0,1,1.43,1.47,1.76,1.76,0,0,1,.18,1.09,1,1,0,0,1-.82.75,8.22,8.22,0,0,1-1.1,0l-1.11,0c-.74,0-1.49-.05-2.25-.11a16.69,16.69,0,0,1-4.35-.95,2.71,2.71,0,0,0-2-.11,6.76,6.76,0,0,0-1.5,1.29,1.85,1.85,0,0,1-.88.5,1.42,1.42,0,0,1-1-.18,9.51,9.51,0,0,1-1.35-1.23,1.76,1.76,0,0,0-.68-.45,1.07,1.07,0,0,0-.75,0,4.18,4.18,0,0,0-1.16,1,2.91,2.91,0,0,1-2.53.79,2.7,2.7,0,0,1-1.71-1.07,2.79,2.79,0,0,1-.51-1.18,1.7,1.7,0,0,1,0-.45,4,4,0,0,1,.08.44,2.71,2.71,0,0,0,.53,1.13,2.62,2.62,0,0,0,1.66,1,2.73,2.73,0,0,0,2.4-.78,4.18,4.18,0,0,1,1.2-1,1.27,1.27,0,0,1,.88,0,2.22,2.22,0,0,1,.75.49,9.35,9.35,0,0,0,1.32,1.2,1.21,1.21,0,0,0,.85.15,1.72,1.72,0,0,0,.78-.45,6.78,6.78,0,0,1,1.55-1.34,2,2,0,0,1,1.08-.15,5.35,5.35,0,0,1,1.05.25,15.91,15.91,0,0,0,4.3.93c.75.07,1.5.1,2.24.12l1.1,0a9.18,9.18,0,0,0,1.06,0,.7.7,0,0,0,.64-.58,1.54,1.54,0,0,0-.15-.94,3.47,3.47,0,0,0-1.35-1.39,3.59,3.59,0,0,0-3.47-.14,3.83,3.83,0,0,0-1.92,2.42,6.32,6.32,0,0,0,.13,2.63,10.64,10.64,0,0,1,.29,2,2.78,2.78,0,0,1-.25,1.26A2.5,2.5,0,0,1,168.18,173.93Z"/><path class="cls-4" d="M180.66,169.58l-.29,0-.85,0-3.11,0c-2.63,0-6.26.07-10.26.19s-7.64.28-10.26.41l-3.11.15-.85,0h-.29a1,1,0,0,1,.29-.05l.84-.07c.74-.07,1.8-.14,3.11-.23,2.62-.17,6.25-.36,10.26-.48s7.64-.14,10.27-.12c1.32,0,2.38,0,3.11.05l.85,0A1.11,1.11,0,0,1,180.66,169.58Z"/><path class="cls-8" d="M90.42,142.8l-3.31,7.47s8.7,3.45,8.77,5.1L79,155.06l0-1.44L82.7,141.3Z"/><path class="cls-2" d="M82.15,148.93a.71.71,0,0,0-.49.79.65.65,0,0,0,.76.5.72.72,0,0,0,.52-.84.69.69,0,0,0-.86-.43"/><path class="cls-4" d="M79,155.06l0-1.44,16.26.86s.75.35.65.89Z"/><path class="cls-4" d="M87.39,150.19c0,.08-.42.11-.83.38s-.64.61-.71.57.05-.51.56-.82S87.4,150.11,87.39,150.19Z"/><path class="cls-4" d="M89.15,151c0,.08-.34.22-.63.56s-.38.73-.46.72-.13-.48.24-.91S89.15,150.89,89.15,151Z"/><path class="cls-4" d="M90.12,153.14c-.08,0-.18-.4,0-.86s.61-.63.64-.56-.21.31-.38.69S90.2,153.13,90.12,153.14Z"/><path class="cls-4" d="M88,148.24c0,.08-.41,0-.88,0s-.83.17-.88.09.32-.36.87-.38S88,148.18,88,148.24Z"/><polygon class="cls-8" points="61.19 167.31 60.81 181.56 68.2 181.53 68.6 167.64 61.19 167.31"/><path class="cls-4" d="M64.48,180.83c.06,0,.15-3,.21-6.78s0-6.78,0-6.78-.15,3-.21,6.78S64.42,180.83,64.48,180.83Z"/><path class="cls-4" d="M68.33,177.09a1,1,0,0,0-.18-.3,5.26,5.26,0,0,0-.65-.73,4.83,4.83,0,0,0-1.17-.84,3.86,3.86,0,0,0-4.62.76,3.27,3.27,0,0,0-.56.8,1.25,1.25,0,0,0-.13.33,8.38,8.38,0,0,1,.8-1A3.9,3.9,0,0,1,64.61,175a4.48,4.48,0,0,1,2.79,1.18C68,176.7,68.3,177.12,68.33,177.09Z"/><polygon class="cls-4" points="60.84 181.57 68.19 181.53 68.25 179.85 60.83 179.89 60.84 181.57"/><path class="cls-4" d="M60.05,102l16.17-2.83.06,1.76c3.9,3.17,14.3,12.23,20.59,18.44,0,0,2.33,3.13,1.4,6l-9.69,24.33L79,147.92l6.71-21.42-18.77-8.88c-3.64-1.37-6.93-6-7.71-8.71C58.52,106.62,60,104.89,60.05,102Z"/><path class="cls-4" d="M72.92,119.94l-3.85,52.31-9.55.24s-.82-14.26-1-25c-.14-9.87-.24-34.33-.24-34.33Z"/><path class="cls-4" d="M60.05,102l-5,.93s-.18,12.55.17,13.81,3.37,4.87,3.37,4.87l14,2.71V113.06Z"/><polygon class="cls-4" points="58.54 108.63 58.18 112.16 54.34 112.16 54.99 108.63 58.54 108.63"/><path class="cls-7" d="M61.35,112.16a1.17,1.17,0,0,0,.12.27c.09.16.2.43.4.74a10.28,10.28,0,0,0,2,2.39,17.79,17.79,0,0,0,3.77,2.57c1.52.81,3.26,1.55,5,2.39l9.19,4.27,2.8,1.27.76.34a1.32,1.32,0,0,0,.27.1,1.57,1.57,0,0,0-.25-.14l-.75-.37-2.77-1.33-9.16-4.32c-1.79-.85-3.52-1.58-5-2.38a18,18,0,0,1-3.77-2.51,10.73,10.73,0,0,1-2-2.33C61.55,112.51,61.37,112.15,61.35,112.16Z"/><path class="cls-7" d="M58.08,120.87a32.14,32.14,0,0,0,3,2,34.69,34.69,0,0,0,3.1,1.84,30,30,0,0,0-3-2A29.71,29.71,0,0,0,58.08,120.87Z"/><path class="cls-7" d="M55,108.63a5.1,5.1,0,0,0-.25,1c-.13.62-.3,1.5-.5,2.53l0,.11h4v-.08c.1-1,.18-1.92.23-2.55a5.68,5.68,0,0,0,0-1,6,6,0,0,0-.16,1c-.08.62-.18,1.5-.3,2.54l.1-.09H54.34l.1.12c.18-1,.33-1.92.43-2.55A7,7,0,0,0,55,108.63Z"/><path class="cls-7" d="M73.27,106.23l-.17,0-.5.09-1.91.35L64,108,64,108v.1c.16,1.1.34,2.3.52,3.53l0,.11.11,0,.1,0c3.84-.89,7.27-1.7,9.55-2.25l.07,0,0-.07c-.32-1-.57-1.73-.76-2.29l-.2-.6a2,2,0,0,0-.08-.2l.06.23.17.62c.17.56.4,1.33.68,2.28l0-.08c-2.29.51-5.73,1.29-9.56,2.18l-.11,0,.12.09c-.18-1.23-.36-2.43-.52-3.53l-.08.11,6.56-1.34,1.93-.41.52-.12Z"/><path class="cls-7" d="M92.17,125.64a4.45,4.45,0,0,0-1.06-.21,11.27,11.27,0,0,0-2.61,0A10.56,10.56,0,0,0,86,126a4,4,0,0,0-1,.47s.39-.13,1-.33a13.41,13.41,0,0,1,2.51-.53,14.48,14.48,0,0,1,2.58-.06A9,9,0,0,0,92.17,125.64Z"/><path class="cls-7" d="M73.56,101.05c.06,0,.06-.28,0-.61s-.15-.6-.2-.59-.06.29,0,.62S73.5,101.06,73.56,101.05Z"/><path class="cls-7" d="M72.77,101.3c.06,0,0-.33,0-.72s-.17-.69-.22-.68,0,.33,0,.72S72.72,101.31,72.77,101.3Z"/><path class="cls-7" d="M66.23,102.4c.06,0,.06-.31,0-.67s-.14-.64-.2-.63-.06.3,0,.66S66.18,102.41,66.23,102.4Z"/><path class="cls-7" d="M65.49,102.75c.06,0,.06-.36,0-.79s-.14-.77-.2-.76a1.78,1.78,0,0,0,0,.79C65.34,102.41,65.43,102.75,65.49,102.75Z"/><path class="cls-7" d="M59.18,103.85c.06,0,.07-.35,0-.76s-.12-.75-.18-.74a1.47,1.47,0,0,0,0,.76A1.63,1.63,0,0,0,59.18,103.85Z"/><path class="cls-7" d="M58.23,104.1a2,2,0,0,0,.05-.86c0-.47-.09-.84-.15-.84s-.08.39-.05.85A1.76,1.76,0,0,0,58.23,104.1Z"/><path class="cls-4" d="M77.62,46.93A5.85,5.85,0,0,1,76,44.52c-.19-.88.16-1.87-.28-2.67-.53-1-2-1.1-2.6-2-.32-.43-.41-1-.73-1.43a2.63,2.63,0,0,0-2.47-.85c-.91.09-1.79.41-2.71.47-1.25.08-2.54-.33-3.74,0s-2.15,1.57-3,2.7l-1.13,1.31a4.35,4.35,0,0,1-.75.61,8.41,8.41,0,0,0-1.43.9,2.22,2.22,0,0,0,.13,3.2,2.38,2.38,0,0,0-1.61,2.32,6.62,6.62,0,0,0,.43,1.61,2.35,2.35,0,0,1,0,1.63,1,1,0,0,1-1.36.59,2.48,2.48,0,0,0,1.35,1.66,1.52,1.52,0,0,1-1,.45c1,2.39,3.77,3.65,6.36,3.67A20.17,20.17,0,0,0,69,56.8L76,55c.62-.13.87-.88.87-1.51a4.88,4.88,0,0,1,.06-1.87c.31-.8,1.25-1.23,1.57-2A2.72,2.72,0,0,0,77.62,46.93Z"/><path class="cls-4" d="M61.08,53.25a28.61,28.61,0,0,1-1.22-4.82,10.05,10.05,0,0,1,.43-4.9c.09-.23.85-1.81,1.1-1.78s-.3,1.49-.21,1.64a8.55,8.55,0,0,1,.93,5,22.68,22.68,0,0,1-1,4.88"/><path class="cls-9" d="M61,46.92c-.11-4.15,2.22-7.68,6.38-7.67l.38,0a7.43,7.43,0,0,1,7,7.26c.07,3.61.1,7.59,0,9.51-.29,4-4.31,4.36-4.31,4.36s.1,6.54.1,6.54l-9.72-6.12Z"/><path class="cls-10" d="M70.36,60.41a9.67,9.67,0,0,1-5.09-1.85,5,5,0,0,0,5.07,3.19Z"/><path class="cls-4" d="M73.34,49.93a.57.57,0,0,1-.58.54.56.56,0,0,1-.56-.55.58.58,0,0,1,.59-.54A.54.54,0,0,1,73.34,49.93Z"/><path class="cls-4" d="M73.75,48.15c-.07.07-.48-.28-1.09-.31s-1.08.24-1.14.16,0-.17.25-.3a1.57,1.57,0,0,1,1.79.12C73.74,48,73.79,48.11,73.75,48.15Z"/><path class="cls-4" d="M68.12,49.91a.57.57,0,0,1-1.14,0,.57.57,0,0,1,.59-.54A.53.53,0,0,1,68.12,49.91Z"/><path class="cls-4" d="M67.75,48c-.08.07-.49-.28-1.1-.31s-1.08.24-1.14.16,0-.16.25-.29a1.55,1.55,0,0,1,1.79.11C67.73,47.86,67.78,48,67.75,48Z"/><path class="cls-4" d="M69.66,52.86a5,5,0,0,1,1-.12c.16,0,.31,0,.34-.13a.8.8,0,0,0-.08-.47c-.12-.39-.25-.79-.39-1.22a21,21,0,0,1-.84-3.17,21.09,21.09,0,0,1,1.1,3.1l.37,1.22a.87.87,0,0,1,0,.62.4.4,0,0,1-.27.21.86.86,0,0,1-.27,0A3.44,3.44,0,0,1,69.66,52.86Z"/><path class="cls-4" d="M67.83,53.18c.1,0,.06.66.6,1.17s1.25.47,1.25.57-.16.12-.46.11a1.67,1.67,0,0,1-1-.44,1.46,1.46,0,0,1-.46-1C67.7,53.33,67.78,53.17,67.83,53.18Z"/><path class="cls-4" d="M67.86,45.54c-.07.17-.67.05-1.4.09s-1.31.21-1.4,0,.07-.22.32-.37a2.38,2.38,0,0,1,1.05-.3,2.22,2.22,0,0,1,1.08.2C67.77,45.33,67.89,45.47,67.86,45.54Z"/><path class="cls-4" d="M73.63,46.1c-.12.13-.53,0-1-.08s-.94,0-1-.11,0-.21.23-.33a1.45,1.45,0,0,1,.86-.18,1.47,1.47,0,0,1,.81.33C73.63,45.88,73.68,46,73.63,46.1Z"/><path class="cls-9" d="M61.11,49.89c-.07,0-2.69-1-2.77,1.75A2.05,2.05,0,0,0,61,53.81C61,53.73,61.11,49.89,61.11,49.89Z"/><path class="cls-10" d="M60.22,52.75s0,0-.13.07a.52.52,0,0,1-.35,0,1.18,1.18,0,0,1-.52-1.07,1.62,1.62,0,0,1,.15-.68.59.59,0,0,1,.37-.36.25.25,0,0,1,.28.14c0,.08,0,.13,0,.14s.06-.05,0-.16a.31.31,0,0,0-.1-.17.34.34,0,0,0-.26-.08.68.68,0,0,0-.51.41,1.55,1.55,0,0,0-.19.75,1.23,1.23,0,0,0,.66,1.2.51.51,0,0,0,.44-.06C60.21,52.82,60.23,52.76,60.22,52.75Z"/><path class="cls-4" d="M73,42c.45-.23-.85-1.69-1.92-2.2a9.66,9.66,0,0,0-5.64-.89,6.59,6.59,0,0,0-4.31,3,10.62,10.62,0,0,0-1.31,5.45A3.17,3.17,0,0,0,60.2,49c.37.61,1.09,1,1,1.84a1.12,1.12,0,0,0,.27.84c.49.54,1.11,0,1.4-.44a8,8,0,0,0,.79-3.56,8.32,8.32,0,0,0-.12-2.59c-.13-.46-.33-.89-.43-1.36a1.62,1.62,0,0,1,.22-1.36,2.24,2.24,0,0,1,.22-.22,2.86,2.86,0,0,1,2.84-.48c1.52.58,4.13,1.44,4.82.93a4.31,4.31,0,0,0,1.25-1.21Z"/><path class="cls-4" d="M65.62,38.53a6,6,0,0,1,4.6.35,3.1,3.1,0,0,1,1.61,1.84,1.79,1.79,0,0,1-.94,2.1l0,0a4.17,4.17,0,0,1-3.08-.22c-1-.36-1.83-1-2.8-1.33a5.51,5.51,0,0,0-3.24-.16A9.13,9.13,0,0,1,65.62,38.53Z"/><path class="cls-9" d="M71.11,71.47l.61,2,11.48-5,2.48,3.81s-9,6.69-11.84,8.83a5.48,5.48,0,0,1-8-1.11,17.75,17.75,0,0,1-2.7-6.24Z"/><path class="cls-10" d="M70.5,76c.06,0,.19-.6.54-1.29s.74-1.17.69-1.21a2.62,2.62,0,0,0-.88,1.12A2.7,2.7,0,0,0,70.5,76Z"/><path class="cls-9" d="M81.41,69.44l1.52-1c.81-2.4,2.31-6.74,2.75-6.61s.69.57.55,1.49c-.33,2.22.22,3.19,1.51,2.9.44-.1,4.31-.72,4.31-.72s1.06.61,0,1.66a1.22,1.22,0,0,1-.9,1.69s-.18,1.54-1.25,1.61a28.87,28.87,0,0,1-3.54,1.52l-1.92,1.16Z"/><path class="cls-10" d="M89.11,68a5.14,5.14,0,0,0,1.65-.4c.32-.11.61-.2.85-.26l0-.17-.14,0,0,.15a1.69,1.69,0,0,0,.59-.23,1.74,1.74,0,0,0-.63.08l0,.16.15,0,0-.17a6.42,6.42,0,0,0-.88.23A13,13,0,0,0,89.11,68Z"/><path class="cls-10" d="M88.82,69.7A3,3,0,0,0,90,69.38a2.87,2.87,0,0,0,1.11-.6,6.17,6.17,0,0,0-1.18.41A5.5,5.5,0,0,0,88.82,69.7Z"/><polygon class="cls-11" points="102.06 70.55 105.36 88.58 99.34 84.96 94.02 89.74 95.66 70.77 102.06 70.55"/><path class="cls-4" d="M98.71,73.25v.12c0,.09,0,.2,0,.34,0,.31.05.73.1,1.25.08,1.06.19,2.52.28,4.13s.14,3.09.17,4.15c0,.52,0,1,0,1.26v.35a.5.5,0,0,0,0,.11s0,0,0-.12,0-.2,0-.34c0-.3,0-.74,0-1.27,0-1.07,0-2.54-.13-4.16S99,76,98.93,74.94c-.05-.52-.1-1-.14-1.24l-.05-.34C98.73,73.29,98.72,73.25,98.71,73.25Z"/><polygon class="cls-11" points="102.56 71.05 110.73 87.45 113.38 80.94 120.51 81.57 107.82 67.38 102.56 71.05"/><path class="cls-4" d="M106.86,71.19l.07.1.19.29.66,1.06c.57.89,1.36,2.13,2.25,3.47s1.74,2.56,2.36,3.42l.73,1,.2.28.06.1s0,0-.08-.08l-.22-.27c-.19-.24-.45-.58-.77-1-.64-.85-1.5-2-2.4-3.4s-1.67-2.59-2.21-3.5c-.27-.45-.49-.82-.63-1.08l-.17-.3C106.87,71.23,106.85,71.2,106.86,71.19Z"/><g class="cls-5"><path d="M106.11,78.18a2.93,2.93,0,0,0,2.2-.77c.67-.86.77-1.43,1.23-1.79s1.6,0,2.72-.58,1.19-1.36,1.19-1.36l-2.8-3.13-6,4.7Z"/></g><g class="cls-5"><path d="M95,78.65a2.94,2.94,0,0,0,2.26.56c1-.36,1.43-.78,2-.84s1.33.9,2.6,1a2,2,0,0,0,1.74-.49l-.76-4.14-7.62.6Z"/></g><path class="cls-8" d="M93.22,47.19l0,0,.08.15Z"/><path class="cls-11" d="M113.7,64.77c-.6-.13-1.33-.29-2.11-.48-1-.24-1.94-.46-2.6-.63-.47-.12-.81-.22-1-.27-.06.2-.12.4-.19.6a9.48,9.48,0,0,1-1,2.13c-.12.19-.24.37-.37.55a9.68,9.68,0,0,1-3.66,3l-.18.08a1,1,0,0,1,.45.23s0,0,0,0a2.22,2.22,0,0,1,.46,1c.11.41.23.84.35,1.3.16.61.31,1.18.43,1.67.06.26.12.49.17.7a5.1,5.1,0,0,1,.19,1,6,6,0,0,1-.31-1c-.18-.6-.41-1.43-.65-2.35-.12-.46-.23-.9-.34-1.31a2,2,0,0,0-.43-1,.93.93,0,0,0-.51-.25l-.19.08L102,70a9.74,9.74,0,0,1-3.06.61l.12.07.06,0a1.74,1.74,0,0,1,.42.55,1.19,1.19,0,0,1,.08.2,3.08,3.08,0,0,1,.15.9c0,.42,0,.88,0,1.36a21.82,21.82,0,0,1-.31,2.45c-.07.37-.13.65-.18.82a2.5,2.5,0,0,1,.38-.06c1,0,2,1.08,3,.58l.08,0c.6-.41.69-1.38,1.36-1.7a1.32,1.32,0,0,1,1,0,4.68,4.68,0,0,0,1.41.3,2.05,2.05,0,0,0,1.5-1.19,8.58,8.58,0,0,1,1.11-1.66,2,2,0,0,1,.66-.45c.57-.21,1.3-.12,1.86-.27a1,1,0,0,0,.67-.47c.39-.67-.22-1.48-.3-2.24l-.22-.16c-.52-.38-1.24-.93-2-1.53l-1.11-.87a4.21,4.21,0,0,0-.92-.63.68.68,0,0,0-.68.11.62.62,0,0,0-.14.23s0-.12.09-.28a.74.74,0,0,1,.7-.2l.06,0a3.74,3.74,0,0,1,1,.62l1.12.85,0,0c.78.6,1.47,1.15,2,1.55l.13.1s0,0,0-.05a.94.94,0,0,1,.07-.37c.38-1,2-.84,2.44-1.78a1,1,0,0,0,.08-.29c.1-.62-.27-1.32-.11-2a.85.85,0,0,1,.09-.24s0,0,0,0l-.22,0Zm-8.33,7.92a3.82,3.82,0,0,1-.43-.87,3.07,3.07,0,0,1-.35-.9,2.13,2.13,0,0,1,.51.83A2.09,2.09,0,0,1,105.37,72.69Zm2.93-.33a3.88,3.88,0,0,1,.45.72,3.55,3.55,0,0,1-.55-.64l-1.28-1.6-1.28-1.59-.41-.53c-.07-.09-.1-.15-.09-.15a3.8,3.8,0,0,1,.6.6c.35.39.82.94,1.32,1.56l.4.51C107.79,71.66,108.08,72.06,108.3,72.36Zm1.83-6.1a4.37,4.37,0,0,1-1.16-1,12.39,12.39,0,0,1,1.26.82,12.11,12.11,0,0,1,1.26.82A4.63,4.63,0,0,1,110.13,66.26Z"/><path class="cls-11" d="M115,57.92a1.19,1.19,0,0,0-.06-.46c-.3-.78-1.45-1-1.71-1.74h0l-.74.24-1.34.44-2.2.71a5.86,5.86,0,0,1-.93.26,3.52,3.52,0,0,1,.69-.3l.19-.08c.56-.21,1.33-.48,2.19-.76s1.55-.48,2.11-.64c-.12-.66.5-1.26.48-1.94a1.34,1.34,0,0,0-.44-.89,2.62,2.62,0,0,0-.63-.46,4.54,4.54,0,0,1-1.49-1,2.43,2.43,0,0,1-.29-.49c-.29-.66-.38-1.45-.94-1.88a1.54,1.54,0,0,0-.49-.22c-.7-.21-1.56-.05-2.18-.47h0c-.92-.65-.75-2.28-1.74-2.82a.61.61,0,0,0-.14-.07,1.58,1.58,0,0,0-.65-.09h0c-.61,0-1.27.31-1.88.32a1.67,1.67,0,0,1-.63-.11c-.57-.24-.93-.88-1.54-1a1.18,1.18,0,0,0-.56,0c-.6.19-1.16.76-1.81.81l-.47,0c0,.57.07,1.45.11,2.44a27.14,27.14,0,0,1,0,3.13,27.31,27.31,0,0,1-.18-3.12c0-1,0-1.89,0-2.46h-.08a1.59,1.59,0,0,1-.81-.34,2,2,0,0,0-1.9-.19,1.42,1.42,0,0,0-.49.4c-.38.47-.49,1.9-.8,2a.4.4,0,0,1-.35,0l0,.13c.18.38.53,1.23.91,2.21s.67,1.76.8,2.18l.67-.23a9.32,9.32,0,0,1,2.13-.41,5.44,5.44,0,0,1,.57,0,9.58,9.58,0,0,1,2.45.26h0s0-.06,0-.09h0a.92.92,0,0,1,.07-.39c.07-.23.17-.49.27-.78l.47-1.3c.3-.8.58-1.53.79-2a5.13,5.13,0,0,1,.37-.83,3.71,3.71,0,0,1-.25.87c-.18.54-.44,1.27-.74,2.08s-.58,1.53-.79,2a.73.73,0,0,0-.07.46l.24.07A9.92,9.92,0,0,1,104,52.69l.25.18a1,1,0,0,1-.07-.32,1.09,1.09,0,0,1,0-.26,1.78,1.78,0,0,1,.25-.59c.18-.29.39-.57.62-.88a19.25,19.25,0,0,1,1.21-1.51c.22-.25.39-.43.48-.52s.07-.06.08,0a4,4,0,0,1-.47.65c-.3.39-.71.93-1.16,1.54s-.91,1.14-.91,1.62a1,1,0,0,0,.09.42l.21.17a10.07,10.07,0,0,1,1.69,1.7,9.51,9.51,0,0,1,.6.87,10.36,10.36,0,0,1,.72,1.41c0,.09.07.19.1.28.1.26.19.53.27.8a10.24,10.24,0,0,1,.35,2.1,9,9,0,0,1,0,1,9.87,9.87,0,0,1-.29,1.95.14.14,0,0,0,0,.06l.87.16.11,0c.67.14,1.59.35,2.61.59s1.93.46,2.59.63l.25.07c.22-.36.55-.66.8-1a1.5,1.5,0,0,0,.31-.68c.12-.86-.77-1.49-1.18-2.25-.59,0-1.5-.13-2.52-.23-.84-.09-1.59-.17-2.17-.25a5.37,5.37,0,0,1-1.07-.18,28.86,28.86,0,0,1,3.26.25c.79.08,1.52.17,2.08.24l.37.05,0-.05a1.48,1.48,0,0,1-.12-.47C114.17,59.43,114.93,58.68,115,57.92ZM98.85,48.7a9.2,9.2,0,0,1,.48-1.5,5.46,5.46,0,0,1-.3,1.55,5.68,5.68,0,0,1-.56,1.48A9.06,9.06,0,0,1,98.85,48.7Zm4.24.37a4.88,4.88,0,0,1-1,1.14A9.1,9.1,0,0,1,103,49a11.5,11.5,0,0,1,.88-1.22A4.55,4.55,0,0,1,103.09,49.07Zm3.3,1.91a3,3,0,0,1,.82-.69s-.29.39-.69.81a4.29,4.29,0,0,1-.78.72A2.69,2.69,0,0,1,106.39,51Zm.13,3.64h0a6.63,6.63,0,0,1,.51-.54c.33-.32.79-.76,1.31-1.23s1-.9,1.35-1.2a3.38,3.38,0,0,1,.6-.46s-.06.09-.18.22l-.33.33c-.33.33-.79.77-1.31,1.24s-1,.9-1.36,1.2A2.68,2.68,0,0,1,106.52,54.62Z"/><path class="cls-11" d="M99.5,73.77c0-.48.07-.94.07-1.35a2.53,2.53,0,0,0-.19-1A1.41,1.41,0,0,0,99,70.8l-.17-.15a9.62,9.62,0,0,1-2-.15h0c0,.12-.08.33-.17.62l0,.08c-.13.43-.32,1-.55,1.6s-.49,1.23-.68,1.64a3.16,3.16,0,0,1-.34.66s0-.07,0-.19c.12-.36.44-1.19.81-2.17s.74-2,.87-2.25c-.27,0-.53-.11-.79-.18a8.31,8.31,0,0,1-.52,1,4.85,4.85,0,0,1-.72,1.08,4.68,4.68,0,0,1,.57-1.17c.18-.32.35-.6.49-.8l.09-.14a10.16,10.16,0,0,1-2.28-1L93.1,69a9.64,9.64,0,0,1-1.87-1.63c-.13-.14-.25-.29-.37-.43a9.89,9.89,0,0,1-1.24-2.06c-.05-.1-.1-.21-.14-.31s-.12-.3-.17-.46a9.69,9.69,0,0,1-.51-2.21,1.94,1.94,0,0,1,0-.24.83.83,0,0,1-.32.22l-.28.07a10.38,10.38,0,0,1-2.13.25,20.13,20.13,0,0,1-2.41-.11L82.75,62c-.07,0-.1,0-.1,0a7,7,0,0,1,1,0l.78,0c.48,0,1,0,1.62,0l.48,0a10.71,10.71,0,0,0,1.89-.24.84.84,0,0,0,.32-.2l0-.06c0-.21,0-.43,0-.64-.35,0-.89-.08-1.51-.16a10.8,10.8,0,0,1-1.9-.35,10.59,10.59,0,0,1,1.92.17l.65.09.84.14A10.39,10.39,0,0,1,89,58.66l-.17,0a18.5,18.5,0,0,1-2-.52,17.75,17.75,0,0,1-1.9-.74l0,0a2.88,2.88,0,0,1-.71-.39,5.83,5.83,0,0,1,.79.29c.48.19,1.15.44,1.9.69s1.44.43,1.95.56l.17,0c0-.2.1-.4.16-.59h0l0,0c-.25-.13-.58-.31-.92-.53A5.89,5.89,0,0,1,87,56.45a3.52,3.52,0,0,1,.73.4l.64.4.9.57a10.21,10.21,0,0,1,1.06-2.24l.08-.13a2.92,2.92,0,0,1-.69-.28L89.22,55c-.34-.17-.74-.38-1.16-.62-.62-.34-1.16-.68-1.55-.93A2.55,2.55,0,0,1,85.9,53a1.37,1.37,0,0,1,.34.16c.4.21,1.1.62,1.91,1.07,1.21.68,2.21,1.21,2.21,1.27l.33-.47A9.76,9.76,0,0,1,92,53.52l-.15-.19c-.3-.38-.7-.92-1.11-1.54s-.74-1.19-1-1.62a5.89,5.89,0,0,1-.33-.67s0,0,0,0a4.42,4.42,0,0,1,.44.65c.26.41.61,1,1,1.58l.94,1.4.12.17.13.19,0,0,.46-.37a7.94,7.94,0,0,1-.6-1,6,6,0,0,1-.55-1,3,3,0,0,1,.71.94c.12.21.21.4.29.56s.07.17.09.24a1,1,0,0,1,.08.26h0a9.44,9.44,0,0,1,2.12-1.22l0,0,.07,0c-.16-.35-.44-1-.75-1.79,0-.12-.09-.23-.13-.35-.48-1.22-.84-2.23-.88-2.45-.5-.26-1.16-1-1.88-.77s-.86.36-1,.68a12.1,12.1,0,0,0-.34,1.69,1,1,0,0,1-.51.63,1.76,1.76,0,0,1-1.35.1,2.23,2.23,0,0,0-2.15.75,2.69,2.69,0,0,0-.27.32,3.83,3.83,0,0,0-.35,2,1.84,1.84,0,0,1-.31,1,5.44,5.44,0,0,1-1.26.9,1.27,1.27,0,0,0-.54.65c-.18.58.23,1.2.27,1.78a1.08,1.08,0,0,1-.07.47c-.29.7-1.35.75-1.72,1.42a1,1,0,0,0-.09.77,16.81,16.81,0,0,1,.76,2,2.26,2.26,0,0,1,0,.45c-.08.5-.34,1-.44,1.51a1.5,1.5,0,0,0,.09.86.82.82,0,0,0,.82.62l-.16-.27a1.31,1.31,0,0,1,1.09,1.25,4.22,4.22,0,0,1-.11,1.17c0,.21-.08.42-.1.63A1.86,1.86,0,0,0,84,69.42l0,0c.5.37,1.24.33,1.72.73a1.56,1.56,0,0,1,.5,1c.17,1-.08,2.22.78,2.69a.94.94,0,0,0,.28.1c.84.2,1.91-.48,2.62.07a1.21,1.21,0,0,1,.21.24c.3.43.36,1,.76,1.4a1.52,1.52,0,0,0,1.43.19,3.24,3.24,0,0,1,2.07-.12,1.24,1.24,0,0,1,.26.19c.65.58.75,1.79,1.58,2.14a1.14,1.14,0,0,0,.47.08c.81,0,1.59-.87,2.46-1.12,0-.17,0-.46.11-.85C99.33,75.59,99.43,74.73,99.5,73.77ZM89.6,54.33a3.63,3.63,0,0,1-.82-.95,5.84,5.84,0,0,1,.94.82,6.21,6.21,0,0,1,.9.86A3.26,3.26,0,0,1,89.6,54.33Zm-.35,10.21a3.84,3.84,0,0,1-1.12.34A3.7,3.7,0,0,1,87,65a4,4,0,0,1,1.12-.34A4.09,4.09,0,0,1,89.25,64.54ZM83.81,67a3.52,3.52,0,0,1,.81-.33c.5-.19,1.2-.44,2-.74s1.45-.57,2-.77a5,5,0,0,1,.81-.3,3.24,3.24,0,0,1-.76.42c-.32.15-.73.33-1.19.52l-.75.3c-.76.3-1.47.53-2,.69l-.57.16A1.1,1.1,0,0,1,83.81,67Zm2.56,4.3a5.31,5.31,0,0,1,.7-.62l.61-.48,1.13-.89,1-.74c.3-.23.58-.42.78-.61a1.93,1.93,0,0,0,.51-.73s0,.09,0,.25a1.45,1.45,0,0,1-.17.32,1.55,1.55,0,0,1-.21.25,7.89,7.89,0,0,1-.77.65l-1,.75c-.68.53-1.31,1-1.78,1.34A4.63,4.63,0,0,1,86.37,71.29ZM91,73.46a4,4,0,0,1-.55.68,4.44,4.44,0,0,1,.44-.75l.61-.92.57-.83c.47-.67.92-1.28,1.21-1.71a.5.5,0,0,0,.09-.31.37.37,0,0,0-.09-.23c-.09-.1-.19-.09-.19-.11a.23.23,0,0,1,.24.06.47.47,0,0,1,.14.26.15.15,0,0,1,0,.07.79.79,0,0,1-.08.32c-.29.48-.71,1.07-1.18,1.76S91.28,73,91,73.46Z"/><path class="cls-11" d="M90.6,64.11a8.6,8.6,0,1,0,4.69-11.22A8.6,8.6,0,0,0,90.6,64.11Z"/><path class="cls-4" d="M107.11,54.17c.36-.3.83-.72,1.36-1.2s1-.91,1.31-1.24l.33-.33c.12-.13.19-.2.18-.22a3.38,3.38,0,0,0-.6.46c-.35.3-.83.72-1.35,1.2s-1,.91-1.31,1.23a6.63,6.63,0,0,0-.51.54h0A2.68,2.68,0,0,0,107.11,54.17Z"/><path class="cls-4" d="M108.89,57l-.19.08a3.52,3.52,0,0,0-.69.3,5.86,5.86,0,0,0,.93-.26l2.2-.71,1.34-.44.74-.24,0-.09v0c-.56.16-1.3.38-2.11.64S109.45,56.77,108.89,57Z"/><path class="cls-4" d="M111.9,60.48a28.86,28.86,0,0,0-3.26-.25,5.37,5.37,0,0,0,1.07.18c.58.08,1.33.16,2.17.25,1,.1,1.93.19,2.52.23a.61.61,0,0,1-.05-.12l-.37-.05C113.42,60.65,112.69,60.56,111.9,60.48Z"/><path class="cls-4" d="M111.63,64.12c-1-.24-1.94-.45-2.61-.59l-.11,0-.87-.16a.14.14,0,0,1,0-.06,9.87,9.87,0,0,0,.29-1.95,9,9,0,0,0,0-1,10.24,10.24,0,0,0-.35-2.1c-.08-.27-.17-.54-.27-.8,0-.09-.06-.19-.1-.28a10.36,10.36,0,0,0-.72-1.41,9.51,9.51,0,0,0-.6-.87,10.07,10.07,0,0,0-1.69-1.7l-.21-.17a1,1,0,0,1-.09-.42c0-.48.48-1,.91-1.62s.86-1.15,1.16-1.54a4,4,0,0,0,.47-.65s0,0-.08,0-.26.27-.48.52a19.25,19.25,0,0,0-1.21,1.51c-.23.31-.44.59-.62.88a1.78,1.78,0,0,0-.25.59,1.09,1.09,0,0,0,0,.26,1,1,0,0,0,.07.32l-.25-.18a9.92,9.92,0,0,0-2.83-1.29l-.24-.07a.67.67,0,0,1,.07-.46c.21-.52.49-1.25.79-2s.56-1.54.74-2.08a3.71,3.71,0,0,0,.25-.87,5.13,5.13,0,0,0-.37.83c-.21.52-.49,1.25-.79,2l-.47,1.3c-.1.29-.2.55-.27.78a.92.92,0,0,0-.07.39h0s0,.06,0,.09h0A9.58,9.58,0,0,0,98.35,51a5.44,5.44,0,0,0-.57,0,9.32,9.32,0,0,0-2.13.41l-.67.23c-.13-.42-.43-1.24-.8-2.18s-.73-1.83-.91-2.21l-.08-.15,0,0c0,.22.4,1.23.88,2.45,0,.12.09.23.13.35.31.78.59,1.44.75,1.79l-.07,0,0,0A9.44,9.44,0,0,0,92.66,53h0a1,1,0,0,0-.08-.26c0-.07-.06-.15-.09-.24s-.17-.35-.29-.56a3,3,0,0,0-.71-.94,6,6,0,0,0,.55,1,7.94,7.94,0,0,0,.6,1l-.46.37,0,0L92,53.26l-.12-.17-.94-1.4c-.4-.61-.75-1.17-1-1.58a4.42,4.42,0,0,0-.44-.65s0,0,0,0a5.89,5.89,0,0,0,.33.67c.23.43.57,1,1,1.62s.81,1.16,1.11,1.54l.15.19A9.76,9.76,0,0,0,90.69,55l-.33.47c0-.06-1-.59-2.21-1.27-.81-.45-1.51-.86-1.91-1.07A1.37,1.37,0,0,0,85.9,53a2.55,2.55,0,0,0,.61.45c.39.25.93.59,1.55.93.42.24.82.45,1.16.62l.45.22a2.92,2.92,0,0,0,.69.28l-.08.13a10.21,10.21,0,0,0-1.06,2.24l-.9-.57-.64-.4a3.52,3.52,0,0,0-.73-.4,5.89,5.89,0,0,0,1.28.95c.34.22.67.4.92.53l0,0h0c-.06.19-.11.39-.16.59l-.17,0c-.51-.13-1.2-.32-1.95-.56s-1.42-.5-1.9-.69a5.83,5.83,0,0,0-.79-.29,2.88,2.88,0,0,0,.71.39l0,0a17.75,17.75,0,0,0,1.9.74,18.5,18.5,0,0,0,2,.52l.17,0a10.39,10.39,0,0,0-.25,2.09l-.84-.14-.65-.09a10.59,10.59,0,0,0-1.92-.17,10.31,10.31,0,0,0,1.9.34c.62.09,1.16.15,1.51.17,0,.21,0,.43,0,.64l0,.06a.84.84,0,0,1-.32.2,10.71,10.71,0,0,1-1.89.24l-.48,0c-.59,0-1.14,0-1.62,0l-.78,0a7,7,0,0,0-1,0s0,0,.1,0l.89.12a20.13,20.13,0,0,0,2.41.11A10.38,10.38,0,0,0,88.18,62l.28-.07a.83.83,0,0,0,.32-.22,1.94,1.94,0,0,0,0,.24,9.69,9.69,0,0,0,.51,2.21c0,.16.11.31.17.46s.09.21.14.31a9.89,9.89,0,0,0,1.24,2.06c.12.14.24.29.37.43A9.64,9.64,0,0,0,93.1,69l.47.3a10.16,10.16,0,0,0,2.28,1l-.09.14c-.14.2-.31.48-.49.8a4.68,4.68,0,0,0-.57,1.17,4.85,4.85,0,0,0,.72-1.08,8.31,8.31,0,0,0,.52-1c.26.07.52.13.79.18-.13.28-.46,1.18-.87,2.25s-.69,1.81-.81,2.17c0,.12,0,.18,0,.19a3.16,3.16,0,0,0,.34-.66c.19-.41.44-1,.68-1.64s.42-1.17.55-1.6l0-.08c.09-.29.14-.5.17-.62h0a9.62,9.62,0,0,0,2,.15l.17.15a1.41,1.41,0,0,1,.39.57,2.53,2.53,0,0,1,.19,1c0,.41,0,.87-.07,1.35-.07,1-.17,1.82-.25,2.44-.06.39-.1.68-.11.85h0c0-.17.11-.45.18-.82a21.82,21.82,0,0,0,.31-2.45c0-.48.06-.94,0-1.36a3.08,3.08,0,0,0-.15-.9,1.19,1.19,0,0,0-.08-.2,1.74,1.74,0,0,0-.42-.55l-.06,0-.12-.07A9.74,9.74,0,0,0,102,70l.32-.12.19-.08a.89.89,0,0,1,.51.26,1.91,1.91,0,0,1,.43.94c.11.41.22.85.34,1.31.24.92.47,1.75.65,2.35a6,6,0,0,0,.31,1,5.1,5.1,0,0,0-.19-1c0-.21-.11-.44-.17-.7-.12-.49-.27-1.06-.43-1.67-.12-.46-.24-.89-.35-1.3a2.22,2.22,0,0,0-.46-1s0,0,0,0a1,1,0,0,0-.45-.23l.18-.08a9.68,9.68,0,0,0,3.66-3c.13-.18.25-.36.37-.55a9.48,9.48,0,0,0,1-2.13c.07-.2.13-.4.19-.6.15,0,.49.15,1,.27.66.17,1.58.39,2.6.63.78.19,1.51.35,2.11.48l.49.1.22,0,.06-.1-.25-.07C113.56,64.58,112.64,64.35,111.63,64.12Zm-9.81,4.68a8.6,8.6,0,1,1,4.69-11.22A8.6,8.6,0,0,1,101.82,68.8Z"/><path class="cls-4" d="M111.49,66.93a12.11,12.11,0,0,0-1.26-.82,12.39,12.39,0,0,0-1.26-.82,4.37,4.37,0,0,0,1.16,1A4.63,4.63,0,0,0,111.49,66.93Z"/><path class="cls-4" d="M109.72,68l0,0-1.12-.85a3.74,3.74,0,0,0-1-.62l-.06,0a.74.74,0,0,0-.7.2c-.13.16-.1.28-.09.28a.62.62,0,0,1,.14-.23.68.68,0,0,1,.68-.11,4.21,4.21,0,0,1,.92.63l1.11.87c.79.6,1.51,1.15,2,1.53l.22.16a.92.92,0,0,1,0-.16l-.13-.1C111.19,69.15,110.5,68.6,109.72,68Z"/><path class="cls-4" d="M106.92,70.84l1.28,1.6a3.55,3.55,0,0,0,.55.64,3.88,3.88,0,0,0-.45-.72c-.22-.3-.51-.7-.84-1.12l-.4-.51c-.5-.62-1-1.17-1.32-1.56a3.8,3.8,0,0,0-.6-.6s0,.06.09.15l.41.53Z"/><path class="cls-4" d="M104.59,70.92a3.07,3.07,0,0,0,.35.9,3.82,3.82,0,0,0,.43.87,2.09,2.09,0,0,0-.27-.94A2.13,2.13,0,0,0,104.59,70.92Z"/><path class="cls-4" d="M93.29,69.34a.23.23,0,0,0-.24-.06s.1,0,.19.11a.37.37,0,0,1,.09.23.5.5,0,0,1-.09.31c-.29.43-.74,1-1.21,1.71l-.57.83-.61.92a4.44,4.44,0,0,0-.44.75,4,4,0,0,0,.55-.68c.32-.43.75-1,1.22-1.71s.89-1.28,1.18-1.76a.79.79,0,0,0,.08-.32.15.15,0,0,0,0-.07A.47.47,0,0,0,93.29,69.34Z"/><path class="cls-4" d="M91,67.47c0-.16,0-.25,0-.25a1.93,1.93,0,0,1-.51.73c-.2.19-.48.38-.78.61l-1,.74-1.13.89-.61.48a5.31,5.31,0,0,0-.7.62,4.63,4.63,0,0,0,.77-.51c.47-.34,1.1-.81,1.78-1.34l1-.75a7.89,7.89,0,0,0,.77-.65,1.55,1.55,0,0,0,.21-.25A1.45,1.45,0,0,0,91,67.47Z"/><path class="cls-4" d="M89.34,64.85a5,5,0,0,0-.81.3c-.5.2-1.19.48-2,.77s-1.46.55-2,.74a3.52,3.52,0,0,0-.81.33,1.1,1.1,0,0,0,.28,0l.57-.16c.51-.16,1.22-.39,2-.69l.75-.3c.46-.19.87-.37,1.19-.52A3.24,3.24,0,0,0,89.34,64.85Z"/><path class="cls-4" d="M88.13,64.88a3.84,3.84,0,0,0,1.12-.34,4.09,4.09,0,0,0-1.16.16A4,4,0,0,0,87,65,3.7,3.7,0,0,0,88.13,64.88Z"/><path class="cls-4" d="M90.62,55.06a6.21,6.21,0,0,0-.9-.86,5.84,5.84,0,0,0-.94-.82,3.63,3.63,0,0,0,.82.95A3.26,3.26,0,0,0,90.62,55.06Z"/><path class="cls-4" d="M97.88,50.91a27.14,27.14,0,0,0,0-3.13c0-1-.08-1.87-.11-2.44h-.12c0,.57,0,1.46,0,2.46A27.31,27.31,0,0,0,97.88,50.91Z"/><path class="cls-4" d="M99,48.75a5.46,5.46,0,0,0,.3-1.55,9.2,9.2,0,0,0-.48,1.5,9.06,9.06,0,0,0-.38,1.53A5.68,5.68,0,0,0,99,48.75Z"/><path class="cls-4" d="M103.09,49.07a4.55,4.55,0,0,0,.74-1.33A11.5,11.5,0,0,0,103,49a9.1,9.1,0,0,0-.84,1.25A4.88,4.88,0,0,0,103.09,49.07Z"/><path class="cls-4" d="M106.39,51a2.69,2.69,0,0,0-.65.84,4.29,4.29,0,0,0,.78-.72c.4-.42.73-.77.69-.81A3,3,0,0,0,106.39,51Z"/><g class="cls-5"><path d="M97.71,50.72a1.36,1.36,0,0,0,.07.35,5.44,5.44,0,0,1,.57,0,1.48,1.48,0,0,0,.14-.32q.8-2.7,1.57-5.4a1,1,0,0,0,0-.79l0,0c-.6.19-1.16.76-1.81.81l-.47,0c0,.57.07,1.45.11,2.44a27.14,27.14,0,0,1,0,3.13,27.31,27.31,0,0,1-.18-3.12c0-1,0-1.89,0-2.46h-.08l0,.06C97.6,47.16,97.66,48.94,97.71,50.72Zm1.14-2a9.2,9.2,0,0,1,.48-1.5,5.46,5.46,0,0,1-.3,1.55,5.68,5.68,0,0,1-.56,1.48A9.06,9.06,0,0,1,98.85,48.7Z"/><path d="M101.63,48.75c.3-.8.58-1.53.79-2a5.13,5.13,0,0,1,.37-.83,3.71,3.71,0,0,1-.25.87c-.18.54-.44,1.27-.74,2.08s-.58,1.53-.79,2a.67.67,0,0,0-.07.46l.24.07c1.41-1.87,3-4.15,4.14-6.07a1.58,1.58,0,0,0-.65-.09h0c-.61,0-1.27.31-1.88.32-.52,1.34-1.14,2.95-1.62,4.49Z"/><path d="M106.86,48.74a4,4,0,0,1-.47.65c-.3.39-.71.93-1.16,1.54s-.91,1.14-.91,1.62a1,1,0,0,0,.09.42l.21.17a46.75,46.75,0,0,0,4.77-4.44c-.7-.21-1.56-.05-2.18-.47-.14.19-.28.38-.43.56C106.83,48.76,106.85,48.73,106.86,48.74Zm-.34,2.36a4.29,4.29,0,0,1-.78.72,2.69,2.69,0,0,1,.65-.84,3,3,0,0,1,.82-.69S106.92,50.68,106.52,51.1Z"/><path d="M109.78,51.73c-.33.33-.79.77-1.31,1.24s-1,.9-1.36,1.2a2.68,2.68,0,0,1-.59.45h0l-.21.23a9.51,9.51,0,0,1,.6.87l.24-.1c1.61-.71,4.18-2,6.08-2.86a2.62,2.62,0,0,0-.63-.46,4.54,4.54,0,0,1-1.49-1,2.43,2.43,0,0,1-.29-.49l-.71.6Z"/><path d="M111.14,56.39l-2.2.71a5.86,5.86,0,0,1-.93.26,3.52,3.52,0,0,1,.69-.3c-.27.08-.54.18-.82.28l-.15.06c.1.26.19.53.27.8,1.93-.06,4.77-.2,7-.28a1.19,1.19,0,0,0-.06-.46c-.3-.78-1.45-1-1.71-1.74l-.74.23Z"/><path d="M109.71,60.41l-1.06-.1h-.3a9,9,0,0,1,0,1c1.94.53,4.69,1.72,6.92,2.48a1.5,1.5,0,0,0,.31-.68c.12-.86-.77-1.49-1.18-2.25-.59,0-1.5-.13-2.52-.23C111,60.57,110.29,60.49,109.71,60.41Z"/><path d="M111.59,64.29c-1-.24-1.94-.46-2.6-.63-.47-.12-.81-.22-1-.27-.06.2-.12.4-.19.6a3.13,3.13,0,0,0,.6.32c1.57.7,4.1,2,6,2.85.1-.62-.27-1.32-.11-2a.85.85,0,0,1,.09-.24l-.69-.2C113.1,64.64,112.37,64.48,111.59,64.29Z"/><path d="M109.58,68.12l-1.11-.87a4.21,4.21,0,0,0-.92-.63.68.68,0,0,0-.68.11.62.62,0,0,0-.14.23s0-.12.09-.28a.74.74,0,0,1,.7-.2,5.9,5.9,0,0,0-.7-.36c-.12.19-.24.37-.37.55a44.53,44.53,0,0,0,5,5.85,1,1,0,0,0,.67-.47c.39-.67-.22-1.48-.3-2.24l-.22-.16C111.09,69.27,110.37,68.72,109.58,68.12Z"/><path d="M108.3,72.36a3.88,3.88,0,0,1,.45.72,3.55,3.55,0,0,1-.55-.64l-1.28-1.6-1.28-1.59-.41-.53-.18-.18c.66,1.85,1.82,4.36,2.78,6.36a8.58,8.58,0,0,1,1.11-1.66c-.44-.65-1-1.34-1.48-2C107.79,71.66,108.08,72.06,108.3,72.36Z"/><path d="M104.52,74.67a5.1,5.1,0,0,1,.19,1,6,6,0,0,1-.31-1c-.18-.6-.41-1.43-.65-2.35-.12-.46-.23-.9-.34-1.31a1.91,1.91,0,0,0-.43-.94.89.89,0,0,0-.51-.26l-.19.08L102,70s0,0,0,0a1.87,1.87,0,0,0-.08.88c.12,1.88.57,4.55.74,6.55.6-.41.69-1.38,1.36-1.7a1.32,1.32,0,0,1,1,0c-.17-.56-.37-1.18-.57-1.82C104.41,74.23,104.47,74.46,104.52,74.67Z"/><path d="M99.5,73.77c0-.48.07-.94.07-1.35a2.53,2.53,0,0,0-.19-1A1.41,1.41,0,0,0,99,70.8a.57.57,0,0,0-.23.33C98.08,73,97.25,76,96.68,78.18c.81,0,1.59-.87,2.46-1.12,0-.17,0-.46.11-.85C99.33,75.59,99.43,74.73,99.5,73.77Z"/><path d="M95.05,74.9c.12-.36.44-1.19.81-2.17s.74-2,.87-2.25c-.27,0-.53-.11-.79-.18a8.31,8.31,0,0,1-.52,1,4.85,4.85,0,0,1-.72,1.08,4.68,4.68,0,0,1,.57-1.17c.18-.32.35-.6.49-.8a5.25,5.25,0,0,0-.82,1.1L92.3,75.89a3.24,3.24,0,0,1,2.07-.12,1.24,1.24,0,0,1,.26.19C94.75,75.62,94.9,75.27,95.05,74.9Z"/><path d="M92,71.64c.47-.67.92-1.28,1.21-1.71a.5.5,0,0,0,.09-.31.37.37,0,0,0-.09-.23c-.09-.1-.19-.09-.19-.11a.23.23,0,0,1,.24.06.47.47,0,0,1,.14.26.15.15,0,0,1,0,.07.91.91,0,0,0,.13-.37L93.1,69a1.1,1.1,0,0,0-.36.21C91.21,70.36,89,72.4,87.28,74c.84.2,1.91-.48,2.62.07a1.21,1.21,0,0,1,.21.24l1.35-1.83Z"/><path d="M88.81,69.3l1-.74c.3-.23.58-.42.78-.61a1.93,1.93,0,0,0,.51-.73s0,.09,0,.25a1.45,1.45,0,0,1-.17.32l.12-.1a.82.82,0,0,0,.24-.32c-.13-.14-.25-.29-.37-.43a1,1,0,0,0-.45.1c-2.15.79-4.28,1.59-6.41,2.41.5.37,1.24.33,1.72.73a1.56,1.56,0,0,1,.5,1l1.46-1Z"/><path d="M83.81,67a3.52,3.52,0,0,1,.81-.33c.5-.19,1.2-.44,2-.74s1.45-.57,2-.77a5,5,0,0,1,.81-.3,3.24,3.24,0,0,1-.76.42c-.32.15-.73.33-1.19.52.8-.29,1.56-.59,2.18-.88l.05,0c-.05-.1-.1-.21-.14-.31s-.12-.3-.17-.46h-.06a30,30,0,0,0-7.3.24.82.82,0,0,0,.82.62l-.16-.27a1.31,1.31,0,0,1,1.09,1.25,4.22,4.22,0,0,1-.11,1.17l.5-.17A1.1,1.1,0,0,1,83.81,67Zm4.28-2.29a4.09,4.09,0,0,1,1.16-.16,3.84,3.84,0,0,1-1.12.34A3.7,3.7,0,0,1,87,65,4,4,0,0,1,88.09,64.7Z"/><path d="M82.65,61.94a7,7,0,0,1,1,0l.78,0h2.1a10.71,10.71,0,0,0,1.89-.24.84.84,0,0,0,.32-.2l0-.06c0-.21,0-.43,0-.64-.35,0-.89-.08-1.51-.17a10.31,10.31,0,0,1-1.9-.34,10.59,10.59,0,0,1,1.92.17l.65.09a60.78,60.78,0,0,0-6.34-1.11,16.81,16.81,0,0,1,.76,2,2.26,2.26,0,0,1,0,.45h.45C82.68,62,82.65,62,82.65,61.94Z"/><path d="M84.21,57a5.83,5.83,0,0,1,.79.29c.48.19,1.15.44,1.9.69s1.44.43,1.95.56l.17,0c0-.2.1-.4.16-.59l0,0c-.25-.13-.58-.31-.92-.53A5.89,5.89,0,0,1,87,56.45a3.52,3.52,0,0,1,.73.4,36.45,36.45,0,0,0-4-2.44,1.27,1.27,0,0,0-.54.65c-.18.58.23,1.2.27,1.78l1.48.51A2.88,2.88,0,0,1,84.21,57Z"/><path d="M88.15,54.18c1.21.68,2.21,1.21,2.21,1.27l.33-.47,0-.06c-1.22-1.28-3.3-3.23-4.74-4.69a2.69,2.69,0,0,0-.27.32,3.83,3.83,0,0,0-.35,2l1,.58C86.64,53.32,87.34,53.73,88.15,54.18Zm.63-.8a5.84,5.84,0,0,1,.94.82,6.21,6.21,0,0,1,.9.86,3.26,3.26,0,0,1-1-.73A3.63,3.63,0,0,1,88.78,53.38Z"/><path d="M89.47,49.46a4.42,4.42,0,0,1,.44.65c.26.41.61,1,1,1.58l.94,1.4.29.32.46-.37a7.94,7.94,0,0,1-.6-1,6,6,0,0,1-.55-1,3,3,0,0,1,.71.94c.12.21.21.4.29.56-.69-1.64-1.52-3.79-2.21-5.46a12.1,12.1,0,0,0-.34,1.69,1,1,0,0,1-.51.63l.07.12S89.46,49.46,89.47,49.46Z"/><path d="M94.18,49.53c.37.94.67,1.76.8,2.18l.67-.23a5.44,5.44,0,0,0,0-2c-.18-1.24-.53-3.2-.76-4.64a1.42,1.42,0,0,0-.49.4c-.38.47-.49,1.9-.8,2a.4.4,0,0,1-.35,0l0,.13C93.45,47.7,93.8,48.55,94.18,49.53Z"/></g><path class="cls-6" d="M107,58.4a8.79,8.79,0,1,1-11-5.89A8.79,8.79,0,0,1,107,58.4Z"/><polygon class="cls-4" points="94.33 62.45 95.14 60.82 98.21 62.13 101.36 56.12 102.9 56.97 98.82 64.55 94.33 62.45"/><path class="cls-4" d="M105.89,60.4s0,.06,0,.19a4.22,4.22,0,0,1,.07.55,6.5,6.5,0,0,1-.21,2,7.58,7.58,0,0,1-1.34,2.73,7.46,7.46,0,0,1-2.92,2.3,7.76,7.76,0,0,1-6.59-.32,6.73,6.73,0,0,1-1.65-1.22,4.26,4.26,0,0,1-.36-.43c-.08-.1-.12-.15-.11-.16A8.26,8.26,0,0,0,95,67.75a7.85,7.85,0,0,0,2.86.8,7.14,7.14,0,0,0,6.41-2.77,7.83,7.83,0,0,0,1.36-2.64A8.44,8.44,0,0,0,105.89,60.4Z"/><path class="cls-4" d="M91,61.51s0-.06,0-.19a3.11,3.11,0,0,1-.07-.56,6.47,6.47,0,0,1,.23-2.06A7.8,7.8,0,0,1,92.49,56a8.79,8.79,0,0,1,1.29-1.3,7.77,7.77,0,0,1,1.68-1,7.85,7.85,0,0,1,3.72-.57,8,8,0,0,1,2.95.85,6.48,6.48,0,0,1,1.67,1.22,3.75,3.75,0,0,1,.38.43c.08.1.12.15.11.16a8.19,8.19,0,0,0-2.23-1.66,8.08,8.08,0,0,0-2.9-.79,7.77,7.77,0,0,0-3.61.57,7.32,7.32,0,0,0-1.63,1,8.36,8.36,0,0,0-1.27,1.25,7.81,7.81,0,0,0-1.39,2.65,7,7,0,0,0-.3,2C91,61.24,91,61.51,91,61.51Z"/><path class="cls-11" d="M74.18,65.52,78,96.05a3,3,0,0,1-2.19,3.24l-19.45,3.42a1.91,1.91,0,0,1-2.23-1.88c0-4.21-.22-13.3-.81-19-.65-6.25-.62-12.1,1.68-15.08a17.62,17.62,0,0,1,4.64-4.31l.65-2.39s8.17.54,9.62,1.82l.89,1.56Z"/><path class="cls-4" d="M59.59,62.47a1.89,1.89,0,0,0,.44,0l1.19.06c1,0,2.41.14,3.94.29s2.93.3,3.94.42l1.19.14a1.84,1.84,0,0,0,.44,0,2.05,2.05,0,0,0-.43-.1c-.28-.06-.68-.13-1.19-.2-1-.16-2.39-.35-3.93-.49s-2.94-.21-4-.22H60A1.38,1.38,0,0,0,59.59,62.47Z"/><g class="cls-5"><path d="M67,76.39,68.7,88.06l2.19-.37s1.54,6.65,6.73,5.66l-3.21-6.21-1.6-6.37Z"/></g><path class="cls-11" d="M81.27,82.16l-12,3.51s-1.83-6.86-2.71-10.9c-1-4.43-.19-6.73,2.72-8.79a4.89,4.89,0,0,1,2.22-.86,5.27,5.27,0,0,1,5.43,3.21,49.5,49.5,0,0,1,1.94,5.58C80,77.84,81.27,82.16,81.27,82.16Z"/><path class="cls-4" d="M66.56,74.77l0,.2.12.61c.11.52.28,1.28.5,2.25.45,1.93,1.13,4.65,2,7.87l0,.09.09,0,7.55-2.2,4.45-1.3.1,0,0-.1c-1.19-4-2.18-7.49-3-9.95-.4-1.23-.76-2.2-1-2.86-.13-.32-.24-.57-.32-.74a1.27,1.27,0,0,0-.12-.25,1.8,1.8,0,0,0,.09.26l.29.76c.25.66.59,1.63,1,2.86.75,2.47,1.72,6,2.9,10l.06-.13-4.44,1.3-7.55,2.22.11.07c-.86-3.21-1.56-5.93-2-7.85l-.55-2.24L66.62,75C66.59,74.83,66.57,74.76,66.56,74.77Z"/><path class="cls-4" d="M67.37,68.09s.27-.35.76-.83a6.19,6.19,0,0,1,2.23-1.44A6.28,6.28,0,0,1,73,65.44c.68,0,1.1.16,1.11.12a1.21,1.21,0,0,0-.29-.11,4.24,4.24,0,0,0-.81-.16,5.79,5.79,0,0,0-2.7.33A6,6,0,0,0,68,67.15a8.2,8.2,0,0,0-.51.66A1,1,0,0,0,67.37,68.09Z"/><path class="cls-9" d="M80.07,82.55l.6,2,11.48-5,2.48,3.86s-9,6.78-11.83,9a5.44,5.44,0,0,1-8-1.12,18.3,18.3,0,0,1-2.71-6.33Z"/><path class="cls-10" d="M79.45,87.14c.06,0,.2-.61.54-1.31s.74-1.18.7-1.23a2.68,2.68,0,0,0-.88,1.14A2.72,2.72,0,0,0,79.45,87.14Z"/><path class="cls-9" d="M90.37,80.49l1.52-1.06c.8-2.43,2.3-6.84,2.74-6.7s.7.58.56,1.51c-.34,2.24.21,3.23,1.5,2.94.45-.11,3.89-.51,3.89-.51s1.08.31.42,1.46a1.23,1.23,0,0,1-.91,1.71s-.17,1.57-1.24,1.63A26.54,26.54,0,0,1,95.31,83l-1.93,1.18Z"/><path class="cls-10" d="M98.07,79a5,5,0,0,0,1.64-.41c.32-.1.62-.2.86-.26l0-.17-.15,0,0,.16a1.81,1.81,0,0,0,.6-.24,1.79,1.79,0,0,0-.64.08l0,.16.15,0,0-.17a5.19,5.19,0,0,0-.89.24A12.46,12.46,0,0,0,98.07,79Z"/><path class="cls-10" d="M97.78,80.75A3,3,0,0,0,99,80.43a3.26,3.26,0,0,0,1.11-.6,4.71,4.71,0,0,0-1.19.41A5,5,0,0,0,97.78,80.75Z"/><path class="cls-7" d="M81.44,158.18c0,.9-12.28,38.5-12.28,38.5H64.23l12.24-38.5Z"/><rect class="cls-7" x="94.09" y="156.6" width="4.92" height="40.08" transform="translate(193.11 353.28) rotate(180)"/><rect class="cls-7" x="66.88" y="168.75" width="15.67" height="3.49" transform="translate(149.43 340.98) rotate(180)"/><rect class="cls-7" x="71.82" y="155.01" width="27.25" height="3.49" transform="translate(170.89 313.51) rotate(180)"/><rect class="cls-7" x="61.99" y="181.51" width="16.22" height="3.49" transform="translate(140.19 366.51) rotate(180)"/><path class="cls-4" d="M71.66,158.61c0,.06,6.15.1,13.73.1s13.73,0,13.73-.1-6.15-.1-13.73-.1S71.66,158.55,71.66,158.61Z"/><path class="cls-4" d="M94,196.68s.1-8.21.1-18.34S94.05,160,94,160s-.11,8.21-.11,18.33S93.94,196.68,94,196.68Z"/><path class="cls-4" d="M69.16,196.68c.06,0,2.76-8.26,6-18.5s5.9-18.55,5.85-18.58-2.76,8.26-6,18.5S69.11,196.66,69.16,196.68Z"/><path class="cls-4" d="M64.15,196.68s2.76-8.26,6-18.5S76.1,159.63,76,159.6s-2.76,8.26-6,18.5S64.1,196.66,64.15,196.68Z"/><path class="cls-7" d="M205.49,177l8.71,8-9.86,10.89c-1-1,2-8.53,2-8.53l-5.44-5.26Z"/><path class="cls-6" d="M209,183.52a.6.6,0,0,1,.79.15.57.57,0,0,1-.15.78.64.64,0,0,1-.83-.17.59.59,0,0,1,.24-.79"/><path class="cls-4" d="M214.2,185l-.91-.84-9.08,10.83s-.22.68.17.93Z"/><path class="cls-6" d="M206.16,187.44c.05,0,.32-.2.73-.31s.75,0,.78-.11-.36-.27-.85-.13S206.1,187.4,206.16,187.44Z"/><path class="cls-6" d="M205.6,189c0,.06.34-.09.73-.07s.67.19.71.13-.2-.36-.68-.38S205.55,189,205.6,189Z"/><path class="cls-6" d="M206.38,190.89c.06,0-.09-.33-.56-.48s-.76,0-.73.08.32,0,.65.16S206.32,190.94,206.38,190.89Z"/><path class="cls-6" d="M205,186.18c.07,0,.22-.29.51-.57s.6-.43.58-.5-.41,0-.75.32S204.9,186.17,205,186.18Z"/><path class="cls-6" d="M203.9,184.75s.25-.16.5-.55a3.57,3.57,0,0,0,.34-.73,3.1,3.1,0,0,0,.11-.46.8.8,0,0,0,0-.28.33.33,0,0,0-.27-.28.38.38,0,0,0-.33.12.9.9,0,0,0-.15.23,2.22,2.22,0,0,0-.2.45,2.73,2.73,0,0,0-.12.8,1.17,1.17,0,0,0,.15.72s0-.28,0-.71a2.83,2.83,0,0,1,.16-.74,2.42,2.42,0,0,1,.19-.4c.07-.14.16-.24.24-.22s0,0,0,.06a.53.53,0,0,1,0,.21,3.12,3.12,0,0,1-.09.44,4.38,4.38,0,0,1-.28.71C204.05,184.51,203.88,184.73,203.9,184.75Z"/><path class="cls-6" d="M204,184.75s-.07-.29-.39-.62a2.81,2.81,0,0,0-.67-.47,3,3,0,0,0-.45-.16.63.63,0,0,0-.59.1.34.34,0,0,0-.06.37,1,1,0,0,0,.15.23,1.68,1.68,0,0,0,.37.34,1.7,1.7,0,0,0,.77.27.94.94,0,0,0,.73-.14,5.89,5.89,0,0,1-.7,0,1.69,1.69,0,0,1-.67-.29,1.46,1.46,0,0,1-.31-.3c-.1-.12-.15-.25-.1-.28a.4.4,0,0,1,.35,0,2.41,2.41,0,0,1,1.06.52C203.86,184.53,204,184.77,204,184.75Z"/><path class="cls-7" d="M207.6,184.66l-.12,11.81-14.69-.06c.1-1.41,7.71-4.19,7.71-4.19l-.24-7.57Z"/><path class="cls-6" d="M205,191.6a.61.61,0,0,1,.42.69.58.58,0,0,1-.68.41.62.62,0,0,1-.43-.73.6.6,0,0,1,.75-.35"/><path class="cls-4" d="M207.49,196.49v-1.26l-14.13.48s-.65.28-.57.75Z"/><path class="cls-4" d="M200.26,192.14c0,.07.36.11.71.34s.54.54.61.51,0-.45-.47-.72S200.24,192.08,200.26,192.14Z"/><path class="cls-4" d="M198.72,192.77c0,.07.29.2.53.5s.31.63.39.62.11-.4-.19-.78S198.72,192.71,198.72,192.77Z"/><path class="cls-4" d="M197.83,194.61c.07,0,.17-.34,0-.73s-.52-.55-.55-.49.18.27.32.59S197.76,194.61,197.83,194.61Z"/><path class="cls-4" d="M200.4,190.41c0,.07.36,0,.76,0s.72.16.76.1-.27-.32-.74-.35S200.36,190.36,200.4,190.41Z"/><path class="cls-4" d="M206.86,117.31a20.86,20.86,0,0,1,3.07,4.31c1,2.12,2.56,6.62,2.56,6.62s1.94,6.87,1.51,10.11-3.33,25.4-3.33,25.4.57,17.56-1.91,25.38l-.46,2.07L200,189.73h0l-1.83-43.48-5.06-28.75Z"/><path class="cls-7" d="M196.28,119.16a.91.91,0,0,1,.32-.48.62.62,0,0,1,.57-.05.59.59,0,0,1,.36.55.61.61,0,0,1-.38.55.65.65,0,0,1-.57-.08.91.91,0,0,1-.3-.49s0,.06,0,.18a.66.66,0,0,0,.23.42.75.75,0,0,0,1.24-.57.78.78,0,0,0-.5-.74.74.74,0,0,0-.72.12.64.64,0,0,0-.24.42C196.25,119.1,196.27,119.16,196.28,119.16Z"/><path class="cls-4" d="M186.67,123.28s-3,27.57-3.48,32.3,16.75,30,16.75,30l7.25-8.56-11.06-20.57L199.85,136,195,117.47l-7.63.1Z"/><path class="cls-7" d="M210,182.49s0,.21-.06.6-.15,1-.29,1.73c-.27,1.5-.72,3.68-1.32,6.39v.06h-.06L200,189.81h-.07v-.07c-.23-5.68-.5-12.47-.8-19.76-.31-7.84-.59-15.11-.82-21.07h0c-.62-4.79-1.13-8.75-1.49-11.52-.18-1.38-.31-2.46-.41-3.21,0-.36-.07-.64-.1-.84s0-.29,0-.29,0,.1,0,.29l.12.84c.1.74.25,1.82.44,3.2.38,2.77.91,6.73,1.56,11.51h0c.24,6,.54,13.23.86,21.07.28,7.29.55,14.08.77,19.77l-.07-.08,8.28,1.49-.07.05c.62-2.72,1.08-4.89,1.38-6.38.15-.75.25-1.33.32-1.72q0-.3.06-.45Z"/><path class="cls-7" d="M197.48,128.52a1.92,1.92,0,0,0-.45,0,2,2,0,0,1-1.16-.2,1,1,0,0,1-.47-.63,3.87,3.87,0,0,1-.14-.94c-.06-.69-.12-1.45-.18-2.24-.1-1.59-.16-3-.2-4.08,0-.49,0-.9,0-1.23a2.1,2.1,0,0,0,0-.46,2.1,2.1,0,0,0,0,.46c0,.29,0,.71,0,1.23,0,1,0,2.5.14,4.09.05.8.12,1.55.19,2.24a4.55,4.55,0,0,0,.16,1,1.22,1.22,0,0,0,.56.69,1.49,1.49,0,0,0,.7.18,3,3,0,0,0,.54,0A1.38,1.38,0,0,0,197.48,128.52Z"/><path class="cls-7" d="M187,123.3a2.88,2.88,0,0,0,.79-.41,8.55,8.55,0,0,0,1.63-1.43,8.22,8.22,0,0,0,1.2-1.8,2.86,2.86,0,0,0,.31-.84A11.1,11.1,0,0,1,187,123.3Z"/><path class="cls-4" d="M189.8,61.89A6,6,0,0,0,188,67.13c.14.93.48,2-.07,2.73s-1.73.81-2.25,1.58.05,2.13-.11,3.21a2.16,2.16,0,0,1-2.18,1.77,8.35,8.35,0,0,0,4.31,1.5l1-1.58a1.56,1.56,0,0,0,.25,1.89,3.57,3.57,0,0,0,1.82.9A10.69,10.69,0,0,0,200,76.91"/><path class="cls-4" d="M207.92,68.82c-.28-.7-.72-1.33-.94-2.06-.45-1.55.19-3.38-.69-4.75a4.46,4.46,0,0,0-2.94-1.63,7.28,7.28,0,0,1-3.2-1.21c-.65-.54-1.05-1.33-1.69-1.88a5.13,5.13,0,0,0-3.4-1,7.22,7.22,0,0,0-3.57.86,3.94,3.94,0,0,0-2,2.94,12.07,12.07,0,0,1-.07,1.81,12.79,12.79,0,0,1-.88,1.78,3.17,3.17,0,0,0,1.07,3.73l9.27,10.29c1.82.53,6.07-.6,7.34-2S208.65,70.58,207.92,68.82Z"/><path class="cls-12" d="M189.71,66.05c.17-2.51,1.83-5.58,4.33-5.31l7.79,2a1.46,1.46,0,0,1,1.31,1.49L202.26,83l.06,0s-3.11,7.39-8.26,5.77c-1-.33-.16-3.53-.36-4.68l-.09-3c0-1.52,0-2.14,0-2.12s-3.2-.54-3.86-4.72A45.17,45.17,0,0,1,189.71,66.05Z"/><path class="cls-4" d="M190.31,69.61a.54.54,0,0,0,.51.55.52.52,0,0,0,.56-.49.54.54,0,0,0-.52-.54A.52.52,0,0,0,190.31,69.61Z"/><path class="cls-4" d="M195.49,69.79a.54.54,0,0,0,.51.54.51.51,0,0,0,.56-.48.53.53,0,0,0-.52-.54A.51.51,0,0,0,195.49,69.79Z"/><path class="cls-4" d="M190.23,67.89c.06.09.54-.26,1.16-.21s1.06.44,1.13.35,0-.2-.21-.38a1.4,1.4,0,0,0-.89-.4,1.44,1.44,0,0,0-.94.28C190.27,67.69,190.2,67.85,190.23,67.89Z"/><path class="cls-4" d="M195.81,68.12c.08.09.54-.3,1.21-.32s1.17.32,1.24.23,0-.2-.27-.36a1.64,1.64,0,0,0-1-.29,1.61,1.61,0,0,0-1,.37C195.84,67.93,195.77,68.09,195.81,68.12Z"/><path class="cls-4" d="M194,72.21a3.67,3.67,0,0,0-.94-.17c-.14,0-.28-.05-.31-.15a.78.78,0,0,1,.1-.43l.44-1.12a18.34,18.34,0,0,0,1-2.93,20.43,20.43,0,0,0-1.21,2.84c-.15.39-.29.77-.42,1.13a.83.83,0,0,0-.08.57.4.4,0,0,0,.24.22.8.8,0,0,0,.25,0A3.71,3.71,0,0,0,194,72.21Z"/><path class="cls-13" d="M193.6,79a10.68,10.68,0,0,0,5.59-1.48s-1.41,2.92-5.59,2.52Z"/><path class="cls-13" d="M194.32,73.64a1,1,0,0,1,1-.17.94.94,0,0,1,.56.49.6.6,0,0,1-.11.68.71.71,0,0,1-.78,0,2.21,2.21,0,0,1-.62-.6.59.59,0,0,1-.12-.2.2.2,0,0,1,0-.21"/><path class="cls-4" d="M195.71,73c-.1,0-.1.62-.64,1.06s-1.2.38-1.2.46.14.13.42.13a1.55,1.55,0,0,0,1-.34,1.36,1.36,0,0,0,.49-.9C195.82,73.1,195.75,73,195.71,73Z"/><path class="cls-4" d="M195.72,66.57c.06.16.63.09,1.31.17s1.22.27,1.31.13-.06-.22-.28-.37a2.08,2.08,0,0,0-1-.34,2.12,2.12,0,0,0-1,.12C195.82,66.38,195.69,66.5,195.72,66.57Z"/><path class="cls-4" d="M190.65,65.54c.12.13.57,0,1.11,0s1,.09,1.12,0,0-.19-.23-.32a1.73,1.73,0,0,0-.9-.21,1.54,1.54,0,0,0-.89.26C190.66,65.34,190.6,65.47,190.65,65.54Z"/><path class="cls-4" d="M203.55,63.2a3.44,3.44,0,0,0-1.81-1,38.45,38.45,0,0,0-9-1.58,1.56,1.56,0,0,0,.68,1.87,7.14,7.14,0,0,0,2,.73,2.68,2.68,0,0,1,1.75,1.19c.35.68.16,1.54.48,2.24.54,1.21,2.3,1.49,2.84,2.7.4.92-.07,2-.13,3a3.58,3.58,0,0,0,3.81,3.81l-.18-10.76A3.58,3.58,0,0,0,203.55,63.2Z"/><path class="cls-4" d="M211.41,71.68c-.6-.46-1.34-.85-1.61-1.55-.41-1,.34-2.33-.27-3.25s-2-.68-2.55-1.54c-.41-.67,0-1.32-.23-1.92a1.66,1.66,0,0,0-1.71-1l-4.35,7.43c-.27,2.4-.63,3.7,0,5a11.82,11.82,0,0,1,.92,2.25,2.32,2.32,0,0,1-.59,2.25c2.93,0,5.55-1.72,8-3.39l2.56-1.75a2,2,0,0,0,.69-.67C212.55,72.94,212,72.14,211.41,71.68Z"/><path class="cls-7" d="M209,75.33a1.9,1.9,0,0,1-.3.08,2.72,2.72,0,0,1-.91,0,2.64,2.64,0,0,1-1.32-.59,2.71,2.71,0,0,1-1-1.64,2.82,2.82,0,0,1,0-1.12,4.34,4.34,0,0,1,.46-1.12,4.1,4.1,0,0,0,.47-1.17,1.43,1.43,0,0,0-.24-1.22,2.63,2.63,0,0,0-1.26-.54,1.32,1.32,0,0,1-.66-.41,1.39,1.39,0,0,1-.26-.75,8.77,8.77,0,0,1,.22-1.55,1.67,1.67,0,0,0,0-.74,1.1,1.1,0,0,0-.46-.56,2.88,2.88,0,0,0-1.51-.28,3.23,3.23,0,0,1-1.53-.33,2.79,2.79,0,0,1-1.11-1,4.9,4.9,0,0,1-.49-1.37,6.45,6.45,0,0,0-.38-1.29,2.84,2.84,0,0,0-.76-1,3.33,3.33,0,0,0-2.09-.76,3.27,3.27,0,0,0-1.77.51,3.84,3.84,0,0,0-1.06.94,5.2,5.2,0,0,0-.62,1,.32.32,0,0,1,0-.08l.08-.22a4.41,4.41,0,0,1,.47-.78,3.77,3.77,0,0,1,1.06-1,3.32,3.32,0,0,1,1.82-.55,3.48,3.48,0,0,1,2.18.77,3,3,0,0,1,.8,1,6.44,6.44,0,0,1,.41,1.31,4.08,4.08,0,0,0,.47,1.32,2.65,2.65,0,0,0,1,1,3,3,0,0,0,1.47.31,3,3,0,0,1,1.58.3,1.23,1.23,0,0,1,.54.65,1.93,1.93,0,0,1,.06.82,8.57,8.57,0,0,0-.22,1.52,1.13,1.13,0,0,0,.22.65,1.21,1.21,0,0,0,.58.37c.22.07.46.12.69.2a1.32,1.32,0,0,1,.63.38,1.6,1.6,0,0,1,.28,1.36,4.44,4.44,0,0,1-.49,1.2,4.24,4.24,0,0,0-.46,1.09,2.76,2.76,0,0,0,0,1.07,2.7,2.7,0,0,0,.9,1.59,2.81,2.81,0,0,0,1.27.6A3.62,3.62,0,0,0,209,75.33Z"/><path class="cls-4" d="M212.5,70a.7.7,0,0,1,.11.23,1.05,1.05,0,0,1-.07.74,1.19,1.19,0,0,1-.34.42,1.24,1.24,0,0,1-.61.21,1.45,1.45,0,0,1-1.34-.72A1.82,1.82,0,0,1,210,70a2.58,2.58,0,0,1,.13-1,6,6,0,0,0,.51-2,1.37,1.37,0,0,0-.41-1,1.54,1.54,0,0,0-1.09-.25,3.64,3.64,0,0,1-1.27,0,1.14,1.14,0,0,1-.55-.4,1.51,1.51,0,0,1-.26-.63,5.13,5.13,0,0,1,0-1.3,2.84,2.84,0,0,0-.16-1.2,3.05,3.05,0,0,0-1.49-1.68,4.32,4.32,0,0,0-2.05-.31,6,6,0,0,1-1.87-.15,3.87,3.87,0,0,1-1.37-.73,3.77,3.77,0,0,1-.78-.86,2.67,2.67,0,0,1-.41-.9,4.64,4.64,0,0,0,.47.86,3.69,3.69,0,0,0,.78.83,3.75,3.75,0,0,0,1.34.68,6,6,0,0,0,1.83.13,4.45,4.45,0,0,1,2.13.31,3.11,3.11,0,0,1,1.75,3,4.84,4.84,0,0,0,0,1.26,1.09,1.09,0,0,0,.7.9,3.74,3.74,0,0,0,1.21,0,1.59,1.59,0,0,1,1.19.29,1.51,1.51,0,0,1,.47,1.09,2.91,2.91,0,0,1-.19,1.11c-.12.34-.25.66-.35,1a2.79,2.79,0,0,0-.13.93,1.83,1.83,0,0,0,.24.82,1.36,1.36,0,0,0,1.23.68,1,1,0,0,0,.57-.18,1.07,1.07,0,0,0,.33-.38,1,1,0,0,0,.1-.7C212.54,70.09,212.49,70,212.5,70Z"/><path class="cls-4" d="M181.92,74a1.13,1.13,0,0,0,.06.77,1,1,0,0,0,.65.56,1,1,0,0,0,1.05-.37,1,1,0,0,0,.21-.63,2.27,2.27,0,0,0-.17-.73,4.29,4.29,0,0,1-.55-1.64,2.38,2.38,0,0,1,.76-1.75,2.65,2.65,0,0,1,.88-.54,3.59,3.59,0,0,1,1-.23,5.21,5.21,0,0,0,1-.18,1.32,1.32,0,0,0,.75-.55,1.69,1.69,0,0,0,.22-.88,3.25,3.25,0,0,0-.14-.89,6.65,6.65,0,0,1-.39-1.69,2.63,2.63,0,0,1,.41-1.45,3.52,3.52,0,0,1,.89-.88,4.86,4.86,0,0,0,.72-.58,2.17,2.17,0,0,0,.44-.65.28.28,0,0,1,0,.06.82.82,0,0,1-.05.14,1.56,1.56,0,0,1-.33.5,5.24,5.24,0,0,1-.71.61,3.28,3.28,0,0,0-.84.86,2.43,2.43,0,0,0-.38,1.39,6.74,6.74,0,0,0,.4,1.64,3.62,3.62,0,0,1,.15.94,1.79,1.79,0,0,1-.24,1,1.52,1.52,0,0,1-.83.62,6.14,6.14,0,0,1-1,.19,3.88,3.88,0,0,0-1,.21,2.64,2.64,0,0,0-.82.51,2.21,2.21,0,0,0-.72,1.63,4.14,4.14,0,0,0,.52,1.59,2.19,2.19,0,0,1,.17.78,1.12,1.12,0,0,1-.25.71,1.16,1.16,0,0,1-1.16.39,1.08,1.08,0,0,1-.69-.64,1.1,1.1,0,0,1-.07-.59A.8.8,0,0,1,181.92,74Z"/><polygon class="cls-6" points="207.68 89.21 205.53 117.79 194.95 117.47 186.8 119.12 188.97 88.13 193.34 83.2 196.35 89.14 202.28 82.29 207.68 89.21"/><path class="cls-11" d="M202.42,79.64l2.23,1.87,9.27,2.85-3.36,25,2.74,12,2.89,11.35s-8.54,2.32-10.74,1.06-4.88-13.62-5.7-16.55-2-11.64-1.46-16.29,1.54-11.48,2-13.84S202.42,79.64,202.42,79.64Z"/><path class="cls-11" d="M213.92,84.36a17.73,17.73,0,0,1,2.85,5.69c1.06,4.72,5.17,17.58,4.93,20.59s-16.17,8.48-16.17,8.48l-.65-8.39,7.41-3.9-2-7.9"/><path class="cls-11" d="M210.26,98.93s0,0,0,.14l.1.4c.09.36.21.89.38,1.56l1.46,5.82,0-.08-7.42,3.89-.05,0v.06c.19,2.55.41,5.38.63,8.39v.13l.13,0c3.12-1.1,6.48-2.38,9.86-4,1.11-.53,2.2-1.07,3.24-1.67a9.82,9.82,0,0,0,2.8-2.19,1.9,1.9,0,0,0,.23-.39,1.87,1.87,0,0,0,.07-.22,1,1,0,0,0,0-.23,8.33,8.33,0,0,0,0-.87c-.05-.57-.15-1.13-.25-1.68-.21-1.1-.45-2.16-.7-3.2-1-4.13-2.12-7.8-3-10.91-.44-1.55-.8-3-1.11-4.19a13.71,13.71,0,0,0-1.28-3c-.44-.78-.83-1.36-1.1-1.75L214,84.5l-.12-.14.1.15.3.45c.26.4.64,1,1.07,1.77a14.13,14.13,0,0,1,1.24,3c.29,1.24.65,2.65,1.07,4.2.84,3.11,1.91,6.79,2.93,10.92.25,1,.49,2.1.7,3.19.09.54.19,1.1.24,1.66a7.77,7.77,0,0,1,0,.84,1.3,1.3,0,0,1-.3.73,9.55,9.55,0,0,1-2.74,2.13c-1,.6-2.11,1.14-3.22,1.66-3.37,1.56-6.73,2.85-9.84,4l.13.08c-.23-3-.46-5.84-.66-8.38l-.05.08,7.4-3.92.05,0,0-.05c-.65-2.48-1.16-4.45-1.52-5.81l-.42-1.55-.11-.4Z"/><path class="cls-11" d="M193.6,80.22l-1.19,1.56-6.65,2.55s-.53,6.11-.53,8,.77,22.63.77,23.61-3.74,14.25-3.42,15.06,4.24,1.39,4.24,1.39,1.46-11.48,1.46-15.39.16-13.52,1-18.24,4.37-15.08,4.37-15.08Z"/><path class="cls-11" d="M185.76,84.33s-1.78.77-2,4.87-.54,13.39-.54,13.39a7.27,7.27,0,0,0-1.28,2.83c-.14,1.28-2.29,8.75-2.29,8.75l4.85,1.61,1.24-2.29,1-22.67Z"/><path class="cls-4" d="M188.19,119.16s0,0,0-.1v-.28c0-.27,0-.64,0-1.1,0-1-.06-2.34-.1-4-.07-3.4-.21-8.11-.3-13.3,0-.65,0-1.29,0-1.92s.07-1.24.12-1.86c.09-1.22.19-2.39.31-3.51s.24-2.18.41-3.17a13.57,13.57,0,0,1,.75-2.65,37.07,37.07,0,0,1,1.71-3.64c.22-.41.4-.73.52-1l.14-.25s0-.08,0-.09l-.06.08-.15.24c-.13.21-.33.53-.56,1a30.07,30.07,0,0,0-1.77,3.62,13,13,0,0,0-.79,2.68c-.18,1-.32,2.06-.43,3.18s-.23,2.3-.33,3.52c0,.61-.12,1.23-.11,1.87s0,1.28,0,1.93c.09,5.19.25,9.89.37,13.3.06,1.68.12,3.06.16,4,0,.47,0,.83,0,1.1l0,.28A.82.82,0,0,1,188.19,119.16Z"/><path class="cls-4" d="M198.69,110.64s0-.1,0-.3,0-.5.06-.88c0-.77.09-1.88.07-3.25q0-1-.09-2.25a11.37,11.37,0,0,1,.28-2.52,45,45,0,0,1,1.69-5.57c.71-1.93,1.44-3.75,2.12-5.4a22.83,22.83,0,0,0,.9-2.38,22,22,0,0,0,.48-2.19c.24-1.35.37-2.45.45-3.21,0-.38.07-.68.08-.88s0-.3,0-.3a.93.93,0,0,0,0,.3l-.12.87c-.11.76-.25,1.86-.51,3.19a21.21,21.21,0,0,1-.49,2.17,24.61,24.61,0,0,1-.92,2.35c-.69,1.64-1.42,3.46-2.13,5.41a44.34,44.34,0,0,0-1.69,5.6,11.08,11.08,0,0,0-.26,2.58c0,.8.09,1.55.1,2.23,0,1.37,0,2.48,0,3.24l0,.88A1.19,1.19,0,0,0,198.69,110.64Z"/><path class="cls-14" d="M175.34,110l4.44,6a.82.82,0,0,0,.81.31l19.22-3.63a.82.82,0,0,0,.63-1l-2.08-6.38a.81.81,0,0,0-.92-.55l-21.6,4A.81.81,0,0,0,175.34,110Z"/><path class="cls-4" d="M216.77,107.36a1.81,1.81,0,0,0-.65-.53,4,4,0,0,0-3.88,0,1.88,1.88,0,0,0-.66.51s.27-.17.73-.38a4.33,4.33,0,0,1,3.74,0C216.5,107.19,216.75,107.38,216.77,107.36Z"/><g class="cls-5"><polygon points="212.66 118.59 204.62 121.55 203.83 118.39 200.24 119.12 199.75 117.3 205.4 116.51 205.45 119.12 212.19 116.58 212.66 118.59"/></g><path class="cls-12" d="M204.93,111.41s-1.51-1.29-2-1.58-2.06-1.34-2.78-1.23l-.73.11.66,1.92s-5.83-.87-6.63.07.87,1.12,1.74,1.23,3.66.58,3.66.58-7.28-.8-7.78,0,.7,1,.7,1l4.82,1.91.56.22.55.73s2,1.37,2.59,1.19,4.94-1,4.94-1Z"/><path class="cls-13" d="M199.87,114.69a6.75,6.75,0,0,0-1.12-.34c-.71-.18-1.7-.38-2.8-.54s-2.11-.22-2.84-.25a7.13,7.13,0,0,0-1.18,0,7.4,7.4,0,0,0,1.18.13c.72.06,1.72.16,2.81.31s2.08.34,2.79.47A8,8,0,0,0,199.87,114.69Z"/><path class="cls-13" d="M199.21,116.1a2.76,2.76,0,0,0-1-.38,2.81,2.81,0,0,0-1.1-.18,3,3,0,0,0,1.05.38A3.32,3.32,0,0,0,199.21,116.1Z"/><path class="cls-12" d="M181.31,107.71s-.88-1-1.54-1-1.06.34-1.06.8v.68Z"/><path class="cls-4" d="M185.36,89.46a.94.94,0,0,0,0,.27l-.06.77c-.05.66-.09,1.63-.11,2.83,0,2.39.07,5.7.31,9.34s.44,6.93.49,9.32c0,1.2,0,2.16,0,2.83v.77a1.1,1.1,0,0,0,0,.27.94.94,0,0,0,0-.27c0-.2,0-.45,0-.77,0-.67,0-1.63,0-2.83,0-2.39-.2-5.7-.43-9.34s-.38-6.93-.37-9.32c0-1.19,0-2.16,0-2.83,0-.32,0-.57,0-.77A1.17,1.17,0,0,0,185.36,89.46Z"/><path class="cls-4" d="M209.68,98.1a3.85,3.85,0,0,0,0-.54c0-.34,0-.84.07-1.45a25.31,25.31,0,0,1,.78-4.73,26,26,0,0,1,1.68-4.49c.27-.55.5-1,.67-1.29a4.13,4.13,0,0,0,.24-.48,1.8,1.8,0,0,0-.31.44c-.19.29-.44.72-.73,1.27a21.91,21.91,0,0,0-1.75,4.5,22.85,22.85,0,0,0-.73,4.77c0,.62,0,1.12,0,1.46A2.34,2.34,0,0,0,209.68,98.1Z"/><path class="cls-12" d="M176.08,111a2.06,2.06,0,0,0-.41,1.55c.23.69,1.86,2,1.86,2s.63.75.92.75,1.65.25,1.56-.57-1.3-1-1.3-1,0-.3-.55-.66l-1.15-.82Z"/><path class="cls-13" d="M177.25,114.29s.06.12.25.23a1,1,0,0,0,.82.07.81.81,0,0,0,.38-.3.59.59,0,0,0,.1-.37c0-.23-.12-.33-.14-.31a2.52,2.52,0,0,1,0,.3.65.65,0,0,1-.42.49,1,1,0,0,1-.68,0C177.38,114.32,177.27,114.26,177.25,114.29Z"/><path class="cls-4" d="M185.64,106.38a4.47,4.47,0,0,0-.63-1.82,4.57,4.57,0,0,0-1.17-1.52c-.05,0,.5.7,1,1.62S185.58,106.4,185.64,106.38Z"/><text class="cls-15" transform="translate(119.78 54.41)">ROF</text></svg>