<svg  id="Capa_1" data-name="Capa 1" xmlns="http://www.w3.org/2000/svg" xmlns:xlink="http://www.w3.org/1999/xlink" viewBox="0 0 292.58 206.27"><defs><style>.cls-1,.cls-13,.cls-3,.cls-5,.cls-8{fill:none;}.cls-2{clip-path:url(#clip-path);}.cls-3,.cls-5{stroke:#556d9d;stroke-miterlimit:22.93;}.cls-3{stroke-width:9.23px;}.cls-10,.cls-12,.cls-13,.cls-14,.cls-15,.cls-18,.cls-19,.cls-20,.cls-21,.cls-3,.cls-5,.cls-6,.cls-7,.cls-8,.cls-9{fill-rule:evenodd;}.cls-4{fill:#e5b683;}.cls-5{stroke-width:22px;}.cls-17,.cls-6{fill:#421;}.cls-7{fill:#fad7c9;}.cls-8{stroke:#c9955a;}.cls-13,.cls-8{stroke-linecap:round;stroke-linejoin:round;stroke-width:2.46px;}.cls-9{fill:#e28d66;}.cls-10{fill:#eea27e;}.cls-11{fill:#343434;}.cls-12{fill:#fff;}.cls-13{stroke:#421;}.cls-14{fill:#383938;}.cls-15{fill:#dbb082;}.cls-16{fill:#c7945c;}.cls-18{fill:#556d9d;}.cls-19{fill:#2c3f61;}.cls-20{fill:#374d78;}.cls-21{fill:#ffdc51;}.cls-22{fill:#3c6456;}.cls-23{clip-path:url(#clip-path-2);}</style><clipPath id="clip-path"><rect class="cls-1" width="292.58" height="206.27"/></clipPath><clipPath id="clip-path-2"><rect class="cls-1" x="136.32" y="23.98" width="17.51" height="23.46"/></clipPath></defs><g class="cls-2"><path class="cls-3" d="M117,204.11c-22.53,3.12-73.12,24.45-21.26,48.06"/><rect class="cls-4" x="125.95" y="147.98" width="38.8" height="69.9"/><rect class="cls-4" x="125.95" y="147.98" width="38.8" height="53.48"/><path class="cls-5" d="M173.35,200.26c24.48,6.57,38.12,32.1,44.29,78.92"/><path class="cls-6" d="M145.35,51.45c32.8,0,59.39,25.36,59.39,56.66s-26.59,56.66-59.39,56.66S86,139.4,86,108.11,112.55,51.45,145.35,51.45Z"/><path class="cls-7" d="M147.34,75.14c26.2,0,46.78,14.21,43.49,48.26-.93,9.69,8.5,4.57,8.5,8.07,0,28.92-24.17,52.36-54,52.36s-54-23.44-54-52.36c6.36,9.26,7.33-2.48,7.05-7.9C96.07,79.25,119.88,75.14,147.34,75.14Z"/><path class="cls-8" d="M154.2,137.69a12.66,12.66,0,0,1-17.7,0"/><path class="cls-9" d="M174,148.73c-15.47,23.55-41.85,23.55-57.32,0Z"/><path class="cls-10" d="M162.51,160.81c-10.79,7.44-23.52,7.44-34.32,0C138.49,148,152.21,148,162.51,160.81Z"/><ellipse class="cls-11" cx="127.07" cy="117.97" rx="4.65" ry="7.82"/><path class="cls-12" d="M127.75,111.34a2.74,2.74,0,1,1-2.74,2.73A2.73,2.73,0,0,1,127.75,111.34Z"/><ellipse class="cls-11" cx="163.63" cy="117.97" rx="4.65" ry="7.82"/><path class="cls-12" d="M164.31,111.34a2.74,2.74,0,1,1-2.73,2.73A2.74,2.74,0,0,1,164.31,111.34Z"/><path class="cls-13" d="M117.21,107.27c1.75-5.36,8-8.85,13.21-7.73"/><path class="cls-13" d="M173.5,107.27c-1.76-5.36-8-8.85-13.22-7.73"/><path class="cls-6" d="M163.53,67.33C184.42,75.71,201.35,88.1,201.35,95s-16.93,5.7-37.82-2.68S125.7,71.56,125.7,64.66,142.64,59,163.53,67.33Z"/><path class="cls-7" d="M84.35,113.65c3-1.27,7.7,3.78,10.53,11.29s2.72,14.64-.26,15.92-7.71-3.78-10.54-11.29S81.36,114.93,84.35,113.65Z"/><path class="cls-7" d="M205.64,113.65c-3.88-1.27-9,3.78-11.51,11.29s-1.35,14.64,2.53,15.92,9-3.78,11.5-11.29S209.51,114.93,205.64,113.65Z"/><path class="cls-6" d="M108.18,71.93C96.55,79.28,96,92,96,95.61s9.42.66,21-6.7,21-16.28,21-19.94S119.8,64.57,108.18,71.93Z"/><path class="cls-12" d="M158,148.73c-.7,6.34-25,5.69-25.2,0Z"/><path class="cls-14" d="M190.58,70.64c9.23,10,14.16,23.1,14.16,37.47,0,31.29-26.59,56.66-59.39,56.66A58.84,58.84,0,0,1,86,108.11c-1-27,21.54-56.94,49.25-55.84C148.14,42.22,176.69,55.62,190.58,70.64Z"/><path class="cls-7" d="M147.34,75.14c26.2,0,46.78,14.21,43.49,48.26-.93,9.69,8.5,4.57,8.5,8.07,0,28.92-24.17,52.36-54,52.36s-54-23.44-54-52.36c6.36,9.26,7.33-2.48,7.05-7.9C96.07,79.25,119.88,75.14,147.34,75.14Z"/><path class="cls-15" d="M168.81,150.67c-1.62,6.66-48.1,6-47.26,0A110.44,110.44,0,0,0,168.81,150.67Z"/><path class="cls-15" d="M155.46,157.81c-.7,4.52-20.94,4.09-20.57,0A31.33,31.33,0,0,0,155.46,157.81Z"/><ellipse class="cls-11" cx="127.07" cy="117.97" rx="4.65" ry="7.82"/><path class="cls-12" d="M127.75,111.34a2.74,2.74,0,1,1-2.74,2.73A2.73,2.73,0,0,1,127.75,111.34Z"/><ellipse class="cls-11" cx="163.63" cy="117.97" rx="4.65" ry="7.82"/><path class="cls-12" d="M164.31,111.34a2.74,2.74,0,1,1-2.73,2.73A2.74,2.74,0,0,1,164.31,111.34Z"/><path class="cls-6" d="M163.53,67.33C184.42,75.71,201.35,88.1,201.35,95s-16.93,5.7-37.82-2.68S125.7,71.56,125.7,64.66,142.64,59,163.53,67.33Z"/><path class="cls-7" d="M84.35,113.65c3-1.27,7.7,3.78,10.53,11.29s2.72,14.64-.26,15.92-7.71-3.78-10.54-11.29S81.36,114.93,84.35,113.65Z"/><path class="cls-7" d="M205.64,113.65c-3.88-1.27-9,3.78-11.51,11.29s-1.35,14.64,2.53,15.92,9-3.78,11.5-11.29S209.51,114.93,205.64,113.65Z"/><path class="cls-6" d="M108.18,71.93C96.55,79.28,96,92,96,95.61s9.42.66,21-6.7,21-16.28,21-19.94S119.8,64.57,108.18,71.93Z"/><path class="cls-16" d="M151.58,138.61c1.56-1.07,3.88,0,2.33,1a16.14,16.14,0,0,1-17.08,0c-1.56-1.08.54-1.92,2.32-1A15.65,15.65,0,0,0,151.58,138.61Z"/><path class="cls-17" d="M115.68,107.27c-2.5,1.67-5.12-.15-2.63-1.82,6.24-4.19,16.7-4.09,22.67.18,2.43,1.74-1,4.58-3.42,2.84C128.18,105.53,120,104.38,115.68,107.27Z"/><path class="cls-17" d="M175,107.27c2.49,1.67,5.12-.15,2.62-1.82-6.23-4.19-16.69-4.09-22.67.18-2.42,1.74,1,4.58,3.42,2.84C162.52,105.53,170.71,104.38,175,107.27Z"/><path class="cls-18" d="M164.75,183.91c16.25,11.12,27.54,35.77,27.54,64.4a99.28,99.28,0,0,1-6.18,35.09c-8.09,7.7-23.31,12.89-40.76,12.89s-32.67-5.19-40.76-12.89a99.28,99.28,0,0,1-6.18-35.09c0-28.63,11.3-53.28,27.54-64.4,0,8.28,8.69,15,19.4,15S164.75,192.19,164.75,183.91Z"/><path class="cls-19" d="M132.14,265.43c.75-6.11,3.91-43.65,6.94-51.88.69-1.86-.83-3.59-1.64-4.69-6.09-7.07,1.32-14.67,8.54-14.67s13,7.51,6.92,14.58c-.8,1.08-2.25,2.78-1.57,4.58,3,8,4.95,45.79,7,52.09,2.22,7-7.83,24.67-11.76,25.27C141.49,291.49,131.36,271.85,132.14,265.43Z"/><path class="cls-20" d="M145.89,195.37,126.53,214c-5.82-6.87-8.16-14.16-10.26-22.18,5.86-3.35,8.24-5,9.64-11.19-.74,16.95,40.4,19.26,38.57-.07,1.31,6.5,3.31,9.17,10,11.2-2.08,7.87-4.53,15.49-10.24,22.24Z"/><path class="cls-18" d="M146,194.19l-19.56,15.73c-5.81-5.45-7.62-12.3-9.72-18.65,5-3.17,7.81-5.73,9.21-10.68-.74,17.14,40.4,18.87,38.57-.05,1.31,5.15,4.37,7.58,9.52,10.78-2.08,6.24-4.2,13.24-9.92,18.6Z"/><path class="cls-18" d="M70.47,70.9C81,61.17,86.79,52.19,89.76,39.24c22.23-9.59,37.6-17.61,55.59-30,18,12.42,33.36,20.44,55.59,30,2.69,12.39,7.35,24.09,19.29,31.66-17.31,5.61-31,27.07-47.61,34.73-16.56-12.57-37.86-12.66-54.54,0C101.51,98,87.78,76.51,70.47,70.9Z"/><path class="cls-19" d="M202.88,73.35V91.52c-30.82,22.55-84.23,22.55-115.06,0V73.35C118.65,50.8,172.06,50.8,202.88,73.35Z"/><path class="cls-21" d="M145.18,48.45c-3.92,0-12.55-5.51-11.79-9.35.9-4.57,4.34-10.62,2.7-13.69-1.47-2.77-.37-3.5.62-3.13a23.72,23.72,0,0,0,8.46,1.62,23.71,23.71,0,0,0,8.45-1.62c1-.37,2.09.36.62,3.13-1.63,3.07,1.8,9.12,2.7,13.69C157.7,42.94,149.1,48.45,145.18,48.45Z"/><path class="cls-21" d="M87.82,87c1.86,0,3.38-2,3.38-4.55s-1.52-4.56-3.38-4.56-3.39,2.05-3.39,4.56S86,87,87.82,87Z"/><path class="cls-21" d="M202.88,87c1.87,0,3.39-2,3.39-4.55s-1.52-4.56-3.39-4.56-3.38,2.05-3.38,4.56S201,87,202.88,87Z"/><path class="cls-22" d="M115.29,195.31s-22.7,20.62-19.93,86.52L140.75,306l5.54-81-21-38.74S120.27,185.75,115.29,195.31Z"/><path class="cls-22" d="M177.29,195.31s22.7,20.62,19.93,86.52L151.83,306l-5.54-81,21-38.74S172.31,185.75,177.29,195.31Z"/><path class="cls-7" d="M123.88,254.42c8.62-6.51,26.34-35.37,18.44-39.82-6.28-3.53-8,16.82-15,12.16-7.8-5.18,2.54-44.25-6.58-43.63-10.34.71-1.66,32.13-9.72,31.36s3-41.27-7.78-40.18.85,37.5-7.25,37.7.23-33.7-9.64-33c-11,.79,2.16,40.09-3,39.88-8.64-.36-2.34-27.85-11-27.72-5.11.08-4.69,14.69-1.75,30.46,2.61,13.94,7.54,28,14.25,34.3C99,269.09,108.45,266.06,123.88,254.42Z"/><g class="cls-23"><image width="3532" height="1224" transform="translate(135.17 22.41) scale(0.02)" xlink:href="../logo.png"/></g><circle class="cls-1" cx="142.78" cy="110.53" r="92.61"/></g></svg>