<svg id="Capa_1" data-name="Capa 1" xmlns="http://www.w3.org/2000/svg" viewBox="0 0 784.43 719.96"><defs><style>.cls-1{fill:#e6b683;}.cls-13,.cls-2{fill:#471e00;}.cls-10,.cls-11,.cls-14,.cls-15,.cls-16,.cls-17,.cls-18,.cls-2,.cls-3,.cls-4,.cls-5,.cls-6,.cls-8,.cls-9{fill-rule:evenodd;}.cls-3{fill:#fad7c8;}.cls-4,.cls-9{fill:none;stroke-linecap:round;stroke-linejoin:round;stroke-width:2.46px;}.cls-4{stroke:#c9945a;}.cls-5{fill:#e28d66;}.cls-6{fill:#eda17d;}.cls-7{fill:#333;}.cls-8{fill:#fff;}.cls-9{stroke:#471e00;}.cls-10{fill:#383838;}.cls-11{fill:#dbaf81;}.cls-12{fill:#c7945c;}.cls-14{fill:#536c9c;}.cls-15{fill:#2b3e61;}.cls-16{fill:#364d78;}.cls-17{fill:#26292e;}.cls-18{fill:#ffdc4f;}.cls-19{fill:#3b6355;}</style></defs><rect class="cls-1" x="348.88" y="466.21" width="119.07" height="214.49"/><rect class="cls-1" x="348.88" y="466.21" width="119.07" height="164.11"/><path class="cls-2" d="M408.41,170c100.64,0,182.23,77.84,182.23,173.86S509.05,517.71,408.41,517.71,226.18,439.87,226.18,343.85,307.77,170,408.41,170Z"/><path class="cls-3" d="M414.51,242.69c80.4,0,143.55,43.6,133.47,148.08-2.87,29.74,26.06,14,26.06,24.78,0,88.73-74.16,160.65-165.63,160.65S242.79,504.28,242.79,415.55c19.53,28.4,22.51-7.62,21.63-24.24C257.2,255.29,330.25,242.69,414.51,242.69Z"/><path class="cls-4" d="M435.57,434.64a38.86,38.86,0,0,1-54.31,0"/><path class="cls-5" d="M496.36,468.52c-47.48,72.25-128.42,72.25-175.89,0Z"/><path class="cls-6" d="M461.07,505.58c-33.12,22.83-72.19,22.83-105.32,0C387.36,466.1,429.46,466.1,461.07,505.58Z"/><ellipse class="cls-7" cx="352.31" cy="374.13" rx="14.25" ry="23.98"/><path class="cls-8" d="M354.39,353.76a8.39,8.39,0,1,1-8.39,8.39A8.39,8.39,0,0,1,354.39,353.76Z"/><ellipse class="cls-7" cx="464.52" cy="374.13" rx="14.25" ry="23.98"/><path class="cls-8" d="M466.6,353.76a8.39,8.39,0,1,1-8.39,8.39A8.39,8.39,0,0,1,466.6,353.76Z"/><path class="cls-9" d="M322,341.27c5.39-16.45,24.47-27.16,40.56-23.71"/><path class="cls-9" d="M494.78,341.27c-5.38-16.45-24.46-27.16-40.55-23.71"/><path class="cls-2" d="M464.18,218.73c64.1,25.71,116.07,63.72,116.07,84.89s-52,17.5-116.07-8.21S348.12,231.7,348.12,210.53,400.08,193,464.18,218.73Z"/><path class="cls-3" d="M221.21,360.88c9.16-3.93,23.64,11.57,32.34,34.63s8.33,44.91-.82,48.84-23.64-11.58-32.34-34.63S212.06,364.8,221.21,360.88Z"/><path class="cls-3" d="M593.41,360.88c-11.89-3.93-27.69,11.57-35.3,34.63s-4.15,44.91,7.74,48.84,27.69-11.58,35.3-34.63S605.29,364.8,593.41,360.88Z"/><path class="cls-2" d="M294.34,232.83c-35.67,22.58-37.46,61.43-37.46,72.66s28.92,2,64.59-20.54,64.59-50,64.59-61.2S330,210.26,294.34,232.83Z"/><path class="cls-8" d="M447.07,468.52c-2.15,19.43-76.62,17.45-77.31,0Z"/><path class="cls-10" d="M547.19,228.89c28.33,30.64,43.45,70.88,43.45,115,0,96-81.58,173.86-182.23,173.86S229.77,439.8,226.18,343.85C223.09,261,292.29,169.13,377.32,172.51,417,141.68,504.57,182.8,547.19,228.89Z"/><path class="cls-3" d="M414.51,242.69c80.4,0,143.55,43.6,133.47,148.08-2.87,29.74,26.06,14,26.06,24.78,0,88.73-74.16,160.65-165.63,160.65S242.79,504.28,242.79,415.55c19.53,28.4,22.51-7.62,21.63-24.24C257.2,255.29,330.25,242.69,414.51,242.69Z"/><path class="cls-11" d="M480.39,474.45c-5,20.44-147.59,18.47-145,0C383.71,484.79,432.05,485,480.39,474.45Z"/><path class="cls-11" d="M439.44,496.35c-2.17,13.9-64.26,12.56-63.14,0C397.35,503.38,418.39,503.55,439.44,496.35Z"/><ellipse class="cls-7" cx="352.31" cy="374.13" rx="14.25" ry="23.98"/><path class="cls-8" d="M354.39,353.76a8.39,8.39,0,1,1-8.39,8.39A8.39,8.39,0,0,1,354.39,353.76Z"/><ellipse class="cls-7" cx="464.52" cy="374.13" rx="14.25" ry="23.98"/><path class="cls-8" d="M466.6,353.76a8.39,8.39,0,1,1-8.39,8.39A8.39,8.39,0,0,1,466.6,353.76Z"/><path class="cls-3" d="M221.21,360.88c9.16-3.93,23.64,11.57,32.34,34.63s8.33,44.91-.82,48.84-23.64-11.58-32.34-34.63S212.06,364.8,221.21,360.88Z"/><path class="cls-3" d="M593.41,360.88c-11.89-3.93-27.69,11.57-35.3,34.63s-4.15,44.91,7.74,48.84,27.69-11.58,35.3-34.63S605.29,364.8,593.41,360.88Z"/><path class="cls-2" d="M294.34,232.83c-35.67,22.58-37.46,61.43-37.46,72.66s28.92,2,64.59-20.54,64.59-50,64.59-61.2S330,210.26,294.34,232.83Z"/><path class="cls-12" d="M427.52,437.46c4.78-3.3,11.93-.12,7.15,3.18-14.48,10-37.94,10-52.42,0-4.78-3.3,1.67-5.89,7.15-3.18C400.26,442.82,417.48,442.61,427.52,437.46Z"/><path class="cls-13" d="M317.35,341.27c-7.65,5.15-15.71-.44-8.05-5.58,19.13-12.84,51.22-12.55,69.55.57,7.45,5.34-3.06,14-10.49,8.72C355.73,335.94,330.6,332.4,317.35,341.27Z"/><path class="cls-13" d="M499.47,341.27c7.65,5.15,15.71-.44,8.06-5.58-19.14-12.84-51.23-12.55-69.56.57-7.45,5.34,3.07,14,10.5,8.72C461.09,335.94,486.22,332.4,499.47,341.27Z"/><path class="cls-14" d="M270.05,720.15c0-87.85,29.08-117.94,78.93-152.07,0,25.4,26.66,46,59.53,46s59.53-20.59,59.54-46c49.84,34.13,90.08,64.22,90.08,152.07"/><path class="cls-15" d="M368.81,719.93c2.3-18.63,11.06-27.79,20.36-52.87,2.11-5.68-2.54-11-5-14.31C365.45,631.19,388.2,608,410.35,608s39.92,22.92,21.24,44.48c-2.46,3.28-6.93,8.47-4.82,14C436.1,690.83,442.88,700.74,449,720"/><path class="cls-16" d="M410.05,611.62l-59.39,57.12c-17.85-21.11-25-43.46-31.47-68.07,18-10.29,25.27-15.19,29.56-34.35-2.26,52,124,59.1,118.35-.22,4,20,10.17,28.14,30.54,34.37-6.4,24.17-13.89,47.54-31.43,68.27Z"/><path class="cls-14" d="M410.35,608l-60,48.27c-17.86-16.72-23.41-37.74-29.85-57.23,15.37-9.7,24-17.57,28.26-32.76-2.27,52.6,124,57.91,118.35-.17,4,15.83,13.42,23.26,29.24,33.08-6.39,19.15-12.91,40.66-30.45,57.08Z"/><path class="cls-17" d="M429.54,655.21c-7.78-5.41-33.12-4.28-42.26.89a16.22,16.22,0,0,1,2.11,4.78c2-1.06,4-1.94,4.73-1.48,1.7,1.08,5.39,12.16,7.7,12.33,5.41.4,1.36-15.73,6.89-14.88,5.13.78,2.79,17.83,9,18.33,3,.24,1.8-11.77,6.4-15.88a5.38,5.38,0,0,1,3.47,0A18.56,18.56,0,0,1,429.54,655.21Z"/><path class="cls-14" d="M178.64,229.68c32.34-29.85,50.06-57.41,59.2-97.14,68.2-29.43,115.38-54,170.57-92.17,55.2,38.12,102.37,62.74,170.57,92.17,8.28,38,22.55,73.9,59.21,97.14-53.12,17.21-95.25,83.06-146.09,106.58-50.82-38.58-116.19-38.86-167.37,0C273.89,312.74,231.76,246.89,178.64,229.68Z"/><path class="cls-15" d="M585,237.21v55.73c-94.59,69.22-258.48,69.22-353.08,0V237.21C326.47,168,490.36,168,585,237.21Z"/><path class="cls-18" d="M407.88,160.79c-12,0-38.49-16.9-36.17-28.7,2.77-14,13.3-32.57,8.3-42-4.51-8.48-1.17-10.73,1.89-9.59a70.34,70.34,0,0,0,51.89,0c3.06-1.14,6.4,1.11,1.89,9.59-5,9.44,5.53,28,8.29,42C446.3,143.89,419.91,160.79,407.88,160.79Z"/><path class="cls-18" d="M231.87,279.05c5.72,0,10.39-6.28,10.39-14s-4.67-14-10.39-14-10.39,6.28-10.39,14S226.15,279.05,231.87,279.05Z"/><path class="cls-18" d="M585,279.05c5.72,0,10.39-6.28,10.39-14s-4.67-14-10.39-14-10.38,6.28-10.38,14S579.23,279.05,585,279.05Z"/><path class="cls-19" d="M316.16,594s-70.5,51-62,126H394.31l.25-66-47.82-70.29S331.45,583.06,316.16,594Z"/><path class="cls-19" d="M506.42,594s72.38,51,63.89,126h-142L428,654.86l47.81-71.22S491.13,583.06,506.42,594Z"/><path class="cls-3" d="M382.47,720c26.46-20,40.89-35.68,16.65-49.31-19.27-10.83-24.44,51.61-46,37.29-23.94-15.89,7.81-135.77-20.18-133.85-31.73,2.17-5.09,98.57-29.85,96.21s9.37-126.63-23.86-123.3S281.84,662.07,257,662.7s.69-103.44-29.6-101.27c-33.77,2.42,6.63,123-9.22,122.36-26.51-1.1-7.19-85.46-33.71-85.06-15.66.24-10.93,72.84-1.89,121.22"/></svg>