<svg  id="Capa_1" data-name="Capa 1" xmlns="http://www.w3.org/2000/svg" viewBox="0 0 292.58 206.27"><defs><style>.cls-1{fill:#d1d2d4;}.cls-2{fill:#bdbec0;}.cls-3{fill:#e7e8e9;}.cls-4{fill:#f1f2f2;}.cls-5{fill:#a7a9ab;}.cls-6{fill:#e52629;}.cls-7{fill:#3e5973;}</style></defs><g id="_8" data-name="8"><polygon class="cls-1" points="57.17 12.69 57.17 174.47 188.27 174.47 188.27 87.07 188.27 12.69 57.17 12.69"/><rect class="cls-2" x="65.39" y="75.01" width="111.4" height="5.48"/><rect class="cls-2" x="65.39" y="59.13" width="104.87" height="5.48"/><rect class="cls-2" x="65.39" y="43.24" width="111.4" height="5.48"/><rect class="cls-2" x="65.39" y="27.36" width="97" height="5.48"/><rect class="cls-2" x="65.39" y="90.84" width="104.87" height="5.48"/><rect class="cls-2" x="65.39" y="106.66" width="111.4" height="5.48"/><rect class="cls-2" x="65.39" y="122.49" width="101.55" height="5.48"/><rect class="cls-2" x="65.39" y="138.32" width="111.4" height="5.48"/><rect class="cls-2" x="65.39" y="154.14" width="111.4" height="5.48"/><polygon class="cls-3" points="190.75 41.09 96.84 41.09 96.84 202.86 227.94 202.86 227.94 78.28 190.75 41.09"/><rect class="cls-2" x="105.06" y="103.41" width="111.4" height="5.48"/><rect class="cls-2" x="105.06" y="87.52" width="111.4" height="5.48"/><rect class="cls-2" x="105.06" y="71.64" width="111.4" height="5.48"/><rect class="cls-2" x="109.99" y="55.76" width="92.08" height="5.48"/><rect class="cls-2" x="111.64" y="119.23" width="104.82" height="5.48"/><rect class="cls-2" x="105.06" y="135.06" width="111.4" height="5.48"/><rect class="cls-2" x="105.06" y="150.89" width="111.4" height="5.48"/><rect class="cls-2" x="105.06" y="166.71" width="111.4" height="5.48"/><rect class="cls-2" x="105.06" y="182.54" width="111.4" height="5.48"/><polygon class="cls-4" points="190.75 78.28 227.94 78.28 190.75 41.09 190.75 78.28"/><polygon class="cls-5" points="227.94 78.28 190.75 78.28 227.94 115.47 227.94 78.28"/><polygon class="cls-2" points="123.77 120.95 131.06 120.95 176.03 120.95 181.67 120.95 181.67 141.55 181.67 142.41 181.26 142.41 173.22 142.41 133.86 142.41 125.82 142.41 123.77 120.95"/><polygon class="cls-6" points="151.62 145.93 137.05 121.1 140.84 118.88 151.3 136.69 164.45 110.22 168.38 112.18 151.62 145.93"/><path class="cls-7" d="M174.44,108.42a30.83,30.83,0,1,0-.86,46.09L185,165l-2.61,2.84,44.88,41.38,10.17-11L192.5,156.8l-2.62,2.84-11.37-10.48A30.83,30.83,0,0,0,174.44,108.42ZM145.38,153.5A23.86,23.86,0,1,1,176,139.25,23.85,23.85,0,0,1,145.38,153.5Z"/></g></svg>