<svg  id="Capa_1" data-name="Capa 1" xmlns="http://www.w3.org/2000/svg" viewBox="0 0 292.58 206.27"><defs><style>.cls-1{fill:#e0e0e0;}.cls-2{fill:#fbfbfb;}.cls-3{fill:#ebebeb;}.cls-4{fill:#263239;}.cls-5{fill:#008d36;}.cls-6{opacity:0.3;}.cls-7{fill:#fff;}.cls-8{fill:#010101;}.cls-9{fill:#ee7160;}.cls-10{fill:#455a64;}.cls-11{font-size:12px;fill:#1d1d1b;font-family:Arial-BoldMT, Arial;font-weight:700;}.cls-12{letter-spacing:-0.07em;}.cls-13{letter-spacing:-0.04em;}.cls-14{fill:#f9be9d;}.cls-15{fill:#f3986e;}.cls-16{opacity:0.6;}.cls-17{fill:#063;}.cls-18{opacity:0.2;}.cls-19{fill:#95c11f;}</style></defs><path class="cls-1" d="M203.08,160.82a14.05,14.05,0,0,0-6-2.07,4,4,0,0,0-2.85.53c-.16.12-.33.31-.29.51a.63.63,0,0,0,.28.36,8.58,8.58,0,0,0,8.88.67"/><path class="cls-1" d="M202.93,160.65a28.18,28.18,0,0,1-3.89-3.42,9.78,9.78,0,0,1-2.44-4.51,1.84,1.84,0,0,1,.19-1.51c3.1,2.43,5.54,5.56,6.14,9.44"/><path class="cls-1" d="M203.05,160.8a14.15,14.15,0,0,1,.07-5.11,6.93,6.93,0,0,1,2.72-4.21,6,6,0,0,1-.07,4,19.27,19.27,0,0,1-2.7,5.68"/><path class="cls-1" d="M206.09,166.24a8.92,8.92,0,0,0-4.83,2.45,9.1,9.1,0,0,0-2.76,4.74,6.53,6.53,0,0,0,4.46-2.82c1.11-1.43,1.88-3,3.1-4.34"/><path class="cls-1" d="M206.75,167.12a11.91,11.91,0,0,1,1.37-11.27,14.36,14.36,0,0,1-1.37,11.27"/><path class="cls-1" d="M210.76,171.9a8.59,8.59,0,0,0-8.23,4.74c-.1.2-.19.46-.06.64a.62.62,0,0,0,.55.16,7.16,7.16,0,0,0,4.25-2.19,40,40,0,0,1,3.53-3.36"/><path class="cls-1" d="M210.63,171.64a15.42,15.42,0,0,1-.15-8.57,4.18,4.18,0,0,1,1.83-2.78.4.4,0,0,1,.28,0,.35.35,0,0,1,.18.21,5.23,5.23,0,0,1,.43,2.45,15,15,0,0,1-.39,2.49,13.37,13.37,0,0,1-1.32,4.47,7.11,7.11,0,0,0-.53,1c-.16.33-.16.45-.31.71"/><path class="cls-1" d="M221.26,173.22a11,11,0,0,1,1.94-9.08c.14-.18.32-.38.55-.36s.44.5.42.85a16.46,16.46,0,0,1-2.91,8.59"/><path class="cls-1" d="M222.22,173.87a13.2,13.2,0,0,0,10.84-2.2,8.76,8.76,0,0,0-5.87-.72,8.41,8.41,0,0,0-5,2.92"/><path class="cls-1" d="M223,171.88a12.54,12.54,0,0,1,9.84-5.69,6.07,6.07,0,0,1-3.22,3.56,17.92,17.92,0,0,1-4.72,1.38,3.35,3.35,0,0,0-1.9.75"/><path class="cls-1" d="M221.46,162.2a27.83,27.83,0,0,0,1.26-5.76,9.68,9.68,0,0,0-1.14-5.7,12.53,12.53,0,0,0-.17,11.66"/><path class="cls-1" d="M227.87,159a15.48,15.48,0,0,1,11.37-7.73A12.65,12.65,0,0,1,227.87,159"/><path class="cls-1" d="M226.47,159.76c3.32.5,6.15,2.62,9.25,3.91a4.25,4.25,0,0,0,2.09.4,1.81,1.81,0,0,0,1.58-1.27,1.84,1.84,0,0,0-.55-1.63,4.62,4.62,0,0,0-1.52-.92,16.88,16.88,0,0,0-10.56-.59"/><path class="cls-1" d="M224.55,162.09a3.9,3.9,0,0,1,1.61,1.11,17.24,17.24,0,0,0,7,3.6c.27.07.62.09.75-.15s0-.47-.18-.65a9.68,9.68,0,0,0-4.23-2.88c-1.62-.6-3-1.33-5-1.17"/><path class="cls-1" d="M222.38,148a13.3,13.3,0,0,0,10.18,3.47.77.77,0,0,0,.47-.17c.25-.28-.06-.71-.35-.94a11.74,11.74,0,0,0-10.3-2.36"/><path class="cls-1" d="M225,147.08a14.2,14.2,0,0,1,12.7-2.09,10.08,10.08,0,0,1-6.05,2.65,18.91,18.91,0,0,1-6.65-.56"/><path class="cls-1" d="M223.93,140.62c-.29-3-.1-5.34-.31-8.35,0-.24-.07-.52-.29-.61s-.57.26-.68.58a9.58,9.58,0,0,0,1.28,8.31"/><path class="cls-1" d="M223.72,141a17.7,17.7,0,0,0,4.95-4.81,6.57,6.57,0,0,0,1.57-4.58,4.72,4.72,0,0,0-3.56,1.77,9.84,9.84,0,0,0-1.82,3.66c-.4,1.32-.68,2.67-1.14,4"/><path class="cls-1" d="M228.58,139.6a39.79,39.79,0,0,0,12.17-7.18,6.17,6.17,0,0,0-4.57.35,14.45,14.45,0,0,0-7.67,6.8"/><path class="cls-1" d="M225.08,142.58a24.76,24.76,0,0,0,6.77,0,29.05,29.05,0,0,0,6.31-2.1.76.76,0,0,0,.43-.33.5.5,0,0,0-.16-.54,1.41,1.41,0,0,0-.54-.25,11.7,11.7,0,0,0-6.82.41,32.51,32.51,0,0,0-6,2.77"/><path class="cls-1" d="M212.25,148.12a12,12,0,0,1-.11-9.89,7.58,7.58,0,0,1,.88,4.92c-.17,1.69-.69,3.43-.72,5.13"/><path class="cls-1" d="M206.12,145a13.76,13.76,0,0,0-10.25,4.38,9.56,9.56,0,0,0,5.61-1,28.71,28.71,0,0,0,4.82-3.22"/><path class="cls-1" d="M202,143.66a14.16,14.16,0,0,0-5.47.17,6.59,6.59,0,0,0-4.18,3.53,10,10,0,0,0,5.14-1,30.13,30.13,0,0,0,4.51-2.74"/><path class="cls-1" d="M208.1,143.72a17.37,17.37,0,0,0-5.37-2.69,5.91,5.91,0,0,0-5.61,1.36,10.32,10.32,0,0,0,5.36,1,18.35,18.35,0,0,1,5.83.6"/><path class="cls-1" d="M208.11,143.81A12.5,12.5,0,0,1,205.3,132a18,18,0,0,1,2.81,11.78"/><path class="cls-1" d="M216,135.79c.55-1.26.93-2.58,1.42-3.87a10.94,10.94,0,0,1,2-3.57A5.33,5.33,0,0,1,223,126.5a14.36,14.36,0,0,1-6.93,9.31"/><path class="cls-1" d="M214.6,137.46a18.92,18.92,0,0,0-3.16-3.84,5.26,5.26,0,0,0-4.29-1.12,10,10,0,0,0,7.45,5"/><path class="cls-1" d="M214.89,135.9a20.92,20.92,0,0,1-1.42-4.6,7.11,7.11,0,0,1,.72-4.68,10.61,10.61,0,0,1,.78,9.31"/><path class="cls-1" d="M216.05,126.62c.89-3,3.61-5.15,6.54-6.15a2.37,2.37,0,0,1,1.14-.17,1,1,0,0,1,.85.7c.11.51-.31,1-.7,1.29a22.47,22.47,0,0,1-7.83,4.33"/><path class="cls-1" d="M216.08,124.19a21.14,21.14,0,0,1,.86-5.66,7.14,7.14,0,0,1,3.56-4.3,8.46,8.46,0,0,1-1.58,5.51,25.37,25.37,0,0,0-2.89,5.08"/><path class="cls-1" d="M216,125.51c-.74-2.16-.81-4.9-2.11-6.79-.9-1.31-2.35-2.21-3.13-3.6a5.47,5.47,0,0,0,.19,4.09,11.9,11.9,0,0,0,2.39,3.43c1,1,1.77,1.79,2.66,2.87"/><path class="cls-1" d="M216.05,189.1c-.06,0-.11-14.4-.11-32.17s0-32.17.09-32.17.11,14.4.12,32.17S216.11,189.1,216.05,189.1Z"/><path class="cls-1" d="M228.64,146a3.1,3.1,0,0,1-.54.2l-1.49.51c-1.26.43-3,1.05-4.86,1.81a19.74,19.74,0,0,0-4.6,2.31,3.45,3.45,0,0,0-.93,1.22c-.14.34-.17.55-.19.54s0,0,0-.15a2.39,2.39,0,0,1,.11-.42,3.25,3.25,0,0,1,.9-1.3,7.88,7.88,0,0,1,2-1.24c.79-.37,1.68-.76,2.62-1.15,1.88-.77,3.62-1.37,4.89-1.76.64-.2,1.15-.35,1.51-.44A3,3,0,0,1,228.64,146Z"/><path class="cls-1" d="M232.76,135.81s0,.07-.15.17l-.46.43L230.42,138l-5.74,5.11c-2.24,2-4.18,3.91-5.52,5.34-.67.72-1.2,1.31-1.57,1.73l-.41.47c-.1.11-.15.17-.16.16l.12-.18.39-.5c.35-.44.86-1.05,1.52-1.78a75.4,75.4,0,0,1,5.49-5.39c2.25-2,4.3-3.78,5.79-5.07l1.77-1.52.48-.4Z"/><path class="cls-1" d="M222.26,145.12c-.06,0,.41-1.11.88-2.47s.69-2.52.75-2.51a8.57,8.57,0,0,1-.56,2.57,17,17,0,0,1-.69,1.74A2.6,2.6,0,0,1,222.26,145.12Z"/><path class="cls-1" d="M216.06,153.84a2.42,2.42,0,0,1-.34-.4l-.89-1.13c-.74-1-1.77-2.29-2.92-3.74s-2.21-2.76-3-3.7l-.91-1.12a2.74,2.74,0,0,1-.31-.43,2.65,2.65,0,0,1,.38.38c.23.25.55.62.95,1.08.8.91,1.88,2.2,3,3.66s2.17,2.79,2.88,3.78c.36.49.64.89.83,1.17A2.68,2.68,0,0,1,216.06,153.84Z"/><path class="cls-1" d="M213.3,150.3a5.16,5.16,0,0,1-1.15-2.17,6.21,6.21,0,0,1-.27-2.18H212a.76.76,0,0,1-.08.25s0-.1,0-.27h.1a9.86,9.86,0,0,0,.36,2.12A18.19,18.19,0,0,0,213.3,150.3Z"/><path class="cls-1" d="M209.74,145.82a3.6,3.6,0,0,0-.81-.47,5.31,5.31,0,0,0-2.24-.18,13.39,13.39,0,0,0-2.26.36c-.57.14-.92.25-.93.23a2.92,2.92,0,0,1,.89-.37,10.53,10.53,0,0,1,2.28-.43,4.87,4.87,0,0,1,2.32.25A1.41,1.41,0,0,1,209.74,145.82Z"/><path class="cls-1" d="M208.89,144.73s-.47-.19-1.23-.45a12.41,12.41,0,0,0-6.24-.48c-.79.15-1.28.3-1.29.26a1.54,1.54,0,0,1,.33-.14,7.34,7.34,0,0,1,.93-.26,11.11,11.11,0,0,1,6.32.48,8,8,0,0,1,.88.4A1.16,1.16,0,0,1,208.89,144.73Z"/><path class="cls-1" d="M216,140.14a26.84,26.84,0,0,1-.9-3.14,27.51,27.51,0,0,1-.7-3.18,24.22,24.22,0,0,1,.9,3.13A23.19,23.19,0,0,1,216,140.14Z"/><path class="cls-1" d="M216.09,140.14a14.49,14.49,0,0,0-1-1.88,8.3,8.3,0,0,0-1.47-1.52,1.39,1.39,0,0,1,.57.29,4.57,4.57,0,0,1,1.07,1.11A4.09,4.09,0,0,1,216.09,140.14Z"/><path class="cls-1" d="M216.05,181.42s-.07-.34-.23-.95a13.51,13.51,0,0,0-1-2.5,34.78,34.78,0,0,0-5.11-7.19c-1.14-1.31-2.25-2.54-3.18-3.71a25.07,25.07,0,0,1-2.28-3.29,15,15,0,0,1-1.15-2.44c-.11-.3-.19-.53-.23-.69l-.06-.25s.13.33.36.91a19.52,19.52,0,0,0,1.2,2.4,29.49,29.49,0,0,0,2.3,3.24c.95,1.16,2.06,2.38,3.2,3.69a32.57,32.57,0,0,1,5.08,7.27,12.27,12.27,0,0,1,.91,2.54,7.17,7.17,0,0,1,.13.72A1,1,0,0,1,216.05,181.42Z"/><path class="cls-1" d="M227.42,168.58s-.21.12-.59.33a13.22,13.22,0,0,0-1.55,1,19,19,0,0,0-2,1.85c-.71.76-1.45,1.63-2.2,2.57-1.49,1.88-2.9,3.54-3.73,4.87a18.29,18.29,0,0,0-.94,1.6,6.79,6.79,0,0,1-.33.6s0-.06,0-.16.11-.27.2-.47c.19-.4.48-1,.89-1.65a56.14,56.14,0,0,1,3.7-4.92c.75-.94,1.5-1.82,2.22-2.57a17.08,17.08,0,0,1,2.08-1.84,10.77,10.77,0,0,1,1.6-1c.2-.1.36-.16.47-.21S227.42,168.57,227.42,168.58Z"/><path class="cls-1" d="M227.65,172.74a9.07,9.07,0,0,1-1.26.19,16.41,16.41,0,0,0-3,.59,8.76,8.76,0,0,0-2.68,1.4c-.61.48-.91.87-.93.85a.89.89,0,0,1,.18-.29,5,5,0,0,1,.66-.67,8,8,0,0,1,2.7-1.49,13.21,13.21,0,0,1,3-.54A7.78,7.78,0,0,1,227.65,172.74Z"/><path class="cls-1" d="M220.15,175.31c-.06,0,.51-.91.95-2.07s.51-2.21.58-2.2a1.81,1.81,0,0,1,0,.68,7.33,7.33,0,0,1-.37,1.59,7.88,7.88,0,0,1-.73,1.46A1.87,1.87,0,0,1,220.15,175.31Z"/><path class="cls-1" d="M231.11,157.38a.74.74,0,0,1-.2.11l-.59.27c-.26.11-.58.25-.93.44s-.78.37-1.21.63l-.69.39-.72.46c-.51.31-1,.69-1.56,1.07a30.55,30.55,0,0,0-3.25,2.86,29.48,29.48,0,0,0-2.74,3.35c-.37.55-.73,1.07-1,1.59-.15.25-.3.5-.43.74l-.37.7c-.24.44-.42.86-.59,1.22a9.39,9.39,0,0,0-.41.95l-.25.6c-.06.14-.09.21-.1.2l.06-.22.22-.61c.09-.27.21-.6.37-1s.33-.8.57-1.25l.36-.71c.12-.24.27-.49.42-.75.29-.52.64-1.05,1-1.61a28.76,28.76,0,0,1,2.75-3.38,28,28,0,0,1,3.29-2.87c.55-.39,1.06-.76,1.58-1.07l.73-.45c.25-.13.48-.25.7-.38.44-.25.86-.43,1.23-.61s.68-.3.94-.4l.61-.24Z"/><path class="cls-1" d="M222.11,163.42a1.38,1.38,0,0,1,.49-.74,3.17,3.17,0,0,1,2-.77,5.52,5.52,0,0,1,2.09.41,3.17,3.17,0,0,1,.8.39,5.15,5.15,0,0,1-.84-.25,6.67,6.67,0,0,0-2.05-.34,3.3,3.3,0,0,0-1.9.67A4.36,4.36,0,0,0,222.11,163.42Z"/><path class="cls-1" d="M220.76,164.8a7.63,7.63,0,0,0,.57-1.84,7.42,7.42,0,0,0-.13-1.92,1.13,1.13,0,0,1,.23.54,3.59,3.59,0,0,1,.1,1.41,3.64,3.64,0,0,1-.42,1.35C220.94,164.65,220.78,164.82,220.76,164.8Z"/><path class="cls-1" d="M206.1,183.49a47.71,47.71,0,0,0,4.52,16.76h11.1A48.35,48.35,0,0,0,226,183.49Z"/><path class="cls-2" d="M224.17,192.4s-3.65.1-8.16.1-8.16-.05-8.16-.1,3.65-.11,8.16-.11S224.17,192.34,224.17,192.4Z"/><path class="cls-2" d="M223.92,194.39c0,.06-3.42.11-7.65.11s-7.65-.05-7.65-.11,3.43-.1,7.65-.1S223.92,194.33,223.92,194.39Z"/><path class="cls-2" d="M210.8,187.1a32.82,32.82,0,0,1,0,5.12,32.82,32.82,0,0,1,0-5.12Z"/><path class="cls-2" d="M216.74,187.1a32,32,0,0,1,0,5.3,35.16,35.16,0,0,1,0-5.3Z"/><path class="cls-2" d="M222.33,187.06a36.5,36.5,0,0,1,0,5.4,33.19,33.19,0,0,1,0-5.4Z"/><path class="cls-2" d="M225.62,187.1c0,.06-4.29.11-9.57.11s-9.57-.05-9.57-.11,4.28-.1,9.57-.1S225.62,187.05,225.62,187.1Z"/><rect class="cls-1" x="49.83" y="137.78" width="9.13" height="54.79"/><rect class="cls-1" x="64.51" y="137.78" width="9.13" height="54.79"/><rect class="cls-1" x="79.18" y="137.78" width="9.13" height="54.79"/><rect class="cls-1" x="93.86" y="137.78" width="9.13" height="54.79"/><rect class="cls-1" x="108.54" y="137.78" width="9.13" height="54.79"/><rect class="cls-1" x="123.21" y="137.78" width="9.13" height="54.79"/><rect class="cls-1" x="137.89" y="137.78" width="9.13" height="54.79"/><rect class="cls-1" x="44.29" y="143.97" width="101.43" height="2.94" rx="1.42"/><rect class="cls-1" x="44.29" y="185.98" width="101.43" height="2.94" rx="1.42"/><rect class="cls-1" x="184.29" y="3.83" width="50.9" height="84.25"/><rect class="cls-3" x="182.6" y="3.83" width="50.9" height="84.25"/><rect class="cls-2" x="184.77" y="5.54" width="46.56" height="80.83"/><rect class="cls-3" x="193.63" y="16.04" width="28.63" height="59.83"/><path class="cls-1" d="M193.63,54.69c-.07-5.58,5-11,10.49-11.82,2.64-.37,5.45.15,7.91-.86,4.4-1.8,5.8-7.65,10.23-9.39l.2,43.25H193.63Z"/><path class="cls-4" d="M233.3,200.81c0,.07-42,.12-93.69.12s-93.69-.05-93.69-.12,41.94-.12,93.69-.12S233.3,200.74,233.3,200.81Z"/><path class="cls-5" d="M143.51,18.8l22.31-.94a7.23,7.23,0,0,1,7.54,7.06l.79,34.47a7.23,7.23,0,0,1-6.48,7.36h0a2.39,2.39,0,0,0-2.15,2.48l2.8,72.79a9,9,0,0,1-8.62,9.37l-85.24,3.78A2.4,2.4,0,0,1,72,152.84L68.18,26.49A2.4,2.4,0,0,1,70.41,24Z"/><g class="cls-6"><path d="M71.88,150.45l.07,2.39,91.76-8.44L162,18s-22.27,3.38-22.67,3.38S71.88,150.45,71.88,150.45Z"/></g><polygon class="cls-3" points="131.9 12.02 158.52 10.4 161.27 141.38 67.55 150.89 53.75 20.59 131.9 12.02"/><path class="cls-4" d="M131.9,12l-1.38.16-4.06.46L110.9,14.37,53.76,20.68l.08-.1c3.71,34.91,8.52,80.26,13.83,130.3l-.13-.11,21-2.13,72.71-7.37-.1.12C160,84.12,159,37.14,158.47,10.4l.06,0-19.82,1.18-5.09.3L131.9,12l1.72-.12,5.09-.32,19.81-1.24h.06v.05c.57,26.75,1.58,73.72,2.81,131v.11h-.11l-72.71,7.38-21,2.13h-.12l0-.12c-5.28-50-10.08-95.39-13.77-130.3v-.09h.09l57.15-6.23,15.57-1.68,4-.43Z"/><polygon class="cls-7" points="49.09 16.24 61.78 148.07 159.94 138.82 145.78 7.09 49.09 16.24"/><path class="cls-4" d="M49.09,16.24,145.77,7h.1v.1c4,37,8.88,82.53,14.18,131.73v.12H160l-.7.07-97.46,9.17h-.11v-.11C54.23,70,49.19,17.2,49.09,16.24c.1,1,5.22,53.77,12.8,131.82l-.12-.1,97.46-9.19.69-.07-.1.13c-5.28-49.2-10.17-94.75-14.14-131.73l.11.09Z"/><path class="cls-1" d="M124.37,116.22a14.47,14.47,0,1,1,14.43,14.5A14.48,14.48,0,0,1,124.37,116.22Zm28.67.07a14.2,14.2,0,1,0-14.24,14.17A14.22,14.22,0,0,0,153,116.29Z"/><path class="cls-1" d="M126,116.22a12.62,12.62,0,1,1,12.59,12.65A12.63,12.63,0,0,1,126,116.22Zm23.37.06A10.76,10.76,0,1,0,138.61,127,10.76,10.76,0,0,0,149.39,116.28Z"/><path class="cls-1" d="M129.12,116.41a9.37,9.37,0,0,1,1-4.19l1.67.84a7.35,7.35,0,0,0-.8,3.35,7.48,7.48,0,0,0,7.45,7.49,7.35,7.35,0,0,0,3.91-1.09l1,1.59a9.33,9.33,0,0,1-14.2-8Z"/><path class="cls-1" d="M134.15,108.15a9.34,9.34,0,0,1,12.21,13.25l-1.57-1A7.48,7.48,0,0,0,138.48,109a7.32,7.32,0,0,0-3.47.84Z"/><path class="cls-4" d="M143.46,41c0,.07-18.52,1.87-41.37,4S60.7,48.88,60.7,48.82s18.51-1.87,41.37-4S143.45,40.94,143.46,41Z"/><path class="cls-4" d="M98.55,40c0,.06-8.54.93-19.09,1.92s-19.11,1.75-19.11,1.69,8.54-.93,19.09-1.93S98.54,39.9,98.55,40Z"/><path class="cls-4" d="M143.82,46.38c0,.06-18.52,1.87-41.37,4s-41.38,3.86-41.39,3.79,18.51-1.87,41.37-4S143.81,46.31,143.82,46.38Z"/><path class="cls-4" d="M144.18,51.75c0,.06-18.52,1.87-41.37,4s-41.38,3.86-41.39,3.79,18.51-1.87,41.37-4S144.17,51.68,144.18,51.75Z"/><path class="cls-4" d="M144.54,57.12c0,.07-18.52,1.87-41.37,4S61.79,65,61.78,64.93s18.51-1.87,41.37-4S144.53,57.05,144.54,57.12Z"/><path class="cls-4" d="M144.9,62.49c0,.07-18.52,1.87-41.37,4S62.15,70.37,62.14,70.3s18.51-1.87,41.37-4S144.89,62.42,144.9,62.49Z"/><path class="cls-4" d="M145.26,67.86c0,.07-18.52,1.87-41.37,4S62.51,75.74,62.5,75.68s18.51-1.87,41.37-4S145.25,67.8,145.26,67.86Z"/><path class="cls-4" d="M145.62,73.23c0,.07-18.27,1.85-40.82,4S64,81,63.94,80.94s18.27-1.84,40.83-4S145.61,73.17,145.62,73.23Z"/><path class="cls-4" d="M113.73,83.56c0,.07-11,1.12-24.64,2.34S64.42,88.07,64.42,88s11-1.11,24.64-2.34S113.73,83.5,113.73,83.56Z"/><path class="cls-8" d="M100.33,128c0,.07-6.71.69-15,1.4s-15,1.22-15,1.15,6.71-.69,15-1.39S100.33,127.89,100.33,128Z"/><path class="cls-8" d="M87.43,133.09c0,.07-3.76.44-8.41.84s-8.43.66-8.44.59,3.76-.44,8.42-.84S87.43,133,87.43,133.09Z"/><path class="cls-9" d="M86.4,95.29c0,.06-4.43.55-9.9,1.09s-9.92.93-9.93.86,4.43-.56,9.9-1.1S86.39,95.22,86.4,95.29Z"/><path class="cls-8" d="M116.91,94.69l.08,0a1.45,1.45,0,0,1,.23.11,3.21,3.21,0,0,1,.78.65,11.42,11.42,0,0,1,2,3.37,14.16,14.16,0,0,1,1,6.05,9.38,9.38,0,0,1-.33,1.84,13.08,13.08,0,0,1-.74,1.86,12.64,12.64,0,0,1-2.57,3.47,12.89,12.89,0,0,1-4,2.6,10.84,10.84,0,0,1-5.07.79,11.13,11.13,0,0,1-8.92-6.36,9.22,9.22,0,0,1-.8-2.95,7,7,0,0,1,.32-3.11,5,5,0,0,1,1.85-2.59,3.61,3.61,0,0,1,1.55-.58,3.72,3.72,0,0,1,1.65.19,4.88,4.88,0,0,1,2.54,2.11,7.74,7.74,0,0,1,1,3.22,14,14,0,0,1-1,6.75,13.22,13.22,0,0,1-4.08,5.46,12.27,12.27,0,0,1-6.13,2.47,11.54,11.54,0,0,1-6.3-1,10.76,10.76,0,0,1-4.49-4.16A10.47,10.47,0,0,1,84,109.26a7.39,7.39,0,0,1,.54-2.77,5.48,5.48,0,0,1,1.58-2.23,3.33,3.33,0,0,1,2.52-.74,3.82,3.82,0,0,1,2.22,1.23,4.83,4.83,0,0,1,1.11,2.18,6.14,6.14,0,0,1,0,2.34,11.88,11.88,0,0,1-1.65,4A18.89,18.89,0,0,1,88,116.34a20.31,20.31,0,0,1-2.47,2.27,19.77,19.77,0,0,1-2.34,1.56,18.05,18.05,0,0,1-3.57,1.58c-.85.27-1.3.36-1.3.36l.32-.11c.22-.07.55-.14,1-.3a18.79,18.79,0,0,0,3.53-1.61,20.24,20.24,0,0,0,2.32-1.57,21.92,21.92,0,0,0,2.44-2.27,18.69,18.69,0,0,0,2.28-3.07,12.16,12.16,0,0,0,1.62-3.94,6,6,0,0,0,0-2.27,4.45,4.45,0,0,0-1.07-2.09,3.6,3.6,0,0,0-2.11-1.17,3.08,3.08,0,0,0-2.36.71,5.28,5.28,0,0,0-1.52,2.15,7.57,7.57,0,0,0-.52,2.69,10.37,10.37,0,0,0,1.49,5.51,10.63,10.63,0,0,0,4.4,4.07,11.25,11.25,0,0,0,6.17,1,12,12,0,0,0,6-2.42,13.2,13.2,0,0,0,4-5.36,13.94,13.94,0,0,0,1-6.64,7.6,7.6,0,0,0-1-3.11,4.59,4.59,0,0,0-2.42-2,3.26,3.26,0,0,0-3,.35,4.81,4.81,0,0,0-1.76,2.48,6.86,6.86,0,0,0-.32,3,8.94,8.94,0,0,0,.79,2.88,10.91,10.91,0,0,0,8.73,6.25,10.63,10.63,0,0,0,5-.77,12.58,12.58,0,0,0,3.93-2.55,12.31,12.31,0,0,0,2.55-3.41,11.69,11.69,0,0,0,.74-1.83,9.1,9.1,0,0,0,.33-1.81,14.26,14.26,0,0,0-1-6,11.34,11.34,0,0,0-1.9-3.36,3.38,3.38,0,0,0-.75-.67C117,94.73,116.9,94.7,116.91,94.69Z"/><path class="cls-10" d="M124.31,29.82l0-.23-.07-.65c-.07-.59-.16-1.44-.29-2.55-.24-2.23-.59-5.47-1-9.57l.08.07L72.89,22.17h0L73,22c.47,4.47.92,8.82,1.36,13l-.13-.1L110,31.26l10.53-1.07,2.84-.28.74-.07.25,0-.24,0-.72.08-2.81.31-10.49,1.13L74.24,35.17h-.12v-.11c-.44-4.19-.89-8.55-1.36-13v-.12h.12L123,16.74H123v.08c.41,4.12.74,7.38,1,9.61l.25,2.54c0,.28,0,.49.06.65S124.31,29.82,124.31,29.82Z"/><text class="cls-11" transform="translate(83.13 31.25) rotate(-5.82)">TU<tspan class="cls-12" x="16" y="0">P</tspan><tspan class="cls-13" x="23.11" y="0">A</tspan></text><path class="cls-4" d="M179.29,52.61a1.18,1.18,0,0,1,.43-.7,3,3,0,0,1,1.85-.46,8,8,0,0,0,.75-2.44,1.57,1.57,0,0,1-.87-.25l-.14,0A1.22,1.22,0,0,1,181,47a3.52,3.52,0,0,1,1.69-1.09,5.91,5.91,0,0,0-1.31.48c-.45.14-1.07,0-1.13-.48a1.23,1.23,0,0,1,.07-.42l.27-.82A.91.91,0,0,1,181,44a2.47,2.47,0,0,1,.47-.11c.53-.14.79-.78,1.32-.92a2.37,2.37,0,0,1,1.16.17c.39.09.9,0,1-.36a3.81,3.81,0,0,1-1.33-1.12,1.29,1.29,0,0,1,.13-1.61,1.89,1.89,0,0,1,1.31-.27c.51,0,1.15.14,1.28.63a1.33,1.33,0,0,1,1.63,1l1.31-.14c-.36-.39-.89-.63-1.2-1.07s-.26-1.22.27-1.33a3.68,3.68,0,0,0,.58-.05c.13-.06.24-.18.39-.18a.52.52,0,0,1,.28.11l2.77,1.81-.75-1.74c-.23-.54-.41-1.28.07-1.61s1.15.14,1.24.7a.9.9,0,0,1,1.1.83.93.93,0,0,1,1.07.29,1,1,0,0,1,0,1.1,2.61,2.61,0,0,1,1.32.4.79.79,0,0,1,1.28-.55,1.42,1.42,0,0,1,.21-.79.47.47,0,0,1,.71-.08.93.93,0,0,1,1.51-.91l.45-.55a1.21,1.21,0,0,1,1.18.61.71.71,0,0,1-.6,1c.33,0,.26.52.07.79l-.81,1.11a1,1,0,0,1,1.28-.11.8.8,0,0,1,1.15,0,.65.65,0,0,1,1.16.2c.08-.22.37-.23.6-.21a1.55,1.55,0,0,1,.92.32c.23.23.23.71-.08.82.28-.15.64.16.65.48a1.15,1.15,0,0,1-.46.81,2.58,2.58,0,0,0-.66.7,1.33,1.33,0,0,1,.92-.2,3.54,3.54,0,0,1,1.68.34c.1-.23.42-.24.66-.19a4,4,0,0,1,2,1.09c.26.26.49.65.31,1a.91.91,0,0,1-.37.33l-1.78,1.1a4.83,4.83,0,0,1,2.44,1.72c.35.21.81.23,1.13.49s.3.94-.12.93a.73.73,0,0,1,0,1.19,1.37,1.37,0,0,1-.2.22,1.3,1.3,0,0,1-.48.25.94.94,0,0,1-.79.37,3.5,3.5,0,0,1,.84,1,1.59,1.59,0,0,1,0,1.63l-.06.07a.81.81,0,0,1-.34.5.7.7,0,0,1,.06.43,1.74,1.74,0,0,1,.39,3.05c-.41.29-1.17.23-1.21-.27a1.36,1.36,0,0,1-1,.75,1.32,1.32,0,0,1-.69,1.81,1.39,1.39,0,0,1-.44,2.28,1.07,1.07,0,0,1-2,.7,2.29,2.29,0,0,1-.8,1,.8.8,0,0,1-1.11-.29,1.47,1.47,0,0,1-2.16.7,1,1,0,0,1-1.89.16l-2.45,0a8.77,8.77,0,0,1-1.62-.12,4.33,4.33,0,0,1-1.87-.86,1.55,1.55,0,0,0-.57-.35,1.52,1.52,0,0,0-.75.12,4,4,0,0,1-3.77-.89,2.1,2.1,0,0,0-.5-.4,1.75,1.75,0,0,0-.72-.1,7.17,7.17,0,0,1-1.79-.26,1.91,1.91,0,0,1-1.26-.82c-.23-.46,0-1.17.56-1.17a1.11,1.11,0,0,0-.27-.93.68.68,0,0,0-.91,0,.49.49,0,0,0,.22.79,1,1,0,0,1-1.43-.83,1.33,1.33,0,0,1,1.33-1.24,3.09,3.09,0,0,1,0-1.48,1.09,1.09,0,0,1-1.48.16,1.88,1.88,0,0,1-1.22.88,1.12,1.12,0,0,1-1.24-.68.81.81,0,0,1,.77-1,1,1,0,0,1,.86-1.41,1.51,1.51,0,0,1,.92-1.6.79.79,0,0,1-1.13-.43c-.31.49-1.07.37-1.58.07A1.05,1.05,0,0,1,179.29,52.61Z"/><path class="cls-10" d="M179.29,52.61a.49.49,0,0,0,0,.2.81.81,0,0,0,.19.56,1.85,1.85,0,0,0,.81.57,1.83,1.83,0,0,0,.64.1.76.76,0,0,0,.64-.34h0a.82.82,0,0,0,1.18.46l0-.06a1.54,1.54,0,0,0-.95,1.64l0,0a1,1,0,0,0-.9,1.47l0-.07a.82.82,0,0,0-.82.62.89.89,0,0,0,.41,1,1.31,1.31,0,0,0,1.19.11,2.09,2.09,0,0,0,1-.81h-.09a1.15,1.15,0,0,0,1.57-.18l-.11-.05a3.15,3.15,0,0,0,0,1.52l.06-.08a1.41,1.41,0,0,0-.91.34,1.24,1.24,0,0,0-.48.88,1,1,0,0,0,.48.91,1,1,0,0,0,1.05.06l.16-.11-.19,0a.38.38,0,0,1-.27-.46.42.42,0,0,1,.46-.34.64.64,0,0,1,.56.34,1.12,1.12,0,0,1,.13.7l.07-.06a.63.63,0,0,0-.48.23.79.79,0,0,0-.22.48,1,1,0,0,0,.06.53,1.41,1.41,0,0,0,.33.43,2.62,2.62,0,0,0,.95.46,8.54,8.54,0,0,0,1,.21c.69.14,1.5-.14,1.95.51a4.14,4.14,0,0,0,3.13,1.08,6,6,0,0,0,1.13-.24.66.66,0,0,1,.5,0,4.52,4.52,0,0,1,.46.34,4.25,4.25,0,0,0,1,.58,6.3,6.3,0,0,0,2.4.35l2.46,0-.09-.08a1,1,0,0,0,2.08-.19l-.15.08a1.56,1.56,0,0,0,2.3-.74h-.18a.69.69,0,0,0,.52.43,1,1,0,0,0,.7-.07,2.36,2.36,0,0,0,.87-1.06l-.18,0a1.16,1.16,0,1,0,2.2-.76l-.06.13a1.41,1.41,0,0,0,.89-1.07,1.39,1.39,0,0,0-.42-1.39l0,.17a1.41,1.41,0,0,0,.74-1.95l-.07.15a1.46,1.46,0,0,0,1.11-.8l-.2,0a.57.57,0,0,0,.16.34.71.71,0,0,0,.32.17,1.25,1.25,0,0,0,.69-.06,1.72,1.72,0,0,0,.87-1,1.77,1.77,0,0,0-.07-1.37,1.88,1.88,0,0,0-1-1l.06.12a.73.73,0,0,0-.07-.5l0,.14a.91.91,0,0,0,.39-.56l0,0a1.54,1.54,0,0,0,.19-1.55,3.32,3.32,0,0,0-1-1.3l-.08.18a1,1,0,0,0,.89-.41l-.06,0a1.31,1.31,0,0,0,.73-.51l0,0a.81.81,0,0,0,.39-.64.87.87,0,0,0-.32-.72l-.07.19a.38.38,0,0,0,.34-.17.58.58,0,0,0,.1-.33.72.72,0,0,0-.26-.62c-.36-.29-.81-.3-1.14-.5l0,0a4.92,4.92,0,0,0-2.49-1.76l0,.19.81-.51.62-.38a4.74,4.74,0,0,0,.62-.41.62.62,0,0,0,.2-.38.82.82,0,0,0-.06-.41,2,2,0,0,0-.46-.6,4.2,4.2,0,0,0-1.25-.79,4.33,4.33,0,0,0-.7-.21,1.08,1.08,0,0,0-.4,0,.44.44,0,0,0-.35.26l.15,0a3,3,0,0,0-1.35-.33,5.25,5.25,0,0,0-.69,0,1.11,1.11,0,0,0-.69.22l.16.13c.2-.4.68-.6,1-1a.77.77,0,0,0,.09-.78.63.63,0,0,0-.29-.29.46.46,0,0,0-.44,0l.09.19a.49.49,0,0,0,.28-.3.75.75,0,0,0-.19-.72,1.23,1.23,0,0,0-.31-.19,2.4,2.4,0,0,0-.68-.13,1.1,1.1,0,0,0-.36,0,.44.44,0,0,0-.32.26l.2,0a.75.75,0,0,0-1.36-.22l.18,0a.9.9,0,0,0-1.31,0h.14a1.13,1.13,0,0,0-1.41.12l.16.13.68-.94a1.31,1.31,0,0,0,.28-.55.65.65,0,0,0,0-.34.33.33,0,0,0-.11-.17.3.3,0,0,0-.2-.06v.2a.67.67,0,0,0,.65-.4.85.85,0,0,0,0-.76,1.3,1.3,0,0,0-1.26-.65h-.05l0,0-.46.56.14,0a1,1,0,0,0-1.2-.08,1.06,1.06,0,0,0-.47,1.09l.18-.08a.49.49,0,0,0-.47-.16.68.68,0,0,0-.41.25,1.54,1.54,0,0,0-.22.84l.17-.07a.82.82,0,0,0-.92-.12.8.8,0,0,0-.53.74l.15-.08a2.64,2.64,0,0,0-1.37-.41l.07.15a1,1,0,0,0,0-1.23,1,1,0,0,0-1.17-.31l.13.09a1,1,0,0,0-1.22-.92L193,38a1.12,1.12,0,0,0-.38-.63,1,1,0,0,0-.68-.25.75.75,0,0,0-.59.44,1.33,1.33,0,0,0-.06.71,6.19,6.19,0,0,0,.46,1.25l.51,1.19.13-.11-1.71-1.12-.84-.55a2.67,2.67,0,0,0-.45-.26.44.44,0,0,0-.3.05l-.21.12a1.26,1.26,0,0,1-.45,0,.63.63,0,0,0-.48.23,1,1,0,0,0-.1,1,1.85,1.85,0,0,0,.63.75,5.12,5.12,0,0,1,.71.58l0-.14-1.31.14.09.06a1.41,1.41,0,0,0-1.73-1.1l.1,0a.91.91,0,0,0-.67-.58,3.54,3.54,0,0,0-.85-.11,2.68,2.68,0,0,0-.84.09,1.09,1.09,0,0,0-.63.56,1.55,1.55,0,0,0,.28,1.55,4.49,4.49,0,0,0,1.2.94l0-.08a.52.52,0,0,1-.45.33,1.3,1.3,0,0,1-.62-.05,4.61,4.61,0,0,0-.64-.16,1,1,0,0,0-.65.13c-.38.23-.6.6-.95.77-.16.09-.36.06-.57.14a.77.77,0,0,0-.39.48c-.12.37-.23.73-.34,1.09a.64.64,0,0,0,0,.57.79.79,0,0,0,.47.31,1.45,1.45,0,0,0,.55,0,2.62,2.62,0,0,0,.49-.19,2.63,2.63,0,0,1,.9-.32l0-.1a6.64,6.64,0,0,0-1.07.52,1.91,1.91,0,0,0-.76.81,1.42,1.42,0,0,0-.07,1,.89.89,0,0,0,.65.65h0a1.55,1.55,0,0,0,.89.26l0,0a7.53,7.53,0,0,1-.74,2.44h0a4.45,4.45,0,0,0-1.23.15,1.79,1.79,0,0,0-.74.43,1.23,1.23,0,0,0-.27.44.62.62,0,0,0,0,.16,1.18,1.18,0,0,1,.32-.58,1.63,1.63,0,0,1,.73-.41,4.84,4.84,0,0,1,1.23-.14h0a7.84,7.84,0,0,0,.77-2.46v0h0a1.56,1.56,0,0,1-.85-.24h0a.82.82,0,0,1-.59-.6,1.43,1.43,0,0,1,.07-.95,2,2,0,0,1,.73-.76,6.11,6.11,0,0,1,1.06-.5l.3-.12-.32,0a2.67,2.67,0,0,0-1,.32,2.68,2.68,0,0,1-.47.18,1.16,1.16,0,0,1-.49,0,.62.62,0,0,1-.4-.26.57.57,0,0,1,0-.48l.34-1.07a.63.63,0,0,1,.33-.41,5.41,5.41,0,0,0,.57-.15c.4-.19.62-.57,1-.77a1.42,1.42,0,0,1,1.19.05,1.55,1.55,0,0,0,.68.06.69.69,0,0,0,.57-.43v-.05l0,0a4.34,4.34,0,0,1-1.17-.91,1.4,1.4,0,0,1-.25-1.4.9.9,0,0,1,.54-.47,2.32,2.32,0,0,1,.79-.09,3.09,3.09,0,0,1,.8.11.73.73,0,0,1,.56.48l0,.07.08,0a1.26,1.26,0,0,1,1.53,1v.07H188l1.31-.13.17,0-.12-.12a5.82,5.82,0,0,0-.72-.61A1.68,1.68,0,0,1,188,40a.87.87,0,0,1,.07-.83.45.45,0,0,1,.36-.17A1.32,1.32,0,0,0,189,39c.17-.08.28-.2.39-.16a2.49,2.49,0,0,1,.4.24l.84.55,1.71,1.12.25.16-.11-.27-.51-1.19a5.36,5.36,0,0,1-.44-1.21,1,1,0,0,1,0-.6.54.54,0,0,1,.44-.33.9.9,0,0,1,.85.72l0,.11.1,0a.81.81,0,0,1,1,.74V39l.13,0a.84.84,0,0,1,.95.25.87.87,0,0,1,0,1l-.12.15h.19a2.51,2.51,0,0,1,1.27.38l.16.1v-.18a.7.7,0,0,1,1.12-.48l.16.16v-.22a1.24,1.24,0,0,1,.18-.73c.12-.18.44-.25.56-.09l.28.37-.1-.45a.83.83,0,0,1,1.34-.81l.08.06.06-.08c.15-.18.31-.36.46-.55l-.07,0a1.13,1.13,0,0,1,1.07.53c.18.35-.09.92-.49.88v.2c.06,0,.09,0,.11.09a.49.49,0,0,1,0,.24,1.14,1.14,0,0,1-.25.47l-.68.94.15.14a1,1,0,0,1,1.15-.11l.07.06.06-.07a.69.69,0,0,1,1,0l.11.12.06-.14c.17-.38.93-.26,1,.16l0,.52.15-.5c0-.13.27-.16.47-.14a2.44,2.44,0,0,1,.62.13.54.54,0,0,1,.38.38c.05.18,0,.39-.16.44l.09.19c.14-.09.36,0,.45.21a.58.58,0,0,1-.09.57c-.23.38-.72.58-1,1.06l-.24.46.4-.33c.31-.24.8-.16,1.23-.15a2.66,2.66,0,0,1,1.26.3l.11.06,0-.11c.06-.15.31-.17.52-.13a3.86,3.86,0,0,1,.66.2,3.8,3.8,0,0,1,1.18.74,1.41,1.41,0,0,1,.41.54.44.44,0,0,1-.08.54,5.49,5.49,0,0,1-.59.39l-.62.38-.81.51-.2.12.22.07a4.67,4.67,0,0,1,2.38,1.69h0c.39.23.83.25,1.11.48a.53.53,0,0,1,.18.45c0,.17-.09.31-.23.3l-.33,0,.27.21a.65.65,0,0,1,.24.54.57.57,0,0,1-.29.47h0v0a1.09,1.09,0,0,1-.62.43h0l0,0a.82.82,0,0,1-.71.32l-.31,0,.24.21a3.29,3.29,0,0,1,.93,1.22,1.35,1.35,0,0,1-.16,1.34l0,0v0a.68.68,0,0,1-.3.43l-.08,0,0,.08a.55.55,0,0,1,.06.37l0,.09.08,0a1.67,1.67,0,0,1,.91.84,1.59,1.59,0,0,1,.06,1.21,1.49,1.49,0,0,1-.76.9,1,1,0,0,1-.56,0,.37.37,0,0,1-.32-.32l0-.4-.17.36a1.24,1.24,0,0,1-.95.69l-.15,0,.08.13a1.22,1.22,0,0,1-.63,1.66l-.18.06.15.11a1.24,1.24,0,0,1,.35,1.2,1.21,1.21,0,0,1-.76.92l-.1,0,0,.09a1,1,0,0,1-1.84.64l-.07-.22-.11.21a2.06,2.06,0,0,1-.78,1,.68.68,0,0,1-.95-.25l-.09-.27-.09.28a1.3,1.3,0,0,1-.89.8,1.28,1.28,0,0,1-1.12-.15l-.16-.12v.2a.89.89,0,0,1-.82.87.91.91,0,0,1-.89-.72v-.08h-.08l-2.46,0a6,6,0,0,1-2.33-.33,4.34,4.34,0,0,1-1-.56,3.72,3.72,0,0,0-.48-.35A.84.84,0,0,0,193,65a6.49,6.49,0,0,1-1.11.24,4,4,0,0,1-1.1-.06,3.88,3.88,0,0,1-1.9-1,2.16,2.16,0,0,0-.43-.36,1.43,1.43,0,0,0-.56-.13,7.31,7.31,0,0,1-1-.06,5.85,5.85,0,0,1-1-.21,2.52,2.52,0,0,1-.89-.42.89.89,0,0,1-.34-.82.6.6,0,0,1,.55-.58h.07v-.07a1.31,1.31,0,0,0-.15-.8.81.81,0,0,0-.68-.41.57.57,0,0,0-.61.46.53.53,0,0,0,.39.63l0-.13a.8.8,0,0,1-.89,0,.91.91,0,0,1-.43-.79,1.29,1.29,0,0,1,1.26-1.11h.09l0-.08a3.11,3.11,0,0,1,0-1.45l.06-.26-.16.21a1,1,0,0,1-1.41.16l-.05,0,0,0a2,2,0,0,1-.9.78,1.2,1.2,0,0,1-1.09-.1.77.77,0,0,1-.37-.89.71.71,0,0,1,.71-.56h.1l-.05-.08a.92.92,0,0,1,.81-1.33h.06v-.05a1.48,1.48,0,0,1,.89-1.57l0-.06a.77.77,0,0,1-1.08-.41l0-.07,0,.06a.71.71,0,0,1-.6.32,1.51,1.51,0,0,1-.61-.1,1.81,1.81,0,0,1-.81-.53.86.86,0,0,1-.2-.55A.8.8,0,0,1,179.29,52.61Z"/><path class="cls-14" d="M201.76,54.63a7.83,7.83,0,0,0-7.68-8.25,8.07,8.07,0,0,0-8.16,7.36,81,81,0,0,0-.46,8.64c.31,4,2.79,5.38,3.78,5.79a5.65,5.65,0,0,0,1.09.19h0s0,0,0,0l-.6,4.63c-.22,3-.88,13.32,2.19,13.56s7.88-9.94,8.15-13Z"/><path class="cls-4" d="M187.13,56.63a.64.64,0,0,0,.57.69.62.62,0,0,0,.71-.52.65.65,0,0,0-.57-.69A.63.63,0,0,0,187.13,56.63Z"/><path class="cls-4" d="M186.93,54.77c.07.08.59-.23,1.28-.18s1.18.44,1.26.36,0-.19-.24-.36a1.71,1.71,0,0,0-1-.39,1.73,1.73,0,0,0-1,.24C187,54.58,186.89,54.73,186.93,54.77Z"/><path class="cls-4" d="M193.61,57.15a.62.62,0,0,0,.57.68.61.61,0,0,0,.71-.51.63.63,0,0,0-.57-.69A.61.61,0,0,0,193.61,57.15Z"/><path class="cls-4" d="M193.74,55.42c.07.09.59-.22,1.28-.17s1.18.44,1.26.36,0-.19-.24-.37a1.78,1.78,0,0,0-1-.38,1.64,1.64,0,0,0-1,.24C193.79,55.24,193.7,55.38,193.74,55.42Z"/><path class="cls-4" d="M190.8,60.28a4.92,4.92,0,0,0-1.11-.29c-.18,0-.34-.08-.36-.2a.87.87,0,0,1,.16-.5l.63-1.29a23.32,23.32,0,0,0,1.47-3.37,22.33,22.33,0,0,0-1.74,3.25l-.61,1.29a1,1,0,0,0-.15.68.47.47,0,0,0,.27.28,1.22,1.22,0,0,0,.3.06A4.6,4.6,0,0,0,190.8,60.28Z"/><path class="cls-15" d="M190.35,68.36a11.23,11.23,0,0,0,6.18-1.29c-.21.1-1.23,4-6.34,2.54Z"/><path class="cls-15" d="M191,62a1.25,1.25,0,0,1,1.16-.37,1.14,1.14,0,0,1,.75.47.72.72,0,0,1,0,.82.86.86,0,0,1-.93.16,2.72,2.72,0,0,1-.84-.59,1,1,0,0,1-.19-.22.21.21,0,0,1,0-.25"/><path class="cls-4" d="M192.8,60.91c-.11,0-.17.73-.86,1.2s-1.48.33-1.5.44.17.15.51.19a1.88,1.88,0,0,0,1.24-.32,1.62,1.62,0,0,0,.68-1C192.92,61.1,192.85,60.91,192.8,60.91Z"/><path class="cls-4" d="M193.76,53.22c.05.19.75.15,1.56.31s1.45.43,1.57.28,0-.26-.3-.46a2.76,2.76,0,0,0-2.38-.45C193.9,53,193.74,53.13,193.76,53.22Z"/><path class="cls-4" d="M187.28,53c.11.16.6,0,1.18.08s1,.18,1.18,0,0-.24-.21-.4a1.73,1.73,0,0,0-1.9-.09C187.32,52.74,187.24,52.9,187.28,53Z"/><path class="cls-4" d="M184.86,48.94a3.74,3.74,0,0,1,.1-.67,2,2,0,0,1,.59-.82,6.82,6.82,0,0,1,2.79-2c.65-.17,1.32-.1,2-.26.4-.1.78-.29,1.18-.43a9.65,9.65,0,0,1,5-.27,8,8,0,0,1,2.68.87,9.59,9.59,0,0,1,2.41,2.19,14.71,14.71,0,0,1,2.69,4.32,7.19,7.19,0,0,1,.38,4.08,3.48,3.48,0,0,1-2.45,2.77c-.14-.19-.28-.37-.41-.56l-.66-.83c.11.33,0,.31-.28.47a.56.56,0,0,1-.77-.29c-.24.27-.7-.07-.61-.43-.27.12-.59-.26-.47-.58-.32.09-.46-.42-.59-.77-.07-.18-.18-.35-.27-.53a3.4,3.4,0,0,1-.35-1.87,3.43,3.43,0,0,1-.43-1.85c0-.41,0-.82,0-1.23l-.21-.3a.67.67,0,0,1-.49.6,1.42,1.42,0,0,1-.73-.08l-.71-.2-.46.1a1.83,1.83,0,0,1-.24,1.17,1.12,1.12,0,0,1-.47.62.35.35,0,0,1-.45-.41.38.38,0,0,1-.58-.14,1.28,1.28,0,0,1-.1-.76,3.15,3.15,0,0,1,.73-1.71l-1.36,1.08a.54.54,0,0,1-.32.16.33.33,0,0,1-.38.34.89.89,0,0,1-.45-.35c-.28-.35-.55-.92-.25-1.26a.27.27,0,0,1-.09-.41l-1.52,1c.15-.07.29.16.24.34a.69.69,0,0,1-.33.4,1.09,1.09,0,0,1,.11.69c.28-.21.63.25.52.62a.81.81,0,0,1-.81.52.56.56,0,0,1-.6-.47c-.32,0-.59-.41-.45-.76-.23.14-.4-.29-.39-.6a4.44,4.44,0,0,1,.36-1.57.09.09,0,0,1-.12,0,.14.14,0,0,1,0-.07c-.3.6-.61,1.19-.91,1.78a4.71,4.71,0,0,0-.57,1.6c0,.23-.08.55-.28.55a.3.3,0,0,1-.15-.05,2.93,2.93,0,0,1-1.16-1.6,2.14,2.14,0,0,1-.14-.71A8.39,8.39,0,0,1,184.86,48.94Z"/><path class="cls-14" d="M201,57c.07,0,2.78-.64,2.52,2.07a2,2,0,0,1-2.92,1.82C200.59,60.77,201,57,201,57Z"/><path class="cls-15" d="M201.51,59.9s.05,0,.12.08A.51.51,0,0,0,202,60a1.21,1.21,0,0,0,.64-1,1.55,1.55,0,0,0-.07-.69.54.54,0,0,0-.32-.4.24.24,0,0,0-.29.1c0,.08,0,.13,0,.14s-.05-.06,0-.17a.34.34,0,0,1,.12-.16.4.4,0,0,1,.27,0,.65.65,0,0,1,.45.47,1.61,1.61,0,0,1,.1.77,1.24,1.24,0,0,1-.8,1.11.5.5,0,0,1-.43-.12C201.51,60,201.5,59.91,201.51,59.9Z"/><path class="cls-10" d="M191.15,48.32A.75.75,0,0,1,191,48a.49.49,0,0,1,.15-.4.53.53,0,0,1,.53-.09l.11,0,0-.11a.54.54,0,0,1,.19-.59.52.52,0,0,1,.67.08l.1-.07s0,0,0-.08a.33.33,0,0,1,.06-.25.37.37,0,0,1,.24-.12.51.51,0,0,1,.27,0,.76.76,0,0,0,.3.09c.13,0,.19-.1.26-.14a1,1,0,0,1,.23-.11,1.16,1.16,0,0,1,.44-.07,1.25,1.25,0,0,1,.62.21c.13.09.19.16.19.15s0-.08-.16-.19a1.16,1.16,0,0,0-.64-.25,1.21,1.21,0,0,0-.49,0,1,1,0,0,0-.25.12c-.08,0-.14.12-.21.12a.85.85,0,0,1-.25-.09.72.72,0,0,0-.33,0,.45.45,0,0,0-.31.16.42.42,0,0,0-.09.36.61.61,0,0,0,.05.12l.1-.08a.66.66,0,0,0-.84-.1.63.63,0,0,0-.22.72l.07-.06a.58.58,0,0,0-.63.12.54.54,0,0,0-.16.47.49.49,0,0,0,.12.29A.39.39,0,0,0,191.15,48.32Z"/><path class="cls-10" d="M188.05,48.84a.69.69,0,0,1-.2-.36.62.62,0,0,1,.06-.45.64.64,0,0,1,.51-.31h.09l0-.08a.74.74,0,0,1-.16-.68.42.42,0,0,1,.27-.25.33.33,0,0,1,.36.08l.31.4-.21-.46a.64.64,0,0,1,0-.54.59.59,0,0,1,.45-.32.6.6,0,0,1,.4.07L190,46l-.05-.16c-.06-.21.17-.44.39-.45a1.14,1.14,0,0,1,.63.22l.11.07,0-.13a.46.46,0,0,1,.18-.42,1,1,0,0,1,.44-.15,2.29,2.29,0,0,1,.78.09,3.56,3.56,0,0,1,.63.29s0,0-.14-.12a2.22,2.22,0,0,0-.47-.24,2.18,2.18,0,0,0-.81-.11,1,1,0,0,0-.49.16.55.55,0,0,0-.23.52l.09-.05a1.12,1.12,0,0,0-.7-.24.57.57,0,0,0-.38.18.42.42,0,0,0-.11.42l.09-.07a.7.7,0,0,0-.49-.09.69.69,0,0,0-.54.39.75.75,0,0,0,0,.64l.1-.07a.44.44,0,0,0-.48-.11.53.53,0,0,0-.34.33.85.85,0,0,0,.18.77l0-.07a.71.71,0,0,0-.57.36.67.67,0,0,0,0,.51.79.79,0,0,0,.16.28S188.05,48.85,188.05,48.84Z"/><path class="cls-10" d="M181.46,48.85a.42.42,0,0,1,.19-.32.53.53,0,0,1,.41-.11,1.7,1.7,0,0,1,.57.18l.07,0v-.07a.52.52,0,0,1,.48-.47,1.47,1.47,0,0,1,.85.21l.37.17-.31-.27c-.17-.14-.1-.46.09-.62a1,1,0,0,1,.77-.11h0l.24,0-.19-.15a.47.47,0,0,1,.11-.73.7.7,0,0,1,.78.14l.23.22-.14-.29a1,1,0,0,1,.09-1.06,1,1,0,0,1,.76-.4,1.18,1.18,0,0,1,.57.12,1.92,1.92,0,0,0,.18.11l0,0-.13-.1a1.1,1.1,0,0,0-1.43.25,1.14,1.14,0,0,0-.11,1.18l.08-.07a.8.8,0,0,0-.9-.17.63.63,0,0,0-.31.42.52.52,0,0,0,.17.51l.05-.1h0a1.11,1.11,0,0,0-.87.14.67.67,0,0,0-.22.39.48.48,0,0,0,.13.41l.07-.1a1.7,1.7,0,0,0-.92-.21.63.63,0,0,0-.54.59l.06,0a1.61,1.61,0,0,0-.6-.17.57.57,0,0,0-.45.14.4.4,0,0,0-.16.25A.31.31,0,0,0,181.46,48.85Z"/><path class="cls-10" d="M185.42,42.92a.47.47,0,0,0,.16.07,2.25,2.25,0,0,0,.47.06,1.64,1.64,0,0,1,.68.16.45.45,0,0,1,.21.32.32.32,0,0,1-.16.35l.08.07c0-.16.24-.24.43-.33a2.06,2.06,0,0,1,.59-.2.78.78,0,0,1,.58.14.51.51,0,0,1,.21.48l0,.14.12-.09a1.4,1.4,0,0,1,.83-.26,1.57,1.57,0,0,1,.67.16,2.22,2.22,0,0,1,.5.38l-.09-.14a1.22,1.22,0,0,0-.37-.3,1.49,1.49,0,0,0-.71-.19,1.44,1.44,0,0,0-.9.26l.09.06a.6.6,0,0,0-.25-.59.86.86,0,0,0-.66-.17,2,2,0,0,0-.63.21,2.49,2.49,0,0,0-.28.15.46.46,0,0,0-.21.26l0,.11.11,0a.43.43,0,0,0,.22-.47.57.57,0,0,0-.27-.39,1.49,1.49,0,0,0-.73-.15,2.61,2.61,0,0,1-.46,0C185.48,42.93,185.42,42.91,185.42,42.92Z"/><path class="cls-10" d="M191.69,41.09a1,1,0,0,1,.32.07.8.8,0,0,1,.29.22.69.69,0,0,1,.16.43v.07l.06,0a.41.41,0,0,1,.43.29,1.23,1.23,0,0,1,0,.68l0,.23.16-.18,0,0a.53.53,0,0,1,.43-.14.6.6,0,0,1,.39.21.93.93,0,0,1,.18.75,1.49,1.49,0,0,1-.18.51c-.06.12-.1.18-.09.19a.5.5,0,0,0,.13-.16,1.39,1.39,0,0,0,.23-.53,1,1,0,0,0-.18-.83.7.7,0,0,0-1-.09l0,0,.1.06a1.28,1.28,0,0,0,0-.75.5.5,0,0,0-.56-.35l.06.05a.73.73,0,0,0-.2-.49.91.91,0,0,0-.33-.22.6.6,0,0,0-.25,0C191.72,41.07,191.69,41.08,191.69,41.09Z"/><path class="cls-10" d="M196.72,45.26s.06,0,.17,0a.91.91,0,0,0,.39-.23,1.09,1.09,0,0,0,.33-.59.53.53,0,0,1,.11-.32c.08-.08.23-.13.34-.26A.63.63,0,0,0,198,43v.09a2,2,0,0,0,.58-.68.91.91,0,0,0,.12-.33s-.06.11-.18.29a2.1,2.1,0,0,1-.59.63l-.06,0,.06.05a.51.51,0,0,1,.06.67c-.07.1-.21.14-.32.25a.59.59,0,0,0-.14.39,1.11,1.11,0,0,1-.28.55A1.5,1.5,0,0,1,196.72,45.26Z"/><path class="cls-10" d="M198.21,46.48l.1,0h.29a1.61,1.61,0,0,0,1-.44h-.08a1.09,1.09,0,0,0,.69.44,1.21,1.21,0,0,0,.46,0,.66.66,0,0,0,.42-.27c0-.06,0-.13.06-.17a.31.31,0,0,1,.09-.11.76.76,0,0,1,.29-.1,1,1,0,0,0,.33-.1.37.37,0,0,0,.2-.29l-.09.05a1.06,1.06,0,0,0,.75.08,1.27,1.27,0,0,0,.52-.26,1,1,0,0,0,.23-.3.93.93,0,0,0,0-.13,1.47,1.47,0,0,1-.32.37,1.07,1.07,0,0,1-.49.23,1,1,0,0,1-.67-.09l-.08,0v.09a.26.26,0,0,1-.14.19,1.23,1.23,0,0,1-.29.08,1,1,0,0,0-.35.12A.51.51,0,0,0,201,46a1,1,0,0,1,0,.16.58.58,0,0,1-.34.22,1.14,1.14,0,0,1-.41,0,.93.93,0,0,1-.62-.38l0,0,0,0a1.7,1.7,0,0,1-.89.45C198.35,46.48,198.21,46.46,198.21,46.48Z"/><path class="cls-10" d="M207.56,51.08l0,0a.86.86,0,0,0,0-.13,1.2,1.2,0,0,0,0-.49,3.11,3.11,0,0,0-.27-.72,2.55,2.55,0,0,0-.24-.41.59.59,0,0,0-.2-.18.35.35,0,0,0-.3,0l.08.06a.85.85,0,0,0-.32-.81.84.84,0,0,0-1,0l.09,0a.56.56,0,0,0-.19-.48.55.55,0,0,0-.51-.11.56.56,0,0,0-.26.17l.11,0a.35.35,0,0,0-.11-.3.45.45,0,0,0-.26-.14,1.06,1.06,0,0,0-.54.09l.07,0a.86.86,0,0,0-.5-.42,1.24,1.24,0,0,0-.6,0,3.11,3.11,0,0,0-1,.38l.06.06a.2.2,0,0,0,0-.21.43.43,0,0,0-.14-.13.66.66,0,0,0-.32-.08,1.61,1.61,0,0,0-.5.11,1.3,1.3,0,0,0-.29.14c-.07,0-.1.06-.09.06s.13-.07.39-.16a2.09,2.09,0,0,1,.49-.08.6.6,0,0,1,.28.08c.09,0,.16.14.11.23l-.08.13.14-.07a2.91,2.91,0,0,1,.94-.35,1,1,0,0,1,.54,0,.78.78,0,0,1,.44.36l0,.05,0,0a1,1,0,0,1,.48-.08c.14,0,.29.16.26.3l0,.21.14-.16a.46.46,0,0,1,.2-.13.41.41,0,0,1,.4.09.42.42,0,0,1,.15.37v.13l.11-.07a.7.7,0,0,1,1.09.7l0,.1.1,0c.13-.07.28,0,.38.17a3.14,3.14,0,0,1,.24.39,3.57,3.57,0,0,1,.28.69A1.56,1.56,0,0,1,207.56,51.08Z"/><path class="cls-10" d="M206.57,54.61l.06-.07a2.75,2.75,0,0,0,.17-.24,1,1,0,0,0,.14-.44.65.65,0,0,0-.07-.29.56.56,0,0,0-.25-.23l0,.07a.58.58,0,0,0-.54-.93l.05.09a.47.47,0,0,0,0-.54.66.66,0,0,0-.51-.29c-.1,0-.19,0-.27,0s-.12-.07-.16-.16a1,1,0,0,0-.13-.28.53.53,0,0,0-.28-.18,2.94,2.94,0,0,0-.65-.07.76.76,0,0,1-.52-.2,2.8,2.8,0,0,1-.14-.25.61.61,0,0,0-.24-.21.64.64,0,0,0-.57,0l.06.08a.5.5,0,0,0,0-.57.74.74,0,0,0-.44-.27,2.37,2.37,0,0,0-.82,0,2.22,2.22,0,0,0-.49.15.48.48,0,0,0-.17.08s.24-.1.68-.17a2.23,2.23,0,0,1,.78,0,.54.54,0,0,1,.37.24.38.38,0,0,1,0,.44l-.15.19.21-.1a.54.54,0,0,1,.48,0,.52.52,0,0,1,.19.17,2.43,2.43,0,0,0,.15.26.67.67,0,0,0,.28.19,1.13,1.13,0,0,0,.32.06,3.1,3.1,0,0,1,.62.07.37.37,0,0,1,.22.14.83.83,0,0,1,.12.25.35.35,0,0,0,.24.23c.11,0,.21,0,.29,0a.57.57,0,0,1,.42.23.36.36,0,0,1,0,.41l-.11.12.16,0a.49.49,0,0,1,.5.26.51.51,0,0,1-.05.51l0,0,.06,0a.47.47,0,0,1,.28.43,1,1,0,0,1-.11.42C206.64,54.5,206.56,54.6,206.57,54.61Z"/><path class="cls-10" d="M207,61.27s0,0,.12,0a.7.7,0,0,0,.3-.19.88.88,0,0,0,.25-.5,1,1,0,0,0-.19-.71v.07a1.8,1.8,0,0,0,.37-.59.65.65,0,0,0,0-.39.48.48,0,0,0-.26-.33v.11a.71.71,0,0,0,.36-.62.75.75,0,0,0-.09-.41.71.71,0,0,0-.29-.28c-.12-.06-.17-.12-.16-.24a.87.87,0,0,0-.05-.36,1.19,1.19,0,0,0-.42-.53c-.15-.14-.29-.26-.43-.37a2,2,0,0,0-.72-.42,1.31,1.31,0,0,0-.22,0h-.08a2.35,2.35,0,0,1,.29.08,2.16,2.16,0,0,1,.67.43l.43.38a1.18,1.18,0,0,1,.37.49.73.73,0,0,1,0,.33.43.43,0,0,0,0,.21.67.67,0,0,0,.16.14.58.58,0,0,1,.33.58.61.61,0,0,1-.29.51l-.11.06.11.05a.5.5,0,0,1,.2.58,1.55,1.55,0,0,1-.34.55l0,0,0,0a.85.85,0,0,1,.19.63.89.89,0,0,1-.21.47A1.11,1.11,0,0,1,207,61.27Z"/><path class="cls-10" d="M196.66,50.44s.15,0,.37-.11a1.12,1.12,0,0,0,.36-.26.69.69,0,0,0,.16-.52.28.28,0,0,0,0-.13l0,.08a.6.6,0,0,0,.34-.38.56.56,0,0,0,0-.41c-.12-.2-.27-.24-.27-.22a.75.75,0,0,1,.2.26.55.55,0,0,1,0,.34.51.51,0,0,1-.28.3l-.05,0,0,.06a.29.29,0,0,1,0,.1.58.58,0,0,1-.13.43,1.18,1.18,0,0,1-.31.25C196.79,50.37,196.65,50.43,196.66,50.44Z"/><path class="cls-10" d="M193.92,48.88a.74.74,0,0,1,0-.46.5.5,0,0,1,.32-.36.56.56,0,0,1,.58.14l.07.08,0-.1a1,1,0,0,1,.17-.35.45.45,0,0,1,.32-.19c.2,0,.41.19.34.35l.11,0a.94.94,0,0,1,.39-.58.92.92,0,0,1,.55-.16,1.26,1.26,0,0,1,.5.14s0-.05-.11-.09a.93.93,0,0,0-.39-.13,1,1,0,0,0-1.05.8l.11,0a.36.36,0,0,0-.09-.37.51.51,0,0,0-.36-.15.6.6,0,0,0-.42.24,1.18,1.18,0,0,0-.18.4l.1,0a.65.65,0,0,0-.7-.16.58.58,0,0,0-.36.44.56.56,0,0,0,0,.36C193.88,48.85,193.91,48.88,193.92,48.88Z"/><polygon class="cls-14" points="169.49 189.24 167.92 196.93 162.78 197.41 160.62 194.86 162.6 185.68 169.49 189.24"/><path class="cls-9" d="M159.59,194l0,.6s-9.84,3.8-10,5.73l19.33.48-.11-6.74A10.64,10.64,0,0,1,159.59,194Z"/><g class="cls-16"><path class="cls-7" d="M166.78,196.18a.85.85,0,0,1,.53,1,.77.77,0,0,1-.91.55.89.89,0,0,1-.55-1,.78.78,0,0,1,1-.46"/></g><path class="cls-4" d="M168.9,200.82l0-1.62-18.51.13a1.76,1.76,0,0,0-.94,1.59Z"/><path class="cls-4" d="M159.5,194.66c0,.1.48.16.93.49s.7.75.79.71,0-.61-.6-1S159.49,194.57,159.5,194.66Z"/><path class="cls-4" d="M157.46,195.49c0,.1.38.27.69.7s.39.87.49.87.16-.56-.23-1.08S157.46,195.4,157.46,195.49Z"/><path class="cls-4" d="M156.25,198c.08,0,.23-.46,0-1s-.67-.78-.71-.69.22.37.41.83S156.16,198,156.25,198Z"/><path class="cls-14" d="M199.38,187.43c.07.25,0,9.84,0,9.84l-2.89,1.79-3.76-2.36-.8-9.27Z"/><path class="cls-9" d="M192.46,195.86s5.13,3.82,7.61.51l.65,1.6,2.92,11.4a1.54,1.54,0,0,1-.82,1.83,1.35,1.35,0,0,1-1.49-.29c-2.12-2.11-9.84-9.88-9.77-10.94l0-2.8a1.43,1.43,0,0,1,.87-1.31Z"/><path class="cls-4" d="M202.57,211.28l-11-12.28v.61a1.68,1.68,0,0,0,.52,1.35,120.28,120.28,0,0,0,9.25,10.35c.34.34,1,0,1.24,0Z"/><g class="cls-16"><path class="cls-7" d="M193.17,197.17a.93.93,0,0,1,.24,1.17.8.8,0,0,1-1.1.26,1,1,0,0,1-.25-1.24.83.83,0,0,1,1.18-.13"/></g><path class="cls-4" d="M199.39,205c.08,0,.39-.72,1.21-1.13a4.2,4.2,0,0,1,1.58-.32s-.16-.15-.48-.2a2.23,2.23,0,0,0-1.24.24,2.2,2.2,0,0,0-.92.89C199.38,204.76,199.36,205,199.39,205Z"/><path class="cls-4" d="M200.38,206.92c.07.06.51-.41,1.22-.63a12.08,12.08,0,0,1,1.35-.19,1.56,1.56,0,0,0-1.44-.11C200.7,206.24,200.31,206.88,200.38,206.92Z"/><path class="cls-4" d="M197.56,202.52a14.19,14.19,0,0,1,1.81-1.1,15.41,15.41,0,0,1,2-.51,3.06,3.06,0,0,0-2.16.22A3.14,3.14,0,0,0,197.56,202.52Z"/><path class="cls-4" d="M197.31,199.05c0,.09.8-.25,1.79-.29s1.78.2,1.81.11a3.38,3.38,0,0,0-3.6.18Z"/><path class="cls-4" d="M199.66,198.73a1.17,1.17,0,0,0-.07-.54,4,4,0,0,0-.66-1.33,1.73,1.73,0,0,0-.82-.66.58.58,0,0,0-.61.26,1,1,0,0,0-.09.68,2,2,0,0,0,2.05,1.56,2.35,2.35,0,0,0,2-1.68.92.92,0,0,0-.09-.7.55.55,0,0,0-.63-.19,2.07,2.07,0,0,0-.8.66,4.39,4.39,0,0,0-.73,1.29,1.18,1.18,0,0,0-.12.53,6.69,6.69,0,0,1,1-1.67,1.8,1.8,0,0,1,.71-.55.27.27,0,0,1,.34.1.58.58,0,0,1,0,.46,2.12,2.12,0,0,1-1.76,1.44,1.74,1.74,0,0,1-1.77-1.3.75.75,0,0,1,0-.48.3.3,0,0,1,.33-.15,1.44,1.44,0,0,1,.7.55A5.24,5.24,0,0,1,199.66,198.73Z"/><path class="cls-17" d="M204.81,108.27a47.62,47.62,0,0,1,3.59,9.7c1.59,6,3.37,9,2.72,20-.33,5.64-5,20.93-6.06,26.32-.88,4.43-3.65,25.25-5.05,30.75h-8l-.82-61.63s-12.76,36-14.39,40.12-7.29,20.63-7.29,20.63l-10-2.65s6.1-29.49,7.62-36.82,5.64-28,7.39-34.29,3.41-12.81,3.41-12.81Z"/><path class="cls-10" d="M203.83,119.18s0,.11.08.3a5.32,5.32,0,0,0,.36.78,6.67,6.67,0,0,0,1.86,2.07,6.32,6.32,0,0,0,2.51,1.1,5,5,0,0,0,.82.08q.3,0,.3,0s-.42,0-1.09-.21a7.13,7.13,0,0,1-4.26-3.1C204,119.58,203.87,119.16,203.83,119.18Z"/><path class="cls-10" d="M173.69,123.65s.1,0,.3.09a3.9,3.9,0,0,0,.82.09,5.1,5.1,0,0,0,1.23-.12,5.91,5.91,0,0,0,1.43-.55,6.8,6.8,0,0,0,2.09-1.84,4,4,0,0,0,.63-1,10.13,10.13,0,0,0-.74.89,8.05,8.05,0,0,1-2.08,1.74,6,6,0,0,1-2.56.71C174.13,123.69,173.7,123.61,173.69,123.65Z"/><path class="cls-10" d="M191,120.18a3.07,3.07,0,0,0-.09.49c0,.32-.09.79-.13,1.37-.1,1.16-.18,2.76-.16,4.53s.12,3.38.23,4.53c.06.58.12,1,.16,1.36a1.89,1.89,0,0,0,.1.5,2.82,2.82,0,0,0,0-.51c0-.37,0-.83-.09-1.36-.07-1.16-.15-2.76-.17-4.52s0-3.36.09-4.52c0-.54.05-1,.07-1.37A1.62,1.62,0,0,0,191,120.18Z"/><path class="cls-5" d="M201.78,72.67,209,76.13l-1,13.26s-.85,1-2.25,8.1S209,118.41,209,118.41l-34.2.86s4-28.67,4.48-32.46L181,72.32l6.87-.38h2L191.6,84.3l8.6-12Z"/><path class="cls-4" d="M170.17,98.37a2.26,2.26,0,0,0,.1-.78,5.72,5.72,0,0,0-.31-1.88,5.37,5.37,0,0,0-.93-1.64,1.87,1.87,0,0,0-.56-.52,9.53,9.53,0,0,1,1.28,2.24A10.29,10.29,0,0,1,170.17,98.37Z"/><path class="cls-5" d="M156.28,95.08l12.19-.1,4.6-13.61h0a53.12,53.12,0,0,1,2.41-4.8c2.44-4.49,5.54-4.25,5.54-4.25l3.74,5.81-4,8.91s-3.8,16.8-8.2,17.54c-7.31,1.22-20.39-3.83-20.39-3.83Z"/><g class="cls-18"><path d="M177.67,99.25c0-.46-.13-1.06.27-1.26a1.36,1.36,0,0,1,1,.08c10.09,3.58,15.93-.57,26,3l2.06,10.37c-4.48,0-6.53-1-10.93-2.42s-9-2.87-13.39-4.58a12.22,12.22,0,0,1-3.47-1.81A4.38,4.38,0,0,1,177.67,99.25Z"/></g><path class="cls-4" d="M180.11,82.11s-.09.26-.23.68a11,11,0,0,0-.42,1.68c-.24,1.34-.29,2.45-.36,2.45a7.38,7.38,0,0,1,.12-2.49,7.25,7.25,0,0,1,.5-1.7C179.91,82.31,180.09,82.09,180.11,82.11Z"/><path class="cls-9" d="M242.21,95.47h2.62a3.07,3.07,0,0,1,3.07,3.07v0a3.07,3.07,0,0,1-3.07,3.07h-2.62a0,0,0,0,1,0,0V95.47A0,0,0,0,1,242.21,95.47Z" transform="translate(2.62 -6.27) rotate(1.47)"/><path class="cls-19" d="M120.07,92.76,145,90.25l93.71,2.41a1.64,1.64,0,0,1,1.61,1.69l-.22,8.8a1.67,1.67,0,0,1-1.7,1.61l-94.06-2.43-24.39-5Z"/><path class="cls-4" d="M120,94.05l-2.3-.06-1.94.66c-.17.12-.12.27,0,.44l2,.64,2.25.06Z"/><rect class="cls-4" x="144.86" y="90.27" width="1.95" height="12.1" transform="translate(2.53 -3.72) rotate(1.47)"/><path class="cls-5" d="M240.65,93.19h0a2.16,2.16,0,0,1-2.21,2.1l-46.77-1.2a2.16,2.16,0,0,1-2.1-2.21h0a2.16,2.16,0,0,1,2.21-2.1L238.55,91A2.16,2.16,0,0,1,240.65,93.19Z"/><path class="cls-4" d="M240.65,93.19a2.39,2.39,0,0,0-.26-1,2.14,2.14,0,0,0-.92-.89,2.09,2.09,0,0,0-.79-.23l-1,0-11.48-.26-17-.41-10.05-.25L193.87,90l-1.35,0a4.87,4.87,0,0,0-1.33,0,2,2,0,0,0-.1,3.89,5.1,5.1,0,0,0,1.32.13l1.35,0,5.32.14,10,.27,17,.46,11.47.33,1,0a2.09,2.09,0,0,0,.8-.19,2.2,2.2,0,0,0,1-.85,2.38,2.38,0,0,0,.31-1,1.48,1.48,0,0,1,0,.28,2,2,0,0,1-.26.77,2.24,2.24,0,0,1-1,.89,2.16,2.16,0,0,1-.83.2c-.31,0-.62,0-1,0l-11.48-.26-17-.41-10.05-.25-5.31-.14-1.36,0-.68,0a2.52,2.52,0,0,1-.71-.12,2.27,2.27,0,0,1,.12-4.35,2.46,2.46,0,0,1,.71-.08l.68,0,1.36,0,5.31.14,10.05.27,17,.46,11.47.33,1,0a2.31,2.31,0,0,1,.82.24,2.16,2.16,0,0,1,.92.94,2.06,2.06,0,0,1,.22.79A.92.92,0,0,1,240.65,93.19Z"/><polygon class="cls-4" points="240.35 93.75 242.75 94.97 242.57 101.93 240.1 103.31 240.35 93.75"/><path class="cls-5" d="M212,98.64l-5.31-8.18h0l-.48-.73h0l-.71-1.11,3.12-12.69a11.85,11.85,0,0,1,4.12,3.26A47.74,47.74,0,0,1,216,85s5.19,11.89,6,13.66,2.24,5.06,0,6.89-17.17,1.9-17.17,1.9l-1-7.5Z"/><path class="cls-5" d="M205.47,87.29s-.07-.56-.12-1.46a11.68,11.68,0,0,1,.34-3.47,11.93,11.93,0,0,1,1.36-3.21c.47-.76.84-1.19.81-1.21a1.52,1.52,0,0,0-.28.27,7.37,7.37,0,0,0-.66.86,10.35,10.35,0,0,0-1.45,3.24,10.6,10.6,0,0,0-.28,3.53,7.29,7.29,0,0,0,.17,1.07A2.2,2.2,0,0,0,205.47,87.29Z"/><path class="cls-14" d="M202.16,101.31a5.05,5.05,0,0,0-1.34-1.78c-1-.85-3.13-1.5-3.41-2.32s-1.09-.18-.9.83a10.26,10.26,0,0,0,1.45,2.34,4.07,4.07,0,0,1-2.6-.2c-1-.6-4.68-1.68-5.07-1.17s.51.77.92,1,2.73,1.38,2.73,1.38a43.6,43.6,0,0,0-5.42.06c-.66.25,0,.83.32.84a8,8,0,0,1,1.6,1.29,2.21,2.21,0,0,0,1.46.59H193l-3.4.36s-.59.54.23.82c.37.12,9.79,1,10.59,1,1.81-.06,4.33-.19,4.33-.19l-.44-5.1Z"/><path class="cls-15" d="M188.76,102.35a7,7,0,0,0,2.28.7,7.48,7.48,0,0,0,2.39.14c0-.07-1.06-.13-2.35-.36S188.78,102.29,188.76,102.35Z"/><g class="cls-6"><path d="M153.22,96.44a3.42,3.42,0,0,1,2.58,1,11.24,11.24,0,0,1,1.36,1.12c1.18,1.17,1.8,2.78,2.78,4.11l-5.55-.84Z"/></g><path class="cls-14" d="M161.71,102.85l-2.42-.5s-2.18-3.48-3.33-3.9l-.65-.29s-.84-1.84-2-1.61c-.68-.44-1.29-.26-1.36.42,0,0-.33-1.55-1.6-.91s1.75,6,1.75,6,1.06,2.74,2.37,1.82a3.58,3.58,0,0,0,2.19-.18s.81,1.14,2.73.27Z"/><path class="cls-15" d="M156.44,103s0,.09,0,.26a1.21,1.21,0,0,0,.34.62,1.6,1.6,0,0,0,1,.45,3.31,3.31,0,0,0,1.27-.14,8,8,0,0,0,2.08-.91,2.71,2.71,0,0,0,.74-.58,14.52,14.52,0,0,1-2.88,1.28,3.36,3.36,0,0,1-1.19.14,1.47,1.47,0,0,1-.86-.35A1.42,1.42,0,0,1,156.44,103Z"/><path class="cls-15" d="M154.12,101.81s-.67-1.09-1.3-2.52-.91-2.67-1-2.66a2.6,2.6,0,0,0,.13.83,11.43,11.43,0,0,0,.65,1.92,11.59,11.59,0,0,0,1,1.78C153.88,101.59,154.09,101.83,154.12,101.81Z"/><path class="cls-15" d="M155.51,101.69c.05,0-.56-1.12-1.16-2.54s-1-2.61-1-2.6a9.59,9.59,0,0,0,.82,2.69A9.37,9.37,0,0,0,155.51,101.69Z"/><path class="cls-15" d="M153.64,102.93c-.06,0,0,.45.39.78s.84.3.83.24-.36-.13-.68-.41S153.71,102.91,153.64,102.93Z"/><path class="cls-15" d="M157,100.93a8.22,8.22,0,0,0-.79-1.35,8.63,8.63,0,0,0-.84-1.32,4.39,4.39,0,0,0,.65,1.43A4,4,0,0,0,157,100.93Z"/></svg>