<?xml version="1.0" standalone="no"?>
<!DOCTYPE svg PUBLIC "-//W3C//DTD SVG 1.1//EN" "http://www.w3.org/Graphics/SVG/1.1/DTD/svg11.dtd" >
<svg xmlns="http://www.w3.org/2000/svg">
<metadata>Generated by IcoMoon</metadata>
<defs>
<font id="iconosMuni" horiz-adv-x="1024">
<font-face units-per-em="1024" ascent="960" descent="-64" />
<missing-glyph horiz-adv-x="1024" />
<glyph unicode="&#x20;" horiz-adv-x="512" d="" />
<glyph unicode="&#xe900;" horiz-adv-x="1124" d="M490.902 63.885c0 0-221.43 173.926-460.646 119.261l23.868 98.704c0 0 22.79 0 45.118-7.776l-9.778-53.818c0 0 216.888 27.717 401.439-156.372z" />
<glyph unicode="&#xe901;" horiz-adv-x="1124" d="M490.904 63.885c0 0-197.948 244.528-498.603 244.528l168.537 502.915c0 0 13.705-2.233 52.894-17.169l-143.129-426.23c0 0 300.425-85.385 420.302-304.043z" />
<glyph unicode="&#xe902;" horiz-adv-x="1124" d="M490.903 63.885c-98.088 286.181-370.565 346.774-370.565 346.774l140.203 418.454c21.866-6.621 41.884-14.86 60.208-24.099 31.952-16.245 58.591-35.648 80.534-55.743l-23.406-62.903c0 0-25.177 51.816-86.155 56.666l-100.013-289.261c0 0 219.891-48.351 299.193-389.89z" />
<glyph unicode="&#xe903;" horiz-adv-x="1124" d="M635.729 63.885c0 0 221.428 173.926 460.644 119.261l-23.868 98.704c0 0-22.79 0-45.118-7.776l9.778-53.818c0 0-216.965 27.717-401.436-156.372z" />
<glyph unicode="&#xe904;" horiz-adv-x="1124" d="M635.729 63.885c0 0 197.945 244.528 498.601 244.528l-168.614 502.915c0 0-13.705-2.233-52.894-17.169l143.129-426.23c0 0-300.422-85.385-420.223-304.043z" />
<glyph unicode="&#xe905;" horiz-adv-x="1124" d="M635.729 63.885c98.088 286.181 370.563 346.774 370.563 346.774l-140.28 418.454c-21.866-6.621-41.884-14.86-60.208-24.099-31.952-16.245-58.589-35.648-80.532-55.743l23.406-62.903c0 0 25.174 51.816 86.152 56.666l99.936-289.184c0.077-0.077-219.734-48.428-299.036-389.967z" />
<glyph unicode="&#xe906;" horiz-adv-x="1124" d="M536.482 303.716c-119.415 18.17-214.116 112.794-232.286 232.286 119.492-18.17 214.116-112.794 232.286-232.286z" />
<glyph unicode="&#xe907;" horiz-adv-x="1124" d="M531.322 419.898c-93.315 51.893-142.513 159.605-120.647 264.084 93.392-51.893 142.513-159.605 120.647-264.084z" />
<glyph unicode="&#xe908;" horiz-adv-x="1124" d="M595.223 419.898c93.315 51.893 142.514 159.605 120.648 264.084-93.315-51.893-142.514-159.605-120.648-264.084z" />
<glyph unicode="&#xe909;" horiz-adv-x="1124" d="M561.348 829.113c-60.824-87.771-57.513-206.032 8.238-290.262 60.824 87.771 57.436 206.109-8.238 290.262z" />
<glyph unicode="&#xe90a;" horiz-adv-x="1124" d="M590.067 303.716c18.17 119.492 112.794 214.116 232.289 232.286-18.17-119.415-112.797-214.116-232.289-232.286z" />
<glyph unicode="&#xe90b;" horiz-adv-x="1452" d="M429.567 877.592c-41.85 0-75.756-31.772-75.756-71.040v-738.152c0-39.268 33.907-71.090 75.756-71.090h287.933v880.282z" />
<glyph unicode="&#xe90c;" horiz-adv-x="1452" d="M1013.674 877.592h-296.174v-880.282h296.174c41.85 0 75.806 31.822 75.806 71.090v738.152c0 39.268-33.956 71.040-75.806 71.040z" />
<glyph unicode="&#xe90d;" horiz-adv-x="1452" d="M410.801 851.727h306.699v-803.334h-306.699v803.334z" />
<glyph unicode="&#xe90e;" horiz-adv-x="1452" d="M717.5 851.727h314.939v-803.334h-314.939v803.334z" />
<glyph unicode="&#xe90f;" horiz-adv-x="1452" d="M424.007 835.99h293.444v-772.803h-293.444v772.803z" />
<glyph unicode="&#xe910;" horiz-adv-x="1452" d="M717.5 835.99h301.734v-772.803h-301.734v772.803z" />
<glyph unicode="&#xe911;" horiz-adv-x="1452" d="M610.617 889.853v-22.886c0.542-16.382 13.952-29.455 30.416-29.455 0.355 0 0.708 0.006 1.060 0.018l-0.051-0.001h75.359v52.324z" />
<glyph unicode="&#xe912;" horiz-adv-x="1452" d="M717.5 889.853v-52.324h83.6c0.301-0.011 0.654-0.017 1.009-0.017 16.464 0 29.874 13.074 30.415 29.406l0.001 0.050v22.886z" />
<glyph unicode="&#xe913;" horiz-adv-x="1452" d="M583.115 866.968c-0.301 0.011-0.654 0.018-1.009 0.018-15.559 0-28.236-12.341-28.775-27.769l-0.001-0.049v-3.276c0.541-15.477 13.218-27.818 28.777-27.818 0.355 0 0.708 0.006 1.060 0.019l-0.051-0.001h134.385v58.877z" />
<glyph unicode="&#xe914;" horiz-adv-x="1452" d="M860.126 866.968h-142.626v-58.877h142.626c0.315-0.012 0.686-0.019 1.057-0.019 15.55 0 28.216 12.348 28.728 27.773l0.001 0.047v3.276c-0.541 15.477-13.218 27.818-28.777 27.818-0.355 0-0.708-0.006-1.060-0.019l0.051 0.001z" />
<glyph unicode="&#xe915;" horiz-adv-x="1452" d="M502.89 626.593h98.344v92.188h-98.344zM510.188 711.782h83.749v-78.338h-83.749z" />
<glyph unicode="&#xe916;" horiz-adv-x="1452" d="M638.12 682.442h79.38v-15.39h-79.38v15.39z" />
<glyph unicode="&#xe917;" horiz-adv-x="1452" d="M717.5 682.442h222.85v-15.39h-222.85v15.39z" />
<glyph unicode="&#xe918;" horiz-adv-x="1452" d="M502.89 396.594h98.344v92.188h-98.344zM510.188 481.931h83.749v-78.487h-83.749z" />
<glyph unicode="&#xe919;" horiz-adv-x="1452" d="M638.12 452.443h79.38v-15.34h-79.38v15.34z" />
<glyph unicode="&#xe91a;" horiz-adv-x="1452" d="M717.5 452.443h222.85v-15.34h-222.85v15.34z" />
<glyph unicode="&#xe91b;" horiz-adv-x="1452" d="M502.89 166.644h98.344v92.139h-98.344zM510.188 251.982h83.749v-78.536h-83.749z" />
<glyph unicode="&#xe91c;" horiz-adv-x="1452" d="M638.12 222.494h79.38v-15.34h-79.38v15.34z" />
<glyph unicode="&#xe91d;" horiz-adv-x="1452" d="M717.5 222.494h222.85v-15.34h-222.85v15.34z" />
<glyph unicode="&#xe91e;" horiz-adv-x="1452" d="M703.6 925.895c0.191 8.157 6.056 14.889 13.792 16.414l0.109 0.018v17.276c-17.834-1.229-31.903-15.746-32.416-33.659l-0.001-0.049h-43.091c-0.271 0.009-0.591 0.014-0.911 0.014-16.472 0-29.893-13.067-30.462-29.4l-0.001-0.052v-6.603h106.784v19.857c-7.722 1.564-13.501 8.157-13.8 16.153l-0.001 0.031z" />
<glyph unicode="&#xe91f;" horiz-adv-x="1452" d="M832.524 896.456c-0.57 16.386-13.991 29.454-30.464 29.454-0.338 0-0.674-0.005-1.009-0.016l0.049 0.001h-43.091c-0.651 18.982-16.196 34.123-35.277 34.123-0.391 0-0.78-0.006-1.168-0.019l0.057 0.001c-1.517-0.063-2.937-0.205-4.332-0.425l0.211 0.027v-17.276c1.233 0.303 2.653 0.483 4.112 0.496h0.009c0.166 0.006 0.36 0.009 0.556 0.009 9.472 0 17.189-7.515 17.514-16.908l0.001-0.030c-0.326-9.423-8.042-16.937-17.514-16.937-0.195 0-0.39 0.003-0.584 0.010l0.028-0.001c-1.468 0.013-2.887 0.194-4.248 0.523l0.128-0.026v-19.857h115.024z" />
<glyph unicode="&#xe920;" horiz-adv-x="1452" d="M552.931 407.913l-54.906 95.266 11.567 5.858 43.389-75.359 65.778 112.393 11.517-5.908-77.345-132.251z" />
<glyph unicode="&#xe921;" horiz-adv-x="1452" d="M836.397 677.577s-88.862 19.857-169.235-60.218c16.631 1.489 41.006 3.326 70.742 4.518 43.835 1.688 50.587 0 56.693-2.83 36.141-16.482 42.495-76.6 54.31-63.891 3.574 3.823 34.204 51.58 34.204 51.58z" />
<glyph unicode="&#xe922;" horiz-adv-x="1452" d="M933.698 660.003l-62.303 40.41c-2.996 3.023-7.050 4.994-11.56 5.309l-0.057 0.003-104.947 6.752c-0.336 0.022-0.729 0.035-1.125 0.035-3.913 0-7.536-1.24-10.498-3.349l0.056 0.038s-80.472-66.92-89.954-82.359c-4.964-7.943-2.879-21.347 6.652-25.269s22.389 6.851 30.729 10.922c9.512 5.188 17.627 10.483 25.297 16.333l-0.475-0.348 38.275 26.708c2.862 2.022 6.422 3.231 10.266 3.231 2.457 0 4.798-0.494 6.93-1.389l-0.118 0.044 39.715-16.432c6.297-2.683 10.697-8.683 11.019-15.748l0.001-0.039 0.596-15.439c0.010-0.227 0.016-0.493 0.016-0.761 0-5.379-2.383-10.201-6.15-13.468l-0.022-0.019c-1.655-1.477-3.623-2.645-5.788-3.389l-0.12-0.036-13.156-4.518c-1.726-0.617-3.718-0.974-5.793-0.974-1.594 0-3.138 0.21-4.607 0.605l0.124-0.028-13.453 3.425c-15.489 3.971-31.176 7.198-46.814 10.376-11.468 2.383-22.389 7.099-34.304 7.248-0.688 0.102-1.481 0.16-2.289 0.16-5.419 0-10.225-2.623-13.218-6.669l-0.032-0.045c-3.586-4.814-5.915-10.757-6.397-17.215l-0.007-0.11c-0.038-0.511-0.059-1.106-0.059-1.707 0-3.321 0.66-6.489 1.857-9.377l-0.060 0.163c1.241-2.879 3.326-2.135 5.957-3.872 6.275-2.992 14.256-6.201 22.434-8.982l1.693-0.5c57.388-19.857 122.521-55.651 122.521-55.651 1.99-1.043 4.324-1.722 6.799-1.884l0.052-0.003 68.459-11.071c7.993-0.496 61.856-14.496 64.537-6.95l19.857 127.981c1.936 6.454-45.97 42.991-50.537 47.856z" />
<glyph unicode="&#xe923;" horiz-adv-x="1452" d="M871.395 700.413c-2.996 3.023-7.050 4.994-11.56 5.309l-0.057 0.003-104.947 6.752c-0.336 0.022-0.729 0.035-1.125 0.035-3.913 0-7.536-1.24-10.498-3.349l0.056 0.038s-80.472-66.92-89.954-82.359c-4.964-7.943-2.879-21.347 6.652-25.269s22.389 6.851 30.729 10.922c9.512 5.188 17.627 10.483 25.297 16.333l-0.475-0.348 38.275 26.708c2.862 2.022 6.422 3.231 10.266 3.231 2.457 0 4.798-0.494 6.93-1.389l-0.118 0.044 39.715-16.432c6.297-2.683 10.697-8.683 11.019-15.748l0.001-0.039 0.596-15.439c0.010-0.227 0.016-0.493 0.016-0.761 0-5.379-2.383-10.201-6.15-13.468l-0.022-0.019 118.897-77.99 48.998 94.968c2.234 6.454-45.474 42.991-50.239 47.856z" />
<glyph unicode="&#xe924;" horiz-adv-x="1452" d="M633.106 507.895l24.822 27.552-20.95 13.751-15.439-33.708z" />
<glyph unicode="&#xe925;" horiz-adv-x="1452" d="M803.334 821.693l20.999 32.020 28.098-41.403-15.191-23.084-33.907 32.467z" />
<glyph unicode="&#xe926;" horiz-adv-x="1452" d="M777.221 695.796l-40.46 26.559-7.496-12.163 39.715-26.113z" />
<glyph unicode="&#xe927;" horiz-adv-x="1452" d="M720.28 695.25c-25.517-42.594-49.197-85.040-85.139-146.598l22.985-14.893c42.247 57.438 71.785 96.011 100.727 136.322z" />
<glyph unicode="&#xe928;" horiz-adv-x="1452" d="M803.284 813.75c-2.7 2.225-6.195 3.574-10.004 3.574-2.347 0-4.574-0.512-6.576-1.431l0.098 0.040c-11.716-4.071-24.474-17.673-38.027-40.509-27.85-45.225-65.579-99.883-65.976-100.429s23.829-2.83 30.729 25.368c10.326 15.638 56.693 80.919 57.19 81.565 1.91 2.625 4.418 4.703 7.331 6.058l0.116 0.048c2.035 0.695 4.964 0.993 8.29-4.369 2.581-4.468 4.964-4.716 6.801-4.12 6.752 2.333 9.929 25.566 10.574 32.666v0.894z" />
<glyph unicode="&#xe929;" horiz-adv-x="1452" d="M768.98 684.080l-39.715 26.113-8.986-14.893 38.573-25.368z" />
<glyph unicode="&#xe92a;" horiz-adv-x="1452" d="M844.687 798.261l-40.46 26.708c-27.8-40.46-48.651-72.529-67.218-102.613l40.46-26.559c19.957 28.942 41.105 60.665 67.218 102.465z" />
<glyph unicode="&#xe92b;" horiz-adv-x="1452" d="M621.539 515.491c-1.196-2.275-2.308-4.955-3.181-7.74l-0.095-0.352c-1.156-3.714-1.858-7.99-1.936-12.42l-0.001-0.041c3.614 1.894 6.718 3.921 9.61 6.204l-0.128-0.098c2.661 2.157 5.044 4.399 7.254 6.803l0.044 0.048z" />
<glyph unicode="&#xe92c;" horiz-adv-x="1452" d="M810.284 591.743l-13.156-4.518c-1.726-0.617-3.718-0.974-5.793-0.974-1.594 0-3.138 0.21-4.607 0.605l0.124-0.028-13.453 3.425c-15.489 3.971-31.176 7.198-46.814 10.376-11.468 2.383-22.389 7.099-34.304 7.248-0.688 0.102-1.481 0.16-2.289 0.16-5.419 0-10.225-2.623-13.218-6.669l-0.032-0.045c-3.639-4.802-6.018-10.743-6.545-17.207l-0.008-0.119c-0.038-0.511-0.059-1.106-0.059-1.707 0-3.321 0.66-6.489 1.857-9.377l-0.060 0.163c1.241-2.879 3.326-2.135 5.957-3.872 6.275-2.992 14.256-6.201 22.434-8.982l1.693-0.5c57.388-19.857 122.521-55.651 122.521-55.651 1.99-1.043 4.324-1.722 6.799-1.884l0.052-0.003 65.877-4.071c7.993-0.447 26.212-5.808 28.843 1.787l8.936 17.276-118.847 77.99c-1.655-1.477-3.623-2.645-5.788-3.389l-0.12-0.036z" />
<glyph unicode="&#xe92d;" horiz-adv-x="1452" d="M704.94 592.637c0.087-0.95 0.136-2.054 0.136-3.17 0-8.591-2.929-16.497-7.842-22.775l0.061 0.081-25.666 6.503c-1.137 2.726-1.797 5.893-1.797 9.215 0 0.601 0.022 1.196 0.064 1.786l-0.005-0.079c0.575 6.784 3.438 12.809 7.805 17.387l-0.011-0.011 0.298 0.348z" />
<glyph unicode="&#xe92e;" horiz-adv-x="1452" d="M929.33 453.039l70.147-23.68 64.537 185.072-76.004 18.219-58.679-179.611z" />
<glyph unicode="&#xe92f;" horiz-adv-x="1452" d="M1142.301 602.963l-123.911 29.389-48.998-202.993 160.647-55.998 12.262 229.602z" />
<glyph unicode="&#xe930;" horiz-adv-x="1452" d="M382.753 112.632c0.745-0.745 3.922-0.993 4.964-1.241l9.532-2.383c9.631-2.383 7.397-5.759 17.028-8.142 23.481-5.858 47.856-8.092 71.288-13.95l25.964-6.454c1.539-0.397 8.241-3.078 9.532-2.184s1.241 3.674 1.589 4.468 1.589 4.17 3.177 7.893c2.835 6.984 5.748 12.829 9.042 18.423l-0.354-0.65c1.738 2.433 40.906 41.899 43.14 48.254 2.631 7.695 4.021 16.184 6.007 24.127l8.34 33.311c0.596 2.482 1.489 4.964 1.886 7.595 0.335 1.483 0.527 3.187 0.527 4.935 0 6.299-2.491 12.016-6.541 16.22l0.007-0.007c-2.643 2.435-6.186 3.928-10.078 3.928-1.724 0-3.38-0.293-4.92-0.832l0.104 0.032c-3.459-2.497-6.051-6.004-7.358-10.086l-0.039-0.141c-2.052-4.724-3.77-10.264-4.882-16.019l-0.082-0.513c-1.539-7.248-4.269-9.581-5.56-7.943s0.943 8.39 1.489 10.673l38.325 153.25c1.091 3.398 2.224 7.852 3.132 12.387l0.145 0.867c0.045 0.304 0.071 0.655 0.071 1.012 0 1.468-0.434 2.835-1.18 3.98l0.017-0.028c-0.227 0.461-0.458 0.852-0.715 1.222l0.020-0.031s0 0 0 0c-0.596 0.844-1.291 1.738-1.936 2.482-4.023 4.729-9.979 7.708-16.63 7.708-2.765 0-5.41-0.515-7.844-1.454l0.149 0.051c-1.109-0.394-2.026-0.796-2.911-1.253l0.131 0.061c-1.139-0.583-2.119-1.277-2.985-2.091l0.007 0.006c-1.026-0.957-1.787-2.185-2.172-3.57l-0.013-0.054c-0.695-2.433-1.191-4.964-1.837-7.298-2.284-9.333-26.113-107.429-28.148-112.641-1.539-4.12-6.057-2.681-5.411 1.539 0.944 5.026 2.027 9.264 3.345 13.398l-0.217-0.788c2.469 7.884 4.652 17.475 6.12 27.298l0.135 1.098c-1.39 9.929-16.134 15.737-24.822 12.56-5.454-2.203-9.477-6.931-10.654-12.696l-0.019-0.112-4.071-16.184c-0.875-4.823-1.942-8.962-3.27-12.983l0.192 0.671c-1.44-3.624-3.823-3.078-6.156-0.745s0.695 17.822 1.936 22.886c0.715 2.002 1.129 4.311 1.129 6.717 0 4.063-1.179 7.85-3.213 11.039l0.049-0.083c-3.522 4.704-9.081 7.716-15.343 7.716-2.821 0-5.5-0.611-7.91-1.709l0.12 0.049c-4.978-2.365-8.478-7.121-9.030-12.743l-0.005-0.065c-1.44-5.61-5.362-27.304-9.929-26.361-2.135 0.348-1.043 7.546-0.695 9.581 0.153 0.845 0.24 1.817 0.24 2.809 0 7.807-5.411 14.35-12.688 16.082l-0.112 0.023c-1.185 0.258-2.546 0.406-3.941 0.406-5.676 0-10.78-2.449-14.313-6.347l-0.015-0.016c-0.152-0.075-0.273-0.195-0.346-0.343l-0.002-0.004c-2.184-4.269-14.893-58.431-20.503-80.77l-6.255-24.822c-0.562-3.112-0.883-6.694-0.883-10.35 0-8.257 1.638-16.132 4.606-23.317l-0.149 0.406c1.059-8.067 1.774-17.626 1.981-27.311l0.005-0.291c0-0.993-3.723-16.035-6.354-26.609-1.092-4.418-1.986-8.042-2.383-9.532s-1.092-3.227-0.596-4.021z" />
<glyph unicode="&#xe931;" horiz-adv-x="1452" d="M528.314 56.379l-161.731 40.414 7.895 31.595 161.731-40.414-7.895-31.595z" />
<glyph unicode="&#xe932;" horiz-adv-x="1452" d="M518.379-62.064l29.737 119.393-202.645 50.637-36.885-170.030h209.794z" />
<glyph unicode="&#xe933;" horiz-adv-x="1452" d="M572.987 370.035c7.695-3.177 16.73 2.929 19.857 13.553l2.73 8.886c0 0.745 0.447 1.539 0.596 2.284-0.596 0.844-1.291 1.738-1.936 2.482-4.023 4.729-9.979 7.708-16.63 7.708-2.765 0-5.41-0.515-7.844-1.454l0.149 0.051c-1.109-0.394-2.026-0.796-2.911-1.253l0.131 0.061-2.135-7.099c-3.326-10.723 0.298-22.042 7.993-25.219z" />
<glyph unicode="&#xe934;" horiz-adv-x="996" d="M875.44 162.141c68.515 79.775 109.932 183.56 109.932 297.033 0 251.734-203.807 455.83-455.247 455.83s-455.226-204.071-455.226-455.83c0-113.473 41.42-217.258 109.936-297.033h690.606z" />
<glyph unicode="&#xe935;" horiz-adv-x="996" d="M260.413 5.831c51.513 0 93.272 9.502 93.272 21.22s-41.759 21.215-93.272 21.215c-51.513 0-93.272-9.499-93.272-21.215s41.759-21.22 93.272-21.22z" />
<glyph unicode="&#xe936;" horiz-adv-x="996" d="M853.121 6.362c-19.429 0-37.952-0.578-54.842-1.612 11.787 3.3 18.473 7.045 18.473 11.051 0 12.784-68.238 23.152-152.387 23.152-84.173 0-152.386-10.368-152.386-23.152 0-12.786 68.238-23.149 152.386-23.149 21.59 0 42.125 0.673 60.749 1.906-9.249-2.788-14.452-5.907-14.452-9.235 0-11.596 63.765-21.011 142.434-21.011s142.432 9.415 142.432 21.011c0.028 11.624-63.737 21.039-142.406 21.039z" />
<glyph unicode="&#xe937;" horiz-adv-x="996" d="M442.181-5.49c-2.815 0-5.605-0.028-8.395-0.047 5.403 2.484 8.395 5.177 8.395 8.002 0 12.455-57.708 22.546-128.887 22.546s-128.887-10.091-128.887-22.546c0-12.411 57.255-22.471 128.032-22.547-12.844-4.305-20.233-9.311-20.233-14.677 0-16.156 67.133-29.269 149.974-29.269 82.816 0 149.974 13.094 149.974 29.269 0 16.156-67.133 29.269-149.974 29.269z" />
<glyph unicode="&#xe938;" horiz-adv-x="996" d="M961.195 18.821c17.010 0 30.796 3.853 30.796 8.606s-13.786 8.607-30.796 8.607c-17.002 0-30.786-3.853-30.786-8.607s13.784-8.606 30.786-8.606z" />
<glyph unicode="&#xe939;" horiz-adv-x="996" d="M909.874 42.451c0-1.938-6.183-3.498-13.824-3.498s-13.823 1.56-13.823 3.498c0 1.938 6.183 3.499 13.823 3.499s13.824-1.561 13.824-3.499z" />
<glyph unicode="&#xe93a;" horiz-adv-x="996" d="M472.518 32.209c8.398 0 15.205 1.972 15.205 4.404s-6.808 4.404-15.205 4.404c-8.399 0-15.206-1.972-15.206-4.404s6.808-4.404 15.206-4.404z" />
<glyph unicode="&#xe93b;" horiz-adv-x="996" d="M542.089 51.587c0-1.838-4.298-3.322-9.575-3.322-5.304 0-9.576 1.485-9.576 3.322s4.298 3.321 9.576 3.321c5.277 0 9.575-1.485 9.575-3.321z" />
<glyph unicode="&#xe93c;" horiz-adv-x="996" d="M167.116 50.505c-14.729 42.279-29.633 84.91-52.932 123.137s-55.923 72.201-97.344 89.087c14.125-53.754 28.024-110.428 64.393-152.404 23.35-26.903 54.113-43.738 85.883-59.82z" />
<glyph unicode="&#xe93d;" horiz-adv-x="996" d="M152.363 85.41c-9.351 17.516-18.976 34.88-29.231 51.867-5.68 9.437-11.562 18.748-17.669 27.883-13.12 19.63-28.050 39.108-48.861 50.206 8.244-21.819 16.513-43.638 25.662-65.105 7.188-16.835 15.005-33.545 25.787-48.293 8.873-12.13 19.63-22.7 31.116-32.338 5.781-4.832 11.763-9.437 17.845-13.916 0.075-0.051 0.175-0.126 0.251-0.202 3.267-1.686 6.535-3.372 9.827-5.033-2.412 6.921-4.851 13.866-7.313 20.812-2.439 4.731-4.902 9.437-7.415 14.118z" />
<glyph unicode="&#xe93e;" horiz-adv-x="996" d="M151.381 61.301c-21.514 19.429-43.255 39.007-68.364 53.453s-54.239 23.579-83.017 20.258c24.732-26.122 50.268-53.981 83.972-66.488 21.641-8.028 44.361-8.003 67.409-7.223z" />
<glyph unicode="&#xe93f;" horiz-adv-x="996" d="M132.129 76.526c-10.757 7.021-21.641 13.891-32.724 20.36-6.158 3.574-12.391 7.047-18.7 10.343-13.547 7.046-28.1 13.464-43.381 13.287 11.461-9.815 22.947-19.655 34.836-28.992 9.325-7.323 18.951-14.369 29.683-19.403 8.823-4.127 18.222-6.77 27.749-8.657 4.8-0.957 9.627-1.687 14.477-2.341 0.075 0 0.151-0.025 0.201-0.025 2.387 0.050 4.775 0.126 7.163 0.201-3.52 3.196-7.063 6.367-10.607 9.538-2.94 1.912-5.806 3.799-8.696 5.687z" />
<glyph unicode="&#xe940;" horiz-adv-x="996" d="M138.664 156.302c-1.055 28.991-2.136 58.233-9.249 86.344s-20.837 55.39-43.256 73.786c-1.508-35.962-3.72-73.711 10.782-106.652 9.299-21.14 25.134-37.447 41.722-53.477z" />
<glyph unicode="&#xe941;" horiz-adv-x="996" d="M136.201 180.738c-2.463 12.633-5.102 25.216-8.194 37.698-1.709 6.921-3.569 13.816-5.605 20.636-4.374 14.646-9.902 29.57-20.66 40.441 0.93-15.075 1.885-30.174 3.468-45.198 1.232-11.803 2.891-23.631 6.761-34.829 3.191-9.211 7.817-17.818 13.095-25.972 2.664-4.102 5.479-8.103 8.395-12.029 0.050-0.050 0.075-0.126 0.125-0.176 1.71-1.66 3.418-3.347 5.128-5.007-0.176 4.756-0.352 9.512-0.553 14.269-0.679 3.397-1.307 6.77-1.961 10.167z" />
<glyph unicode="&#xe942;" horiz-adv-x="996" d="M646.922 108.059c17.292 23.278 34.735 46.758 46.749 73.157s18.373 56.271 12.366 84.657c-23.676-27.103-48.986-55.163-58.26-89.942-5.932-22.348-3.795-44.972-0.855-67.872z" />
<glyph unicode="&#xe943;" horiz-adv-x="996" d="M660.269 128.67c5.982 11.375 11.788 22.85 17.166 34.527 2.991 6.468 5.831 13.011 8.521 19.605 5.755 14.168 10.757 29.267 9.149 44.493-8.696-12.356-17.393-24.713-25.561-37.422-6.409-9.966-12.517-20.233-16.513-31.406-3.267-9.161-5.027-18.799-6.007-28.463-0.503-4.856-0.778-9.764-0.979-14.646 0-0.076 0-0.151-0.026-0.201 0.277-2.366 0.578-4.731 0.88-7.122 2.84 3.825 5.68 7.651 8.495 11.475 1.658 3.070 3.267 6.090 4.875 9.161z" />
<glyph unicode="&#xe944;" horiz-adv-x="996" d="M659.565 166.822c8.771 23.378 17.618 46.959 21.263 71.672 3.669 24.688 1.809 50.935-9.903 72.981-13.12-28.060-27.396-57.303-26.793-88.307 0.403-19.882 7.566-38.077 15.433-56.347z" />
<glyph unicode="&#xe945;" horiz-adv-x="996" d="M665.722 187.055c2.237 10.846 4.323 21.718 5.982 32.665 0.93 6.065 1.734 12.155 2.387 18.271 1.382 13.086 1.935 26.777-3.016 38.982-4.248-12.306-8.495-24.587-12.24-37.044-2.941-9.765-5.555-19.73-6.183-29.923-0.528-8.355 0.302-16.76 1.784-24.965 0.754-4.152 1.658-8.255 2.664-12.356 0.025-0.050 0.025-0.126 0.050-0.176 0.804-1.887 1.608-3.775 2.412-5.662 1.433 3.826 2.865 7.676 4.298 11.527 0.629 2.894 1.257 5.787 1.86 8.682z" />
<glyph unicode="&#xe946;" horiz-adv-x="996" d="M658.057 660.072c-18.474 24.487-42.829 44.494-70.426 57.831-5.329-70.993-7.993-142.438-6.46-213.607 19.077 9.965 37.826 20.988 53.712 35.509 15.91 14.52 29.105 32.765 34.383 53.653 6.082 23.857 1.76 49.401-11.209 66.614z" />
<glyph unicode="&#xe947;" horiz-adv-x="996" d="M591.251 716.093c-1.96-2.315-3.418-5.134-4.272-8.028-0.026-0.050-0.026-0.126-0.050-0.176-0.578-8.028-1.106-16.081-1.609-24.134-0.201-28.135-0.427-56.296-0.629-84.432-0.101-14.319-0.151-29.066 5.128-42.379 2.564-6.493 6.359-12.432 10.607-17.943 2.387-3.096 8.57-13.162 13.597-11.878 4.398 1.132 5.881 15.099 7.087 19.126 2.363 7.776 4.951 15.452 7.817 23.051 1.483 3.952 3.066 8.003 3.167 12.231 0.101 4.127-1.231 8.128-2.538 12.029-7.515 22.625-14.803 45.576-17.015 69.307-1.257 13.514-0.83 27.104-0.076 40.668-6.786 4.631-13.873 8.808-21.213 12.558z" />
<glyph unicode="&#xe948;" horiz-adv-x="996" d="M229.447 854.177c0 0-23.701 1.913-45.392-31.432 56.551 12.91 87.039 2.215 87.039 2.215s-16.061 30.753-41.647 29.217z" />
<glyph unicode="&#xe949;" horiz-adv-x="996" d="M376.909 850.352c-9.802 11.551-18.172 24.31-24.908 37.875 10.155 8.959 11.184 26.726 7.138 39.636s-14.753 23.203-27.346 28.186c-12.567 4.983-26.767 4.958-39.862 1.56-15.884-4.127-31.141-14.068-37.45-29.243s-0.829-35.509 14.151-42.203c-7.364-20.133-17.268-39.989-31.091-56.347 39.561-0.327 79.121-0.679 118.682 0.479 6.46 0.176 13.271 0.528 18.624 4.152 5.354 3.599 6.233 10.973 2.061 15.905zM330.511 904.912c-7.238-5.083-16.915-5.839-25.083-2.567-4.75 1.887-9.174 5.26-11.385 10.041-2.061 4.454-1.986 9.714-0.578 14.42 1.483 4.932 4.624 9.236 8.546 12.331 5.403 4.278 32.624 11.526 38.857-10.721 2.463-8.758-3.117-18.447-10.356-23.505z" />
<glyph unicode="&#xe94a;" horiz-adv-x="996" d="M270.467 829.591c5.303 19.353 12.089 38.302 20.836 56.321-15.306 4.656-26.743 19.856-27.044 35.861-0.226 12.356 6.233 24.411 16.111 31.709-11.335-5.26-21.138-13.69-25.888-25.090-6.308-15.175-0.829-35.509 14.151-42.203-7.364-20.133-17.268-39.989-31.091-56.346 10.983-0.126 21.941-0.201 32.925-0.251z" />
<glyph unicode="&#xe94b;" horiz-adv-x="996" d="M83.872 841.57h510.27l65.222-744.76-504.087-60.851-71.405 805.611z" />
<glyph unicode="&#xe94c;" horiz-adv-x="996" d="M463.168 763.757c0 0 46.046 17.088 31.116 77.788h-63.815l32.699-77.788z" />
<glyph unicode="&#xe94d;" horiz-adv-x="996" d="M83.872 841.57l-19.152-13.993 71.832-784.219 18.725-7.399-71.405 805.611z" />
<glyph unicode="&#xe94e;" horiz-adv-x="996" d="M659.364 96.81l-44.939 513.384-35.941 199.968-451.281 8.933c0 0-4.875-588.151 87.14-776.015l445.022 53.729z" />
<glyph unicode="&#xe94f;" horiz-adv-x="996" d="M136.1 804.701c151.708 2.718 303.392 5.461 455.101 8.18 15.181-224.43 41.471-448.054 84.978-668.734-151.457-4.631-303.643-25.82-452.461-54.308-41.547 151.046-87.617 580.854-87.617 714.862z" />
<glyph unicode="&#xe950;" horiz-adv-x="996" d="M443.639 810.213l19.529-46.456c0 0 30.061 11.124 33.755 47.413-17.745-0.327-35.514-0.63-53.284-0.957z" />
<glyph unicode="&#xe951;" horiz-adv-x="996" d="M278.384 848.49c32.146 1.459 64.292 2.944 96.413 4.403-6.283 7.701-11.964 15.88-16.965 24.487-10.983-0.881-21.791-3.196-32.297-6.669-16.539-5.436-32.121-13.464-47.151-22.221z" />
<glyph unicode="&#xe952;" horiz-adv-x="996" d="M254.305 763.908l208.864-0.152c11.008 23.833 6.208 52.496-2.564 78.367-2.865 8.48-10.38 14.47-19.278 15.3-67.837 6.266-137.257 6.72-211.904-3.297 23.274-12.23 26.944-56.648 24.882-90.219z" />
<glyph unicode="&#xe953;" horiz-adv-x="996" d="M466.235 822.418l-216.001-0.604c3.242-12.558 4.499-27.003 4.549-40.87l213.789 1.133c2.011 13.010 0.729 26.777-2.337 40.341z" />
<glyph unicode="&#xe954;" horiz-adv-x="996" d="M349.562 857.122c-12.768-0.277-25.863-1.133-37.575-6.266-2.086-0.906-4.473-2.617-4.047-4.857 0.352-1.963 2.614-2.843 4.525-3.347 29.407-7.751 60.17-7.374 90.281-5.159 5.907 0.428 36.269-0.428 34.987 7.651-1.71 10.796-28.099 9.487-35.514 10.167-17.519 1.585-35.087 2.189-52.656 1.812z" />
<glyph unicode="&#xe955;" horiz-adv-x="996" d="M284.441 840.21c8.065 0 14.603 2.535 14.603 5.662s-6.538 5.662-14.603 5.662c-8.065 0-14.602-2.535-14.602-5.662s6.537-5.662 14.602-5.662z" />
<glyph unicode="&#xe956;" horiz-adv-x="996" d="M572.275 597.334l-82.665-4.202-15.809 100.361 82.641 4.202 15.834-100.361zM498.154 603.651l62.458 3.172-12.643 80.355-62.457-3.171 12.642-80.356z" />
<glyph unicode="&#xe957;" horiz-adv-x="996" d="M597.51 422.305l-82.666-3.825-15.332 100.412 82.665 3.826 15.333-100.413zM523.415 428.95l62.483 2.894-12.291 80.405-62.483-2.894 12.291-80.405z" />
<glyph unicode="&#xe958;" horiz-adv-x="996" d="M547.317 242.646l-17.116 100.136 82.589 5.284 17.117-100.135-82.59-5.285zM541.988 333.445l13.698-80.178 62.408 3.977-13.698 80.178-62.408-3.977z" />
<glyph unicode="&#xe959;" horiz-adv-x="996" d="M184.107 636.945c-3.369 0-6.158 2.693-6.284 6.091-0.101 3.472 2.614 6.367 6.082 6.493l260.414 8.329c3.519 0.101 6.384-2.617 6.484-6.090s-2.614-6.367-6.082-6.493l-260.413-8.33c-0.050 0-0.126 0-0.201 0z" />
<glyph unicode="&#xe95a;" horiz-adv-x="996" d="M189.158 610.546c-3.368 0-6.158 2.693-6.283 6.091-0.101 3.472 2.614 6.367 6.082 6.493l260.413 8.329c3.544 0.101 6.359-2.617 6.484-6.090 0.101-3.473-2.614-6.367-6.082-6.493l-260.413-8.33c-0.076 0-0.151 0-0.201 0z" />
<glyph unicode="&#xe95b;" horiz-adv-x="996" d="M194.185 584.147c-3.368 0-6.157 2.693-6.283 6.090-0.101 3.473 2.614 6.367 6.082 6.493l130.22 4.178c3.519 0.126 6.384-2.617 6.484-6.090s-2.614-6.367-6.082-6.493l-130.22-4.178c-0.075 0-0.125 0-0.201 0z" />
<glyph unicode="&#xe95c;" horiz-adv-x="996" d="M178.326 663.194c-3.368 0-6.158 2.693-6.283 6.090-0.101 3.473 2.614 6.367 6.082 6.493l130.219 4.178c3.519 0.101 6.384-2.618 6.484-6.090s-2.614-6.367-6.082-6.493l-130.219-4.178c-0.050 0-0.126 0-0.201 0z" />
<glyph unicode="&#xe95d;" horiz-adv-x="996" d="M219.344 448.101c-3.191 0-5.932 2.441-6.258 5.713-0.327 3.448 2.211 6.519 5.655 6.846l259.408 24.512c3.444 0.353 6.51-2.215 6.836-5.662s-2.212-6.518-5.655-6.846l-259.382-24.536c-0.202 0-0.403-0.026-0.604-0.026z" />
<glyph unicode="&#xe95e;" horiz-adv-x="996" d="M226.004 422.080c-3.191 0-5.932 2.441-6.258 5.713-0.327 3.447 2.212 6.518 5.655 6.845l259.408 24.512c3.444 0.327 6.51-2.214 6.836-5.662s-2.211-6.518-5.655-6.845l-259.408-24.537c-0.175-0.025-0.376-0.025-0.578-0.025z" />
<glyph unicode="&#xe95f;" horiz-adv-x="996" d="M232.665 396.058c-3.192 0-5.932 2.441-6.259 5.688-0.326 3.473 2.212 6.518 5.656 6.845l129.691 12.256c3.444 0.302 6.51-2.214 6.837-5.662 0.326-3.472-2.212-6.518-5.656-6.845l-129.691-12.256c-0.176-0.026-0.377-0.026-0.578-0.026z" />
<glyph unicode="&#xe960;" horiz-adv-x="996" d="M211.93 473.946c-3.192 0-5.932 2.441-6.259 5.713-0.327 3.448 2.212 6.519 5.655 6.846l129.691 12.256c3.444 0.327 6.51-2.215 6.836-5.662s-2.212-6.519-5.655-6.846l-129.691-12.256c-0.175-0.050-0.376-0.050-0.577-0.050z" />
<glyph unicode="&#xe961;" horiz-adv-x="996" d="M250.108 264.013c-3.167 0-5.881 2.39-6.234 5.586-0.376 3.447 2.112 6.568 5.555 6.946l258.955 28.764c3.443 0.403 6.559-2.113 6.937-5.562s-2.112-6.568-5.555-6.945l-258.954-28.739c-0.227-0.026-0.452-0.050-0.704-0.050z" />
<glyph unicode="&#xe962;" horiz-adv-x="996" d="M257.196 238.091c-3.167 0-5.881 2.391-6.233 5.586-0.377 3.448 2.112 6.569 5.554 6.946l258.955 28.765c3.444 0.403 6.56-2.114 6.937-5.562s-2.111-6.568-5.554-6.946l-258.955-28.764c-0.226 0-0.452-0.026-0.704-0.026z" />
<glyph unicode="&#xe963;" horiz-adv-x="996" d="M264.284 212.196c-3.167 0-5.881 2.391-6.233 5.587-0.377 3.447 2.111 6.568 5.554 6.945l129.49 14.37c3.443 0.403 6.559-2.114 6.937-5.562s-2.112-6.568-5.554-6.945l-129.49-14.37c-0.227-0.026-0.478-0.026-0.704-0.026z" />
<glyph unicode="&#xe964;" horiz-adv-x="996" d="M242.292 289.731c-3.168 0-5.881 2.391-6.234 5.587-0.376 3.447 2.112 6.568 5.555 6.946l129.49 14.369c3.468 0.403 6.56-2.113 6.938-5.562s-2.112-6.568-5.555-6.945l-129.49-14.37c-0.251 0-0.478-0.026-0.704-0.026z" />
<glyph unicode="&#xe965;" horiz-adv-x="996" d="M469.703 683.377c17.971-5.915 34.609-13.892 48.232-28.261 17.644 22.75 33.554 43.335 58.461 61.077-23.6-28.588-41.898-60.146-54.213-93.415-11.612 22.398-29.935 44.065-52.48 60.6z" />
<glyph unicode="&#xe966;" horiz-adv-x="996" d="M495.164 500.27c17.971-5.915 34.609-13.891 48.232-28.261 17.644 22.75 33.554 43.336 58.461 61.078-23.6-28.589-41.898-60.147-54.213-93.416-11.612 22.398-29.96 44.066-52.48 60.6z" />
<glyph unicode="&#xe967;" horiz-adv-x="996" d="M526.707 329.116c17.971-5.914 34.61-13.891 48.232-28.261 17.644 22.75 33.554 43.336 58.462 61.078-23.601-28.589-41.899-60.147-54.214-93.415-11.612 22.397-29.934 44.090-52.48 60.599z" />
<glyph unicode="&#xe968;" horiz-adv-x="996" d="M680.024 61.225c-16.764-8.153-33.504-16.282-50.268-24.436-1.961-0.957-4.248-2.441-4.072-4.605 0.202-2.642 3.67-3.447 6.309-3.549 23.676-0.855 47.378-1.686 71.054-2.541v28.864c-7.314 1.309-16.137 3.448-23.023 6.266z" />
<glyph unicode="&#xe969;" horiz-adv-x="996" d="M848.647 14.718c-4.825-9.437-26.944-18.549-41.395-25.565-1.71-0.834-3.669-2.095-3.519-3.982 0.175-2.285 3.167-2.968 5.454-3.072 14.754-0.521 38.304-1.052 57.934-1.583 9.174-0.247 15.307 9.368 11.26 17.617l-11.31 24.589c-6.334 1.082-12.492-10.469-18.423-8.003z" />
<glyph unicode="&#xe96a;" horiz-adv-x="996" d="M842.841 454.644c-26.667-9.161-52.429-8.758-76.935-12.105-4.323-6.040-20.861-30.451-25.185-36.49 23.049-2.894 46.096-5.788 69.144-8.682 3.745-0.478 7.565-0.931 11.236-0.101 5.454 1.233 9.902 5.234 13.371 9.638 10.255 13.011 13.019 31.81 8.369 47.74z" />
<glyph unicode="&#xe96b;" horiz-adv-x="996" d="M719.635 490.631c8.972 13.741 21.338 23.253 33.83 21.391-1.031 0.151-10.682-22.397-12.165-24.965-4.65-8.028-9.752-15.452-15.231-22.12-5.379-6.569-11.109-12.407-17.116-17.466-1.785-1.485-6.586-7.122-8.119-2.617-0.98 2.843 3.117 11.551 4.047 14.194 4.072 11.425 8.772 22.397 14.754 31.583z" />
<glyph unicode="&#xe96c;" horiz-adv-x="996" d="M984.216 619.606l-280.742-248.841-44.537 50.382 280.771 248.841c13.902 12.306 35.14 11.022 47.428-2.894 12.269-13.917 10.98-35.182-2.92-47.488z" />
<glyph unicode="&#xe96d;" horiz-adv-x="996" d="M658.911 421.147l-69.545-106.578 114.108 56.196-44.563 50.382z" />
<glyph unicode="&#xe96e;" horiz-adv-x="996" d="M929.143 633.755l-256.897-227.682 17.909-20.257 256.897 227.682-17.909 20.257z" />
<glyph unicode="&#xe96f;" horiz-adv-x="996" d="M614.324 352.797l-24.958-38.226 40.917 20.158-15.959 18.069z" />
<glyph unicode="&#xe970;" horiz-adv-x="996" d="M939.682 669.988l-28.552-25.317 44.536-50.383 28.549 25.317c13.9 12.306 15.189 33.571 2.892 47.488-12.288 13.916-33.527 15.2-47.425 2.894z" />
<glyph unicode="&#xe971;" horiz-adv-x="996" d="M915.804 648.869l-20.229-17.933 44.553-50.383 20.233 17.933-44.556 50.383z" />
<glyph unicode="&#xe972;" horiz-adv-x="996" d="M984.216 619.605c11.292 10.016 14.251 25.921 8.372 39.008-1.356 3.020-3.186 5.889-5.499 8.48l-397.723-352.523 114.108 56.196 280.742 248.84z" />
<glyph unicode="&#xe973;" horiz-adv-x="996" d="M826.529 475.154c6.46-11.576 6.988-43.285 3.996-56.196 9.903-1.66 21.088 14.069 30.99 12.407-3.745 11.752-4.826 24.361-3.117 36.591 0.553 4.051 1.307 8.582-1.156 11.853-3.092 4.127-9.451 3.7-14.252 1.812-4.775-1.912-11.335-6.87-16.463-6.467z" />
<glyph unicode="&#xe974;" horiz-adv-x="996" d="M783.953 293.783c0 0-62.031-57.856-75.452-103.985-13.396-46.129-32.348-124.143-32.348-124.143l34.585-6.795 35.465 109.975 56.124 58.712c0.025 0 2.639 57.831-18.373 66.237z" />
<glyph unicode="&#xe975;" horiz-adv-x="996" d="M783.953 293.783c0 0-23.726-22.12-44.99-49.929 3.368-17.717 7.415-35.334 11.385-52.572 1.106-4.857 2.262-9.689 3.444-14.521l48.534 50.785c0.025 0 2.639 57.831-18.373 66.237z" />
<glyph unicode="&#xe976;" horiz-adv-x="996" d="M848.798 281.124c-3.142-8.405-26.668-19-35.64-20.736-7.716-1.485-15.785 2.013-21.239 7.499s-10.833 12.382-10.933 20.032c-1.559 113.524 19.479 137.406 38.606 156.331 16.714 16.534 39.259 13.539 51.977-5.864 14.075-21.466 6.636-50.432 0.98-73.434-7.616-31.18-11.034-49.954-23.751-83.828z" />
<glyph unicode="&#xe977;" horiz-adv-x="996" d="M825.247 323.026c21.867 30.4 34.006 67.671 34.233 105.143-7.34-19.881-19.152-36.112-33.729-51.489-2.238-2.366-4.575-4.681-7.364-6.341-7.943-4.782-18.021-3.649-27.019-1.46-1.985 0.479-3.971 1.007-5.982 1.51-1.608-10.494-2.84-22.599-3.594-36.642 14.075-4.832 28.577-8.254 43.456-10.721z" />
<glyph unicode="&#xe978;" horiz-adv-x="996" d="M836.709 217.304c8.319 25.593 14.351 39.585 13.422 67.394-43.004-13.112-69.194 9.084-69.194 9.084-6.737-61.48-8.32-94.447-0.026-155.777 4.876-36.012 41.17-88.256 61.654-119.211 8.822 2.215 12.868 4.001 21.665 6.216-7.591 28.589-21.514 80.178-36.62 106.074 3.569 32.137-1.081 54.938 9.098 86.219z" />
<glyph unicode="&#xe979;" horiz-adv-x="996" d="M747.056 508.372c6.987 5.763 20.157 8.859 28.477 5.285 2.136-0.931 4.323-2.592 4.423-4.908 0.126-2.994-3.141-4.832-5.956-5.813-8.772-3.020-18.096-4.379-27.346-4.001-2.941 0.855-6.586 3.674 0.402 9.437z" />
<glyph unicode="&#xe97a;" horiz-adv-x="996" d="M808.911 368.954c2.739-0.176 5.58-0.353 8.118 0.629 3.946 1.51 6.409 5.361 8.395 9.085 6.61 12.306 11.16 25.719 13.396 39.51 1.357 8.381-0.679 17.918-7.063 23.505-16.061-12.784-26.767-32.061-29.156-52.471-4.348 0.126-8.922 0.201-13.471 0.302-1.408-5.688-2.664-11.979-3.745-19.026 7.842-0.503 15.683-1.007 23.525-1.535z" />
<glyph unicode="&#xe97b;" horiz-adv-x="996" d="M717.674 395.428c-2.287 3.071-4.977 6.166-8.646 7.323-3.669 1.133-8.445-0.578-9.274-4.328-1.157-5.36 5.982-10.444 3.845-15.502-0.628-1.459-1.91-2.516-2.639-3.901-1.382-2.693-0.327-6.116 1.734-8.305s4.951-3.423 7.766-4.529c3.946-1.561 8.043-2.995 12.291-2.844 2.588 0.101 5.303 0.906 6.987 2.869 3.343 3.85-0.477 9.589-2.287 13.287-2.79 5.587-6.058 10.923-9.777 15.93z" />
<glyph unicode="&#xe97c;" horiz-adv-x="996" d="M805.844 378.617c7.666 31.055 6.711 38.605 17.694 59.015 3.62 6.744 10.506 11.475 17.594 14.345s15.835 2.591 21.716-2.291c4.599-3.825 6.836-9.915 7.162-15.88s-1.106-11.878-2.789-17.616c-11.712-39.913-17.795-45.626-42.15-79.323-33.201 3.12-77.061 10.015-100.611 22.447-4.776 2.517-5.102 10.67-2.237 15.251 3.091 4.958 10.23 5.058 15.985 4.001 18.474-3.447 39.41-0.478 67.635 0.050z" />
<glyph unicode="&#xe97d;" horiz-adv-x="996" d="M674.545 73.103l40.742-10.997-4.398-13.842-39.862 10.596 3.519 14.243z" />
<glyph unicode="&#xe97e;" horiz-adv-x="996" d="M865.889 36.034l-29.431-13.464 6.409-13.212 28.501 13.212-5.479 13.464z" />
<glyph unicode="&#xe97f;" horiz-adv-x="996" d="M703.071 26.119v7.777c-25.385 0.327-50.795 0.679-76.181 1.006-0.754-0.755-1.256-1.636-1.181-2.693 0.201-2.642 3.67-3.447 6.309-3.548 23.676-0.856 47.352-1.711 71.053-2.542z" />
<glyph unicode="&#xe980;" horiz-adv-x="996" d="M806.070-11.501c-1.307-0.806-2.488-1.887-2.363-3.347 0.176-2.295 3.168-2.977 5.455-3.072 14.753-0.531 38.304-1.062 57.934-1.583 6.308-0.18 11.184 4.324 12.29 9.813-24.43-0.853-48.86-1.46-73.316-1.811z" />
<glyph unicode="&#xe981;" horiz-adv-x="996" d="M800.139 487.611c-1.005-8.078 0.025-20.611 5.429-26.701 4.423-4.958 11.737-6.569 18.272-5.411s12.417 4.681 17.77 8.607c9.199 6.744 17.343 14.923 24.078 24.134 6.283 8.606 11.511 19.453 8.369 29.645-2.312 7.45-8.771 12.986-15.759 16.459-8.494 4.228-18.473 6.014-27.647 3.624-23.198-6.040-27.999-30.426-30.512-50.357z" />
<glyph unicode="&#xe982;" horiz-adv-x="996" d="M859.858 491.21c1.583 7.071 0.125 14.772-3.921 20.762s-10.657 10.217-17.82 11.35c-6.434 1.032-12.969-0.327-19.403-1.234-6.46-0.905-13.296-1.308-19.203 1.435-5.202 2.416-9.124 7.147-11.335 12.432-2.238 5.285-2.891 11.123-2.765 16.861 0.075 4.027 0.553 8.128 2.060 11.878s4.123 7.147 7.691 9.009c4.8 2.492 11.109 1.786 15.206-1.762 4.122-3.523 5.781-9.639 4.071-14.772 4.398 6.518 11.059 11.349 18.348 14.345 4.449 1.812 10.129 2.592 13.547-0.78 2.162-2.139 2.79-5.486 2.288-8.506s-1.986-5.763-3.57-8.381c6.811 6.87 17.041 10.142 26.567 8.506 1.081-0.175 2.212-0.452 2.966-1.258 1.307-1.359 0.98-3.548 0.326-5.31-1.835-5.008-5.554-9.286-10.254-11.778 7.138-2.793 14.729-5.914 19.127-12.206 3.444-4.907 4.473-11.199 3.971-17.162-0.905-11.124-7.063-21.819-16.513-27.683-2.161-1.334-4.674-2.466-7.188-2.063-2.514 0.428-4.75 3.85-4.197 6.317z" />
<glyph unicode="&#xe983;" horiz-adv-x="996" d="M864.507 496.167c1.559 0.73 3.343 1.309 4.977 0.78 1.835-0.578 3.042-2.466 3.318-4.379 0.251-1.912-0.276-3.85-1.031-5.638-2.462-6.014-7.288-11.022-13.195-13.715-1.206-0.554-2.689-1.007-3.82-0.277-3.142 1.988-2.086 10.418-0.804 13.439 1.809 4.178 6.559 7.902 10.556 9.789z" />
<glyph unicode="&#xe984;" horiz-adv-x="996" d="M833.392 501.779c-1.458-3.674-4.248-5.989-6.233-5.209s-2.413 4.404-0.956 8.078c1.458 3.674 4.248 5.989 6.233 5.209 1.986-0.805 2.413-4.429 0.956-8.078z" />
<glyph unicode="&#xe985;" horiz-adv-x="996" d="M812.58 501.779c-1.457-3.674-4.248-5.989-6.233-5.209s-2.413 4.404-0.955 8.078c1.457 3.674 4.248 5.989 6.233 5.209 1.985-0.805 2.413-4.429 0.955-8.078z" />
<glyph unicode="&#xe986;" horiz-adv-x="996" d="M809.69 489.045c-0.83-0.277-1.71-0.478-2.438-0.956s-1.332-1.308-1.181-2.189c0.151-0.881 0.98-1.485 1.809-1.812 2.69-1.083 5.957-0.202 7.967 1.862 2.011 2.089 2.79 5.209 2.238 8.053-0.151 0.831-0.779 2.516-1.885 1.888-0.755-0.428-1.006-2.165-1.433-2.895-1.131-1.837-3.016-3.246-5.077-3.951z" />
<glyph unicode="&#xe987;" horiz-adv-x="996" d="M823.539 473.745c-0.778 0-1.558 0.075-2.312 0.251-0.679 0.151-1.106 0.831-0.956 1.509s0.83 1.107 1.509 0.957c2.136-0.478 4.473-0.050 6.308 1.158 1.81 1.208 3.117 3.221 3.494 5.36 0.126 0.68 0.779 1.158 1.458 1.033s1.13-0.78 1.030-1.46c-0.503-2.818-2.211-5.436-4.599-7.021-1.734-1.158-3.845-1.786-5.932-1.786z" />
<glyph unicode="&#xe988;" horiz-adv-x="996" d="M675.123 676.154c-5.831-6.291-17.845-14.42-26.065-16.987-20.182-31.735-4.449-35.71 11.939-26.701 6.51 3.574 13.019 7.172 19.504 10.745 1.080 0.604 2.237 1.259 2.814 2.341 0.88 1.611 0.302 3.598-0.302 5.335-2.739 7.902-1.684 19.704-7.891 25.266z" />
<glyph unicode="&#xe989;" horiz-adv-x="996" d="M598.565 415.334c-4.071-5.738-7.716-11.752-10.883-18.044-0.679-1.334-1.332-2.819-0.88-4.253 0.428-1.333 1.734-2.214 3.117-2.491 1.358-0.277 2.765-0.076 4.147 0.125-1.96-6.971-4.449-18.22-4.172-19.881 0.276-1.636 1.508-3.246 3.167-3.347 2.011-0.151 7.415 7.525 11.813 15.175 3.167 1.284 6.434 2.693 9.249 4.631s5.253 4.58 6.309 7.826c1.583 4.883-0.202 10.319-3.117 14.571-1.785 2.618-4.047 4.983-6.787 6.543-2.765 1.561-8.872-0.151-11.964-0.855z" />
<glyph unicode="&#xe98a;" horiz-adv-x="996" d="M671.729 620.789c4.424-72.678-19.604-152.178-52.505-217.609-8.546-0.881-16.312-0.352-24.404 2.517 4.071 57.051 15.382 113.398 30.135 168.661 2.514 9.387 5.278 19.051 11.511 26.474 6.259 7.45 26.341 23.707 35.263 19.957z" />
<glyph unicode="&#xe98b;" horiz-adv-x="996" d="M707.445 624.967c-6.886-5.16-19.127-10.897-27.999-9.538-7.239 1.107-13.095 6.493-15.91 12.659-2.84 6.166-3.066 13.036-2.614 19.654 0.779 11.375 3.468 22.649 7.993 33.244 4.222 9.916 11.16 20.108 22.495 22.826 8.294 1.988 17.267-0.554 24.657-4.655 8.998-4.983 16.588-12.482 19.855-21.568 8.244-22.901-11.486-39.913-28.477-52.621z" />
<glyph unicode="&#xe98c;" horiz-adv-x="996" d="M668.537 680.331c13.673-3.951 24.279-1.888 31.116 11.349 3.392-15.603 32.9-68.727 61.427-43.285-13.999 7.248-13.195 21.945-17.87 36.239-1.885 5.713-4.675 11.349-9.299 15.627s-11.286 7.022-17.745 6.166c3.77 1.384 7.415 3.070 10.833 5.034 1.156 0.679 2.387 1.535 2.488 2.793 0.126 1.812-2.212 2.894-4.172 3.171-5.001 0.73-10.33-0.629-14.126-3.624-1.357 5.159-4.977 9.84-9.902 12.759-1.207 0.73-2.539 1.359-3.996 1.485-1.433 0.126-2.991-0.377-3.745-1.485-0.653-0.981-0.603-2.215-0.428-3.347 0.679-4.278 2.74-8.381 5.907-11.652-9.426 1.485-18.876-3.447-24.681-10.293s-8.646-15.301-11.386-23.58c1.307 0.428 4.248 2.215 5.58 2.642z" />
<glyph unicode="&#xe98d;" horiz-adv-x="996" d="M676.957 684.156c-0.251 1.711-0.778 3.523-2.261 4.656-1.634 1.258-4.123 1.283-6.058 0.478s-3.418-2.29-4.624-3.85c-4.097-5.285-5.857-12.029-4.826-18.472 0.201-1.334 0.679-2.819 2.011-3.397 3.72-1.611 10.907 3.75 12.919 6.443 2.865 3.724 3.468 9.764 2.84 14.143z" />
<glyph unicode="&#xe98e;" horiz-adv-x="996" d="M700.734 660.702c-2.538-3.171-3.016-6.794-1.106-8.053s5.53 0.302 8.043 3.473c2.538 3.171 3.016 6.794 1.106 8.053-1.911 1.284-5.53-0.277-8.043-3.473z" />
<glyph unicode="&#xe98f;" horiz-adv-x="996" d="M713.15 643.036c-2.538-3.172-3.016-6.795-1.106-8.054s5.53 0.302 8.043 3.473c2.538 3.171 3.016 6.794 1.106 8.054s-5.504-0.302-8.043-3.473z" />
<glyph unicode="&#xe990;" horiz-adv-x="996" d="M703.072 633.85c0.226-0.856 0.577-1.711 0.577-2.592s-0.427-1.838-1.307-2.165c-0.905-0.352-1.961 0.050-2.765 0.579-2.588 1.711-3.745 4.957-3.016 7.776s3.167 5.134 6.133 6.191c0.854 0.302 2.79 0.679 2.865-0.604 0.050-0.856-1.407-1.988-1.835-2.769-1.055-1.963-1.232-4.304-0.653-6.417z" />
<glyph unicode="&#xe991;" horiz-adv-x="996" d="M680.626 637.473c0.453-0.654 1.006-1.283 1.609-1.812 0.553-0.503 1.433-0.503 1.961 0 0.527 0.479 0.527 1.284-0.026 1.787-1.709 1.535-2.715 3.775-2.689 5.964s1.106 4.354 2.89 5.814c0.553 0.478 0.603 1.258 0.076 1.786s-1.408 0.554-1.961 0.101c-2.313-1.912-3.72-4.756-3.77-7.625-0.026-2.113 0.678-4.228 1.91-6.015z" />
<glyph unicode="&#xe992;" horiz-adv-x="996" d="M408.351 134.459c5.68 0.779 11.437 1.535 17.091 0.654s11.285-3.675 14.276-8.557c3.644-5.964 2.664-13.614 0.804-20.359-3.569-12.936-9.878-24.914-16.287-36.692-14.98-27.607-30.764-54.761-46.523-81.916-4.775-0.028-10.431-0.578-14.954 0.929-4.525 1.517-8.722 4.864-9.978 9.463-0.88 3.252-0.251 6.694 0.402 10.022 5.756 29.467 11.511 58.936 17.242 88.405 1.86 9.513 3.87 19.403 9.828 27.028 5.932 7.651 19.604 15.653 28.099 11.023z" />
<glyph unicode="&#xe993;" horiz-adv-x="996" d="M428.232 76.979c-0.577 0.881-1.156 1.787-1.608 2.668-5.932 11.526-9.5 24.259-10.431 37.195-0.452 6.166-0.277 12.382 0.503 18.548-2.789-0.176-5.554-0.554-8.319-0.931-1.232 0.679-2.614 1.056-4.022 1.233-4.725-1.233-9.425-2.516-14.15-3.8-3.996-2.34-7.565-5.41-9.928-8.43-4.222-5.411-6.459-11.979-8.068-18.724 3.519-4.782 6.811-9.764 10.23-14.596 9.551-13.489 20.56-25.946 32.724-37.094 3.042 5.486 6.108 10.972 9.098 16.508 1.332 2.441 2.664 4.933 3.971 7.424z" />
<glyph unicode="&#xe994;" horiz-adv-x="996" d="M409.306 60.068c-5.128 8.255-10.28 16.585-16.714 23.883-5.554 6.317-13.698 12.256-21.715 9.714-0.377-0.126-0.704-0.302-1.081-0.453-2.765-14.143-5.53-28.286-8.269-42.43 1.433-0.377 2.865-0.755 4.046-1.359 8.873-4.379 15.433-12.885 19.153-21.919 2.564-6.191 3.971-12.735 4.901-19.407 8.345 14.423 16.613 28.894 24.731 43.465-1.608 2.894-3.342 5.713-5.052 8.506z" />
<glyph unicode="&#xe995;" horiz-adv-x="996" d="M235.581 236.355c35.59-41.021 76.432-77.435 121.221-108.113-4.222-5.411-9.023-11.274-15.809-12.13-5.58-0.705-10.907 2.164-15.784 4.932-22.294 12.659-44.915 25.569-62.86 43.889-17.97 18.347-28.326 45.802-26.767 71.421z" />
<glyph unicode="&#xe996;" horiz-adv-x="996" d="M235.581 236.355c-1.559-25.619 8.822-53.1 26.767-71.421 5.731-5.838 11.964-11.098 18.474-16.005 0.125 4.856 0.175 9.714 0.101 14.57-0.151 9.035-0.653 18.145-1.509 27.18-15.356 14.521-30.010 29.746-43.833 45.676z" />
<glyph unicode="&#xe997;" horiz-adv-x="996" d="M193.858 247.931c-12.391-4.655-24.581-9.664-36.57-14.973-4.473-1.988-9.149-4.203-11.536-7.953-3.192-5.008-1.433-11.274 0.428-16.887 15.432-46.808 32.749-93.214 51.876-139.167 1.206-2.894 17.367-43.109 20.459-43.562 16.714-2.542 20.182 34.93 36.922 36.163 4.574 0.327 9.35 0.881 12.919 3.196 4.549 2.944 6.133 8.053 7.314 12.834 5.379 21.592-14.803 130.611-28.451 151.222-13.673 20.661-28.528 28.462-53.36 19.126z" />
<glyph unicode="&#xe998;" horiz-adv-x="996" d="M268.556 111.003c2.061-0.704 4.398-1.308 6.61-1.334-1.031 9.639-2.539 20.51-4.424 31.709-11.084 1.586-21.916 4.53-32.373 8.632-6.208 2.441-12.29 5.26-18.197 8.381-20.057 10.645-38.103 24.662-55.32 39.486 6.635-12.307 13.396-24.738 22.746-35.132 8.395-9.312 18.649-16.71 29.005-23.732 16.337-11.098 33.327-21.542 51.952-28.009z" />
<glyph unicode="&#xe999;" horiz-adv-x="996" d="M204.741 270.077c-2.212-9.538-2.538-19.529-1.031-29.193 0.754-4.857-3.117-9.135-7.992-8.758-3.871 0.277-7.717 0.831-11.511 1.737-1.483 0.352-3.016 0.779-4.123 1.786-1.533 1.41-1.985 3.649-2.313 5.713-1.558 9.387-3.141 18.774-4.7 28.161-0.452 2.667-0.854 5.586 0.503 7.927 1.835 3.171 6.032 3.875 9.701 4.001 3.971 0.126 8.068-0.076 11.687-1.737s10.682-5.737 9.777-9.638z" />
<glyph unicode="&#xe99a;" horiz-adv-x="996" d="M231.785 294.111c2.338-8.28 3.343-21.769-1.106-29.595-3.619-6.367-10.732-9.915-17.493-10.368s-13.246 1.786-19.278 4.581c-10.355 4.782-19.881 11.349-28.15 19.352-7.742 7.474-14.754 17.617-13.246 29.193 1.106 8.481 6.685 15.931 13.145 21.391 7.867 6.644 17.568 11.073 27.219 10.871 24.305-0.478 33.127-25.015 38.907-45.424z" />
<glyph unicode="&#xe99b;" horiz-adv-x="996" d="M196.045 300.604c2.061-3.499 5.253-5.26 7.113-3.926s1.709 5.259-0.352 8.758c-2.061 3.498-5.253 5.259-7.113 3.925-1.885-1.334-1.71-5.259 0.352-8.757z" />
<glyph unicode="&#xe99c;" horiz-adv-x="996" d="M216.956 305.889c2.061-3.499 5.253-5.259 7.113-3.926s1.709 5.26-0.352 8.758c-2.061 3.498-5.254 5.259-7.113 3.926s-1.71-5.235 0.352-8.758z" />
<glyph unicode="&#xe99d;" horiz-adv-x="996" d="M221.933 293.18c0.88-0.101 1.784-0.076 2.614-0.377s1.558-1.057 1.558-2.014c0-0.956-0.754-1.812-1.533-2.365-2.538-1.813-5.956-1.737-8.319-0.051s-3.645 4.807-3.569 7.953c0.025 0.905 0.376 2.869 1.583 2.466 0.83-0.251 1.357-2.039 1.911-2.693 1.457-1.711 3.569-2.693 5.755-2.919z" />
<glyph unicode="&#xe99e;" horiz-adv-x="996" d="M210.522 273.5c0.779 0.201 1.559 0.478 2.287 0.855 0.653 0.327 0.98 1.158 0.704 1.838s-1.006 0.956-1.659 0.629c-2.061-1.057-4.499-1.208-6.51-0.377-2.036 0.806-3.669 2.592-4.398 4.782-0.226 0.704-0.955 1.007-1.634 0.704s-1.031-1.107-0.779-1.786c0.956-2.843 3.118-5.184 5.756-6.242 1.911-0.831 4.122-0.931 6.233-0.402z" />
<glyph unicode="&#xe99f;" horiz-adv-x="996" d="M167.895 276.293c4.147 5.109 6.61 11.551 6.886 18.119s-1.634 13.212-5.329 18.648c14.553 2.064 28.352 5.662 42.124 10.771 5.932 2.215 12.215 5.084 15.080 10.746 2.137 4.178 1.961 9.186 0.905 13.741-3.192 13.815-13.648 24.738-24.732 33.571 1.936-5.839 3.896-11.652 5.831-17.49-5.454 5.839-11.964 10.67-19.152 14.169 3.896-7.903 7.037-16.157 9.4-24.638-13.572 1.208-27.874-0.176-39.837-6.72-11.938-6.543-21.238-18.975-21.44-32.59-0.125-8.506 3.243-16.836 8.495-23.506 5.278-6.668 14.151-11.022 21.767-14.822z" />
<glyph unicode="&#xe9a0;" horiz-adv-x="996" d="M165.683 286.763c-1.684 0.377-3.569 0.528-5.152-0.453-1.76-1.082-2.664-3.397-2.614-5.486s0.905-4.001 1.961-5.713c3.468-5.713 9.123-9.79 15.507-11.124 1.307-0.277 2.865-0.377 3.871 0.68 2.84 2.894 0.402 11.526-1.382 14.395-2.489 4.001-7.892 6.72-12.19 7.701z" />
<glyph unicode="&#xe9a1;" horiz-adv-x="996" d="M166.613 149.406c17.87-14.571 36.796-27.833 57.406-38.050 16.539-8.204 34.258-14.37 52.404-17.566-0.302 6.87-1.055 15.125-2.212 24.16-8.068 2.894-16.061 5.989-23.927 9.412-34.911 15.174-67.66 35.282-96.966 59.592 4.298-12.557 8.721-25.065 13.296-37.548z" />
<glyph unicode="&#xe9a2;" horiz-adv-x="996" d="M182.673 202.708c5.329-22.197 24.305-40.668 46.875-52.522s48.609-17.868 74.497-22.674c1.583-2.189 2.514-4.278 3.041-6.795 0.553-2.541-0.201-5.436-2.588-6.995-1.985-1.284-4.65-1.435-7.139-1.485-32.925-0.579-65.976 8.128-92.869 24.361-26.919 16.231-47.579 39.888-58.211 66.538-1.583 3.977-2.99 8.128-2.84 12.332s2.060 8.556 5.982 11.098c6.509 4.202 16.387 2.013 22.117-2.945 5.731-4.908 9.476-14.092 11.134-20.912z" />
<glyph unicode="&#xe9a3;" horiz-adv-x="996" d="M429.363 157.662c1.081-4.707 0.93-18.12 1.86-24.134-45.845-16.61-93.449-23.103-142.435-36.843-7.741-2.165-15.482-4.328-23.224-6.518-2.789-0.78-5.932-1.535-8.494-0.176s-3.319 5.839-0.629 6.945c49.74 20.309 97.52 45.852 148.566 62.613 3.846 1.258 7.766 2.517 11.813 2.592 4.022 0.076 11.638-0.528 12.542-4.479z" />
<glyph unicode="&#xe9a4;" horiz-adv-x="996" d="M313.471 211.24l118.683 17.49c5.932 0.881 10.983-4.329 9.902-10.243-5.178-28.085-8.847-56.473-10.833-84.96-41.999-5.612-82.213-10.646-130.772-18.020 3.217 32.816 4.776 58.889 5.53 87.25 0.101 4.278 3.267 7.852 7.49 8.481z" />
<glyph unicode="&#xe9a5;" horiz-adv-x="996" d="M390.28 169.816c-1.433-8.153-8.118-13.815-14.954-12.608-6.836 1.182-11.235 8.783-9.803 16.937s8.119 13.815 14.955 12.608c6.836-1.208 11.21-8.783 9.802-16.937z" />
<glyph unicode="&#xe9a6;" horiz-adv-x="996" d="M231.685 12.227c14.453-5.211 31.896-3.827 46.498 0.957 33.705 11.022 60.572 36.288 86.209 60.8 17.745-25.669 39.335-50.306 57.079-75.975 3.795-5.49 7.967-11.302 14.2-13.691s22.37 16.962 21.59 22.073c-0.779 5.129-3.192 9.838-5.63 14.418-14.779 27.708-31.719 54.182-49.564 80.002-6.736 9.765-14.427 20.007-25.737 23.556-11.788 3.674-24.381-0.931-35.942-5.285-37.223-14.017-67.308-18.522-108.679-31.458-47.352-14.772-23.399-66.966-0.026-75.397z" />
<glyph unicode="&#xe9a7;" horiz-adv-x="996" d="M506.575-6.22c1.634-0.322 3.569-0.929 3.946-2.541 0.452-1.934-1.71-3.394-3.569-4.181-18.549-7.746-38.732-10.515-58.638-13.208-2.488-0.332-5.127-0.654-7.415 0.398-2.663 1.233-4.197 4.030-5.328 6.722-1.181 2.769-2.162 5.793-1.684 8.761 0.678 4.153 4.147 7.348 7.817 9.387 2.865 1.583 7.54 4.608 10.857 4.731 3.594 0.123 8.043-1.536 11.612-2.162 9.124-1.64 18.247-3.3 27.346-5.035 5.001-0.939 10.028-1.887 15.055-2.873z" />
<glyph unicode="&#xe9a8;" horiz-adv-x="996" d="M346.246-14.753c-0.805-2.712-1.408-5.736-0.302-8.353 0.979-2.313 3.217-3.897 5.579-4.703s4.927-0.929 7.415-1.005c13.422-0.503 26.844-0.455 40.291-0.408 3.77 0 7.54 0.028 11.259 0.626 2.087 0.36 4.65 1.564 4.374 3.65-0.176 1.489-1.734 2.342-3.092 2.977-10.103 4.551-20.333 8.856-30.663 12.857-5.253 2.039-10.506 4.001-15.809 5.888-2.99 1.052-8.671 4.324-11.964 2.996-4.021-1.688-5.982-10.771-7.087-14.526z" />
<glyph unicode="&#xe9a9;" horiz-adv-x="1400" d="M567.319 202.39c0 0 9.331-85.678 19.77-92.55 18.663-12.336 234.694-40.856 234.694-40.856l-7.072-56.304c0 0-295.882-26.64-308.452-11.824-21.816 25.696-60.164 149.664-60.164 149.664l121.223 51.87z" />
<glyph unicode="&#xe9aa;" horiz-adv-x="1400" d="M424.663 422.967l23.904 57.502c0 0 64.851-30.523 86.241-68.218 22.882-40.299 50.876-254.556 50.876-254.556s-114.491-26.424-135.541-15.2c-21.049 11.232-25.48 280.471-25.48 280.471z" />
<glyph unicode="&#xe9ab;" horiz-adv-x="1400" d="M242.594 689.861c-16.746 6.147-34.47 11.526-52.41 10.16s-36.26-10.886-42.354-26.681c-4.346-11.184-2.343-24.375-9.203-34.45-6.562-9.647-19.6-13.66-31.786-14.471-12.229-0.854-24.543 0.768-36.687-0.811-37.496-4.994-64.255-45.806-51.941-79.232 4.9-13.319 14.956-26.040 12.655-39.914-2.429-14.856-17.981-24.632-24.373-38.421-8.479-18.356 1.662-40.598 18.407-53.106 16.745-12.465 38.519-17.203 59.653-20.362 29.102-4.354 59.142-6.403 87.903-0.256s56.244 21.345 71.114 45.080c6.605 10.502 10.61 22.369 18.28 32.23 15.85 20.362 43.93 28.26 66.044 42.69 24.159 15.838 41.885 46.659 27.654 70.779-13.72 23.18-49.427 28.346-63.744 51.184-5.922 9.434-7.329 20.662-11.163 30.95-3.92 10.33-13.294 15.538-38.050 24.631z" />
<glyph unicode="&#xe9ac;" horiz-adv-x="1400" d="M340.17 405.507c4.218-4.867 9.203-10.203 16.106-10.673 7.286-0.512 13.379 4.654 18.066 9.648 24.202 25.656 40.181 57.161 46.658 89.648-6.008 3.415-11.803 6.702-17.044 9.776-4.858 2.902-8.522 6.958-10.61 11.697-1.449 3.5-1.96 7.172-1.577 11.014 3.409 32.102 6.434 49.99 17.683 82.562-53.432 12.081-103.839 26.425-132.814 50.672-3.536-14.941-7.712-44.183-16.618-73.17-9.502-30.694-24.33-61.046-49.469-74.109 49.342-29.199 93.357-65.486 129.618-107.065z" />
<glyph unicode="&#xe9ad;" horiz-adv-x="1400" d="M391.77 526.574c-0.383-3.842 0.128-7.556 1.577-11.014-31.617-38.421-102.306 11.782-133.325 71.078 8.906 28.986 13.081 58.229 16.618 73.17 28.932-24.247 79.381-38.634 132.814-50.672-11.25-32.572-14.274-50.417-17.683-82.562z" />
<glyph unicode="&#xe9ae;" horiz-adv-x="1400" d="M479.8 62.112c-6.988-46.36 42.95-96.264 44.186-121.024-106.054 0-328.219-6.488-441.346 8.92-5.156 28.608 50.705 92.936 50.705 156.456 0 8.416-0.341 17.632-1.022 27.536-1.79 28.348-5.966 62.073-10.61 96.651-12.612 92.764-29.4 191.974-17.001 212.55 24.287 40.086 81.086 67.322 109.25 79.018 9.672 4.013 15.978 6.19 16.447 6.446 35.323-60.363 107.205-111.846 134.347-109.542 7.542 0.598 29.911 8.41 44.697 82.988 5.753-3.286 11.505-6.318 17.214-9.263 28.079-14.642 54.412-26.724 61.997-45.55 20.026-49.562 39.669-174.514 35.322-218.954-4.388-44.824-22.37-79.058-34.982-124.058-2.94-10.544-5.625-21.728-7.798-33.768-0.554-2.688-0.98-5.504-1.406-8.408z" />
<glyph unicode="&#xe9af;" horiz-adv-x="1400" d="M523.986-58.912c-106.055 0-328.22-6.488-441.347 8.92-5.156 28.608 50.705 92.936 50.705 156.456 0 8.416-0.341 17.632-1.022 27.536-1.79 28.348-5.966 62.073-10.61 96.651 20.069-21.217 49.342 68.431 62.294 42.177 70.092-141.732 125.357-178.996 221.398-178.996 28.633 0 55.051 3.968 83.599 10.456-2.94-10.544-5.625-21.728-7.798-33.768-0.511-2.728-0.98-5.544-1.406-8.448-6.987-46.28 42.95-96.184 44.186-120.984z" />
<glyph unicode="&#xe9b0;" horiz-adv-x="1400" d="M426.666 492.85c-4.559-33.17-18.066-77.866-57.352-89.648-53.091-15.923-129.916 83.458-155.354 119.018 9.673 4.013 15.978 6.19 16.447 6.446 35.323-60.363 107.205-111.846 134.347-109.542 7.542 0.598 29.912 8.41 44.698 82.988 5.752-3.244 11.504-6.275 17.214-9.263z" />
<glyph unicode="&#xe9b1;" horiz-adv-x="1400" d="M448.482-9.008l-0.384-36.968 660.446-3.968 1.36 41.96-661.422-1.024z" />
<glyph unicode="&#xe9b2;" horiz-adv-x="1400" d="M1394.792 321.195l-14.704 14.941-481.056 3.159-241.338-349.671 12.612-10.16 724.486 341.731z" />
<glyph unicode="&#xe9b3;" horiz-adv-x="1400" d="M908.32 326.36l-238.014-346.896 454.638-2.264 269.848 343.995-486.472 5.165z" />
<glyph unicode="&#xe9b4;" horiz-adv-x="1400" d="M1023.2 104.928c29.224 0 52.92 11.872 52.92 26.512s-23.696 26.512-52.92 26.512c-29.232 0-52.928-11.872-52.928-26.512s23.696-26.512 52.928-26.512z" />
<glyph unicode="&#xe9b5;" horiz-adv-x="1400" d="M554.36 650.908c7.497 40.307-7.937 76.998-34.472 81.953s-54.125-23.705-61.622-64.012c-7.498-40.307 7.936-76.998 34.472-81.953s54.125 23.706 61.622 64.012z" />
<glyph unicode="&#xe9b6;" horiz-adv-x="1400" d="M554.41 777.374c-4.942-35.090-20.58-73.767-43.376-116.499-8.011 35.006-13.124 77.652-20.197 120.298-7.202 42.733-16.362 85.465-32.255 120.384-3.579 7.727-7.457 15.112-11.675 21.942 9.417 0.896 18.961 0 28.037-2.519 14.189-3.799 27.483-11.142 38.348-20.96 18.066-16.094 30.168-38.036 37.369-61.174 5.922-19.21 6.988-39.616 3.75-61.473z" />
<glyph unicode="&#xe9b7;" horiz-adv-x="1400" d="M527.65 741.089c-0.255-6.916-0.724-13.96-1.363-20.961-9.715-113.554-57.31-191.462-130.129-191.462-102.816 0-169.458 115.518-169.458 228.687 0 111.633 68.261 192.444 148.153 183.095 46.061-5.293 79.722-20.619 103.626-43.074 15.808-14.941 27.227-32.999 35.025-53.533 8.905-23.010 13.209-49.050 14.103-77.097 0-0.086 0.086-0.171 0.086-0.256 0.341-8.282 0.255-16.734-0.043-25.4z" />
<glyph unicode="&#xe9b8;" horiz-adv-x="1400" d="M527.65 741.089c-3.068 10.971-7.627 21.686-13.848 31.291-60.633-31.761-132.898-44.013-201.414-32.402-13.038-10.886-25.778-21.601-38.604-32.316 0.256 51.654 0.98 86.617 21.092 111.633 18.876 23.479 50.364 32.316 80.19 36.158 33.576 4.397 67.706 4.226 101.197-0.641 12.826-1.793 26.12-4.567 37.283-11.056 8.906-23.010 13.21-49.050 14.104-77.098 0-0.085 0.086-0.17 0.086-0.256 0.298-8.196 0.213-16.649-0.086-25.314z" />
<glyph unicode="&#xe9b9;" horiz-adv-x="1400" d="M542.478 811.014c-14.103-11.953-31.786-21.857-51.642-29.882-56.5-22.838-129.916-30.394-187.14-27.62-28.122-61.9-39.499-84.098-46.7-138.1-27.482 25.827-49.853 73.126-56.5 110.31-6.562 37.054-5.922 75.944 4.389 112.358 16.234 57.417 57.182 88.154 85.56 103.095 7.073 3.885 13.464 6.574 18.407 8.538 36.26 14.045 77.122 12.764 114.321 1.366 20.282-6.318 37.368-16.99 51.727-30.139 29.018-26.254 46.956-61.814 58.546-88.453 3.664-8.154 6.604-15.538 9.033-21.473z" />
<glyph unicode="&#xe9ba;" horiz-adv-x="1400" d="M554.409 777.374c-2.344 12.422-5.838 24.461-10.78 36.073-2.77 6.574-6.178 12.934-10.142 19.082-12.91 20.321-31.701 37.055-54.412 44.44-6.476 9.093-13.294 17.289-20.452 24.546-25.779 26.254-56.031 41.281-88.074 46.532-26.674 4.312-54.412 1.878-80.020-6.83 7.073 3.885 13.464 6.574 18.407 8.538 36.26 14.045 77.122 12.764 114.321 1.366 20.282-6.318 37.368-16.99 51.727-30.139 14.189-3.799 27.483-11.142 38.349-20.96 18.066-16.094 30.167-38.036 37.368-61.174 5.88-19.21 6.946-39.616 3.707-61.473z" />
<glyph unicode="&#xe9bb;" horiz-adv-x="1400" d="M336.463 707.748c19.003 10.886 38.731 15.795 66.385 5.678" />
<glyph unicode="&#xe9bc;" horiz-adv-x="1400" d="M466.592 708.516c16.277 12.166 40.394 13.405 52.963 0" />
<glyph unicode="&#xe9bd;" horiz-adv-x="1400" d="M446.949 646.446c1.662-8.623 0.767-27.706-3.324-36.286" />
<glyph unicode="&#xe9be;" horiz-adv-x="1400" d="M382.737 640.64c4.33 0 7.84 5.542 7.84 12.38s-3.51 12.38-7.84 12.38c-4.33 0-7.84-5.542-7.84-12.38s3.51-12.38 7.84-12.38z" />
<glyph unicode="&#xe9bf;" horiz-adv-x="1400" d="M485.212 646.403c4.33 0 7.84 5.542 7.84 12.38s-3.51 12.38-7.84 12.38c-4.33 0-7.84-5.542-7.84-12.38s3.51-12.38 7.84-12.38z" />
<glyph unicode="&#xe9c0;" horiz-adv-x="1400" d="M437.234 593.298c0 0-1.534-2.988-4.474-7.044-4.602-6.19-12.442-14.728-23.137-18.058h-0.043c-4.516-1.451-9.416-1.963-14.87-0.982-16.021 2.86-20.239 17.674-21.006 29.071-0.17 2.22-0.17 4.269-0.128 6.147 0.086 4.61 0.597 7.684 0.597 7.684 25.523-14.087 63.062-16.819 63.062-16.819z" />
<glyph unicode="&#xe9c1;" horiz-adv-x="1400" d="M437.227 593.298c0 0-1.534-2.988-4.474-7.044-13.038 0.171-39.712 6.873-59.184 16.179 0.085 4.61 0.596 7.684 0.596 7.684 25.523-14.087 63.062-16.819 63.062-16.819z" />
<glyph unicode="&#xe9c2;" horiz-adv-x="1400" d="M409.58 568.238c-4.517-1.451-9.417-1.964-14.87-0.982-16.022 2.86-20.239 17.674-21.006 29.071 7.755-0.939 15.254-3.927 21.475-8.666 6.519-4.995 11.504-11.782 14.402-19.424z" />
<glyph unicode="&#xe9c3;" horiz-adv-x="1400" d="M257.252 727.342c0 0-0.894 53.234 21.22 106.126 27.738 66.382 84.281 94.771 139.119 96.692 66.087 2.348 107.461-42.092 107.461-42.092s-21.518 38.036-63.957 48.965c-27.866 7.172-69.922 8.324-103.669-5.422-34.769-14.13-78.102-53.362-93.783-94.814-15.638-41.451-23.264-105.998-23.264-105.998l16.873-3.458z" />
<glyph unicode="&#xe9c4;" horiz-adv-x="1400" d="M256.141 588.777c28.298 2.947 47.623 40.162 43.166 83.121s-31.011 75.396-59.308 72.448c-28.298-2.947-47.623-40.162-43.166-83.121s31.011-75.396 59.308-72.448z" />
<glyph unicode="&#xe9c5;" horiz-adv-x="1400" d="M243.115 602.572c18.268 2.75 29.162 31.081 24.333 63.279s-23.554 56.070-41.821 53.32c-18.268-2.75-29.162-31.082-24.334-63.279s23.554-56.070 41.822-53.32z" />
<glyph unicode="&#xe9c6;" horiz-adv-x="1400" d="M418.017 527.086c15.154 0 27.44 7.664 27.44 17.118s-12.286 17.118-27.44 17.118c-15.155 0-27.441-7.664-27.441-17.118s12.286-17.118 27.441-17.118z" />
<glyph unicode="&#xe9c7;" horiz-adv-x="1400" d="M280.176 601.451c0 0 40.308-51.91 110.401-57.246" />
<glyph unicode="&#xe9c8;" horiz-adv-x="1400" d="M448.099 89.832l-2.642-68.264c0 0-246.41-73.976-287.102-50.584-19.856 11.44-38.391 74.36-52.239 135.792-14.487 64.548-23.776 127.387-23.776 127.387l144.446 28.346c0 0 0.086-88.239 4.986-139.253 1.746-19 4.261-32.832 7.626-35.088 12.741-8.416 208.701 1.664 208.701 1.664z" />
<glyph unicode="&#xe9c9;" horiz-adv-x="1400" d="M231.772 123.328c-26.248-8.536-76.91-21.728-125.655-16.52-14.487 64.547-23.776 127.386-23.776 127.386l144.446 28.346c0 0.042 0.085-88.196 4.986-139.212z" />
<glyph unicode="&#xe9ca;" horiz-adv-x="1400" d="M441.069 89.136c36.644 7.856 98.683 26.72 124.419 33.216 18.279 4.608 65.874-20.064 78.443-43.336 5.497-10.16 10.695-67.704-8.351-61.768-9.545 2.984-7.968 27.664-10.95 37.736-2.429 8.2-10.184 16.136-21.986 22.968 7.882-19.68 7.584-36.84 6.732-58.104-0.17-4.696-0.469-9.6-2.727-13.656-2.301-4.056-7.243-6.96-11.504-5.168-4.346 1.792-5.838 7.216-6.818 11.952-3.366 16.392-6.775 32.784-8.138 51.312 0.341-18.224-0.042-36.496-1.194-54.68-0.852-13.92-7.754-21.56-16.234-19.128-3.792 1.064-5.326 4.568-6.946 9.176-2.557-8.92-8.948-18.784-17.214-15.024-5.027 2.264-8.138 20.448-7.243 39.144-15.85-9.856-33.746-14.040-54.37-14.984-18.492-0.848-37.411 2.608-48.532 15.2 1.108 19.68 7.585 48.792 12.613 65.144z" />
<glyph unicode="&#xe9cb;" horiz-adv-x="1400" d="M210.552 405.678c-10.482 29.584-48.873 90.118-48.873 90.118s-58.588-24.418-79.381-65.87c-35.196-70.181-17.3-271.677-17.3-271.677 47.424-19.888 142.613-20.192 183.135-14.472 0 0-16.575 202.777-37.582 261.902z" />
<glyph unicode="&#xe9cc;" horiz-adv-x="1202" d="M604.323 579.188c-46.628-0.712-114.728-8.59-138.655-19.634s-63.806-71.171-120.863-166.884l-28.835 160.135-79.757-17.793c0 0 34.358-201.241 47.241-252.779s64.419-46.629 93.868-3.067c29.449 43.561 70.555 99.394 70.555 99.394v-330.086h317.189v228.237c0 0 8.589-39.88 31.903-93.872s68.101-134.979 68.101-134.979h83.438c0 0-90.801 188.971-97.55 213.512s-35.584 219.648-53.989 258.301c-18.406 38.654-33.13 61.968-192.644 59.514z" />
<glyph unicode="&#xe9cd;" horiz-adv-x="1202" d="M885.92 89.654c-16.147 21.548-33.743 43.292-46.235 67.219-6.135 11.731-11.779 24.984-11.485 38.482 0.123 5.522 3.362 10.651 5.547 15.584 1.423 3.215 3.362 7.117 3.436 10.749 0.024 1.89-0.54 9.007-3.731 8.123-9.031-2.503-18.503 10.062-23.362 16.148-7.804 9.817-13.13 21.597-17.056 33.451-8.492 25.646-11.461 52.691-19.069 78.582-5.423-11.83-6.307-25.474-6.43-38.31-0.122-13.154 0.565-26.284 0.712-39.438 0.049-4.982-0.074-10.087-0.271-15.265 4.197-15.658 13.227-45.648 28.959-82.116 23.313-53.992 68.101-134.979 68.101-134.979h54.75c-12.098 13.228-23.191 27.511-33.866 41.77z" />
<glyph unicode="&#xe9ce;" horiz-adv-x="1202" d="M529.319 48.475c-17.497 18.136-29.964 40.493-39.707 63.783-13.375 32.027-21.547 65.968-25.939 100.351-4.516 35.389-4.909 70.851-4.615 106.461 0.319 37.058 0.565 74.558-7.043 110.978-10.43-10.946-14.797-25.842-20.54-39.537-5.964-14.235-14.97-27.683-23.829-40.273-15.535-22.087-34.725-43.61-60.444-53.795-9.276-3.682-20.099-6.21-29.939-3.215-10.209 3.092-17.792 10.847-22.307 20.394-7.239 15.363-10.774 33.082-13.375 49.77-2.773 17.818-4.197 35.806-4.491 53.82-0.271 15.387-1.202 31.733 0.981 47.022 1.571 11.043 6.994 19.535 15.24 26.922 9.767 8.761 20.075 17.523 28.787 27.266l-6.184 34.383-79.757-17.792c0 0 34.358-201.242 47.241-252.78s64.419-46.629 93.868-3.067c29.449 43.561 70.555 99.394 70.555 99.394v-330.085h81.5z" />
<glyph unicode="&#xe9cf;" horiz-adv-x="1202" d="M604.315 579.187c-46.627-0.711-114.727-8.589-138.655-19.634-2.772-1.276-5.791-3.264-9.007-5.841l-8.785-175.154v-330.085h317.188v228.237l-19.902 291.088c-26.651 8.369-69.107 12.492-140.839 11.387z" />
<glyph unicode="&#xe9d0;" horiz-adv-x="1202" d="M676.097 924.611c0 0-19.633 39.88-87.119 34.972-75.88-5.522-120.863-63.808-125.158-118.414s9.203-94.485-5.521-141.115c-14.725-46.629-73.009-143.569 148.472-143.569s158.287 85.896 144.176 135.593c-14.111 49.697-1.202 120.451-14.725 179.768-11.043 48.47-60.125 52.765-60.125 52.765z" />
<glyph unicode="&#xe9d1;" horiz-adv-x="1202" d="M750.946 692.078c-12.786 44.986-3.411 107.248-11.558 162.638-3.828-11.559-9.842-23.437-19.069-30.432-5.203-3.951-10.822-6.626-17.448-6.896-6.086-0.246-14.062 1.227-19.583-1.89-3.902-2.209-7.24-5.915-11.903-6.504-6.184-0.76-12.049 1.915-16.981 5.473-3.706 2.675-6.848-1.055-10.504-2.822-2.552-1.227-5.571-2.234-8.393-2.405-7.387-0.417-9.89 3.484-15.755 6.945-8.81 5.178-17.768-1.497-25.695-5.032-4.932-2.184-10.675-4.098-16.147-3.877-3.632 0.147-6.896 3.926-10.013 5.423-3.755 1.792-5.767 4.54-10.258 3.976-7.51-0.957-14.701-2.601-22.308-1.694-5.889 0.712-11.608 2.651-17.325 4.123-8.32 2.135-18.872 2.087-25.989 7.387-6.798 5.056-5.276 15.093-3.632 22.554-6.086-1.277-13.768-3.902-19.387-1.129-1.545 0.761-2.847 1.865-3.976 3.19-0.564-3.312-0.956-6.626-1.227-9.915-4.294-54.605 9.203-94.485-5.521-141.114s-73.009-143.569 148.472-143.569c221.48 0 158.312 85.871 144.201 135.567z" />
<glyph unicode="&#xe9d2;" horiz-adv-x="1202" d="M638.059 579.31v37.917l-75.462-4.909 1.938-35.095c-15.584-1.227-31.559-2.969-46.234-5.128 3.239-10.872 12.246-26.285 29.571-45.059 14.725-15.952 48.468-43.561 52.149-43.561s44.787 31.29 64.42 55.832c9.595 12.001 16.981 26.48 22.038 38.162-14.013 1.031-30.038 1.644-48.419 1.84z" />
<glyph unicode="&#xe9d3;" horiz-adv-x="1202" d="M603.138 573.69c11.558 1.128 23.706 3.484 34.921 7.731v35.806l-75.463-4.909 1.866-33.474c11.387-6.062 26.455-6.356 38.676-5.154z" />
<glyph unicode="&#xe9d4;" horiz-adv-x="1202" d="M537.075 891.479h109.673c40.075 0 71.83-33.818 69.328-73.797l-8.393-134.218c-2.332-56.765-46.996-91.786-104.347-91.786-57.695 0-104.985 30.628-106.85 87.737l-11.927 155.348c-2.381 30.579 21.817 56.716 52.517 56.716z" />
<glyph unicode="&#xe9d5;" horiz-adv-x="1202" d="M489.269 773.213c23.706-1.571 46.897-2.798 70.26 5.032 11.755 3.95 23.928 9.129 36.542 8.958 14.797-0.172 29.449 0.221 43.511 5.448 4.343 1.62 8.736 5.448 13.399 6.012 4.073 0.491 7.362-1.374 10.651-3.607 4.662-3.166 7.976-8 12.074-11.829 5.252-4.884 11.902-8.173 18.602-10.676 5.988-2.233 12.246-4.148 18.602-5.571l3.165 50.703c2.504 40.003-29.253 73.797-69.327 73.797h-109.673c-30.7 0-54.898-26.136-52.542-56.74l4.737-61.526z" />
<glyph unicode="&#xe9d6;" horiz-adv-x="1202" d="M550.056 770.98c-1.178 1.031-2.871 2.307-5.423 3.387s-5.865 1.767-9.154 1.178c-3.239-0.638-6.135-2.233-8.221-4.099-2.037-1.889-3.559-3.755-4.344-5.252-0.859-1.473-1.251-2.405-1.031-2.552 0.221-0.172 1.056 0.466 2.234 1.546 1.128 1.154 2.847 2.577 4.859 3.976 2.037 1.374 4.491 2.356 6.994 2.675 2.503 0.245 4.981-0.368 7.067-1.227s3.583-1.84 4.711-2.601c1.154-0.737 1.939-1.301 2.528-1.62 1.178-0.663 1.62-0.467 2.061-0.099 0.417 0.344 0.737 0.834-0.049 2.135-0.368 0.662-1.031 1.522-2.233 2.552z" />
<glyph unicode="&#xe9d7;" horiz-adv-x="1202" d="M538.473 756.083c-3.19 0-5.988-3.117-7.46-7.755-1.718 0.613-3.484 1.423-4.859 2.429-2.012 1.374-3.289 2.945-3.828 2.676-0.467-0.196-0.050-2.455 1.889-4.761 1.423-1.792 3.731-3.313 5.939-4.246-0.172-1.177-0.271-2.405-0.271-3.681 0-8.467 3.854-15.338 8.589-15.338s8.589 6.871 8.589 15.338c0 8.492-3.853 15.338-8.589 15.338z" />
<glyph unicode="&#xe9d8;" horiz-adv-x="1202" d="M663.042 772.551c2.478 0.565 5.055 0.196 7.191-0.613 4.344-1.718 6.97-4.86 7.485-4.368 0.221 0.172-0.221 1.055-1.178 2.454-0.245 0.344-0.49 0.737-0.81 1.129-0.393 0.368-0.76 0.736-1.178 1.128-0.442 0.393-0.908 0.811-1.349 1.228-0.565 0.343-1.154 0.687-1.743 1.031-0.589 0.368-1.251 0.711-1.963 0.908-0.711 0.221-1.448 0.516-2.209 0.663l-2.356 0.27c-0.784 0.049-1.595-0.073-2.38-0.098-3.166-0.368-6.062-1.546-8.369-2.847-4.516-2.773-6.259-4.957-7.068-6.184-0.76-1.276-0.466-1.743-0.049-2.11s0.859-0.589 2.062 0.073c1.202 0.638 3.116 2.307 7.067 4.712 1.988 1.079 4.368 2.159 6.847 2.626z" />
<glyph unicode="&#xe9d9;" horiz-adv-x="1202" d="M675.288 758.537c-0.565 0.147-1.472-1.448-2.749-3.288-0.539-0.785-1.202-1.571-1.865-2.307-1.571 3.411-3.951 5.571-6.626 5.571-4.737 0-8.589-6.872-8.589-15.338s3.853-15.338 8.589-15.338c4.737 0 8.589 6.871 8.589 15.338 0 1.988-0.221 3.853-0.589 5.595 1.448 1.522 2.552 3.484 3.092 5.203 0.737 2.504 0.638 4.442 0.147 4.565z" />
<glyph unicode="&#xe9da;" horiz-adv-x="1202" d="M522.055 710.411c-2.11-2.184-5.006-6.012-4.466-6.528s4.294 2.479 6.405 4.663c2.11 2.184 1.792 2.724 1.251 3.239s-1.079 0.81-3.19-1.374z" />
<glyph unicode="&#xe9db;" horiz-adv-x="1202" d="M531.798 709.945c-2.111-2.184-5.006-6.012-4.467-6.528s4.295 2.478 6.406 4.662c2.11 2.184 1.791 2.724 1.251 3.24-0.54 0.49-1.080 0.81-3.19-1.374z" />
<glyph unicode="&#xe9dc;" horiz-adv-x="1202" d="M671.95 710.411c-2.111-2.184-5.006-6.012-4.466-6.528s4.294 2.479 6.404 4.663c2.111 2.184 1.792 2.724 1.252 3.239-0.516 0.516-1.080 0.81-3.19-1.374z" />
<glyph unicode="&#xe9dd;" horiz-adv-x="1202" d="M684.882 711.295c-0.539 0.516-1.079 0.81-3.19-1.35-2.11-2.184-5.006-6.012-4.466-6.528s4.295 2.479 6.405 4.663c2.111 2.16 1.792 2.699 1.251 3.215z" />
<glyph unicode="&#xe9de;" horiz-adv-x="1202" d="M598.598 679.808c-0.295-0.319-1.668 0.393-3.607 1.914-0.982 0.761-2.086 1.718-3.239 2.921-0.589 0.589-1.178 1.251-1.743 2.087-0.245 0.417-0.638 0.834-0.81 1.816-0.245 0.81 0.295 1.865 0.638 2.356 1.374 1.742 2.749 2.798 4.049 3.828 1.301 0.982 2.528 1.792 3.583 2.429 2.111 1.251 3.559 1.816 3.804 1.472s-0.736-1.521-2.478-3.215c-0.908-0.834-1.939-1.816-3.067-2.871s-2.479-2.283-3.387-3.436c-0.147-0.271-0.074-0.099-0.099-0.147-0.049 0.098 0.099-0.245 0.295-0.565 0.393-0.613 0.883-1.276 1.349-1.865 0.982-1.202 1.866-2.283 2.627-3.24 1.497-1.889 2.355-3.166 2.086-3.484z" />
<glyph unicode="&#xe9df;" horiz-adv-x="1202" d="M574.159 653.843c-1.889 0-3.215-1.62-3.165-3.51 0.417-15.314 11.043-27.78 31.903-27.584h0.417c20.246 0 30.111 12.049 31.903 27.584 0.221 1.866-1.301 3.51-3.166 3.51h-57.892z" />
<glyph unicode="&#xe9e0;" horiz-adv-x="1202" d="M603.922 641.155h-0.393c-10.92 0-18.577-4.32-23.411-11.142 5.3-4.565 12.859-7.338 22.773-7.239h0.417c10.626 0 18.357 3.338 23.584 8.737-4.933 5.988-12.565 9.767-22.97 9.644z" />
<glyph unicode="&#xe9e1;" horiz-adv-x="1202" d="M632.022 653.843h-57.867c-1.889 0-3.239-1.62-3.166-3.51 0.049-1.595 0.221-3.141 0.491-4.662h62.898c0.367 1.522 0.662 3.067 0.834 4.662 0.196 1.866-1.301 3.51-3.19 3.51z" />
<glyph unicode="&#xe9e2;" horiz-adv-x="1202" d="M667.826 903.75c-34.455 19.854-69.769 20.271-97.795 12.688-5.375-0.54-10.185-1.374-13.865-2.258-25.767-6.135-86.506-42.334-75.782-131.911 0 0 53.327-5.767 98.040 22.603 23.805-3.19 65.622-1.202 83.561 46.408 0 0 11.976-76.693 55.831-70.557 0 0 10.135 88.35-49.99 123.027z" />
<glyph unicode="&#xe9e3;" horiz-adv-x="1202" d="M670.207 872.852c-0.393-0.883-1.693-0.712-2.11 0-2.577 4.246-5.277 8.909-9.105 12.148-6.553 5.522-10.675-0.172-13.301-6.405-0.393-0.933-1.644-0.638-2.111 0-9.841 13.645-23.951 5.326-30.602-6.553-0.589-1.055-2.307-0.589-2.283 0.614 0.024 3.559 0.123 10.847-4.737 11.633-3.582 0.565-7.313-1.301-10.258-3.141-6.184-3.828-11.657-8.786-16.442-14.283-0.711-0.81-2.11-0.147-2.086 0.859 0.221 14.259-13.719 6.356-20.246 1.399-0.834-0.638-2.16 0.417-1.792 1.374 2.847 7.559-3.093 7.927-9.031 6.454-5.35-1.325-10.577-3.289-15.51-5.718-0.147-0.074-0.294-0.147-0.417-0.221-0.122-0.172-0.294-0.319-0.539-0.417-0.589-0.221-1.277-0.54-2.012-0.908-1.939-1.031-3.976-2.184-6.012-3.46-2.822-1.816-5.866-4.049-8.664-6.479-5.889-5.375-10.037-11.976-8.883-19.658 0.466-0.736 1.079-1.472 1.865-2.159 9.277-8.222 27.461 5.375 35.044 11.191 0.86 0.662 2.111-0.442 1.792-1.374-1.128-3.485-3.387-10.822 2.233-11.633 3.657-0.539 7.559 0.663 10.97 1.915 6.749 2.454 13.179 5.816 19.363 9.473 0.883 0.539 2.159-0.344 1.792-1.374-1.326-3.854-3.166-10.603 3.19-10.087 4.515 0.368 8.957 2.283 12.981 4.221 7.387 3.534 14.357 7.805 21.302 12.148 0.956 0.613 2.012-0.393 1.792-1.374-0.835-3.902-2.038-11.731 4.466-9.865 4.049 1.154 7.754 3.51 11.191 5.939 6.847 4.834 13.448 10.381 19.117 16.565 0.687 0.761 2.209 0.196 2.086-0.859-0.981-10.21 9.178-5.081 11.633 0.613 0.343 0.834 1.742 0.785 2.11 0 3.362-7.142 7.681-14.283 12.933-20.174 2.183-2.454 5.080-5.964 8.491-6.602 4.737-0.859 6.675 6.848 6.577 10.381-0.221 7.486-4.589 15.633-8.663 21.695-4.123 6.111-11.608 14.553-16.124 4.123z" />
<glyph unicode="&#xe9e4;" horiz-adv-x="1202" d="M487.943 793.215c-4.81 65.232 47.314 120.745 113.305 120.745s118.114-55.538 113.304-120.745l-3.043-49.452 12.393 0.050 4 53.157c5.374 71.367-52.885 132.132-126.679 132.132s-132.029-60.765-126.68-132.132l4-53.157h13.007l-3.607 49.402z" />
<glyph unicode="&#xe9e5;" horiz-adv-x="1202" d="M487.82 792.086l-5.889-0.736c-23.436-2.97-40.394-31.217-37.891-63.122 2.503-31.879 23.51-55.341 46.922-52.371l5.669 0.711c-0.049 0.933-0.123 1.866-0.172 2.823l-8.638 112.694z" />
<glyph unicode="&#xe9e6;" horiz-adv-x="1202" d="M487.82 792.086l-5.889-0.736c-5.767-0.737-11.117-2.994-15.903-6.455-1.472-18.308-0.982-39.806 1.816-62.139 2.135-16.934 5.35-32.371 9.277-45.549 4.417-1.423 9.080-1.939 13.841-1.326l5.669 0.712c-0.049 0.932-0.123 1.865-0.172 2.822l-8.638 112.67z" />
<glyph unicode="&#xe9e7;" horiz-adv-x="1202" d="M722.994 788.847l-8.687 0.613-6.626-106.021c0-0.122-0.024-0.27-0.024-0.393l4.073-0.294c23.534-1.668 45.13 20.713 48.247 49.991 3.092 29.328-13.448 54.434-36.983 56.103z" />
<glyph unicode="&#xe9e8;" horiz-adv-x="1202" d="M722.994 788.847l-8.687 0.613-6.626-106.020c0-0.123-0.024-0.271-0.024-0.393l4.073-0.295c4.638-0.319 9.227 0.295 13.596 1.694 3.509 20.32 6.307 42.26 8.074 64.961 0.982 12.591 1.595 24.689 1.865 36.199-3.828 1.816-7.926 2.945-12.27 3.24z" />
<glyph unicode="&#xe9e9;" horiz-adv-x="1202" d="M465.66 559.554c-7.411-3.411-16.319-11.535-26.822-23.928l9.031-157.067v-330.086h96.911l-0.785 526.86c-32.614-3.484-63.708-9.031-78.334-15.78z" />
<glyph unicode="&#xe9ea;" horiz-adv-x="1202" d="M656.931 578.942l3.116-530.468h105.010v228.237l4.81 279.504c-18.331 12.836-49.768 20.86-112.936 22.726z" />
<glyph unicode="&#xe9eb;" horiz-adv-x="1202" d="M768.075 557.42c-2.306-24.861-7.337-49.624-11.975-74.018-6.479-33.94-13.596-67.784-18.774-101.971-12.148-80.423-15.78-162.367-16.859-243.6-0.393-29.793-0.368-59.586-0.123-89.38h44.713v228.237l4.81 279.504c-0.589 0.417-1.178 0.835-1.792 1.228z" />
<glyph unicode="&#xe9ec;" horiz-adv-x="1202" d="M227.615 615.999c-15.338-12.27-14.725-17.792-20.86-11.657s-18.406 50.31-36.198 38.653c-17.792-11.657 33.743-87.123 47.855-107.37s52.149-23.928 81.598-8.589c29.449 15.338 24.54 33.132 3.681 73.011s-40.492 72.398-54.603 88.351c-14.111 15.952-46.628 7.362-29.449-17.793s7.976-54.606 7.976-54.606z" />
<glyph unicode="&#xe9ed;" horiz-adv-x="1202" d="M241.284 613.472c2.847 1.006 5.816 1.693 8.712 2.675 4.442 1.497 8.909 2.822 13.399 4.123-0.368 6.233-3.828 12.124-6.871 17.4-3.117 5.4-6.136 10.848-9.448 16.124-4.614 7.338-9.498 14.554-13.399 22.285-2.332 4.589-5.448 9.865-6.577 14.946-0.466 2.037-0.49 3.705-0.221 5.080-10.332-1.792-17.276-10.822-7.239-25.523 10.307-15.093 11.117-31.757 10.11-42.629 3.387-5.128 7.314-10.331 11.535-14.479z" />
<glyph unicode="&#xe9ee;" horiz-adv-x="1202" d="M257.996 603.164c-15.584-5.743-35.338-21.94-29.301-40.984 3.951-12.467 20.933-25.45 34.48-20.296 9.13 3.46 11.78 13.62 15.632 21.67 4.295 8.982 10.871 17.4 12.148 27.438-1.988 13.915-21.547 16.393-32.959 12.172z" />
<glyph unicode="&#xe9ef;" horiz-adv-x="1202" d="M274.242 547.283c0 0-13.203 27.315 20.86 49.083 0 0-2.454 12.59 0.319 34.358s25.768 23.928 27.609-0.613c1.84-24.542 18.406-93.578-30.676-106.462-3.387-0.908-12.59 9.522-18.112 23.634z" />
<glyph unicode="&#xe9f0;" horiz-adv-x="1202" d="M261.065 621.816c0 0-33.131 56.445-44.492 72.692s-37.425 10.431-24.86-15.952c12.564-26.383 38.357-68.398 38.357-68.398z" />
<glyph unicode="&#xe9f1;" horiz-adv-x="1202" d="M212.817 658.653c-6.381 11.78-12.958 24.59-15.878 37.77-0.516 2.356-0.761 4.589-0.589 6.553-7.093-2.209-11.289-10.406-4.638-24.395 12.589-26.383 38.357-68.398 38.357-68.398l10.871 4.099c-9.865 14.48-19.755 28.934-28.123 44.371z" />
<glyph unicode="&#xe9f2;" horiz-adv-x="1202" d="M235.591 611.705c0 0-28.222 47.242-38.358 63.808s-29.154 1.227-22.086-13.204c7.067-14.43 34.357-66.876 34.357-66.876s15.043 11.363 26.088 16.271z" />
<glyph unicode="&#xe9f3;" horiz-adv-x="1202" d="M185.749 654.726c-1.62 3.828-7.878 17.818-6.405 25.499-4.884-3.681-7.632-10.896-4.197-17.915 7.067-14.43 34.357-66.876 34.357-66.876s2.872 2.16 7.019 5.006c-11.926 16.983-22.675 35.193-30.774 54.286z" />
<glyph unicode="&#xe9f4;" horiz-adv-x="1202" d="M205.234 588.39c-0.221 0.049 0.098 2.209 2.11 5.080 1.939 2.896 5.522 6.185 9.939 9.301 8.883 6.234 21.105 11.682 30.799 15.314 9.693 3.607 14.995 4.933 17.841 5.449 2.847 0.49 3.264 0.049 3.411-0.467 0.147-0.539 0.024-1.079-2.577-2.257-2.601-1.202-7.681-2.945-17.252-6.504-9.547-3.583-21.694-8.541-30.651-13.94-4.442-2.699-8.099-5.472-10.282-7.878-2.234-2.38-3.044-4.221-3.338-4.098z" />
<glyph unicode="&#xe9f5;" horiz-adv-x="1202" d="M1193.514 37.43h-1184.507v-101.43h1184.507v101.43z" />
<glyph unicode="&#xe9f6;" horiz-adv-x="1202" d="M1193.514 37.43h-1184.507v-41.719h1184.507v41.719z" />
<glyph unicode="&#xe9f7;" horiz-adv-x="1202" d="M1202.495 76.698h-1202.495v-39.267h1202.495v39.267z" />
<glyph unicode="&#xe9f8;" horiz-adv-x="1202" d="M1062.217 179.6c-21.344 0-38.621-16.64-38.621-37.156s17.295-37.155 38.621-37.155c21.335 0 38.63 16.639 38.63 37.155s-17.295 37.156-38.63 37.156zM1062.884 121.51c-11.612 0-21.034 9.498-21.034 21.229s9.423 21.229 21.034 21.229c11.612 0 21.034-9.498 21.034-21.229s-9.423-21.229-21.034-21.229z" />
<glyph unicode="&#xe9f9;" horiz-adv-x="1202" d="M937.456 193.074v-79.982c0-20.442 16.564-37.009 37.007-37.009h51.022c20.442 0 37.005 16.566 37.005 37.009v79.982h-125.033z" />
<glyph unicode="&#xe9fa;" horiz-adv-x="1202" d="M990.884 111.35c-28.813 16.737-42.679 49.598-39.316 81.724h-14.112v-79.982c0-20.442 16.564-37.009 37.007-37.009h51.022c20.442 0 37.005 16.566 37.005 37.009v4.026c-12.88-20.836-51.238-17.597-71.605-5.767z" />
<glyph unicode="&#xe9fb;" horiz-adv-x="1202" d="M1015.028 196.707c-0.413 0.908 0.986 2.527 3.485 5.055 2.433 2.528 6.135 6.037 9.056 10.725 1.4 2.332 2.48 4.933 2.753 7.559 0.141 0.638 0.066 1.326 0.066 1.963 0.028 0.711-0.066 1.251-0.197 1.792-0.263 1.104-0.808 2.356-1.616 3.705-1.644 2.724-4.397 5.767-7.506 8.983-3.119 3.239-6.651 6.675-10.090 10.749-3.438 4.049-6.698 8.614-8.831 13.964-1.062 2.65-1.823 5.472-2.161 8.32-0.348 2.871-0.197 5.693 0.216 8.27 0.789 5.178 2.602 9.891 5.035 13.597 2.377 3.755 5.026 6.798 7.732 9.13 5.327 4.81 10.381 7.313 13.988 8.663 3.626 1.326 5.937 1.374 6.379 0.491s-0.911-2.552-3.363-5.154c-2.433-2.601-6.106-6.111-9.592-10.848-3.485-4.687-6.802-10.7-7.093-17.351-0.319-3.362 0.291-6.381 1.785-9.719 1.447-3.289 3.88-6.676 6.83-10.136 2.94-3.485 6.257-6.872 9.47-10.48 3.185-3.632 6.426-7.436 8.859-12.296 1.174-2.429 2.133-5.178 2.433-8.074 0.141-1.472 0.141-2.921-0.056-4.197-0.122-1.301-0.263-2.577-0.658-3.779-1.278-4.86-3.852-8.589-6.379-11.363-5.252-5.473-10.456-7.903-14.092-9.228-3.758-1.251-6.059-1.227-6.454-0.343z" />
<glyph unicode="&#xe9fc;" horiz-adv-x="1202" d="M800.224 116.774h-397.953c-4.859 0-8.786-3.927-8.786-8.786v-23.315c0-4.859 3.927-8.786 8.786-8.786h397.977c4.859 0 8.786 3.927 8.786 8.786v23.315c0 4.859-3.951 8.786-8.81 8.786z" />
<glyph unicode="&#xe9fd;" horiz-adv-x="1202" d="M792.052 350.754h-381.608c-9.375 0-16.982-7.608-16.982-16.982v-223.231c0-5.595 4.539-10.136 10.135-10.136h398.223c3.975 0 7.215 3.215 7.215 7.215v226.152c0 9.375-7.608 16.982-16.982 16.982z" />
<glyph unicode="&#xe9fe;" horiz-adv-x="1202" d="M554.62 230.083c0 22.357 18.135 40.493 40.492 40.493s40.492-18.136 40.492-40.493c0-22.358-18.136-40.494-40.492-40.494s-40.492 18.136-40.492 40.494z" />
<glyph unicode="&#xe9ff;" horiz-adv-x="1202" d="M323.939 131.499h-197.136v-55.635h197.136v55.635z" />
<glyph unicode="&#xea00;" horiz-adv-x="1202" d="M315.349 124.971h-188.547v-43.366h188.547v43.366z" />
<glyph unicode="&#xea01;" horiz-adv-x="1202" d="M315.349 100.822h-188.547v-19.216h188.547v19.216z" />
<glyph unicode="&#xea02;" horiz-adv-x="1202" d="M138.778 112.331h-12.001v1.915h12.001c1.963 0 9.693-0.442 9.693-0.957s-7.705-0.957-9.693-0.957z" />
<glyph unicode="&#xea03;" horiz-adv-x="1202" d="M141.036 94.957h-14.258v1.915h14.258c2.356 0 11.509-0.417 11.509-0.957s-9.153-0.957-11.509-0.957z" />
<glyph unicode="&#xea04;" horiz-adv-x="1202" d="M150.214 103.546h-23.412v1.915h23.412c3.853 0 18.921-0.417 18.921-0.957s-15.068-0.957-18.921-0.957z" />
<glyph unicode="&#xea05;" horiz-adv-x="1202" d="M303.348 114.271h12v-1.915h-12c-1.963 0-9.694 0.442-9.694 0.957 0.024 0.515 7.731 0.957 9.694 0.957z" />
<glyph unicode="&#xea06;" horiz-adv-x="1202" d="M301.091 96.871h14.258v-1.915h-14.258c-2.356 0-11.51 0.417-11.51 0.957s9.178 0.957 11.51 0.957z" />
<glyph unicode="&#xea07;" horiz-adv-x="1202" d="M291.937 105.461h23.411v-1.915h-23.411c-3.854 0-18.921 0.417-18.921 0.957s15.068 0.957 18.921 0.957z" />
<glyph unicode="&#xea08;" horiz-adv-x="1452" d="M24.524 56.287h0z" />
<glyph unicode="&#xea09;" horiz-adv-x="1452" d="M1244.12 32.358h50.934v-0.695h-50.934v0.695z" />
<glyph unicode="&#xea0a;" horiz-adv-x="1452" d="M1036.411 13.742h23.581v-0.695h-23.581v0.695z" />
<glyph unicode="&#xea0b;" horiz-adv-x="1452" d="M783.874 23.125h52.523v-0.695h-52.523v0.695z" />
<glyph unicode="&#xea0c;" horiz-adv-x="1452" d="M244.048 23.472h117.159v-0.695h-117.159v0.695z" />
<glyph unicode="&#xea0d;" horiz-adv-x="1452" d="M202.695 23.472h17.177v-0.695h-17.177v0.695z" />
<glyph unicode="&#xea0e;" horiz-adv-x="1452" d="M537.988 39.507h254.076v-0.695h-254.076v0.695z" />
<glyph unicode="&#xea0f;" horiz-adv-x="1452" d="M667.41 177.268h-523.79c0 0 0 0 0 0-8.537 0-15.461 6.906-15.489 15.436v736.268c0 8.554 6.935 15.489 15.489 15.489v0h523.79c8.554 0 15.489-6.935 15.489-15.489v0-736.265c-0.028-8.533-6.952-15.439-15.489-15.439 0 0 0 0 0 0v0zM143.619 943.767c-8.225 0-14.893-6.668-14.893-14.893v0-736.166c0-8.225 6.668-14.893 14.893-14.893v0h523.79c8.225 0 14.893 6.668 14.893 14.893v0 736.265c0 8.225-6.668 14.893-14.893 14.893v0z" />
<glyph unicode="&#xea10;" horiz-adv-x="1452" d="M1254.098 177.268h-523.79c0 0 0 0 0 0-8.537 0-15.461 6.906-15.489 15.436v736.268c0 8.554 6.935 15.489 15.489 15.489v0h523.79c8.554 0 15.489-6.935 15.489-15.489v0-736.265c-0.028-8.533-6.952-15.439-15.489-15.439 0 0 0 0 0 0v0zM730.308 943.767c-8.225 0-14.893-6.668-14.893-14.893v0-736.166c0-8.225 6.668-14.893 14.893-14.893v0h523.79c8.225 0 14.893 6.668 14.893 14.893v0 736.265c0 8.225-6.668 14.893-14.893 14.893v0z" />
<glyph unicode="&#xea11;" horiz-adv-x="1452" d="M183.781 893.676h548.563v-390.944h-548.563v390.944z" />
<glyph unicode="&#xea12;" horiz-adv-x="1452" d="M188.497 893.676h553.974v-390.944h-553.974v390.944z" />
<glyph unicode="&#xea13;" horiz-adv-x="1452" d="M728.322 877.691v-359.023h-525.578v359.023h525.578z" />
<glyph unicode="&#xea14;" horiz-adv-x="1452" d="M298.408 518.668l83.401 359.023h109.315l-83.401-359.023h-109.315z" />
<glyph unicode="&#xea15;" horiz-adv-x="1452" d="M425.397 518.668l83.401 359.023h49.395l-83.401-359.023h-49.395z" />
<glyph unicode="&#xea16;" horiz-adv-x="1452" d="M728.273 877.691v-359.023h-1.787v359.023h1.787z" />
<glyph unicode="&#xea17;" horiz-adv-x="1452" d="M173.107 894.272v-154.888h41.006c46.882 34.899 79.789 86.303 90.151 145.463l0.201 1.383c0.145 0.821 0.228 1.766 0.228 2.73 0 9.068-7.346 16.421-16.411 16.432h-104.253c-6.045-0.139-10.895-5.059-10.922-11.118v-0.003z" />
<glyph unicode="&#xea18;" horiz-adv-x="1452" d="M173.107 454.876v271.799h41.006s83.153-160.2 92.784-271.998z" />
<glyph unicode="&#xea19;" horiz-adv-x="1452" d="M176.781 739.384h33.956c3.455 0 6.255-2.801 6.255-6.255s-2.801-6.255-6.255-6.255h-33.956c-3.455 0-6.255 2.801-6.255 6.255s2.801 6.255 6.255 6.255z" />
<glyph unicode="&#xea1a;" horiz-adv-x="1452" d="M754.087 894.272v-154.888h-41.006c-46.882 34.899-79.789 86.303-90.151 145.463l-0.201 1.383c-0.145 0.821-0.228 1.766-0.228 2.73 0 9.068 7.346 16.421 16.411 16.432h104.253c6.045-0.139 10.895-5.059 10.922-11.118v-0.003z" />
<glyph unicode="&#xea1b;" horiz-adv-x="1452" d="M754.087 454.876v271.799h-41.006s-83.153-160.002-92.536-271.799z" />
<glyph unicode="&#xea1c;" horiz-adv-x="1452" d="M750.463 726.873h-33.956c-3.455 0-6.255 2.801-6.255 6.255s2.801 6.255 6.255 6.255h33.956c3.455 0 6.255-2.801 6.255-6.255s-2.801-6.255-6.255-6.255z" />
<glyph unicode="&#xea1d;" horiz-adv-x="1452" d="M651.623 405.48h90.153v-349.194h-90.153v349.194z" />
<glyph unicode="&#xea1e;" horiz-adv-x="1452" d="M717.699 56.287h24.077v40.311h-49.296l25.219-40.311z" />
<glyph unicode="&#xea1f;" horiz-adv-x="1452" d="M220.418 405.48h90.153v-349.194h-90.153v349.194z" />
<glyph unicode="&#xea20;" horiz-adv-x="1452" d="M289.572 405.48h452.204v-335.293h-452.204v335.293z" />
<glyph unicode="&#xea21;" horiz-adv-x="1452" d="M425.397 464.755c0-32.616 31.375-59.275 69.501-59.275h34.751c38.375 0 69.501 26.659 69.501 59.275z" />
<glyph unicode="&#xea22;" horiz-adv-x="1452" d="M405.341 539.27h65.083s-11.269-29.786-11.269-47.41 49.644-86.38-21.247-86.38-21.247 68.806-21.247 86.38-11.319 47.41-11.319 47.41z" />
<glyph unicode="&#xea23;" horiz-adv-x="1452" d="M308.238 385.027h414.872v-84.543h-414.872v84.543z" />
<glyph unicode="&#xea24;" horiz-adv-x="1452" d="M313.599 56.287h-24.028v40.311h49.296l-25.269-40.311z" />
<glyph unicode="&#xea25;" horiz-adv-x="1452" d="M502.94 342.78c0-7.046 5.712-12.758 12.758-12.758s12.758 5.712 12.758 12.758c0 7.046-5.712 12.758-12.758 12.758-0.017 0-0.035 0-0.052 0h0.003c0 0 0 0 0 0-7.019 0-12.709-5.69-12.709-12.709 0-0.017 0-0.035 0-0.052v0.003z" />
<glyph unicode="&#xea26;" horiz-adv-x="1452" d="M308.238 280.080h414.872v-84.543h-414.872v84.543z" />
<glyph unicode="&#xea27;" horiz-adv-x="1452" d="M502.94 237.834c0-0.015 0-0.032 0-0.050 0-7.046 5.712-12.758 12.758-12.758s12.758 5.712 12.758 12.758c0 7.046-5.712 12.758-12.758 12.758-0.017 0-0.035 0-0.052 0h0.003c-7.019 0-12.709-5.69-12.709-12.709v0z" />
<glyph unicode="&#xea28;" horiz-adv-x="1452" d="M308.238 175.134h414.872v-84.543h-414.872v84.543z" />
<glyph unicode="&#xea29;" horiz-adv-x="1452" d="M528.407 132.837c0-7.046-5.712-12.758-12.758-12.758s-12.758 5.712-12.758 12.758c0 7.046 5.712 12.758 12.758 12.758s12.758-5.712 12.758-12.758z" />
<glyph unicode="&#xea2a;" horiz-adv-x="1452" d="M826.418 898.392h201.305v-143.321h-201.305v143.321z" />
<glyph unicode="&#xea2b;" horiz-adv-x="1452" d="M837.886 898.392h206.319v-143.321h-206.319v143.321z" />
<glyph unicode="&#xea2c;" horiz-adv-x="1452" d="M1031.049 885.237v-117.010h-180.008v117.010h180.008z" />
<glyph unicode="&#xea2d;" horiz-adv-x="1452" d="M999.377 851.181v-48.849h-116.663v48.849h116.663z" />
<glyph unicode="&#xea2e;" horiz-adv-x="1452" d="M1068.58 826.707h122.57v-128.527h-122.57v128.527z" />
<glyph unicode="&#xea2f;" horiz-adv-x="1452" d="M1080.048 826.707h127.535v-128.527h-127.535v128.527z" />
<glyph unicode="&#xea30;" horiz-adv-x="1452" d="M1194.427 813.551v-102.216h-101.223v102.216h101.223z" />
<glyph unicode="&#xea31;" horiz-adv-x="1452" d="M1124.876 762.468v0c0.028 9.358 7.578 16.944 16.921 17.028h3.831c9.404 0 17.028-7.624 17.028-17.028v0c0-0.015 0-0.032 0-0.050 0-9.377-7.601-16.978-16.978-16.978-0.017 0-0.035 0-0.052 0h-3.82c-9.361 0.056-16.928 7.658-16.928 17.027 0 0 0 0 0 0v0z" />
<glyph unicode="&#xea32;" horiz-adv-x="1452" d="M1380.739 654.493h-382.405v-74.763h-58.828v-74.813h-58.877v-74.763h-58.828v-74.763h-58.828v-74.763h-58.828v-74.813h-58.828v-74.763h-58.828v-74.763h794.249v598.206z" />
<glyph unicode="&#xea33;" horiz-adv-x="1452" d="M580.434 131.050h335.343v-22.439h-335.343v22.439z" />
<glyph unicode="&#xea34;" horiz-adv-x="1452" d="M639.262 205.813h335.343v-22.439h-335.343v22.439z" />
<glyph unicode="&#xea35;" horiz-adv-x="1452" d="M698.089 280.626h335.343v-22.439h-335.343v22.439z" />
<glyph unicode="&#xea36;" horiz-adv-x="1452" d="M756.917 355.39h335.343v-22.439h-335.343v22.439z" />
<glyph unicode="&#xea37;" horiz-adv-x="1452" d="M815.745 430.153h335.343v-22.439h-335.343v22.439z" />
<glyph unicode="&#xea38;" horiz-adv-x="1452" d="M874.622 504.916h335.343v-22.439h-335.343v22.439z" />
<glyph unicode="&#xea39;" horiz-adv-x="1452" d="M933.45 579.729h335.343v-22.439h-335.343v22.439z" />
<glyph unicode="&#xea3a;" horiz-adv-x="1452" d="M992.278 654.493h335.343v-22.439h-335.343v22.439z" />
<glyph unicode="&#xea3b;" horiz-adv-x="1452" d="M1321.912 654.493v-74.763h-58.828v-74.813h-58.877v-74.763h-58.828v-74.763h-58.828v-74.763h-58.828v-74.813h-58.828v-74.763h-58.828v-74.763h470.672v598.206h-58.828z" />
<glyph unicode="&#xea3c;" horiz-adv-x="1452" d="M1228.532-35.505c0-16.971-235.465-30.729-525.925-30.729s-525.925 13.758-525.925 30.729c0 16.971 235.465 30.729 525.925 30.729s525.925-13.758 525.925-30.729z" />
<glyph unicode="&#xea3d;" horiz-adv-x="1452" d="M1014.965 654.046c3.773-12.709 23.382-36.538 24.822-53.913s-31.871-45.027-31.871-45.027-24.822 83.451-9.333 93.181 16.382 5.759 16.382 5.759z" />
<glyph unicode="&#xea3e;" horiz-adv-x="1452" d="M946.357 563.943c-5.908-4.964-11.666-9.085-17.723-13.354s-12.312-8.042-18.616-11.766c-5.299-3.186-11.812-6.616-18.509-9.716l-1.349-0.56c-3.425-1.539-6.801-3.028-10.326-4.369-1.738-0.745-3.475-1.39-5.312-1.986l-5.51-1.886c-2.922-0.843-6.278-1.328-9.747-1.328-1.604 0-3.184 0.104-4.733 0.305l0.183-0.019c-4.478 0.524-8.485 1.325-12.372 2.417l0.556-0.133c-8.384 2.352-15.409 4.906-22.192 7.909l1.044-0.412c-14.986 6.607-27.631 13.457-39.659 21.186l1.135-0.683 4.964 9.432c6.354-2.631 12.957-5.312 19.46-7.744s13.056-4.964 19.857-6.9c5.289-1.814 11.844-3.532 18.554-4.813l0.956-0.152c2.699-0.577 5.856-0.969 9.082-1.089l0.102-0.003c0.451-0.038 0.977-0.059 1.508-0.059 1.904 0 3.743 0.275 5.48 0.789l-0.137-0.035c7.33 2.854 13.297 5.624 19.072 8.704l-0.952-0.463c2.979 1.589 5.957 3.177 8.886 4.964s5.908 3.425 8.837 4.964c5.808 3.574 11.517 7.397 17.177 11.368s11.269 8.092 16.382 12.113z" />
<glyph unicode="&#xea3f;" horiz-adv-x="1452" d="M960.704 592.637c-6.752 5.262-34.751-11.964-42.991-19.162l6.156-37.233s40.013 16.78 42.396 28.247-0.447 24.325-5.56 28.148z" />
<glyph unicode="&#xea40;" horiz-adv-x="1452" d="M960.704 592.637c-6.752 5.262-34.751-11.964-42.991-19.162l6.156-37.233s40.013 16.78 42.396 28.247-0.447 24.325-5.56 28.148z" />
<glyph unicode="&#xea41;" horiz-adv-x="1452" d="M1054.283 480.144l-84.394-16.482c-43.637 118.202-34.155 122.024-34.155 122.024 5.188 2.937 11.445 5.937 17.904 8.541l1.109 0.395 1.142 0.447c5.362 1.986 6.503 2.284 13.702 4.369 12.461 2.979 24.028 5.411 38.375 7.496l2.73 0.348c2.631 0.348 4.964 0.596 7.695 0.844 1.688 0 3.376 0.298 4.964 0.397l5.461 0.298c9.283 0.496 15.936 0.348 15.936 0.348-2.73-73.77 1.44-94.919 9.532-129.024z" />
<glyph unicode="&#xea42;" horiz-adv-x="1452" d="M1054.283 480.144l-84.394-16.482c-43.637 118.202-34.155 122.024-34.155 122.024 5.188 2.937 11.445 5.937 17.904 8.541l1.109 0.395 1.142 0.447c5.362 1.986 6.503 2.284 13.702 4.369 12.461 2.979 24.028 5.411 38.375 7.496l2.73 0.348c2.631 0.348 4.964 0.596 7.695 0.844 1.688 0 3.376 0.298 4.964 0.397l5.461 0.298c9.283 0.496 15.936 0.348 15.936 0.348-2.73-73.77 1.44-94.919 9.532-129.024z" />
<glyph unicode="&#xea43;" horiz-adv-x="1452" d="M988.157 645.607c-5.51-8.986 14.248-13.156 25.864-3.922 9.333 7.347 7.099 24.375-0.844 28.347s-25.020-24.425-25.020-24.425z" />
<glyph unicode="&#xea44;" horiz-adv-x="1452" d="M988.157 645.607c-5.51-8.986 14.248-13.156 25.864-3.922 9.333 7.347 7.099 24.375-0.844 28.347s-25.020-24.425-25.020-24.425z" />
<glyph unicode="&#xea45;" horiz-adv-x="1452" d="M1070.367-8.995l-21.148-1.589-7.695 48.651 21.099 1.539 7.744-48.601z" />
<glyph unicode="&#xea46;" horiz-adv-x="1452" d="M1219.844 58.967l-17.921-11.319-31.921 37.878 17.872 11.319 31.971-37.878z" />
<glyph unicode="&#xea47;" horiz-adv-x="1452" d="M1041.524 38.067l4.269-27.056 20.85 3.525-3.971 25.070-21.148-1.539z" />
<glyph unicode="&#xea48;" horiz-adv-x="1452" d="M1187.923 96.845l-17.921-11.319 13.205-15.687 18.319 10.822-13.602 16.184z" />
<glyph unicode="&#xea49;" horiz-adv-x="1452" d="M971.129 463.563s-0.348-167.647 13.354-230.843c14.297-65.679 56.246-215.106 56.246-215.106l30.432 3.922s-23.779 150.966-33.907 216.248c-11.071 71.139-4.269 237.843-4.269 237.843z" />
<glyph unicode="&#xea4a;" horiz-adv-x="1452" d="M971.129 463.563s-0.348-167.647 13.354-230.843c14.297-65.679 56.246-215.106 56.246-215.106l30.432 3.922s-23.779 150.966-33.907 216.248c-11.071 71.139-4.269 237.843-4.269 237.843z" />
<glyph unicode="&#xea4b;" horiz-adv-x="1452" d="M1031.149 401.409l-14.893 14.893c0.596-64.537 4.17-96.209 16.581-130.91-2.035 36.637-2.184 79.976-1.688 116.017z" />
<glyph unicode="&#xea4c;" horiz-adv-x="1452" d="M992.129 468.031s45.474-138.605 68.061-218.432c23.829-84.394 115.124-177.327 115.124-177.327l26.212 14.893s-62.352 88.465-85.337 167.2c-46.665 159.555-27.503 193.362-61.906 225.779z" />
<glyph unicode="&#xea4d;" horiz-adv-x="1452" d="M992.129 468.031s45.474-138.605 68.061-218.432c23.829-84.394 115.124-177.327 115.124-177.327l26.212 14.893s-62.352 88.465-85.337 167.2c-46.665 159.555-27.503 193.362-61.906 225.779z" />
<glyph unicode="&#xea4e;" horiz-adv-x="1452" d="M956.385 694.555c12.113-4.071 23.084-34.105 23.531-45.92s-34.751-28.148-34.751-28.148-15.687 38.077-11.319 62.352c1.688 10.673 22.538 11.716 22.538 11.716z" />
<glyph unicode="&#xea4f;" horiz-adv-x="1452" d="M790.377 557.886l-14.347 15.638-4.716-19.857s10.227-8.986 18.467-5.908z" />
<glyph unicode="&#xea50;" horiz-adv-x="1452" d="M761.484 578.091l-10.028-7.993 19.857-16.085 4.716 19.609-14.546 4.468z" />
<glyph unicode="&#xea51;" horiz-adv-x="1452" d="M1196.412 51.521l16.78 16.879c0.288 0.259 0.672 0.417 1.092 0.417s0.804-0.158 1.094-0.419l-0.002 0.001 15.29-11.368c0.763-0.624 1.246-1.565 1.246-2.619 0-0.912-0.361-1.739-0.949-2.346l0.001 0.001c-5.957-5.759-9.134-8.29-16.482-15.687-4.567-4.567-10.723-11.716-16.978-18.070s-12.858-0.447-10.773 2.78c5.091 6.806 8.152 15.388 8.152 24.685 0 0.782-0.022 1.558-0.064 2.329l0.005-0.107c0.093 1.382 0.682 2.612 1.589 3.525v0z" />
<glyph unicode="&#xea52;" horiz-adv-x="1452" d="M1047.829-7.555h23.829c0.008 0 0.017 0 0.026 0 0.854 0 1.565-0.617 1.71-1.429l0.002-0.011 3.872-18.914c0.030-0.164 0.047-0.353 0.047-0.546 0-1.781-1.443-3.225-3.224-3.227v0c-8.34 0-12.361 0.645-22.836 0.645-6.404 0-19.857-0.645-28.595-0.645s-9.929 8.787-6.205 9.581c10.887 1.656 20.456 6.378 28.045 13.246l-0.046-0.041c0.898 0.796 2.075 1.297 3.367 1.34h0.009z" />
<glyph unicode="&#xea53;" horiz-adv-x="1452" d="M1047.481 566.475l-13.007-7.794 14.893-56.395c-3.276 17.028-1.886 35.743-1.886 64.189z" />
<glyph unicode="&#xea54;" horiz-adv-x="1452" d="M973.314 654.642c9.283-7.744 22.687-19.063 38.523-5.808 13.553 11.319 23.035 41.105-1.241 42.197-12.758 0.546-37.282-36.389-37.282-36.389z" />
<glyph unicode="&#xea55;" horiz-adv-x="1452" d="M995.703 649.38c0-12.808 1.986-35.892 12.212-42.445 0 0-0.943-13.205-23.879-17.673-25.219-4.964-14.496 10.177-14.496 10.177 13.156 5.957 10.773 16.134 6.503 25.219z" />
<glyph unicode="&#xea56;" horiz-adv-x="1452" d="M987.909 639.302l-11.617-14.595c0.9-1.841 1.745-4.032 2.407-6.301l0.075-0.302c5.93 2.476 10.14 7.981 10.718 14.529l0.005 0.066c-0.16 2.42-0.729 4.667-1.639 6.73l0.050-0.127z" />
<glyph unicode="&#xea57;" horiz-adv-x="1452" d="M996.895 678.769c2.78-20.85 4.369-29.786-3.971-42.247-12.56-18.914-38.772-17.772-47.658 1.837-8.042 17.673-11.219 48.8 7.397 60.913 4.444 2.973 9.91 4.745 15.79 4.745 14.623 0 26.687-10.957 28.428-25.109l0.014-0.139z" />
<glyph unicode="&#xea58;" horiz-adv-x="1452" d="M960.704 715.306c-14.148-9.929 14.148-12.957 14.198-27.453 0-6.007 9.929-24.822 23.829-23.978l13.602 24.127c14.248 23.084-19.46 50.14-51.629 27.304z" />
<glyph unicode="&#xea59;" horiz-adv-x="1452" d="M960.704 715.306c-24.822 1.291-35.644-18.467-32.814-36.19 11.744 3.062 25.226 4.82 39.119 4.82 4.893 0 9.736-0.218 14.518-0.645l-0.618 0.044c34.006-3.475-20.205 31.971-20.205 31.971z" />
<glyph unicode="&#xea5a;" horiz-adv-x="1452" d="M1003.745 660.798c0.033-0.379 0.052-0.82 0.052-1.265 0-3.786-1.371-7.252-3.645-9.927l0.018 0.022c-3.475-4.12-8.241-1.688-9.929 3.177s-1.191 11.766 3.525 14.099c0.897 0.457 1.956 0.725 3.078 0.725 3.787 0 6.861-3.050 6.9-6.827v-0.004z" />
<glyph unicode="&#xea5b;" horiz-adv-x="1452" d="M966.81 667.102c0.298-1.688-0.298-3.177-1.39-3.425s-2.284 0.993-2.581 2.681 0.298 3.177 1.39 3.425 2.234-1.191 2.581-2.681z" />
<glyph unicode="&#xea5c;" horiz-adv-x="1452" d="M947.847 663.23c0.298-1.688-0.298-3.227-1.39-3.425s-2.284 0.943-2.581 2.631 0.298 3.227 1.39 3.425 2.234-0.943 2.581-2.631z" />
<glyph unicode="&#xea5d;" horiz-adv-x="1452" d="M945.762 665.861l-4.269 0.397s2.681-2.73 4.269-0.397z" />
<glyph unicode="&#xea5e;" horiz-adv-x="1452" d="M953.407 661.294c-0.83-4.46-2.191-8.437-4.040-12.126l0.119 0.261c0.909-0.434 1.976-0.687 3.103-0.687s2.193 0.253 3.147 0.706l-0.045-0.019z" />
<glyph unicode="&#xea5f;" horiz-adv-x="1452" d="M962.789 644.018c-0.003 0-0.006 0-0.010 0-0.239 0-0.439 0.169-0.486 0.394l-0.001 0.003c-0.007 0.032-0.012 0.069-0.012 0.107 0 0.243 0.175 0.446 0.406 0.488h0.003c4.382 0.709 7.998 3.457 9.894 7.221l0.035 0.077c0.073 0.194 0.256 0.329 0.472 0.329 0.278 0 0.503-0.225 0.503-0.503 0-0.062-0.011-0.122-0.032-0.177l0.001 0.003c-2.013-4.163-5.875-7.157-10.491-7.931l-0.084-0.012z" />
<glyph unicode="&#xea60;" horiz-adv-x="1452" d="M971.129 674.102c-0.273 0.004-0.518 0.117-0.695 0.298v0c-1.42 1.347-3.344 2.176-5.462 2.176-0.526 0-1.041-0.051-1.538-0.149l0.050 0.008c-0.071-0.018-0.152-0.028-0.236-0.028-0.452 0-0.834 0.303-0.954 0.716l-0.002 0.007c-0.026 0.084-0.041 0.181-0.041 0.282 0 0.457 0.309 0.842 0.729 0.957l0.007 0.002c0.6 0.129 1.29 0.203 1.997 0.203 2.629 0 5.019-1.022 6.796-2.69l-0.005 0.005c0.179-0.187 0.288-0.44 0.288-0.72s-0.11-0.533-0.289-0.72v0c-0.167-0.178-0.389-0.303-0.639-0.347l-0.007-0.001z" />
<glyph unicode="&#xea61;" horiz-adv-x="1452" d="M937.322 670.28h-0.397c-0.369 0.166-0.621 0.53-0.621 0.953 0 0.139 0.027 0.272 0.077 0.394l-0.003-0.007c1.167 3.018 3.68 5.286 6.782 6.091l0.069 0.015c0.052 0.010 0.112 0.015 0.174 0.015 0.557 0 1.008-0.451 1.008-1.008 0-0.495-0.357-0.907-0.828-0.992l-0.006-0.001c-2.496-0.721-4.457-2.552-5.343-4.909l-0.018-0.055c-0.187-0.3-0.514-0.496-0.888-0.496-0.002 0-0.004 0-0.006 0v0z" />
<glyph unicode="&#xea62;" horiz-adv-x="1452" d="M1190.008 41.89c-0.977 0.005-1.835 0.514-2.327 1.28l-0.007 0.011c-0.256 0.288-0.412 0.669-0.412 1.087 0 0.216 0.042 0.423 0.118 0.612l-0.004-0.011c0.943 2.532 8.439 4.17 9.283 4.369 0.073 0.034 0.158 0.054 0.248 0.054s0.175-0.020 0.252-0.056l-0.004 0.002c0.046-0.086 0.073-0.189 0.073-0.298s-0.027-0.211-0.075-0.301l0.002 0.004c-1.44-2.383-4.319-6.454-7-6.553zM1195.668 47.946c-2.979-0.745-6.851-2.085-7.347-3.425 0 0 0-0.397 0-0.745 0.326-0.54 0.91-0.895 1.577-0.895 0.022 0 0.043 0 0.065 0.001h-0.003c1.489 0.050 3.624 1.936 5.709 5.064z" />
<glyph unicode="&#xea63;" horiz-adv-x="1452" d="M1194.427 47.996c-2.631 0-6.106 0.645-7.099 2.135-0.24 0.296-0.386 0.677-0.386 1.092s0.146 0.796 0.389 1.095l-0.003-0.003c0.458 0.613 1.173 1.014 1.981 1.042h0.004c3.028 0 7.198-4.12 7.397-4.269 0.024-0.074 0.037-0.16 0.037-0.248s-0.014-0.174-0.039-0.254l0.002 0.006c-0.065-0.175-0.212-0.306-0.394-0.347l-0.004-0.001c-0.555-0.131-1.202-0.22-1.866-0.248l-0.021-0.001zM1189.711 52.365v0c-0.506-0.020-0.951-0.267-1.238-0.641l-0.003-0.004c-0.397-0.546-0.298-0.844 0-1.043 1.658-1.103 3.695-1.76 5.886-1.76 0.568 0 1.126 0.044 1.671 0.129l-0.060-0.008c-1.66 1.652-3.792 2.83-6.177 3.313l-0.078 0.013z" />
<glyph unicode="&#xea64;" horiz-adv-x="1452" d="M1040.035-11.278c-0.141-0.008-0.306-0.013-0.472-0.013-1.667 0-3.22 0.486-4.526 1.324l0.033-0.020c-0.643 0.532-1.050 1.33-1.050 2.224 0 0.074 0.003 0.146 0.008 0.219l-0.001-0.010c-0.001 0.015-0.001 0.032-0.001 0.050 0 0.549 0.297 1.028 0.738 1.286l0.007 0.004c2.532 1.489 11.269-2.83 12.212-3.326 0.18-0.092 0.301-0.276 0.301-0.488 0-0.020-0.001-0.041-0.003-0.061v0.002s0-0.397-0.397-0.397c-2.050-0.483-4.411-0.771-6.834-0.794h-0.016zM1036.063-6.86c-0.141 0.043-0.304 0.067-0.472 0.067s-0.33-0.025-0.484-0.070l0.012 0.003c-0.178-0.092-0.298-0.275-0.298-0.486 0-0.004 0-0.007 0-0.011v0.001c-0.004-0.044-0.006-0.096-0.006-0.148 0-0.598 0.271-1.133 0.698-1.488l0.003-0.003c1.622-0.755 3.521-1.196 5.524-1.196 1.413 0 2.775 0.219 4.053 0.626l-0.095-0.026c-2.593 1.311-5.606 2.269-8.783 2.713l-0.153 0.017z" />
<glyph unicode="&#xea65;" horiz-adv-x="1452" d="M1046.588-10.534v0c-2.681 1.191-7.943 5.808-7.546 8.191 0 0.546 0.447 1.191 1.837 1.34h0.397c4.716 0 5.957-8.688 6.007-9.035 0.031-0.073 0.050-0.159 0.050-0.248s-0.018-0.175-0.051-0.252l0.002 0.004zM1041.028-1.945v0c-0.894 0-0.943-0.397-0.943-0.496-0.248-1.44 3.376-4.964 6.057-6.652-0.695 2.184-2.035 7.149-5.113 7.149z" />
<glyph unicode="&#xea66;" horiz-adv-x="1452" d="M964.725 669.585l-4.269 0.348s2.631-2.83 4.269-0.348z" />
<glyph unicode="&#xea67;" horiz-adv-x="1452" d="M983.342 571.24c-45.374-9.929-31.375 17.326-28.644 23.382l1.142 0.447c5.362 1.986 6.503 2.284 13.702 4.369 10.703 3.078 23.66 5.707 36.919 7.363l1.306 0.133 2.73 0.348c2.631 0.348 4.964 0.645 7.695 0.844 1.688 0 3.376 0.298 4.964 0.397l5.461 0.348c0.993-4.22 3.276-26.857-45.275-37.63z" />
<glyph unicode="&#xea68;" horiz-adv-x="1452" d="M1054.581 485.357l5.312-6.9c0.397-0.496 0-1.241-1.142-1.44l-88.614-17.276c-0.745 0-1.44 0-1.589 0.596l-2.234 7.397c0 0.546 0.397 1.092 1.241 1.241l85.536 16.68c0.144 0.049 0.31 0.077 0.482 0.077 0.386 0 0.739-0.142 1.009-0.377l-0.002 0.002z" />
</font>
</defs>
</svg>
